G04 #@! TF.GenerationSoftware,KiCad,Pcbnew,(2018-01-11 revision 6f2beeb)-master*
G04 #@! TF.CreationDate,2018-01-26T06:56:05-06:00*
G04 #@! TF.ProjectId,RPi-HAT-RGBW-LED-Controller,5250692D4841542D524742572D4C4544,rev?*
G04 #@! TF.SameCoordinates,Original*
G04 #@! TF.FileFunction,Soldermask,Top*
G04 #@! TF.FilePolarity,Negative*
%FSLAX46Y46*%
G04 Gerber Fmt 4.6, Leading zero omitted, Abs format (unit mm)*
G04 Created by KiCad (PCBNEW (2018-01-11 revision 6f2beeb)-master) date Friday, January 26, 2018 'AMt' 06:56:05 AM*
%MOMM*%
%LPD*%
G01*
G04 APERTURE LIST*
%ADD10R,2.500000X4.000000*%
%ADD11C,3.175000*%
%ADD12R,2.400000X1.500000*%
%ADD13R,1.050000X1.500000*%
%ADD14R,2.500000X1.000000*%
%ADD15R,0.500000X0.900000*%
%ADD16R,0.800000X0.750000*%
%ADD17R,3.500000X2.000000*%
%ADD18R,3.100000X2.600000*%
%ADD19R,0.600000X1.550000*%
%ADD20R,0.900000X0.500000*%
%ADD21C,6.200000*%
%ADD22R,1.727200X1.727200*%
%ADD23O,1.727200X1.727200*%
%ADD24R,0.750000X0.800000*%
%ADD25R,0.400000X1.100000*%
%ADD26R,1.700000X0.900000*%
%ADD27C,1.778000*%
%ADD28R,0.450000X1.450000*%
G04 APERTURE END LIST*
D10*
X48895000Y-39434000D03*
X48895000Y-47434000D03*
D11*
X77724000Y-79375000D03*
X82804000Y-79375000D03*
X34290000Y-79375000D03*
X39370000Y-79375000D03*
X48895000Y-79375000D03*
X53975000Y-79375000D03*
X63500000Y-79375000D03*
X68580000Y-79375000D03*
X29210000Y-42545000D03*
X29210000Y-47625000D03*
D12*
X79615400Y-62230000D03*
D13*
X77240400Y-62230000D03*
D14*
X81280000Y-59577100D03*
X81280000Y-56577100D03*
D15*
X74700000Y-52705000D03*
X76200000Y-52705000D03*
D16*
X77470000Y-52705000D03*
X78970000Y-52705000D03*
D17*
X75996800Y-65527800D03*
X75996800Y-74527800D03*
D18*
X76835000Y-57150000D03*
D19*
X78740000Y-54450000D03*
X77470000Y-54450000D03*
X76200000Y-54450000D03*
X74930000Y-54450000D03*
X74930000Y-59850000D03*
X76200000Y-59850000D03*
X77470000Y-59850000D03*
X78740000Y-59850000D03*
D20*
X73533000Y-58350000D03*
X73533000Y-59850000D03*
D16*
X62865000Y-52705000D03*
X64365000Y-52705000D03*
D15*
X60095000Y-52705000D03*
X61595000Y-52705000D03*
D14*
X66675000Y-59577100D03*
X66675000Y-56577100D03*
D12*
X65010400Y-62230000D03*
D13*
X62635400Y-62230000D03*
D20*
X58928000Y-58350000D03*
X58928000Y-59850000D03*
D18*
X62230000Y-57150000D03*
D19*
X64135000Y-54450000D03*
X62865000Y-54450000D03*
X61595000Y-54450000D03*
X60325000Y-54450000D03*
X60325000Y-59850000D03*
X61595000Y-59850000D03*
X62865000Y-59850000D03*
X64135000Y-59850000D03*
D16*
X48260000Y-52705000D03*
X49760000Y-52705000D03*
D15*
X45490000Y-52705000D03*
X46990000Y-52705000D03*
D14*
X52070000Y-59577100D03*
X52070000Y-56577100D03*
D12*
X50405400Y-62230000D03*
D13*
X48030400Y-62230000D03*
D20*
X44323000Y-58350000D03*
X44323000Y-59850000D03*
D18*
X47625000Y-57150000D03*
D19*
X49530000Y-54450000D03*
X48260000Y-54450000D03*
X46990000Y-54450000D03*
X45720000Y-54450000D03*
X45720000Y-59850000D03*
X46990000Y-59850000D03*
X48260000Y-59850000D03*
X49530000Y-59850000D03*
D21*
X87500000Y-33500000D03*
X87500000Y-82500000D03*
X29500000Y-82500000D03*
X29500000Y-33500000D03*
D22*
X34370000Y-34770000D03*
D23*
X34370000Y-32230000D03*
X36910000Y-34770000D03*
X36910000Y-32230000D03*
X39450000Y-34770000D03*
X39450000Y-32230000D03*
X41990000Y-34770000D03*
X41990000Y-32230000D03*
X44530000Y-34770000D03*
X44530000Y-32230000D03*
X47070000Y-34770000D03*
X47070000Y-32230000D03*
X49610000Y-34770000D03*
X49610000Y-32230000D03*
X52150000Y-34770000D03*
X52150000Y-32230000D03*
X54690000Y-34770000D03*
X54690000Y-32230000D03*
X57230000Y-34770000D03*
X57230000Y-32230000D03*
X59770000Y-34770000D03*
X59770000Y-32230000D03*
X62310000Y-34770000D03*
X62310000Y-32230000D03*
X64850000Y-34770000D03*
X64850000Y-32230000D03*
X67390000Y-34770000D03*
X67390000Y-32230000D03*
X69930000Y-34770000D03*
X69930000Y-32230000D03*
X72470000Y-34770000D03*
X72470000Y-32230000D03*
X75010000Y-34770000D03*
X75010000Y-32230000D03*
X77550000Y-34770000D03*
X77550000Y-32230000D03*
X80090000Y-34770000D03*
X80090000Y-32230000D03*
X82630000Y-34770000D03*
X82630000Y-32230000D03*
D24*
X74163182Y-44692000D03*
X74163182Y-43192000D03*
D25*
X76034182Y-46736000D03*
X76684182Y-46736000D03*
X77334182Y-46736000D03*
X77984182Y-46736000D03*
X78634182Y-46736000D03*
X79284182Y-46736000D03*
X79934182Y-46736000D03*
X80584182Y-46736000D03*
X81234182Y-46736000D03*
X81884182Y-46736000D03*
X82534182Y-46736000D03*
X83184182Y-46736000D03*
X83834182Y-46736000D03*
X84484182Y-46736000D03*
X84484182Y-41036000D03*
X83834182Y-41036000D03*
X83184182Y-41036000D03*
X82534182Y-41036000D03*
X81884182Y-41036000D03*
X81234182Y-41036000D03*
X80584182Y-41036000D03*
X79934182Y-41036000D03*
X79284182Y-41036000D03*
X78634182Y-41036000D03*
X77984182Y-41036000D03*
X77334182Y-41036000D03*
X76684182Y-41036000D03*
X76034182Y-41036000D03*
D26*
X88265000Y-43610000D03*
X88265000Y-40210000D03*
D16*
X33655000Y-52705000D03*
X35155000Y-52705000D03*
D14*
X37465000Y-59577100D03*
X37465000Y-56577100D03*
D20*
X29718000Y-58350000D03*
X29718000Y-59850000D03*
D15*
X30885000Y-52705000D03*
X32385000Y-52705000D03*
D12*
X35800400Y-62230000D03*
D13*
X33425400Y-62230000D03*
D18*
X33020000Y-57150000D03*
D19*
X34925000Y-54450000D03*
X33655000Y-54450000D03*
X32385000Y-54450000D03*
X31115000Y-54450000D03*
X31115000Y-59850000D03*
X32385000Y-59850000D03*
X33655000Y-59850000D03*
X34925000Y-59850000D03*
D17*
X32181800Y-65527800D03*
X32181800Y-74527800D03*
X46786800Y-65527800D03*
X46786800Y-74527800D03*
X61391800Y-65527800D03*
X61391800Y-74527800D03*
D27*
X57150000Y-46990000D03*
X57150000Y-44450000D03*
X57150000Y-41910000D03*
D10*
X37465000Y-39434000D03*
X37465000Y-47434000D03*
D16*
X88634000Y-51943000D03*
X87134000Y-51943000D03*
D20*
X90170000Y-47256000D03*
X90170000Y-48756000D03*
D28*
X88605000Y-50206000D03*
X87955000Y-50206000D03*
X87305000Y-50206000D03*
X86655000Y-50206000D03*
X86655000Y-45806000D03*
X87305000Y-45806000D03*
X87955000Y-45806000D03*
X88605000Y-45806000D03*
M02*
