G04 #@! TF.GenerationSoftware,KiCad,Pcbnew,(2018-01-11 revision 6f2beeb)-master*
G04 #@! TF.CreationDate,2018-01-26T06:56:05-06:00*
G04 #@! TF.ProjectId,RPi-HAT-RGBW-LED-Controller,5250692D4841542D524742572D4C4544,rev?*
G04 #@! TF.SameCoordinates,Original*
G04 #@! TF.FileFunction,Copper,L2,Bot,Signal*
G04 #@! TF.FilePolarity,Positive*
%FSLAX46Y46*%
G04 Gerber Fmt 4.6, Leading zero omitted, Abs format (unit mm)*
G04 Created by KiCad (PCBNEW (2018-01-11 revision 6f2beeb)-master) date Friday, January 26, 2018 'AMt' 06:56:05 AM*
%MOMM*%
%LPD*%
G01*
G04 APERTURE LIST*
%ADD10C,3.175000*%
%ADD11R,4.500000X2.950000*%
%ADD12C,0.600000*%
%ADD13R,1.550000X0.600000*%
%ADD14R,0.800000X0.750000*%
%ADD15R,1.727200X1.727200*%
%ADD16O,1.727200X1.727200*%
%ADD17R,0.500000X0.900000*%
%ADD18R,0.800000X0.900000*%
%ADD19R,0.400000X0.650000*%
%ADD20R,0.750000X0.800000*%
%ADD21R,2.000000X1.500000*%
%ADD22C,1.778000*%
%ADD23C,0.685800*%
%ADD24C,0.762000*%
%ADD25C,0.508000*%
%ADD26C,1.016000*%
%ADD27C,0.431800*%
%ADD28C,0.254000*%
%ADD29C,1.270000*%
%ADD30C,1.524000*%
%ADD31C,2.540000*%
%ADD32C,3.175000*%
%ADD33C,1.016000*%
%ADD34C,4.064000*%
%ADD35C,4.191000*%
%ADD36C,0.152400*%
%ADD37C,0.508000*%
%ADD38C,0.228600*%
G04 APERTURE END LIST*
D10*
X77724000Y-79375000D03*
X82804000Y-79375000D03*
X34290000Y-79375000D03*
X39370000Y-79375000D03*
X48895000Y-79375000D03*
X53975000Y-79375000D03*
X63500000Y-79375000D03*
X68580000Y-79375000D03*
X29210000Y-42545000D03*
X29210000Y-47625000D03*
D11*
X76835000Y-57150000D03*
D12*
X78635000Y-56550000D03*
X77435000Y-56550000D03*
X77435000Y-57750000D03*
X78635000Y-57750000D03*
X75035000Y-56550000D03*
X76135000Y-56550000D03*
X76135000Y-57750000D03*
X75035000Y-57750000D03*
D11*
X62230000Y-57150000D03*
D12*
X64030000Y-56550000D03*
X62830000Y-56550000D03*
X62830000Y-57750000D03*
X64030000Y-57750000D03*
X60430000Y-56550000D03*
X61530000Y-56550000D03*
X61530000Y-57750000D03*
X60430000Y-57750000D03*
D11*
X47625000Y-57150000D03*
D12*
X49425000Y-56550000D03*
X48225000Y-56550000D03*
X48225000Y-57750000D03*
X49425000Y-57750000D03*
X45825000Y-56550000D03*
X46925000Y-56550000D03*
X46925000Y-57750000D03*
X45825000Y-57750000D03*
D13*
X79088000Y-42406736D03*
X79088000Y-41136736D03*
X79088000Y-39866736D03*
X79088000Y-38596736D03*
X84488000Y-38596736D03*
X84488000Y-39866736D03*
X84488000Y-41136736D03*
X84488000Y-42406736D03*
D14*
X82538000Y-44069000D03*
X81038000Y-44069000D03*
D15*
X34370000Y-34770000D03*
D16*
X34370000Y-32230000D03*
X36910000Y-34770000D03*
X36910000Y-32230000D03*
X39450000Y-34770000D03*
X39450000Y-32230000D03*
X41990000Y-34770000D03*
X41990000Y-32230000D03*
X44530000Y-34770000D03*
X44530000Y-32230000D03*
X47070000Y-34770000D03*
X47070000Y-32230000D03*
X49610000Y-34770000D03*
X49610000Y-32230000D03*
X52150000Y-34770000D03*
X52150000Y-32230000D03*
X54690000Y-34770000D03*
X54690000Y-32230000D03*
X57230000Y-34770000D03*
X57230000Y-32230000D03*
X59770000Y-34770000D03*
X59770000Y-32230000D03*
X62310000Y-34770000D03*
X62310000Y-32230000D03*
X64850000Y-34770000D03*
X64850000Y-32230000D03*
X67390000Y-34770000D03*
X67390000Y-32230000D03*
X69930000Y-34770000D03*
X69930000Y-32230000D03*
X72470000Y-34770000D03*
X72470000Y-32230000D03*
X75010000Y-34770000D03*
X75010000Y-32230000D03*
X77550000Y-34770000D03*
X77550000Y-32230000D03*
X80090000Y-34770000D03*
X80090000Y-32230000D03*
X82630000Y-34770000D03*
X82630000Y-32230000D03*
D17*
X88253000Y-42545000D03*
X86753000Y-42545000D03*
X88253000Y-38596736D03*
X86753000Y-38596736D03*
X88253000Y-40513000D03*
X86753000Y-40513000D03*
D18*
X61817000Y-43921000D03*
X59917000Y-43921000D03*
X60867000Y-41921000D03*
D19*
X60217000Y-45471000D03*
X61517000Y-45471000D03*
X60867000Y-47371000D03*
X60867000Y-45471000D03*
X61517000Y-47371000D03*
X60217000Y-47371000D03*
D17*
X63385000Y-47371000D03*
X64885000Y-47371000D03*
X63385000Y-45466000D03*
X64885000Y-45466000D03*
D11*
X33020000Y-57150000D03*
D12*
X34820000Y-56550000D03*
X33620000Y-56550000D03*
X33620000Y-57750000D03*
X34820000Y-57750000D03*
X31220000Y-56550000D03*
X32320000Y-56550000D03*
X32320000Y-57750000D03*
X31220000Y-57750000D03*
D20*
X54864000Y-43930000D03*
X54864000Y-42430000D03*
D21*
X41835000Y-42535000D03*
X41835000Y-47635000D03*
X33095000Y-47635000D03*
X33095000Y-42535000D03*
D22*
X57150000Y-46990000D03*
X57150000Y-44450000D03*
X57150000Y-41910000D03*
D23*
X88646000Y-48260000D03*
D24*
X83820000Y-44069000D03*
D23*
X86655000Y-47498000D03*
D24*
X44450000Y-43942000D03*
X44450000Y-42926000D03*
X44450000Y-41910000D03*
D25*
X77470000Y-42406736D03*
D24*
X72898000Y-44692000D03*
D25*
X89662000Y-41402000D03*
D24*
X45466000Y-43942000D03*
X45466000Y-42926000D03*
X45466000Y-41910000D03*
X46482000Y-41910000D03*
X46482000Y-42926000D03*
X46482000Y-43942000D03*
X47498000Y-43942000D03*
X47498000Y-42926000D03*
X47498000Y-41910000D03*
D25*
X85725000Y-43610000D03*
X82804000Y-37465000D03*
X76708000Y-37465000D03*
X81661000Y-36830000D03*
D24*
X36576000Y-44704000D03*
X37592000Y-44704000D03*
X38608000Y-44704000D03*
X39624000Y-44704000D03*
X39624000Y-43688000D03*
X38608000Y-43688000D03*
X37592000Y-43688000D03*
X36576000Y-43688000D03*
X36576000Y-42672000D03*
X37592000Y-42672000D03*
X38608000Y-42672000D03*
X39624000Y-42672000D03*
D25*
X63500000Y-36068000D03*
X72390000Y-38862000D03*
X58928000Y-38100000D03*
X52070000Y-37084000D03*
X42672000Y-37084000D03*
X75692000Y-36830000D03*
D26*
X59055000Y-40132000D03*
X59055000Y-43307000D03*
D24*
X81534000Y-62738000D03*
X82550000Y-62738000D03*
X83566000Y-62738000D03*
X84582000Y-62738000D03*
X84582000Y-61722000D03*
X83566000Y-61722000D03*
X82550000Y-61722000D03*
X81534000Y-61722000D03*
X52197000Y-62738000D03*
X53213000Y-62738000D03*
X54229000Y-62738000D03*
X55245000Y-62738000D03*
X55245000Y-61722000D03*
X54229000Y-61722000D03*
X53213000Y-61722000D03*
X52197000Y-61722000D03*
X66802000Y-62738000D03*
X67818000Y-62738000D03*
X68834000Y-62738000D03*
X69850000Y-62738000D03*
X69850000Y-61722000D03*
X68834000Y-61722000D03*
X67818000Y-61722000D03*
X66802000Y-61722000D03*
X37592000Y-62738000D03*
X38608000Y-62738000D03*
X39624000Y-62738000D03*
X40640000Y-62738000D03*
X40640000Y-61722000D03*
X39624000Y-61722000D03*
X38608000Y-61722000D03*
X37592000Y-61722000D03*
D25*
X43307000Y-30734000D03*
D27*
X88646000Y-48260000D02*
X88253000Y-47867000D01*
X88253000Y-47867000D02*
X88253000Y-42545000D01*
D28*
X84488000Y-42406736D02*
X84488000Y-43162434D01*
X84488000Y-43162434D02*
X85468967Y-44143401D01*
X85468967Y-44143401D02*
X86854599Y-44143401D01*
X86854599Y-44143401D02*
X88253000Y-42745000D01*
X88253000Y-42745000D02*
X88253000Y-42545000D01*
X88253000Y-40513000D02*
X88253000Y-42545000D01*
X88253000Y-38596736D02*
X88253000Y-40513000D01*
D27*
X82538000Y-44069000D02*
X83820000Y-44069000D01*
X84488000Y-42406736D02*
X84200264Y-42406736D01*
X84200264Y-42406736D02*
X82538000Y-44069000D01*
D28*
X44450000Y-42926000D02*
X44450000Y-43942000D01*
D29*
X54864000Y-43930000D02*
X54864000Y-44450000D01*
X54864000Y-43930000D02*
X54114000Y-43930000D01*
X54864000Y-43930000D02*
X56630000Y-43930000D01*
D30*
X56630000Y-43930000D02*
X57150000Y-44450000D01*
D31*
X57150000Y-44450000D02*
X56134000Y-44450000D01*
D28*
X45466000Y-41910000D02*
X45466000Y-42926000D01*
X46482000Y-42926000D02*
X46482000Y-41910000D01*
X47498000Y-43942000D02*
X46482000Y-43942000D01*
X47498000Y-41910000D02*
X47498000Y-42926000D01*
D32*
X41835000Y-47635000D02*
X43805000Y-47635000D01*
D28*
X85725000Y-43610000D02*
X85725000Y-43191264D01*
X85725000Y-43191264D02*
X86371264Y-42545000D01*
X84488000Y-41136736D02*
X84963000Y-41136736D01*
X84963000Y-41136736D02*
X86371264Y-42545000D01*
X86371264Y-42545000D02*
X86753000Y-42545000D01*
X84488000Y-38596736D02*
X83935736Y-38596736D01*
X83935736Y-38596736D02*
X82804000Y-37465000D01*
X70085000Y-37465000D02*
X76708000Y-37465000D01*
X67390000Y-34770000D02*
X70085000Y-37465000D01*
X81661000Y-36830000D02*
X81661000Y-37514736D01*
X81661000Y-37514736D02*
X84013000Y-39866736D01*
X84013000Y-39866736D02*
X84488000Y-39866736D01*
X84488000Y-39866736D02*
X85517000Y-39866736D01*
X85517000Y-39866736D02*
X86163264Y-40513000D01*
X86163264Y-40513000D02*
X86753000Y-40513000D01*
D33*
X59055000Y-43307000D02*
X59303000Y-43307000D01*
X59303000Y-43307000D02*
X59917000Y-43921000D01*
D29*
X58420000Y-40132000D02*
X59055000Y-40132000D01*
D27*
X35678099Y-36059099D02*
X35787297Y-36059099D01*
X35787297Y-36059099D02*
X36050198Y-36322000D01*
D29*
X47244000Y-39370000D02*
X41012099Y-39370000D01*
X41012099Y-39370000D02*
X37964099Y-36322000D01*
X48006000Y-40132000D02*
X47244000Y-39370000D01*
X58420000Y-40132000D02*
X48006000Y-40132000D01*
D34*
X28321000Y-54780580D02*
X28321000Y-52705000D01*
X28321000Y-52705000D02*
X28956000Y-52070000D01*
D35*
X28956000Y-52070000D02*
X35560000Y-52070000D01*
X35560000Y-52070000D02*
X37592000Y-50038000D01*
X37592000Y-50038000D02*
X37592000Y-43688000D01*
D28*
X40640000Y-42672000D02*
X41698000Y-42672000D01*
X39624000Y-42672000D02*
X40640000Y-42672000D01*
X41698000Y-42672000D02*
X41835000Y-42535000D01*
X37592000Y-42672000D02*
X36576000Y-42672000D01*
X38608000Y-42672000D02*
X37592000Y-42672000D01*
X39624000Y-42672000D02*
X38608000Y-42672000D01*
X39624000Y-43688000D02*
X39624000Y-44704000D01*
X39624000Y-42672000D02*
X39624000Y-43688000D01*
X38608000Y-42672000D02*
X38608000Y-43688000D01*
X38608000Y-43688000D02*
X38608000Y-44704000D01*
X37592000Y-43688000D02*
X37592000Y-44704000D01*
X37592000Y-42672000D02*
X37592000Y-43688000D01*
X36576000Y-44704000D02*
X36576000Y-43688000D01*
X36576000Y-42672000D02*
X36576000Y-43688000D01*
X39624000Y-44704000D02*
X38608000Y-44704000D01*
X37592000Y-43688000D02*
X38608000Y-43688000D01*
D31*
X29220000Y-47635000D02*
X29210000Y-47625000D01*
X29220000Y-42535000D02*
X29210000Y-42545000D01*
D29*
X57150000Y-41910000D02*
X55384000Y-41910000D01*
X55384000Y-41910000D02*
X54864000Y-42430000D01*
D36*
X72390000Y-38862000D02*
X66294000Y-38862000D01*
X66294000Y-38862000D02*
X63500000Y-36068000D01*
X58928000Y-38100000D02*
X53086000Y-38100000D01*
X53086000Y-38100000D02*
X52070000Y-37084000D01*
X41764000Y-37084000D02*
X42672000Y-37084000D01*
X41764000Y-37084000D02*
X39450000Y-34770000D01*
D28*
X86753000Y-38596736D02*
X86753000Y-38396736D01*
X84488000Y-38596736D02*
X86753000Y-38596736D01*
X75692000Y-36830000D02*
X70298358Y-36830000D01*
X68253599Y-33093599D02*
X67390000Y-32230000D01*
X70298358Y-36830000D02*
X68533001Y-35064643D01*
X68533001Y-35064643D02*
X68533001Y-33373001D01*
X68533001Y-33373001D02*
X68253599Y-33093599D01*
X86753000Y-40313000D02*
X86753000Y-40513000D01*
D29*
X34370000Y-32230000D02*
X36910000Y-32230000D01*
D33*
X38218099Y-36068000D02*
X37964099Y-36322000D01*
X37964099Y-36322000D02*
X36050198Y-36322000D01*
D27*
X34370000Y-32230000D02*
X35678099Y-33538099D01*
X35678099Y-33538099D02*
X35678099Y-36059099D01*
X35678099Y-36059099D02*
X35687000Y-36068000D01*
X38218099Y-33538099D02*
X38218099Y-36068000D01*
X36910000Y-32230000D02*
X38218099Y-33538099D01*
X61517000Y-47371000D02*
X61517000Y-47908942D01*
X61517000Y-47908942D02*
X61361641Y-48064301D01*
X61361641Y-48064301D02*
X59722359Y-48064301D01*
X59722359Y-48064301D02*
X59563000Y-47904942D01*
X59563000Y-47904942D02*
X59563000Y-44760861D01*
X59563000Y-44760861D02*
X59917000Y-44406861D01*
X59917000Y-44406861D02*
X59917000Y-43921000D01*
X62364000Y-45471000D02*
X62369000Y-45466000D01*
X62369000Y-45466000D02*
X63385000Y-45466000D01*
X61517000Y-45471000D02*
X62364000Y-45471000D01*
X61517000Y-45471000D02*
X61517000Y-44221000D01*
X61517000Y-44221000D02*
X61817000Y-43921000D01*
X63385000Y-47371000D02*
X63385000Y-46489200D01*
X63385000Y-46489200D02*
X63250800Y-46355000D01*
X63250800Y-46355000D02*
X60867000Y-46355000D01*
X60867000Y-45471000D02*
X60867000Y-46355000D01*
X60867000Y-46355000D02*
X60867000Y-47371000D01*
X60867000Y-47371000D02*
X60217000Y-47371000D01*
D34*
X28321000Y-54780580D02*
X28321000Y-61595000D01*
D37*
X82550000Y-62738000D02*
X81534000Y-62738000D01*
X84582000Y-62738000D02*
X83566000Y-62738000D01*
X83566000Y-61722000D02*
X84582000Y-61722000D01*
X81534000Y-61722000D02*
X82550000Y-61722000D01*
X53213000Y-62738000D02*
X52197000Y-62738000D01*
X55245000Y-62738000D02*
X54229000Y-62738000D01*
X54229000Y-61722000D02*
X55245000Y-61722000D01*
X52197000Y-61722000D02*
X53213000Y-61722000D01*
X68834000Y-62738000D02*
X67818000Y-62738000D01*
X69850000Y-61722000D02*
X69850000Y-62738000D01*
X67818000Y-61722000D02*
X68834000Y-61722000D01*
X38608000Y-62738000D02*
X37592000Y-62738000D01*
X40640000Y-62738000D02*
X39624000Y-62738000D01*
X39624000Y-61722000D02*
X40640000Y-61722000D01*
X37592000Y-61722000D02*
X38608000Y-61722000D01*
D29*
X57150000Y-41910000D02*
X60856000Y-41910000D01*
X60856000Y-41910000D02*
X60867000Y-41921000D01*
D27*
X60217000Y-45471000D02*
X60217000Y-44933058D01*
X60217000Y-44933058D02*
X60372359Y-44777699D01*
X60372359Y-44777699D02*
X60573243Y-44777699D01*
X60573243Y-44777699D02*
X60867000Y-44483942D01*
X60867000Y-44483942D02*
X60867000Y-42802800D01*
X60867000Y-42802800D02*
X60867000Y-41921000D01*
D36*
X43307000Y-30734000D02*
X43307000Y-33453000D01*
X43307000Y-33453000D02*
X41990000Y-34770000D01*
D38*
G36*
X42759036Y-30432754D02*
X42710959Y-30544925D01*
X42685586Y-30664297D01*
X42683882Y-30786325D01*
X42705912Y-30906359D01*
X42750838Y-31019828D01*
X42816948Y-31122411D01*
X42862500Y-31169581D01*
X42862500Y-31354660D01*
X42678870Y-31202748D01*
X42467380Y-31088396D01*
X42237708Y-31017300D01*
X41998600Y-30992169D01*
X41759165Y-31013959D01*
X41528522Y-31081841D01*
X41315457Y-31193229D01*
X41128085Y-31343880D01*
X40973543Y-31528056D01*
X40857717Y-31738742D01*
X40785020Y-31967913D01*
X40758220Y-32206839D01*
X40758100Y-32224039D01*
X40758100Y-32235961D01*
X40781561Y-32475238D01*
X40851052Y-32705402D01*
X40963924Y-32917684D01*
X41115880Y-33104000D01*
X41301130Y-33257252D01*
X41512620Y-33371604D01*
X41742292Y-33442700D01*
X41981400Y-33467831D01*
X42220835Y-33446041D01*
X42451478Y-33378159D01*
X42664543Y-33266771D01*
X42851915Y-33116120D01*
X42862500Y-33103505D01*
X42862500Y-33268882D01*
X42490490Y-33640892D01*
X42467380Y-33628396D01*
X42237708Y-33557300D01*
X41998600Y-33532169D01*
X41759165Y-33553959D01*
X41528522Y-33621841D01*
X41315457Y-33733229D01*
X41128085Y-33883880D01*
X40973543Y-34068056D01*
X40857717Y-34278742D01*
X40785020Y-34507913D01*
X40758220Y-34746839D01*
X40758100Y-34764039D01*
X40758100Y-34775961D01*
X40781561Y-35015238D01*
X40851052Y-35245402D01*
X40963924Y-35457684D01*
X41115880Y-35644000D01*
X41301130Y-35797252D01*
X41512620Y-35911604D01*
X41742292Y-35982700D01*
X41981400Y-36007831D01*
X42220835Y-35986041D01*
X42451478Y-35918159D01*
X42664543Y-35806771D01*
X42851915Y-35656120D01*
X43006457Y-35471944D01*
X43122283Y-35261258D01*
X43194980Y-35032087D01*
X43201355Y-34975245D01*
X43315318Y-34975245D01*
X43378699Y-35208274D01*
X43486324Y-35424460D01*
X43634057Y-35615496D01*
X43816220Y-35774040D01*
X44025814Y-35893999D01*
X44254783Y-35970763D01*
X44324755Y-35984682D01*
X44517300Y-35909754D01*
X44517300Y-34782700D01*
X44542700Y-34782700D01*
X44542700Y-35909754D01*
X44735245Y-35984682D01*
X44805217Y-35970763D01*
X45034186Y-35893999D01*
X45243780Y-35774040D01*
X45425943Y-35615496D01*
X45573676Y-35424460D01*
X45681301Y-35208274D01*
X45744682Y-34975245D01*
X45669760Y-34782700D01*
X44542700Y-34782700D01*
X44517300Y-34782700D01*
X43390240Y-34782700D01*
X43315318Y-34975245D01*
X43201355Y-34975245D01*
X43221780Y-34793161D01*
X43221900Y-34775961D01*
X43221900Y-34764039D01*
X45838100Y-34764039D01*
X45838100Y-34775961D01*
X45861561Y-35015238D01*
X45931052Y-35245402D01*
X46043924Y-35457684D01*
X46195880Y-35644000D01*
X46381130Y-35797252D01*
X46592620Y-35911604D01*
X46822292Y-35982700D01*
X47061400Y-36007831D01*
X47300835Y-35986041D01*
X47531478Y-35918159D01*
X47744543Y-35806771D01*
X47931915Y-35656120D01*
X48086457Y-35471944D01*
X48202283Y-35261258D01*
X48274980Y-35032087D01*
X48301780Y-34793161D01*
X48301900Y-34775961D01*
X48301900Y-34764039D01*
X48378100Y-34764039D01*
X48378100Y-34775961D01*
X48401561Y-35015238D01*
X48471052Y-35245402D01*
X48583924Y-35457684D01*
X48735880Y-35644000D01*
X48921130Y-35797252D01*
X49132620Y-35911604D01*
X49362292Y-35982700D01*
X49601400Y-36007831D01*
X49840835Y-35986041D01*
X50071478Y-35918159D01*
X50284543Y-35806771D01*
X50471915Y-35656120D01*
X50626457Y-35471944D01*
X50742283Y-35261258D01*
X50814980Y-35032087D01*
X50841780Y-34793161D01*
X50841900Y-34775961D01*
X50841900Y-34764039D01*
X50918100Y-34764039D01*
X50918100Y-34775961D01*
X50941561Y-35015238D01*
X51011052Y-35245402D01*
X51123924Y-35457684D01*
X51275880Y-35644000D01*
X51461130Y-35797252D01*
X51672620Y-35911604D01*
X51902292Y-35982700D01*
X52141400Y-36007831D01*
X52380835Y-35986041D01*
X52611478Y-35918159D01*
X52824543Y-35806771D01*
X53011915Y-35656120D01*
X53166457Y-35471944D01*
X53282283Y-35261258D01*
X53354980Y-35032087D01*
X53381780Y-34793161D01*
X53381900Y-34775961D01*
X53381900Y-34764039D01*
X53458100Y-34764039D01*
X53458100Y-34775961D01*
X53481561Y-35015238D01*
X53551052Y-35245402D01*
X53663924Y-35457684D01*
X53815880Y-35644000D01*
X54001130Y-35797252D01*
X54212620Y-35911604D01*
X54442292Y-35982700D01*
X54681400Y-36007831D01*
X54920835Y-35986041D01*
X55151478Y-35918159D01*
X55364543Y-35806771D01*
X55551915Y-35656120D01*
X55706457Y-35471944D01*
X55822283Y-35261258D01*
X55894980Y-35032087D01*
X55921780Y-34793161D01*
X55921900Y-34775961D01*
X55921900Y-34764039D01*
X55998100Y-34764039D01*
X55998100Y-34775961D01*
X56021561Y-35015238D01*
X56091052Y-35245402D01*
X56203924Y-35457684D01*
X56355880Y-35644000D01*
X56541130Y-35797252D01*
X56752620Y-35911604D01*
X56982292Y-35982700D01*
X57221400Y-36007831D01*
X57460835Y-35986041D01*
X57691478Y-35918159D01*
X57904543Y-35806771D01*
X58091915Y-35656120D01*
X58246457Y-35471944D01*
X58362283Y-35261258D01*
X58434980Y-35032087D01*
X58461780Y-34793161D01*
X58461900Y-34775961D01*
X58461900Y-34764039D01*
X58538100Y-34764039D01*
X58538100Y-34775961D01*
X58561561Y-35015238D01*
X58631052Y-35245402D01*
X58743924Y-35457684D01*
X58895880Y-35644000D01*
X59081130Y-35797252D01*
X59292620Y-35911604D01*
X59522292Y-35982700D01*
X59761400Y-36007831D01*
X60000835Y-35986041D01*
X60231478Y-35918159D01*
X60444543Y-35806771D01*
X60631915Y-35656120D01*
X60786457Y-35471944D01*
X60902283Y-35261258D01*
X60974980Y-35032087D01*
X61001780Y-34793161D01*
X61001900Y-34775961D01*
X61001900Y-34764039D01*
X61078100Y-34764039D01*
X61078100Y-34775961D01*
X61101561Y-35015238D01*
X61171052Y-35245402D01*
X61283924Y-35457684D01*
X61435880Y-35644000D01*
X61621130Y-35797252D01*
X61832620Y-35911604D01*
X62062292Y-35982700D01*
X62301400Y-36007831D01*
X62540835Y-35986041D01*
X62771478Y-35918159D01*
X62920544Y-35840229D01*
X62903959Y-35878925D01*
X62878586Y-35998297D01*
X62876882Y-36120325D01*
X62898912Y-36240359D01*
X62943838Y-36353828D01*
X63009948Y-36456411D01*
X63094723Y-36544198D01*
X63194936Y-36613848D01*
X63306768Y-36662706D01*
X63425961Y-36688912D01*
X63493713Y-36690331D01*
X65979691Y-39176309D01*
X66011451Y-39202397D01*
X66042872Y-39228763D01*
X66044918Y-39229888D01*
X66046726Y-39231373D01*
X66082958Y-39250800D01*
X66118893Y-39270556D01*
X66121118Y-39271262D01*
X66123181Y-39272368D01*
X66162468Y-39284379D01*
X66201583Y-39296787D01*
X66203907Y-39297048D01*
X66206142Y-39297731D01*
X66246960Y-39301877D01*
X66287794Y-39306457D01*
X66292367Y-39306489D01*
X66292449Y-39306497D01*
X66292525Y-39306490D01*
X66294000Y-39306500D01*
X71954113Y-39306500D01*
X71984723Y-39338198D01*
X72084936Y-39407848D01*
X72196768Y-39456706D01*
X72315961Y-39482912D01*
X72437973Y-39485468D01*
X72558159Y-39464276D01*
X72671939Y-39420144D01*
X72774980Y-39354752D01*
X72863357Y-39270591D01*
X72933705Y-39170867D01*
X72983343Y-39059379D01*
X73010380Y-38940372D01*
X73012327Y-38800980D01*
X72992631Y-38701511D01*
X77944700Y-38701511D01*
X77944700Y-38933011D01*
X77958854Y-39004166D01*
X77986617Y-39071192D01*
X78026923Y-39131514D01*
X78078223Y-39182814D01*
X78138545Y-39223119D01*
X78159348Y-39231736D01*
X78138545Y-39240353D01*
X78078223Y-39280658D01*
X78026923Y-39331958D01*
X77986617Y-39392280D01*
X77958854Y-39459306D01*
X77944700Y-39530461D01*
X77944700Y-39761961D01*
X78036775Y-39854036D01*
X79075300Y-39854036D01*
X79075300Y-39290511D01*
X79016525Y-39231736D01*
X79075300Y-39172961D01*
X79075300Y-38609436D01*
X79100700Y-38609436D01*
X79100700Y-39172961D01*
X79159475Y-39231736D01*
X79100700Y-39290511D01*
X79100700Y-39854036D01*
X80139225Y-39854036D01*
X80231300Y-39761961D01*
X80231300Y-39530461D01*
X80217146Y-39459306D01*
X80189383Y-39392280D01*
X80149077Y-39331958D01*
X80097777Y-39280658D01*
X80037455Y-39240353D01*
X80016652Y-39231736D01*
X80037455Y-39223119D01*
X80097777Y-39182814D01*
X80149077Y-39131514D01*
X80189383Y-39071192D01*
X80217146Y-39004166D01*
X80231300Y-38933011D01*
X80231300Y-38701511D01*
X80139225Y-38609436D01*
X79100700Y-38609436D01*
X79075300Y-38609436D01*
X78036775Y-38609436D01*
X77944700Y-38701511D01*
X72992631Y-38701511D01*
X72988622Y-38681265D01*
X72942117Y-38568434D01*
X72874581Y-38466785D01*
X72788588Y-38380190D01*
X72687413Y-38311946D01*
X72574909Y-38264654D01*
X72554483Y-38260461D01*
X77944700Y-38260461D01*
X77944700Y-38491961D01*
X78036775Y-38584036D01*
X79075300Y-38584036D01*
X79075300Y-38020511D01*
X79100700Y-38020511D01*
X79100700Y-38584036D01*
X80139225Y-38584036D01*
X80231300Y-38491961D01*
X80231300Y-38260461D01*
X80217146Y-38189306D01*
X80189383Y-38122280D01*
X80149077Y-38061958D01*
X80097777Y-38010658D01*
X80037455Y-37970353D01*
X79970429Y-37942589D01*
X79899274Y-37928436D01*
X79192775Y-37928436D01*
X79100700Y-38020511D01*
X79075300Y-38020511D01*
X78983225Y-37928436D01*
X78276726Y-37928436D01*
X78205571Y-37942589D01*
X78138545Y-37970353D01*
X78078223Y-38010658D01*
X78026923Y-38061958D01*
X77986617Y-38122280D01*
X77958854Y-38189306D01*
X77944700Y-38260461D01*
X72554483Y-38260461D01*
X72455363Y-38240115D01*
X72333326Y-38239263D01*
X72213449Y-38262130D01*
X72100296Y-38307847D01*
X71998178Y-38374671D01*
X71954443Y-38417500D01*
X66478118Y-38417500D01*
X64121573Y-36060955D01*
X64122327Y-36006980D01*
X64098622Y-35887265D01*
X64052117Y-35774434D01*
X63984581Y-35672785D01*
X63898588Y-35586190D01*
X63797413Y-35517946D01*
X63684909Y-35470654D01*
X63565363Y-35446115D01*
X63443326Y-35445263D01*
X63329152Y-35467042D01*
X63442283Y-35261258D01*
X63514980Y-35032087D01*
X63521355Y-34975245D01*
X63635318Y-34975245D01*
X63698699Y-35208274D01*
X63806324Y-35424460D01*
X63954057Y-35615496D01*
X64136220Y-35774040D01*
X64345814Y-35893999D01*
X64574783Y-35970763D01*
X64644755Y-35984682D01*
X64837300Y-35909754D01*
X64837300Y-34782700D01*
X64862700Y-34782700D01*
X64862700Y-35909754D01*
X65055245Y-35984682D01*
X65125217Y-35970763D01*
X65354186Y-35893999D01*
X65563780Y-35774040D01*
X65745943Y-35615496D01*
X65893676Y-35424460D01*
X66001301Y-35208274D01*
X66064682Y-34975245D01*
X65989760Y-34782700D01*
X64862700Y-34782700D01*
X64837300Y-34782700D01*
X63710240Y-34782700D01*
X63635318Y-34975245D01*
X63521355Y-34975245D01*
X63541780Y-34793161D01*
X63541900Y-34775961D01*
X63541900Y-34764039D01*
X63522361Y-34564755D01*
X63635318Y-34564755D01*
X63710240Y-34757300D01*
X64837300Y-34757300D01*
X64837300Y-33630246D01*
X64862700Y-33630246D01*
X64862700Y-34757300D01*
X65989760Y-34757300D01*
X66064682Y-34564755D01*
X66001301Y-34331726D01*
X65893676Y-34115540D01*
X65745943Y-33924504D01*
X65563780Y-33765960D01*
X65354186Y-33646001D01*
X65125217Y-33569237D01*
X65055245Y-33555318D01*
X64862700Y-33630246D01*
X64837300Y-33630246D01*
X64644755Y-33555318D01*
X64574783Y-33569237D01*
X64345814Y-33646001D01*
X64136220Y-33765960D01*
X63954057Y-33924504D01*
X63806324Y-34115540D01*
X63698699Y-34331726D01*
X63635318Y-34564755D01*
X63522361Y-34564755D01*
X63518439Y-34524762D01*
X63448948Y-34294598D01*
X63336076Y-34082316D01*
X63184120Y-33896000D01*
X62998870Y-33742748D01*
X62787380Y-33628396D01*
X62557708Y-33557300D01*
X62318600Y-33532169D01*
X62079165Y-33553959D01*
X61848522Y-33621841D01*
X61635457Y-33733229D01*
X61448085Y-33883880D01*
X61293543Y-34068056D01*
X61177717Y-34278742D01*
X61105020Y-34507913D01*
X61078220Y-34746839D01*
X61078100Y-34764039D01*
X61001900Y-34764039D01*
X60978439Y-34524762D01*
X60908948Y-34294598D01*
X60796076Y-34082316D01*
X60644120Y-33896000D01*
X60458870Y-33742748D01*
X60247380Y-33628396D01*
X60017708Y-33557300D01*
X59778600Y-33532169D01*
X59539165Y-33553959D01*
X59308522Y-33621841D01*
X59095457Y-33733229D01*
X58908085Y-33883880D01*
X58753543Y-34068056D01*
X58637717Y-34278742D01*
X58565020Y-34507913D01*
X58538220Y-34746839D01*
X58538100Y-34764039D01*
X58461900Y-34764039D01*
X58438439Y-34524762D01*
X58368948Y-34294598D01*
X58256076Y-34082316D01*
X58104120Y-33896000D01*
X57918870Y-33742748D01*
X57707380Y-33628396D01*
X57477708Y-33557300D01*
X57238600Y-33532169D01*
X56999165Y-33553959D01*
X56768522Y-33621841D01*
X56555457Y-33733229D01*
X56368085Y-33883880D01*
X56213543Y-34068056D01*
X56097717Y-34278742D01*
X56025020Y-34507913D01*
X55998220Y-34746839D01*
X55998100Y-34764039D01*
X55921900Y-34764039D01*
X55898439Y-34524762D01*
X55828948Y-34294598D01*
X55716076Y-34082316D01*
X55564120Y-33896000D01*
X55378870Y-33742748D01*
X55167380Y-33628396D01*
X54937708Y-33557300D01*
X54698600Y-33532169D01*
X54459165Y-33553959D01*
X54228522Y-33621841D01*
X54015457Y-33733229D01*
X53828085Y-33883880D01*
X53673543Y-34068056D01*
X53557717Y-34278742D01*
X53485020Y-34507913D01*
X53458220Y-34746839D01*
X53458100Y-34764039D01*
X53381900Y-34764039D01*
X53358439Y-34524762D01*
X53288948Y-34294598D01*
X53176076Y-34082316D01*
X53024120Y-33896000D01*
X52838870Y-33742748D01*
X52627380Y-33628396D01*
X52397708Y-33557300D01*
X52158600Y-33532169D01*
X51919165Y-33553959D01*
X51688522Y-33621841D01*
X51475457Y-33733229D01*
X51288085Y-33883880D01*
X51133543Y-34068056D01*
X51017717Y-34278742D01*
X50945020Y-34507913D01*
X50918220Y-34746839D01*
X50918100Y-34764039D01*
X50841900Y-34764039D01*
X50818439Y-34524762D01*
X50748948Y-34294598D01*
X50636076Y-34082316D01*
X50484120Y-33896000D01*
X50298870Y-33742748D01*
X50087380Y-33628396D01*
X49857708Y-33557300D01*
X49618600Y-33532169D01*
X49379165Y-33553959D01*
X49148522Y-33621841D01*
X48935457Y-33733229D01*
X48748085Y-33883880D01*
X48593543Y-34068056D01*
X48477717Y-34278742D01*
X48405020Y-34507913D01*
X48378220Y-34746839D01*
X48378100Y-34764039D01*
X48301900Y-34764039D01*
X48278439Y-34524762D01*
X48208948Y-34294598D01*
X48096076Y-34082316D01*
X47944120Y-33896000D01*
X47758870Y-33742748D01*
X47547380Y-33628396D01*
X47317708Y-33557300D01*
X47078600Y-33532169D01*
X46839165Y-33553959D01*
X46608522Y-33621841D01*
X46395457Y-33733229D01*
X46208085Y-33883880D01*
X46053543Y-34068056D01*
X45937717Y-34278742D01*
X45865020Y-34507913D01*
X45838220Y-34746839D01*
X45838100Y-34764039D01*
X43221900Y-34764039D01*
X43202361Y-34564755D01*
X43315318Y-34564755D01*
X43390240Y-34757300D01*
X44517300Y-34757300D01*
X44517300Y-33630246D01*
X44542700Y-33630246D01*
X44542700Y-34757300D01*
X45669760Y-34757300D01*
X45744682Y-34564755D01*
X45681301Y-34331726D01*
X45573676Y-34115540D01*
X45425943Y-33924504D01*
X45243780Y-33765960D01*
X45034186Y-33646001D01*
X44805217Y-33569237D01*
X44735245Y-33555318D01*
X44542700Y-33630246D01*
X44517300Y-33630246D01*
X44324755Y-33555318D01*
X44254783Y-33569237D01*
X44025814Y-33646001D01*
X43816220Y-33765960D01*
X43634057Y-33924504D01*
X43486324Y-34115540D01*
X43378699Y-34331726D01*
X43315318Y-34564755D01*
X43202361Y-34564755D01*
X43198439Y-34524762D01*
X43128948Y-34294598D01*
X43116823Y-34271795D01*
X43621309Y-33767309D01*
X43647397Y-33735549D01*
X43673763Y-33704128D01*
X43674888Y-33702082D01*
X43676373Y-33700274D01*
X43695792Y-33664058D01*
X43715556Y-33628107D01*
X43716262Y-33625880D01*
X43717367Y-33623820D01*
X43729356Y-33584605D01*
X43741787Y-33545417D01*
X43742048Y-33543088D01*
X43742730Y-33540858D01*
X43746872Y-33500085D01*
X43751457Y-33459206D01*
X43751489Y-33454634D01*
X43751497Y-33454552D01*
X43751490Y-33454476D01*
X43751500Y-33453000D01*
X43751500Y-33183104D01*
X43841130Y-33257252D01*
X44052620Y-33371604D01*
X44282292Y-33442700D01*
X44521400Y-33467831D01*
X44760835Y-33446041D01*
X44991478Y-33378159D01*
X45204543Y-33266771D01*
X45391915Y-33116120D01*
X45546457Y-32931944D01*
X45662283Y-32721258D01*
X45734980Y-32492087D01*
X45761780Y-32253161D01*
X45761900Y-32235961D01*
X45761900Y-32224039D01*
X45838100Y-32224039D01*
X45838100Y-32235961D01*
X45861561Y-32475238D01*
X45931052Y-32705402D01*
X46043924Y-32917684D01*
X46195880Y-33104000D01*
X46381130Y-33257252D01*
X46592620Y-33371604D01*
X46822292Y-33442700D01*
X47061400Y-33467831D01*
X47300835Y-33446041D01*
X47531478Y-33378159D01*
X47744543Y-33266771D01*
X47931915Y-33116120D01*
X48086457Y-32931944D01*
X48202283Y-32721258D01*
X48274980Y-32492087D01*
X48281355Y-32435245D01*
X48395318Y-32435245D01*
X48458699Y-32668274D01*
X48566324Y-32884460D01*
X48714057Y-33075496D01*
X48896220Y-33234040D01*
X49105814Y-33353999D01*
X49334783Y-33430763D01*
X49404755Y-33444682D01*
X49597300Y-33369754D01*
X49597300Y-32242700D01*
X49622700Y-32242700D01*
X49622700Y-33369754D01*
X49815245Y-33444682D01*
X49885217Y-33430763D01*
X50114186Y-33353999D01*
X50323780Y-33234040D01*
X50505943Y-33075496D01*
X50653676Y-32884460D01*
X50761301Y-32668274D01*
X50824682Y-32435245D01*
X50749760Y-32242700D01*
X49622700Y-32242700D01*
X49597300Y-32242700D01*
X48470240Y-32242700D01*
X48395318Y-32435245D01*
X48281355Y-32435245D01*
X48301780Y-32253161D01*
X48301900Y-32235961D01*
X48301900Y-32224039D01*
X50918100Y-32224039D01*
X50918100Y-32235961D01*
X50941561Y-32475238D01*
X51011052Y-32705402D01*
X51123924Y-32917684D01*
X51275880Y-33104000D01*
X51461130Y-33257252D01*
X51672620Y-33371604D01*
X51902292Y-33442700D01*
X52141400Y-33467831D01*
X52380835Y-33446041D01*
X52611478Y-33378159D01*
X52824543Y-33266771D01*
X53011915Y-33116120D01*
X53166457Y-32931944D01*
X53282283Y-32721258D01*
X53354980Y-32492087D01*
X53381780Y-32253161D01*
X53381900Y-32235961D01*
X53381900Y-32224039D01*
X53458100Y-32224039D01*
X53458100Y-32235961D01*
X53481561Y-32475238D01*
X53551052Y-32705402D01*
X53663924Y-32917684D01*
X53815880Y-33104000D01*
X54001130Y-33257252D01*
X54212620Y-33371604D01*
X54442292Y-33442700D01*
X54681400Y-33467831D01*
X54920835Y-33446041D01*
X55151478Y-33378159D01*
X55364543Y-33266771D01*
X55551915Y-33116120D01*
X55706457Y-32931944D01*
X55822283Y-32721258D01*
X55894980Y-32492087D01*
X55901355Y-32435245D01*
X56015318Y-32435245D01*
X56078699Y-32668274D01*
X56186324Y-32884460D01*
X56334057Y-33075496D01*
X56516220Y-33234040D01*
X56725814Y-33353999D01*
X56954783Y-33430763D01*
X57024755Y-33444682D01*
X57217300Y-33369754D01*
X57217300Y-32242700D01*
X57242700Y-32242700D01*
X57242700Y-33369754D01*
X57435245Y-33444682D01*
X57505217Y-33430763D01*
X57734186Y-33353999D01*
X57943780Y-33234040D01*
X58125943Y-33075496D01*
X58273676Y-32884460D01*
X58381301Y-32668274D01*
X58444682Y-32435245D01*
X58369760Y-32242700D01*
X57242700Y-32242700D01*
X57217300Y-32242700D01*
X56090240Y-32242700D01*
X56015318Y-32435245D01*
X55901355Y-32435245D01*
X55921780Y-32253161D01*
X55921900Y-32235961D01*
X55921900Y-32224039D01*
X58538100Y-32224039D01*
X58538100Y-32235961D01*
X58561561Y-32475238D01*
X58631052Y-32705402D01*
X58743924Y-32917684D01*
X58895880Y-33104000D01*
X59081130Y-33257252D01*
X59292620Y-33371604D01*
X59522292Y-33442700D01*
X59761400Y-33467831D01*
X60000835Y-33446041D01*
X60231478Y-33378159D01*
X60444543Y-33266771D01*
X60631915Y-33116120D01*
X60786457Y-32931944D01*
X60902283Y-32721258D01*
X60974980Y-32492087D01*
X61001780Y-32253161D01*
X61001900Y-32235961D01*
X61001900Y-32224039D01*
X61078100Y-32224039D01*
X61078100Y-32235961D01*
X61101561Y-32475238D01*
X61171052Y-32705402D01*
X61283924Y-32917684D01*
X61435880Y-33104000D01*
X61621130Y-33257252D01*
X61832620Y-33371604D01*
X62062292Y-33442700D01*
X62301400Y-33467831D01*
X62540835Y-33446041D01*
X62771478Y-33378159D01*
X62984543Y-33266771D01*
X63171915Y-33116120D01*
X63326457Y-32931944D01*
X63442283Y-32721258D01*
X63514980Y-32492087D01*
X63541780Y-32253161D01*
X63541900Y-32235961D01*
X63541900Y-32224039D01*
X63618100Y-32224039D01*
X63618100Y-32235961D01*
X63641561Y-32475238D01*
X63711052Y-32705402D01*
X63823924Y-32917684D01*
X63975880Y-33104000D01*
X64161130Y-33257252D01*
X64372620Y-33371604D01*
X64602292Y-33442700D01*
X64841400Y-33467831D01*
X65080835Y-33446041D01*
X65311478Y-33378159D01*
X65524543Y-33266771D01*
X65711915Y-33116120D01*
X65866457Y-32931944D01*
X65982283Y-32721258D01*
X66054980Y-32492087D01*
X66081780Y-32253161D01*
X66081900Y-32235961D01*
X66081900Y-32224039D01*
X66158100Y-32224039D01*
X66158100Y-32235961D01*
X66181561Y-32475238D01*
X66251052Y-32705402D01*
X66363924Y-32917684D01*
X66515880Y-33104000D01*
X66701130Y-33257252D01*
X66912620Y-33371604D01*
X67142292Y-33442700D01*
X67381400Y-33467831D01*
X67620835Y-33446041D01*
X67840832Y-33381292D01*
X68037701Y-33578161D01*
X68037701Y-33720488D01*
X67867380Y-33628396D01*
X67637708Y-33557300D01*
X67398600Y-33532169D01*
X67159165Y-33553959D01*
X66928522Y-33621841D01*
X66715457Y-33733229D01*
X66528085Y-33883880D01*
X66373543Y-34068056D01*
X66257717Y-34278742D01*
X66185020Y-34507913D01*
X66158220Y-34746839D01*
X66158100Y-34764039D01*
X66158100Y-34775961D01*
X66181561Y-35015238D01*
X66251052Y-35245402D01*
X66363924Y-35457684D01*
X66515880Y-35644000D01*
X66701130Y-35797252D01*
X66912620Y-35911604D01*
X67142292Y-35982700D01*
X67381400Y-36007831D01*
X67620835Y-35986041D01*
X67840832Y-35921292D01*
X69734770Y-37815230D01*
X69770140Y-37844283D01*
X69805172Y-37873679D01*
X69807454Y-37874934D01*
X69809467Y-37876587D01*
X69849800Y-37898213D01*
X69889881Y-37920248D01*
X69892363Y-37921035D01*
X69894658Y-37922266D01*
X69938404Y-37935641D01*
X69982021Y-37949477D01*
X69984610Y-37949767D01*
X69987101Y-37950529D01*
X70032615Y-37955152D01*
X70078085Y-37960252D01*
X70083176Y-37960287D01*
X70083271Y-37960297D01*
X70083360Y-37960289D01*
X70085000Y-37960300D01*
X76330207Y-37960300D01*
X76402936Y-38010848D01*
X76514768Y-38059706D01*
X76633961Y-38085912D01*
X76755973Y-38088468D01*
X76876159Y-38067276D01*
X76989939Y-38023144D01*
X77092980Y-37957752D01*
X77181357Y-37873591D01*
X77251705Y-37773867D01*
X77301343Y-37662379D01*
X77328380Y-37543372D01*
X77330327Y-37403980D01*
X77306622Y-37284265D01*
X77260117Y-37171434D01*
X77192581Y-37069785D01*
X77106588Y-36983190D01*
X77005413Y-36914946D01*
X76927811Y-36882325D01*
X81037882Y-36882325D01*
X81059912Y-37002359D01*
X81104838Y-37115828D01*
X81165700Y-37210268D01*
X81165700Y-37514736D01*
X81170167Y-37560298D01*
X81174152Y-37605847D01*
X81174879Y-37608349D01*
X81175133Y-37610940D01*
X81188355Y-37654735D01*
X81201121Y-37698675D01*
X81202319Y-37700987D01*
X81203072Y-37703480D01*
X81224543Y-37743861D01*
X81245606Y-37784496D01*
X81247232Y-37786533D01*
X81248454Y-37788831D01*
X81277340Y-37824248D01*
X81305914Y-37860042D01*
X81309493Y-37863671D01*
X81309550Y-37863741D01*
X81309615Y-37863795D01*
X81310770Y-37864966D01*
X83342918Y-39897114D01*
X83342918Y-40166736D01*
X83350029Y-40238935D01*
X83371089Y-40308360D01*
X83405288Y-40372343D01*
X83451313Y-40428423D01*
X83507393Y-40474448D01*
X83558446Y-40501736D01*
X83507393Y-40529024D01*
X83451313Y-40575049D01*
X83405288Y-40631129D01*
X83371089Y-40695112D01*
X83350029Y-40764537D01*
X83342918Y-40836736D01*
X83342918Y-41436736D01*
X83350029Y-41508935D01*
X83371089Y-41578360D01*
X83405288Y-41642343D01*
X83451313Y-41698423D01*
X83507393Y-41744448D01*
X83558446Y-41771736D01*
X83507393Y-41799024D01*
X83451313Y-41845049D01*
X83405288Y-41901129D01*
X83371089Y-41965112D01*
X83350029Y-42034537D01*
X83342918Y-42106736D01*
X83342918Y-42437898D01*
X82456898Y-43323918D01*
X82138000Y-43323918D01*
X82065801Y-43331029D01*
X81996376Y-43352089D01*
X81932393Y-43386288D01*
X81876313Y-43432313D01*
X81830288Y-43488393D01*
X81796089Y-43552376D01*
X81788434Y-43577609D01*
X81764383Y-43519544D01*
X81724077Y-43459222D01*
X81672777Y-43407922D01*
X81612455Y-43367617D01*
X81545429Y-43339853D01*
X81474274Y-43325700D01*
X81142775Y-43325700D01*
X81050700Y-43417775D01*
X81050700Y-44056300D01*
X81070700Y-44056300D01*
X81070700Y-44081700D01*
X81050700Y-44081700D01*
X81050700Y-44720225D01*
X81142775Y-44812300D01*
X81474274Y-44812300D01*
X81545429Y-44798147D01*
X81612455Y-44770383D01*
X81672777Y-44730078D01*
X81724077Y-44678778D01*
X81764383Y-44618456D01*
X81788434Y-44560391D01*
X81796089Y-44585624D01*
X81830288Y-44649607D01*
X81876313Y-44705687D01*
X81932393Y-44751712D01*
X81996376Y-44785911D01*
X82065801Y-44806971D01*
X82138000Y-44814082D01*
X82938000Y-44814082D01*
X83010199Y-44806971D01*
X83079624Y-44785911D01*
X83143607Y-44751712D01*
X83199687Y-44705687D01*
X83242763Y-44653200D01*
X83347579Y-44653200D01*
X83452678Y-44726246D01*
X83587333Y-44785075D01*
X83730851Y-44816630D01*
X83877764Y-44819707D01*
X84022477Y-44794190D01*
X84159477Y-44741051D01*
X84283548Y-44662314D01*
X84389961Y-44560977D01*
X84474665Y-44440902D01*
X84534433Y-44306660D01*
X84566989Y-44163367D01*
X84569333Y-43995527D01*
X84556667Y-43931561D01*
X85118737Y-44493631D01*
X85154080Y-44522662D01*
X85189139Y-44552080D01*
X85191425Y-44553337D01*
X85193434Y-44554987D01*
X85233728Y-44576593D01*
X85273848Y-44598649D01*
X85276330Y-44599436D01*
X85278625Y-44600667D01*
X85322384Y-44614046D01*
X85365988Y-44627878D01*
X85368575Y-44628168D01*
X85371067Y-44628930D01*
X85416587Y-44633553D01*
X85462052Y-44638653D01*
X85467143Y-44638688D01*
X85467238Y-44638698D01*
X85467327Y-44638690D01*
X85468967Y-44638701D01*
X86854599Y-44638701D01*
X86900161Y-44634234D01*
X86945710Y-44630249D01*
X86948212Y-44629522D01*
X86950803Y-44629268D01*
X86994598Y-44616046D01*
X87038538Y-44603280D01*
X87040850Y-44602082D01*
X87043343Y-44601329D01*
X87083724Y-44579858D01*
X87124359Y-44558795D01*
X87126396Y-44557169D01*
X87128694Y-44555947D01*
X87164111Y-44527061D01*
X87199905Y-44498487D01*
X87203534Y-44494908D01*
X87203604Y-44494851D01*
X87203658Y-44494786D01*
X87204829Y-44493631D01*
X87668800Y-44029660D01*
X87668800Y-47867000D01*
X87674065Y-47920701D01*
X87678769Y-47974464D01*
X87679626Y-47977415D01*
X87679926Y-47980472D01*
X87695517Y-48032113D01*
X87710578Y-48083953D01*
X87711993Y-48086682D01*
X87712880Y-48089621D01*
X87738218Y-48137275D01*
X87763049Y-48185178D01*
X87764964Y-48187576D01*
X87766407Y-48190291D01*
X87800518Y-48232115D01*
X87834181Y-48274284D01*
X87838401Y-48278564D01*
X87838469Y-48278647D01*
X87838546Y-48278711D01*
X87839908Y-48280092D01*
X87946060Y-48386244D01*
X87959043Y-48456982D01*
X88010387Y-48586661D01*
X88085941Y-48703898D01*
X88182827Y-48804226D01*
X88297355Y-48883826D01*
X88425164Y-48939664D01*
X88561384Y-48969614D01*
X88700827Y-48972535D01*
X88838181Y-48948315D01*
X88968216Y-48897878D01*
X89085977Y-48823145D01*
X89186980Y-48726961D01*
X89267377Y-48612991D01*
X89324106Y-48485576D01*
X89355006Y-48349568D01*
X89357230Y-48190263D01*
X89330140Y-48053446D01*
X89276991Y-47924496D01*
X89199807Y-47808326D01*
X89101529Y-47709360D01*
X88985901Y-47631367D01*
X88857325Y-47577319D01*
X88837200Y-47573188D01*
X88837200Y-43151051D01*
X88844911Y-43136624D01*
X88865971Y-43067199D01*
X88873082Y-42995000D01*
X88873082Y-42095000D01*
X88865971Y-42022801D01*
X88844911Y-41953376D01*
X88810712Y-41889393D01*
X88764687Y-41833313D01*
X88748300Y-41819864D01*
X88748300Y-41238136D01*
X88764687Y-41224687D01*
X88810712Y-41168607D01*
X88844911Y-41104624D01*
X88865971Y-41035199D01*
X88873082Y-40963000D01*
X88873082Y-40063000D01*
X88865971Y-39990801D01*
X88844911Y-39921376D01*
X88810712Y-39857393D01*
X88764687Y-39801313D01*
X88748300Y-39787864D01*
X88748300Y-39321872D01*
X88764687Y-39308423D01*
X88810712Y-39252343D01*
X88844911Y-39188360D01*
X88865971Y-39118935D01*
X88873082Y-39046736D01*
X88873082Y-38146736D01*
X88865971Y-38074537D01*
X88844911Y-38005112D01*
X88810712Y-37941129D01*
X88764687Y-37885049D01*
X88708607Y-37839024D01*
X88644624Y-37804825D01*
X88575199Y-37783765D01*
X88503000Y-37776654D01*
X88003000Y-37776654D01*
X87930801Y-37783765D01*
X87861376Y-37804825D01*
X87797393Y-37839024D01*
X87741313Y-37885049D01*
X87695288Y-37941129D01*
X87661089Y-38005112D01*
X87640029Y-38074537D01*
X87632918Y-38146736D01*
X87632918Y-39046736D01*
X87640029Y-39118935D01*
X87661089Y-39188360D01*
X87695288Y-39252343D01*
X87741313Y-39308423D01*
X87757700Y-39321872D01*
X87757700Y-39787864D01*
X87741313Y-39801313D01*
X87695288Y-39857393D01*
X87661089Y-39921376D01*
X87640029Y-39990801D01*
X87632918Y-40063000D01*
X87632918Y-40963000D01*
X87640029Y-41035199D01*
X87661089Y-41104624D01*
X87695288Y-41168607D01*
X87741313Y-41224687D01*
X87757700Y-41238136D01*
X87757700Y-41819864D01*
X87741313Y-41833313D01*
X87695288Y-41889393D01*
X87661089Y-41953376D01*
X87640029Y-42022801D01*
X87632918Y-42095000D01*
X87632918Y-42664622D01*
X87373082Y-42924458D01*
X87373082Y-42095000D01*
X87365971Y-42022801D01*
X87344911Y-41953376D01*
X87310712Y-41889393D01*
X87264687Y-41833313D01*
X87208607Y-41787288D01*
X87144624Y-41753089D01*
X87075199Y-41732029D01*
X87003000Y-41724918D01*
X86503000Y-41724918D01*
X86430801Y-41732029D01*
X86361376Y-41753089D01*
X86308223Y-41781499D01*
X85633082Y-41106358D01*
X85633082Y-40836736D01*
X85625971Y-40764537D01*
X85604911Y-40695112D01*
X85570712Y-40631129D01*
X85524687Y-40575049D01*
X85468607Y-40529024D01*
X85417554Y-40501736D01*
X85439702Y-40489898D01*
X85813034Y-40863230D01*
X85848399Y-40892279D01*
X85883436Y-40921679D01*
X85885719Y-40922934D01*
X85887730Y-40924586D01*
X85928046Y-40946203D01*
X85968145Y-40968248D01*
X85970627Y-40969035D01*
X85972922Y-40970266D01*
X86016640Y-40983632D01*
X86060285Y-40997477D01*
X86062877Y-40997768D01*
X86065364Y-40998528D01*
X86110789Y-41003142D01*
X86137163Y-41006100D01*
X86140029Y-41035199D01*
X86161089Y-41104624D01*
X86195288Y-41168607D01*
X86241313Y-41224687D01*
X86297393Y-41270712D01*
X86361376Y-41304911D01*
X86430801Y-41325971D01*
X86503000Y-41333082D01*
X87003000Y-41333082D01*
X87075199Y-41325971D01*
X87144624Y-41304911D01*
X87208607Y-41270712D01*
X87264687Y-41224687D01*
X87310712Y-41168607D01*
X87344911Y-41104624D01*
X87365971Y-41035199D01*
X87373082Y-40963000D01*
X87373082Y-40063000D01*
X87365971Y-39990801D01*
X87344911Y-39921376D01*
X87310712Y-39857393D01*
X87264687Y-39801313D01*
X87208607Y-39755288D01*
X87144624Y-39721089D01*
X87075199Y-39700029D01*
X87003000Y-39692918D01*
X86503000Y-39692918D01*
X86430801Y-39700029D01*
X86361376Y-39721089D01*
X86297393Y-39755288D01*
X86241313Y-39801313D01*
X86201071Y-39850347D01*
X85867230Y-39516506D01*
X85831887Y-39487475D01*
X85796828Y-39458057D01*
X85794542Y-39456800D01*
X85792533Y-39455150D01*
X85752239Y-39433544D01*
X85712119Y-39411488D01*
X85709637Y-39410701D01*
X85707342Y-39409470D01*
X85663583Y-39396091D01*
X85619979Y-39382259D01*
X85617392Y-39381969D01*
X85614900Y-39381207D01*
X85579523Y-39377614D01*
X85570712Y-39361129D01*
X85524687Y-39305049D01*
X85468607Y-39259024D01*
X85417554Y-39231736D01*
X85468607Y-39204448D01*
X85524687Y-39158423D01*
X85570712Y-39102343D01*
X85576221Y-39092036D01*
X86137380Y-39092036D01*
X86140029Y-39118935D01*
X86161089Y-39188360D01*
X86195288Y-39252343D01*
X86241313Y-39308423D01*
X86297393Y-39354448D01*
X86361376Y-39388647D01*
X86430801Y-39409707D01*
X86503000Y-39416818D01*
X87003000Y-39416818D01*
X87075199Y-39409707D01*
X87144624Y-39388647D01*
X87208607Y-39354448D01*
X87264687Y-39308423D01*
X87310712Y-39252343D01*
X87344911Y-39188360D01*
X87365971Y-39118935D01*
X87373082Y-39046736D01*
X87373082Y-38146736D01*
X87365971Y-38074537D01*
X87344911Y-38005112D01*
X87310712Y-37941129D01*
X87264687Y-37885049D01*
X87208607Y-37839024D01*
X87144624Y-37804825D01*
X87075199Y-37783765D01*
X87003000Y-37776654D01*
X86503000Y-37776654D01*
X86430801Y-37783765D01*
X86361376Y-37804825D01*
X86297393Y-37839024D01*
X86241313Y-37885049D01*
X86195288Y-37941129D01*
X86161089Y-38005112D01*
X86140029Y-38074537D01*
X86137380Y-38101436D01*
X85576221Y-38101436D01*
X85570712Y-38091129D01*
X85524687Y-38035049D01*
X85468607Y-37989024D01*
X85404624Y-37954825D01*
X85335199Y-37933765D01*
X85263000Y-37926654D01*
X83966114Y-37926654D01*
X83422102Y-37382642D01*
X83402622Y-37284265D01*
X83356117Y-37171434D01*
X83288581Y-37069785D01*
X83202588Y-36983190D01*
X83101413Y-36914946D01*
X82988909Y-36867654D01*
X82869363Y-36843115D01*
X82747326Y-36842263D01*
X82627449Y-36865130D01*
X82514296Y-36910847D01*
X82412178Y-36977671D01*
X82324984Y-37063058D01*
X82256036Y-37163754D01*
X82207959Y-37275925D01*
X82193005Y-37346281D01*
X82156300Y-37309576D01*
X82156300Y-37207485D01*
X82204705Y-37138867D01*
X82254343Y-37027379D01*
X82281380Y-36908372D01*
X82283327Y-36768980D01*
X82259622Y-36649265D01*
X82213117Y-36536434D01*
X82145581Y-36434785D01*
X82059588Y-36348190D01*
X81958413Y-36279946D01*
X81845909Y-36232654D01*
X81726363Y-36208115D01*
X81604326Y-36207263D01*
X81484449Y-36230130D01*
X81371296Y-36275847D01*
X81269178Y-36342671D01*
X81181984Y-36428058D01*
X81113036Y-36528754D01*
X81064959Y-36640925D01*
X81039586Y-36760297D01*
X81037882Y-36882325D01*
X76927811Y-36882325D01*
X76892909Y-36867654D01*
X76773363Y-36843115D01*
X76651326Y-36842263D01*
X76531449Y-36865130D01*
X76418296Y-36910847D01*
X76328359Y-36969700D01*
X76298447Y-36969700D01*
X76312380Y-36908372D01*
X76314327Y-36768980D01*
X76290622Y-36649265D01*
X76244117Y-36536434D01*
X76176581Y-36434785D01*
X76090588Y-36348190D01*
X75989413Y-36279946D01*
X75876909Y-36232654D01*
X75757363Y-36208115D01*
X75635326Y-36207263D01*
X75515449Y-36230130D01*
X75402296Y-36275847D01*
X75312359Y-36334700D01*
X70503518Y-36334700D01*
X70155357Y-35986539D01*
X70160835Y-35986041D01*
X70391478Y-35918159D01*
X70604543Y-35806771D01*
X70791915Y-35656120D01*
X70946457Y-35471944D01*
X71062283Y-35261258D01*
X71134980Y-35032087D01*
X71161780Y-34793161D01*
X71161900Y-34775961D01*
X71161900Y-34764039D01*
X71238100Y-34764039D01*
X71238100Y-34775961D01*
X71261561Y-35015238D01*
X71331052Y-35245402D01*
X71443924Y-35457684D01*
X71595880Y-35644000D01*
X71781130Y-35797252D01*
X71992620Y-35911604D01*
X72222292Y-35982700D01*
X72461400Y-36007831D01*
X72700835Y-35986041D01*
X72931478Y-35918159D01*
X73144543Y-35806771D01*
X73331915Y-35656120D01*
X73486457Y-35471944D01*
X73602283Y-35261258D01*
X73674980Y-35032087D01*
X73701780Y-34793161D01*
X73701900Y-34775961D01*
X73701900Y-34764039D01*
X73778100Y-34764039D01*
X73778100Y-34775961D01*
X73801561Y-35015238D01*
X73871052Y-35245402D01*
X73983924Y-35457684D01*
X74135880Y-35644000D01*
X74321130Y-35797252D01*
X74532620Y-35911604D01*
X74762292Y-35982700D01*
X75001400Y-36007831D01*
X75240835Y-35986041D01*
X75471478Y-35918159D01*
X75684543Y-35806771D01*
X75871915Y-35656120D01*
X76026457Y-35471944D01*
X76142283Y-35261258D01*
X76214980Y-35032087D01*
X76241780Y-34793161D01*
X76241900Y-34775961D01*
X76241900Y-34764039D01*
X76318100Y-34764039D01*
X76318100Y-34775961D01*
X76341561Y-35015238D01*
X76411052Y-35245402D01*
X76523924Y-35457684D01*
X76675880Y-35644000D01*
X76861130Y-35797252D01*
X77072620Y-35911604D01*
X77302292Y-35982700D01*
X77541400Y-36007831D01*
X77780835Y-35986041D01*
X78011478Y-35918159D01*
X78224543Y-35806771D01*
X78411915Y-35656120D01*
X78566457Y-35471944D01*
X78682283Y-35261258D01*
X78754980Y-35032087D01*
X78781780Y-34793161D01*
X78781900Y-34775961D01*
X78781900Y-34764039D01*
X78858100Y-34764039D01*
X78858100Y-34775961D01*
X78881561Y-35015238D01*
X78951052Y-35245402D01*
X79063924Y-35457684D01*
X79215880Y-35644000D01*
X79401130Y-35797252D01*
X79612620Y-35911604D01*
X79842292Y-35982700D01*
X80081400Y-36007831D01*
X80320835Y-35986041D01*
X80551478Y-35918159D01*
X80764543Y-35806771D01*
X80951915Y-35656120D01*
X81106457Y-35471944D01*
X81222283Y-35261258D01*
X81294980Y-35032087D01*
X81301355Y-34975245D01*
X81415318Y-34975245D01*
X81478699Y-35208274D01*
X81586324Y-35424460D01*
X81734057Y-35615496D01*
X81916220Y-35774040D01*
X82125814Y-35893999D01*
X82354783Y-35970763D01*
X82424755Y-35984682D01*
X82617300Y-35909754D01*
X82617300Y-34782700D01*
X82642700Y-34782700D01*
X82642700Y-35909754D01*
X82835245Y-35984682D01*
X82905217Y-35970763D01*
X83134186Y-35893999D01*
X83343780Y-35774040D01*
X83525943Y-35615496D01*
X83673676Y-35424460D01*
X83781301Y-35208274D01*
X83844682Y-34975245D01*
X83769760Y-34782700D01*
X82642700Y-34782700D01*
X82617300Y-34782700D01*
X81490240Y-34782700D01*
X81415318Y-34975245D01*
X81301355Y-34975245D01*
X81321780Y-34793161D01*
X81321900Y-34775961D01*
X81321900Y-34764039D01*
X81302361Y-34564755D01*
X81415318Y-34564755D01*
X81490240Y-34757300D01*
X82617300Y-34757300D01*
X82617300Y-33630246D01*
X82642700Y-33630246D01*
X82642700Y-34757300D01*
X83769760Y-34757300D01*
X83844682Y-34564755D01*
X83781301Y-34331726D01*
X83673676Y-34115540D01*
X83525943Y-33924504D01*
X83343780Y-33765960D01*
X83134186Y-33646001D01*
X82905217Y-33569237D01*
X82835245Y-33555318D01*
X82642700Y-33630246D01*
X82617300Y-33630246D01*
X82424755Y-33555318D01*
X82354783Y-33569237D01*
X82125814Y-33646001D01*
X81916220Y-33765960D01*
X81734057Y-33924504D01*
X81586324Y-34115540D01*
X81478699Y-34331726D01*
X81415318Y-34564755D01*
X81302361Y-34564755D01*
X81298439Y-34524762D01*
X81228948Y-34294598D01*
X81116076Y-34082316D01*
X80964120Y-33896000D01*
X80778870Y-33742748D01*
X80567380Y-33628396D01*
X80337708Y-33557300D01*
X80098600Y-33532169D01*
X79859165Y-33553959D01*
X79628522Y-33621841D01*
X79415457Y-33733229D01*
X79228085Y-33883880D01*
X79073543Y-34068056D01*
X78957717Y-34278742D01*
X78885020Y-34507913D01*
X78858220Y-34746839D01*
X78858100Y-34764039D01*
X78781900Y-34764039D01*
X78758439Y-34524762D01*
X78688948Y-34294598D01*
X78576076Y-34082316D01*
X78424120Y-33896000D01*
X78238870Y-33742748D01*
X78027380Y-33628396D01*
X77797708Y-33557300D01*
X77558600Y-33532169D01*
X77319165Y-33553959D01*
X77088522Y-33621841D01*
X76875457Y-33733229D01*
X76688085Y-33883880D01*
X76533543Y-34068056D01*
X76417717Y-34278742D01*
X76345020Y-34507913D01*
X76318220Y-34746839D01*
X76318100Y-34764039D01*
X76241900Y-34764039D01*
X76218439Y-34524762D01*
X76148948Y-34294598D01*
X76036076Y-34082316D01*
X75884120Y-33896000D01*
X75698870Y-33742748D01*
X75487380Y-33628396D01*
X75257708Y-33557300D01*
X75018600Y-33532169D01*
X74779165Y-33553959D01*
X74548522Y-33621841D01*
X74335457Y-33733229D01*
X74148085Y-33883880D01*
X73993543Y-34068056D01*
X73877717Y-34278742D01*
X73805020Y-34507913D01*
X73778220Y-34746839D01*
X73778100Y-34764039D01*
X73701900Y-34764039D01*
X73678439Y-34524762D01*
X73608948Y-34294598D01*
X73496076Y-34082316D01*
X73344120Y-33896000D01*
X73158870Y-33742748D01*
X72947380Y-33628396D01*
X72717708Y-33557300D01*
X72478600Y-33532169D01*
X72239165Y-33553959D01*
X72008522Y-33621841D01*
X71795457Y-33733229D01*
X71608085Y-33883880D01*
X71453543Y-34068056D01*
X71337717Y-34278742D01*
X71265020Y-34507913D01*
X71238220Y-34746839D01*
X71238100Y-34764039D01*
X71161900Y-34764039D01*
X71138439Y-34524762D01*
X71068948Y-34294598D01*
X70956076Y-34082316D01*
X70804120Y-33896000D01*
X70618870Y-33742748D01*
X70407380Y-33628396D01*
X70177708Y-33557300D01*
X69938600Y-33532169D01*
X69699165Y-33553959D01*
X69468522Y-33621841D01*
X69255457Y-33733229D01*
X69068085Y-33883880D01*
X69028301Y-33931293D01*
X69028301Y-33373001D01*
X69023834Y-33327439D01*
X69019849Y-33281890D01*
X69019122Y-33279388D01*
X69018868Y-33276797D01*
X69005646Y-33233002D01*
X68992880Y-33189062D01*
X68991682Y-33186750D01*
X68990929Y-33184257D01*
X68969458Y-33143876D01*
X68948395Y-33103241D01*
X68946769Y-33101204D01*
X68945547Y-33098906D01*
X68916661Y-33063489D01*
X68888087Y-33027695D01*
X68884508Y-33024066D01*
X68884451Y-33023996D01*
X68884386Y-33023942D01*
X68883231Y-33022771D01*
X68536596Y-32676136D01*
X68594980Y-32492087D01*
X68601355Y-32435245D01*
X68715318Y-32435245D01*
X68778699Y-32668274D01*
X68886324Y-32884460D01*
X69034057Y-33075496D01*
X69216220Y-33234040D01*
X69425814Y-33353999D01*
X69654783Y-33430763D01*
X69724755Y-33444682D01*
X69917300Y-33369754D01*
X69917300Y-32242700D01*
X69942700Y-32242700D01*
X69942700Y-33369754D01*
X70135245Y-33444682D01*
X70205217Y-33430763D01*
X70434186Y-33353999D01*
X70643780Y-33234040D01*
X70825943Y-33075496D01*
X70973676Y-32884460D01*
X71081301Y-32668274D01*
X71144682Y-32435245D01*
X71069760Y-32242700D01*
X69942700Y-32242700D01*
X69917300Y-32242700D01*
X68790240Y-32242700D01*
X68715318Y-32435245D01*
X68601355Y-32435245D01*
X68621780Y-32253161D01*
X68621900Y-32235961D01*
X68621900Y-32224039D01*
X71238100Y-32224039D01*
X71238100Y-32235961D01*
X71261561Y-32475238D01*
X71331052Y-32705402D01*
X71443924Y-32917684D01*
X71595880Y-33104000D01*
X71781130Y-33257252D01*
X71992620Y-33371604D01*
X72222292Y-33442700D01*
X72461400Y-33467831D01*
X72700835Y-33446041D01*
X72931478Y-33378159D01*
X73144543Y-33266771D01*
X73331915Y-33116120D01*
X73486457Y-32931944D01*
X73602283Y-32721258D01*
X73674980Y-32492087D01*
X73681355Y-32435245D01*
X73795318Y-32435245D01*
X73858699Y-32668274D01*
X73966324Y-32884460D01*
X74114057Y-33075496D01*
X74296220Y-33234040D01*
X74505814Y-33353999D01*
X74734783Y-33430763D01*
X74804755Y-33444682D01*
X74997300Y-33369754D01*
X74997300Y-32242700D01*
X75022700Y-32242700D01*
X75022700Y-33369754D01*
X75215245Y-33444682D01*
X75285217Y-33430763D01*
X75514186Y-33353999D01*
X75723780Y-33234040D01*
X75905943Y-33075496D01*
X76053676Y-32884460D01*
X76161301Y-32668274D01*
X76224682Y-32435245D01*
X76149760Y-32242700D01*
X75022700Y-32242700D01*
X74997300Y-32242700D01*
X73870240Y-32242700D01*
X73795318Y-32435245D01*
X73681355Y-32435245D01*
X73701780Y-32253161D01*
X73701900Y-32235961D01*
X73701900Y-32224039D01*
X76318100Y-32224039D01*
X76318100Y-32235961D01*
X76341561Y-32475238D01*
X76411052Y-32705402D01*
X76523924Y-32917684D01*
X76675880Y-33104000D01*
X76861130Y-33257252D01*
X77072620Y-33371604D01*
X77302292Y-33442700D01*
X77541400Y-33467831D01*
X77780835Y-33446041D01*
X78011478Y-33378159D01*
X78224543Y-33266771D01*
X78411915Y-33116120D01*
X78566457Y-32931944D01*
X78682283Y-32721258D01*
X78754980Y-32492087D01*
X78781780Y-32253161D01*
X78781900Y-32235961D01*
X78781900Y-32224039D01*
X78858100Y-32224039D01*
X78858100Y-32235961D01*
X78881561Y-32475238D01*
X78951052Y-32705402D01*
X79063924Y-32917684D01*
X79215880Y-33104000D01*
X79401130Y-33257252D01*
X79612620Y-33371604D01*
X79842292Y-33442700D01*
X80081400Y-33467831D01*
X80320835Y-33446041D01*
X80551478Y-33378159D01*
X80764543Y-33266771D01*
X80951915Y-33116120D01*
X81106457Y-32931944D01*
X81222283Y-32721258D01*
X81294980Y-32492087D01*
X81321780Y-32253161D01*
X81321900Y-32235961D01*
X81321900Y-32224039D01*
X81398100Y-32224039D01*
X81398100Y-32235961D01*
X81421561Y-32475238D01*
X81491052Y-32705402D01*
X81603924Y-32917684D01*
X81755880Y-33104000D01*
X81941130Y-33257252D01*
X82152620Y-33371604D01*
X82382292Y-33442700D01*
X82621400Y-33467831D01*
X82860835Y-33446041D01*
X83091478Y-33378159D01*
X83304543Y-33266771D01*
X83491915Y-33116120D01*
X83646457Y-32931944D01*
X83762283Y-32721258D01*
X83834980Y-32492087D01*
X83861780Y-32253161D01*
X83861900Y-32235961D01*
X83861900Y-32224039D01*
X83838439Y-31984762D01*
X83768948Y-31754598D01*
X83656076Y-31542316D01*
X83504120Y-31356000D01*
X83318870Y-31202748D01*
X83107380Y-31088396D01*
X82877708Y-31017300D01*
X82638600Y-30992169D01*
X82399165Y-31013959D01*
X82168522Y-31081841D01*
X81955457Y-31193229D01*
X81768085Y-31343880D01*
X81613543Y-31528056D01*
X81497717Y-31738742D01*
X81425020Y-31967913D01*
X81398220Y-32206839D01*
X81398100Y-32224039D01*
X81321900Y-32224039D01*
X81298439Y-31984762D01*
X81228948Y-31754598D01*
X81116076Y-31542316D01*
X80964120Y-31356000D01*
X80778870Y-31202748D01*
X80567380Y-31088396D01*
X80337708Y-31017300D01*
X80098600Y-30992169D01*
X79859165Y-31013959D01*
X79628522Y-31081841D01*
X79415457Y-31193229D01*
X79228085Y-31343880D01*
X79073543Y-31528056D01*
X78957717Y-31738742D01*
X78885020Y-31967913D01*
X78858220Y-32206839D01*
X78858100Y-32224039D01*
X78781900Y-32224039D01*
X78758439Y-31984762D01*
X78688948Y-31754598D01*
X78576076Y-31542316D01*
X78424120Y-31356000D01*
X78238870Y-31202748D01*
X78027380Y-31088396D01*
X77797708Y-31017300D01*
X77558600Y-30992169D01*
X77319165Y-31013959D01*
X77088522Y-31081841D01*
X76875457Y-31193229D01*
X76688085Y-31343880D01*
X76533543Y-31528056D01*
X76417717Y-31738742D01*
X76345020Y-31967913D01*
X76318220Y-32206839D01*
X76318100Y-32224039D01*
X73701900Y-32224039D01*
X73682361Y-32024755D01*
X73795318Y-32024755D01*
X73870240Y-32217300D01*
X74997300Y-32217300D01*
X74997300Y-31090246D01*
X75022700Y-31090246D01*
X75022700Y-32217300D01*
X76149760Y-32217300D01*
X76224682Y-32024755D01*
X76161301Y-31791726D01*
X76053676Y-31575540D01*
X75905943Y-31384504D01*
X75723780Y-31225960D01*
X75514186Y-31106001D01*
X75285217Y-31029237D01*
X75215245Y-31015318D01*
X75022700Y-31090246D01*
X74997300Y-31090246D01*
X74804755Y-31015318D01*
X74734783Y-31029237D01*
X74505814Y-31106001D01*
X74296220Y-31225960D01*
X74114057Y-31384504D01*
X73966324Y-31575540D01*
X73858699Y-31791726D01*
X73795318Y-32024755D01*
X73682361Y-32024755D01*
X73678439Y-31984762D01*
X73608948Y-31754598D01*
X73496076Y-31542316D01*
X73344120Y-31356000D01*
X73158870Y-31202748D01*
X72947380Y-31088396D01*
X72717708Y-31017300D01*
X72478600Y-30992169D01*
X72239165Y-31013959D01*
X72008522Y-31081841D01*
X71795457Y-31193229D01*
X71608085Y-31343880D01*
X71453543Y-31528056D01*
X71337717Y-31738742D01*
X71265020Y-31967913D01*
X71238220Y-32206839D01*
X71238100Y-32224039D01*
X68621900Y-32224039D01*
X68602361Y-32024755D01*
X68715318Y-32024755D01*
X68790240Y-32217300D01*
X69917300Y-32217300D01*
X69917300Y-31090246D01*
X69942700Y-31090246D01*
X69942700Y-32217300D01*
X71069760Y-32217300D01*
X71144682Y-32024755D01*
X71081301Y-31791726D01*
X70973676Y-31575540D01*
X70825943Y-31384504D01*
X70643780Y-31225960D01*
X70434186Y-31106001D01*
X70205217Y-31029237D01*
X70135245Y-31015318D01*
X69942700Y-31090246D01*
X69917300Y-31090246D01*
X69724755Y-31015318D01*
X69654783Y-31029237D01*
X69425814Y-31106001D01*
X69216220Y-31225960D01*
X69034057Y-31384504D01*
X68886324Y-31575540D01*
X68778699Y-31791726D01*
X68715318Y-32024755D01*
X68602361Y-32024755D01*
X68598439Y-31984762D01*
X68528948Y-31754598D01*
X68416076Y-31542316D01*
X68264120Y-31356000D01*
X68078870Y-31202748D01*
X67867380Y-31088396D01*
X67637708Y-31017300D01*
X67398600Y-30992169D01*
X67159165Y-31013959D01*
X66928522Y-31081841D01*
X66715457Y-31193229D01*
X66528085Y-31343880D01*
X66373543Y-31528056D01*
X66257717Y-31738742D01*
X66185020Y-31967913D01*
X66158220Y-32206839D01*
X66158100Y-32224039D01*
X66081900Y-32224039D01*
X66058439Y-31984762D01*
X65988948Y-31754598D01*
X65876076Y-31542316D01*
X65724120Y-31356000D01*
X65538870Y-31202748D01*
X65327380Y-31088396D01*
X65097708Y-31017300D01*
X64858600Y-30992169D01*
X64619165Y-31013959D01*
X64388522Y-31081841D01*
X64175457Y-31193229D01*
X63988085Y-31343880D01*
X63833543Y-31528056D01*
X63717717Y-31738742D01*
X63645020Y-31967913D01*
X63618220Y-32206839D01*
X63618100Y-32224039D01*
X63541900Y-32224039D01*
X63518439Y-31984762D01*
X63448948Y-31754598D01*
X63336076Y-31542316D01*
X63184120Y-31356000D01*
X62998870Y-31202748D01*
X62787380Y-31088396D01*
X62557708Y-31017300D01*
X62318600Y-30992169D01*
X62079165Y-31013959D01*
X61848522Y-31081841D01*
X61635457Y-31193229D01*
X61448085Y-31343880D01*
X61293543Y-31528056D01*
X61177717Y-31738742D01*
X61105020Y-31967913D01*
X61078220Y-32206839D01*
X61078100Y-32224039D01*
X61001900Y-32224039D01*
X60978439Y-31984762D01*
X60908948Y-31754598D01*
X60796076Y-31542316D01*
X60644120Y-31356000D01*
X60458870Y-31202748D01*
X60247380Y-31088396D01*
X60017708Y-31017300D01*
X59778600Y-30992169D01*
X59539165Y-31013959D01*
X59308522Y-31081841D01*
X59095457Y-31193229D01*
X58908085Y-31343880D01*
X58753543Y-31528056D01*
X58637717Y-31738742D01*
X58565020Y-31967913D01*
X58538220Y-32206839D01*
X58538100Y-32224039D01*
X55921900Y-32224039D01*
X55902361Y-32024755D01*
X56015318Y-32024755D01*
X56090240Y-32217300D01*
X57217300Y-32217300D01*
X57217300Y-31090246D01*
X57242700Y-31090246D01*
X57242700Y-32217300D01*
X58369760Y-32217300D01*
X58444682Y-32024755D01*
X58381301Y-31791726D01*
X58273676Y-31575540D01*
X58125943Y-31384504D01*
X57943780Y-31225960D01*
X57734186Y-31106001D01*
X57505217Y-31029237D01*
X57435245Y-31015318D01*
X57242700Y-31090246D01*
X57217300Y-31090246D01*
X57024755Y-31015318D01*
X56954783Y-31029237D01*
X56725814Y-31106001D01*
X56516220Y-31225960D01*
X56334057Y-31384504D01*
X56186324Y-31575540D01*
X56078699Y-31791726D01*
X56015318Y-32024755D01*
X55902361Y-32024755D01*
X55898439Y-31984762D01*
X55828948Y-31754598D01*
X55716076Y-31542316D01*
X55564120Y-31356000D01*
X55378870Y-31202748D01*
X55167380Y-31088396D01*
X54937708Y-31017300D01*
X54698600Y-30992169D01*
X54459165Y-31013959D01*
X54228522Y-31081841D01*
X54015457Y-31193229D01*
X53828085Y-31343880D01*
X53673543Y-31528056D01*
X53557717Y-31738742D01*
X53485020Y-31967913D01*
X53458220Y-32206839D01*
X53458100Y-32224039D01*
X53381900Y-32224039D01*
X53358439Y-31984762D01*
X53288948Y-31754598D01*
X53176076Y-31542316D01*
X53024120Y-31356000D01*
X52838870Y-31202748D01*
X52627380Y-31088396D01*
X52397708Y-31017300D01*
X52158600Y-30992169D01*
X51919165Y-31013959D01*
X51688522Y-31081841D01*
X51475457Y-31193229D01*
X51288085Y-31343880D01*
X51133543Y-31528056D01*
X51017717Y-31738742D01*
X50945020Y-31967913D01*
X50918220Y-32206839D01*
X50918100Y-32224039D01*
X48301900Y-32224039D01*
X48282361Y-32024755D01*
X48395318Y-32024755D01*
X48470240Y-32217300D01*
X49597300Y-32217300D01*
X49597300Y-31090246D01*
X49622700Y-31090246D01*
X49622700Y-32217300D01*
X50749760Y-32217300D01*
X50824682Y-32024755D01*
X50761301Y-31791726D01*
X50653676Y-31575540D01*
X50505943Y-31384504D01*
X50323780Y-31225960D01*
X50114186Y-31106001D01*
X49885217Y-31029237D01*
X49815245Y-31015318D01*
X49622700Y-31090246D01*
X49597300Y-31090246D01*
X49404755Y-31015318D01*
X49334783Y-31029237D01*
X49105814Y-31106001D01*
X48896220Y-31225960D01*
X48714057Y-31384504D01*
X48566324Y-31575540D01*
X48458699Y-31791726D01*
X48395318Y-32024755D01*
X48282361Y-32024755D01*
X48278439Y-31984762D01*
X48208948Y-31754598D01*
X48096076Y-31542316D01*
X47944120Y-31356000D01*
X47758870Y-31202748D01*
X47547380Y-31088396D01*
X47317708Y-31017300D01*
X47078600Y-30992169D01*
X46839165Y-31013959D01*
X46608522Y-31081841D01*
X46395457Y-31193229D01*
X46208085Y-31343880D01*
X46053543Y-31528056D01*
X45937717Y-31738742D01*
X45865020Y-31967913D01*
X45838220Y-32206839D01*
X45838100Y-32224039D01*
X45761900Y-32224039D01*
X45738439Y-31984762D01*
X45668948Y-31754598D01*
X45556076Y-31542316D01*
X45404120Y-31356000D01*
X45218870Y-31202748D01*
X45007380Y-31088396D01*
X44777708Y-31017300D01*
X44538600Y-30992169D01*
X44299165Y-31013959D01*
X44068522Y-31081841D01*
X43855457Y-31193229D01*
X43751500Y-31276813D01*
X43751500Y-31170071D01*
X43780357Y-31142591D01*
X43850705Y-31042867D01*
X43900343Y-30931379D01*
X43927380Y-30812372D01*
X43929327Y-30672980D01*
X43905622Y-30553265D01*
X43859117Y-30440434D01*
X43844411Y-30418300D01*
X86546639Y-30418300D01*
X86003622Y-30637693D01*
X85476162Y-30982853D01*
X85025789Y-31423891D01*
X84669658Y-31944006D01*
X84421334Y-32523390D01*
X84290276Y-33139972D01*
X84281475Y-33770267D01*
X84395266Y-34390268D01*
X84627316Y-34976359D01*
X84968785Y-35506216D01*
X85406668Y-35959657D01*
X85924285Y-36319410D01*
X86501921Y-36571773D01*
X87117573Y-36707133D01*
X87747791Y-36720334D01*
X88368571Y-36610874D01*
X88956268Y-36382921D01*
X89488496Y-36045159D01*
X89944983Y-35610452D01*
X90308341Y-35095360D01*
X90564730Y-34519500D01*
X90581700Y-34444806D01*
X90581700Y-58508900D01*
X79453300Y-58508900D01*
X79453300Y-57254775D01*
X79361225Y-57162700D01*
X78954040Y-57162700D01*
X78930486Y-57149487D01*
X78954447Y-57137300D01*
X79361225Y-57137300D01*
X79453300Y-57045225D01*
X79453300Y-55638726D01*
X79439147Y-55567571D01*
X79411383Y-55500545D01*
X79371078Y-55440223D01*
X79319778Y-55388923D01*
X79259456Y-55348617D01*
X79192430Y-55320854D01*
X79121275Y-55306700D01*
X76939775Y-55306700D01*
X76847700Y-55398775D01*
X76847700Y-56230960D01*
X76822300Y-56276238D01*
X76822300Y-55398775D01*
X76730225Y-55306700D01*
X74548725Y-55306700D01*
X74477570Y-55320854D01*
X74410544Y-55348617D01*
X74350222Y-55388923D01*
X74298922Y-55440223D01*
X74258617Y-55500545D01*
X74230853Y-55567571D01*
X74216700Y-55638726D01*
X74216700Y-57045225D01*
X74308775Y-57137300D01*
X74715960Y-57137300D01*
X74739514Y-57150513D01*
X74715553Y-57162700D01*
X74308775Y-57162700D01*
X74216700Y-57254775D01*
X74216700Y-58508900D01*
X64848300Y-58508900D01*
X64848300Y-57254775D01*
X64756225Y-57162700D01*
X64349040Y-57162700D01*
X64325486Y-57149487D01*
X64349447Y-57137300D01*
X64756225Y-57137300D01*
X64848300Y-57045225D01*
X64848300Y-55638726D01*
X64834147Y-55567571D01*
X64806383Y-55500545D01*
X64766078Y-55440223D01*
X64714778Y-55388923D01*
X64654456Y-55348617D01*
X64587430Y-55320854D01*
X64516275Y-55306700D01*
X62334775Y-55306700D01*
X62242700Y-55398775D01*
X62242700Y-56230960D01*
X62217300Y-56276238D01*
X62217300Y-55398775D01*
X62125225Y-55306700D01*
X59943725Y-55306700D01*
X59872570Y-55320854D01*
X59805544Y-55348617D01*
X59745222Y-55388923D01*
X59693922Y-55440223D01*
X59653617Y-55500545D01*
X59625853Y-55567571D01*
X59611700Y-55638726D01*
X59611700Y-57045225D01*
X59703775Y-57137300D01*
X60110960Y-57137300D01*
X60134514Y-57150513D01*
X60110553Y-57162700D01*
X59703775Y-57162700D01*
X59611700Y-57254775D01*
X59611700Y-58508900D01*
X50243300Y-58508900D01*
X50243300Y-57254775D01*
X50151225Y-57162700D01*
X49744040Y-57162700D01*
X49720486Y-57149487D01*
X49744447Y-57137300D01*
X50151225Y-57137300D01*
X50243300Y-57045225D01*
X50243300Y-55638726D01*
X50229147Y-55567571D01*
X50201383Y-55500545D01*
X50161078Y-55440223D01*
X50109778Y-55388923D01*
X50049456Y-55348617D01*
X49982430Y-55320854D01*
X49911275Y-55306700D01*
X47729775Y-55306700D01*
X47637700Y-55398775D01*
X47637700Y-56230960D01*
X47612300Y-56276238D01*
X47612300Y-55398775D01*
X47520225Y-55306700D01*
X45338725Y-55306700D01*
X45267570Y-55320854D01*
X45200544Y-55348617D01*
X45140222Y-55388923D01*
X45088922Y-55440223D01*
X45048617Y-55500545D01*
X45020853Y-55567571D01*
X45006700Y-55638726D01*
X45006700Y-57045225D01*
X45098775Y-57137300D01*
X45505960Y-57137300D01*
X45529514Y-57150513D01*
X45505553Y-57162700D01*
X45098775Y-57162700D01*
X45006700Y-57254775D01*
X45006700Y-58508900D01*
X35638300Y-58508900D01*
X35638300Y-57254775D01*
X35546225Y-57162700D01*
X35139040Y-57162700D01*
X35115486Y-57149487D01*
X35139447Y-57137300D01*
X35546225Y-57137300D01*
X35638300Y-57045225D01*
X35638300Y-55638726D01*
X35624147Y-55567571D01*
X35596383Y-55500545D01*
X35556078Y-55440223D01*
X35504778Y-55388923D01*
X35444456Y-55348617D01*
X35377430Y-55320854D01*
X35306275Y-55306700D01*
X33124775Y-55306700D01*
X33032700Y-55398775D01*
X33032700Y-56230960D01*
X33007300Y-56276238D01*
X33007300Y-55398775D01*
X32915225Y-55306700D01*
X30733725Y-55306700D01*
X30721300Y-55309172D01*
X30721300Y-54533800D01*
X35560000Y-54533800D01*
X35786439Y-54511597D01*
X36013219Y-54491757D01*
X36025666Y-54488141D01*
X36038555Y-54486877D01*
X36256375Y-54421113D01*
X36474976Y-54357604D01*
X36486479Y-54351641D01*
X36498881Y-54347897D01*
X36699803Y-54241065D01*
X36901881Y-54136317D01*
X36912008Y-54128233D01*
X36923446Y-54122151D01*
X37099792Y-53978327D01*
X37277676Y-53836324D01*
X37295711Y-53818539D01*
X37296078Y-53818240D01*
X37296359Y-53817900D01*
X37302170Y-53812170D01*
X39334170Y-51780170D01*
X39478618Y-51604315D01*
X39624915Y-51429966D01*
X39631157Y-51418612D01*
X39639380Y-51408601D01*
X39746932Y-51208017D01*
X39856566Y-51008594D01*
X39860483Y-50996247D01*
X39866606Y-50984827D01*
X39933149Y-50767173D01*
X40001960Y-50550253D01*
X40003404Y-50537377D01*
X40007192Y-50524988D01*
X40030190Y-50298581D01*
X40055560Y-50072400D01*
X40055737Y-50047076D01*
X40055785Y-50046600D01*
X40055743Y-50046157D01*
X40055800Y-50038000D01*
X40055800Y-47739775D01*
X40466700Y-47739775D01*
X40466700Y-48421275D01*
X40480854Y-48492430D01*
X40508617Y-48559456D01*
X40548923Y-48619778D01*
X40600223Y-48671078D01*
X40660545Y-48711383D01*
X40727571Y-48739147D01*
X40798726Y-48753300D01*
X41730225Y-48753300D01*
X41822300Y-48661225D01*
X41822300Y-47647700D01*
X41847700Y-47647700D01*
X41847700Y-48661225D01*
X41939775Y-48753300D01*
X42871274Y-48753300D01*
X42942429Y-48739147D01*
X43009455Y-48711383D01*
X43069777Y-48671078D01*
X43121077Y-48619778D01*
X43161383Y-48559456D01*
X43189146Y-48492430D01*
X43203300Y-48421275D01*
X43203300Y-47739775D01*
X43111225Y-47647700D01*
X41847700Y-47647700D01*
X41822300Y-47647700D01*
X40558775Y-47647700D01*
X40466700Y-47739775D01*
X40055800Y-47739775D01*
X40055800Y-46848725D01*
X40466700Y-46848725D01*
X40466700Y-47530225D01*
X40558775Y-47622300D01*
X41822300Y-47622300D01*
X41822300Y-46608775D01*
X41847700Y-46608775D01*
X41847700Y-47622300D01*
X43111225Y-47622300D01*
X43203300Y-47530225D01*
X43203300Y-47095717D01*
X55891047Y-47095717D01*
X55935557Y-47338236D01*
X56026326Y-47567490D01*
X56159894Y-47774748D01*
X56331176Y-47952115D01*
X56533646Y-48092836D01*
X56759593Y-48191550D01*
X57000410Y-48244497D01*
X57246926Y-48249660D01*
X57489749Y-48206844D01*
X57719631Y-48117679D01*
X57927817Y-47985560D01*
X58106375Y-47815521D01*
X58248506Y-47614038D01*
X58348795Y-47388786D01*
X58403422Y-47148344D01*
X58407354Y-46866715D01*
X58359462Y-46624842D01*
X58265502Y-46396877D01*
X58129052Y-46191504D01*
X57955311Y-46016546D01*
X57750896Y-45878666D01*
X57523593Y-45783117D01*
X57282060Y-45733537D01*
X57035496Y-45731816D01*
X56793294Y-45778018D01*
X56564679Y-45870385D01*
X56358359Y-46005397D01*
X56182192Y-46177912D01*
X56042888Y-46381360D01*
X55945754Y-46607991D01*
X55894490Y-46849172D01*
X55891047Y-47095717D01*
X43203300Y-47095717D01*
X43203300Y-46848725D01*
X43189146Y-46777570D01*
X43161383Y-46710544D01*
X43121077Y-46650222D01*
X43069777Y-46598922D01*
X43009455Y-46558617D01*
X42942429Y-46530853D01*
X42871274Y-46516700D01*
X41939775Y-46516700D01*
X41847700Y-46608775D01*
X41822300Y-46608775D01*
X41730225Y-46516700D01*
X40798726Y-46516700D01*
X40727571Y-46530853D01*
X40660545Y-46558617D01*
X40600223Y-46598922D01*
X40548923Y-46650222D01*
X40508617Y-46710544D01*
X40480854Y-46777570D01*
X40466700Y-46848725D01*
X40055800Y-46848725D01*
X40055800Y-46114300D01*
X43900000Y-46114300D01*
X43922299Y-46112104D01*
X43943741Y-46105599D01*
X43963502Y-46095037D01*
X43980822Y-46080822D01*
X43995037Y-46063502D01*
X44005599Y-46043741D01*
X44012104Y-46022299D01*
X44014300Y-46000000D01*
X44014300Y-45287172D01*
X56330789Y-45287172D01*
X56417713Y-45479512D01*
X56632631Y-45602593D01*
X56867432Y-45681380D01*
X57113091Y-45712845D01*
X57360169Y-45695781D01*
X57599171Y-45630841D01*
X57820911Y-45520523D01*
X57882287Y-45479512D01*
X57969211Y-45287172D01*
X57150000Y-44467961D01*
X56330789Y-45287172D01*
X44014300Y-45287172D01*
X44014300Y-44034775D01*
X54120700Y-44034775D01*
X54120700Y-44366274D01*
X54134853Y-44437429D01*
X54162617Y-44504455D01*
X54202922Y-44564777D01*
X54254222Y-44616077D01*
X54314544Y-44656383D01*
X54381570Y-44684146D01*
X54452725Y-44698300D01*
X54759225Y-44698300D01*
X54851300Y-44606225D01*
X54851300Y-43942700D01*
X54876700Y-43942700D01*
X54876700Y-44606225D01*
X54968775Y-44698300D01*
X55275275Y-44698300D01*
X55346430Y-44684146D01*
X55413456Y-44656383D01*
X55473778Y-44616077D01*
X55525078Y-44564777D01*
X55565383Y-44504455D01*
X55593147Y-44437429D01*
X55597987Y-44413091D01*
X55887155Y-44413091D01*
X55904219Y-44660169D01*
X55969159Y-44899171D01*
X56079477Y-45120911D01*
X56120488Y-45182287D01*
X56312828Y-45269211D01*
X57132039Y-44450000D01*
X57167961Y-44450000D01*
X57987172Y-45269211D01*
X58179512Y-45182287D01*
X58302593Y-44967369D01*
X58381380Y-44732568D01*
X58412845Y-44486909D01*
X58395781Y-44239831D01*
X58330841Y-44000829D01*
X58220523Y-43779089D01*
X58179512Y-43717713D01*
X57987172Y-43630789D01*
X57167961Y-44450000D01*
X57132039Y-44450000D01*
X56312828Y-43630789D01*
X56120488Y-43717713D01*
X55997407Y-43932631D01*
X55918620Y-44167432D01*
X55887155Y-44413091D01*
X55597987Y-44413091D01*
X55607300Y-44366274D01*
X55607300Y-44034775D01*
X55515225Y-43942700D01*
X54876700Y-43942700D01*
X54851300Y-43942700D01*
X54212775Y-43942700D01*
X54120700Y-44034775D01*
X44014300Y-44034775D01*
X44014300Y-40373300D01*
X46828420Y-40373300D01*
X47296560Y-40841440D01*
X47368171Y-40900261D01*
X47439169Y-40959836D01*
X47443793Y-40962378D01*
X47447869Y-40965726D01*
X47529544Y-41009520D01*
X47610758Y-41054168D01*
X47615785Y-41055763D01*
X47620437Y-41058257D01*
X47709134Y-41085375D01*
X47797402Y-41113375D01*
X47802639Y-41113962D01*
X47807691Y-41115507D01*
X47899968Y-41124880D01*
X47991992Y-41135202D01*
X48002303Y-41135274D01*
X48002499Y-41135294D01*
X48002681Y-41135277D01*
X48006000Y-41135300D01*
X54753963Y-41135300D01*
X54684534Y-41190724D01*
X54677194Y-41197962D01*
X54677040Y-41198088D01*
X54676922Y-41198231D01*
X54674560Y-41200560D01*
X54154560Y-41720560D01*
X54030274Y-41871869D01*
X53937743Y-42044437D01*
X53880494Y-42231690D01*
X53860706Y-42426498D01*
X53879134Y-42621439D01*
X53935075Y-42809088D01*
X54026397Y-42982298D01*
X54149624Y-43134471D01*
X54269079Y-43233996D01*
X54254222Y-43243923D01*
X54202922Y-43295223D01*
X54162617Y-43355545D01*
X54134853Y-43422571D01*
X54120700Y-43493726D01*
X54120700Y-43825225D01*
X54212775Y-43917300D01*
X54851300Y-43917300D01*
X54851300Y-43897300D01*
X54876700Y-43897300D01*
X54876700Y-43917300D01*
X55515225Y-43917300D01*
X55607300Y-43825225D01*
X55607300Y-43612828D01*
X56330789Y-43612828D01*
X57150000Y-44432039D01*
X57969211Y-43612828D01*
X57882287Y-43420488D01*
X57667369Y-43297407D01*
X57432568Y-43218620D01*
X57186909Y-43187155D01*
X56939831Y-43204219D01*
X56700829Y-43269159D01*
X56479089Y-43379477D01*
X56417713Y-43420488D01*
X56330789Y-43612828D01*
X55607300Y-43612828D01*
X55607300Y-43493726D01*
X55593147Y-43422571D01*
X55565383Y-43355545D01*
X55525078Y-43295223D01*
X55473778Y-43243923D01*
X55458060Y-43233420D01*
X55563466Y-43149276D01*
X55573440Y-43139440D01*
X55799580Y-42913300D01*
X56390433Y-42913300D01*
X56533646Y-43012836D01*
X56759593Y-43111550D01*
X57000410Y-43164497D01*
X57246926Y-43169660D01*
X57489749Y-43126844D01*
X57719631Y-43037679D01*
X57915621Y-42913300D01*
X58270303Y-42913300D01*
X58215677Y-43040751D01*
X58179948Y-43208847D01*
X58177548Y-43380682D01*
X58208571Y-43549710D01*
X58271833Y-43709493D01*
X58364927Y-43853945D01*
X58484305Y-43977565D01*
X58625420Y-44075643D01*
X58782898Y-44144443D01*
X58934499Y-44177775D01*
X59129427Y-44372703D01*
X59115639Y-44389489D01*
X59080969Y-44430807D01*
X59079489Y-44433499D01*
X59077539Y-44435873D01*
X59052042Y-44483424D01*
X59026041Y-44530720D01*
X59025112Y-44533649D01*
X59023661Y-44536355D01*
X59007894Y-44587927D01*
X58991566Y-44639399D01*
X58991223Y-44642454D01*
X58990326Y-44645389D01*
X58984877Y-44699032D01*
X58978857Y-44752704D01*
X58978815Y-44758714D01*
X58978804Y-44758822D01*
X58978814Y-44758923D01*
X58978800Y-44760861D01*
X58978800Y-47904942D01*
X58984065Y-47958643D01*
X58988769Y-48012406D01*
X58989626Y-48015357D01*
X58989926Y-48018414D01*
X59005517Y-48070055D01*
X59020578Y-48121895D01*
X59021993Y-48124624D01*
X59022880Y-48127563D01*
X59048218Y-48175217D01*
X59073049Y-48223120D01*
X59074964Y-48225518D01*
X59076407Y-48228233D01*
X59110518Y-48270057D01*
X59144181Y-48312226D01*
X59148401Y-48316506D01*
X59148469Y-48316589D01*
X59148546Y-48316653D01*
X59149908Y-48318034D01*
X59309267Y-48477393D01*
X59350992Y-48511666D01*
X59392305Y-48546332D01*
X59394996Y-48547812D01*
X59397372Y-48549763D01*
X59444956Y-48575278D01*
X59492218Y-48601260D01*
X59495145Y-48602189D01*
X59497854Y-48603641D01*
X59549498Y-48619430D01*
X59600897Y-48635735D01*
X59603947Y-48636077D01*
X59606887Y-48636976D01*
X59660579Y-48642429D01*
X59714202Y-48648444D01*
X59720212Y-48648486D01*
X59720320Y-48648497D01*
X59720421Y-48648487D01*
X59722359Y-48648501D01*
X61361641Y-48648501D01*
X61415342Y-48643236D01*
X61469105Y-48638532D01*
X61472056Y-48637675D01*
X61475113Y-48637375D01*
X61526754Y-48621784D01*
X61578594Y-48606723D01*
X61581323Y-48605308D01*
X61584262Y-48604421D01*
X61631916Y-48579083D01*
X61679819Y-48554252D01*
X61682217Y-48552337D01*
X61684932Y-48550894D01*
X61726756Y-48516783D01*
X61768925Y-48483120D01*
X61773205Y-48478900D01*
X61773288Y-48478832D01*
X61773352Y-48478755D01*
X61774733Y-48477393D01*
X61930092Y-48322034D01*
X61964361Y-48280314D01*
X61999031Y-48238996D01*
X62000511Y-48236304D01*
X62002461Y-48233930D01*
X62027958Y-48186379D01*
X62053959Y-48139083D01*
X62054888Y-48136154D01*
X62056339Y-48133448D01*
X62072119Y-48081835D01*
X62088434Y-48030404D01*
X62088776Y-48027354D01*
X62089675Y-48024414D01*
X62095128Y-47970722D01*
X62101143Y-47917099D01*
X62101185Y-47911089D01*
X62101196Y-47910981D01*
X62101186Y-47910880D01*
X62101200Y-47908942D01*
X62101200Y-47371000D01*
X62090074Y-47257528D01*
X62087082Y-47247618D01*
X62087082Y-47046000D01*
X62079971Y-46973801D01*
X62069475Y-46939200D01*
X62764918Y-46939200D01*
X62764918Y-47821000D01*
X62772029Y-47893199D01*
X62793089Y-47962624D01*
X62827288Y-48026607D01*
X62873313Y-48082687D01*
X62929393Y-48128712D01*
X62993376Y-48162911D01*
X63062801Y-48183971D01*
X63135000Y-48191082D01*
X63635000Y-48191082D01*
X63707199Y-48183971D01*
X63776624Y-48162911D01*
X63840607Y-48128712D01*
X63896687Y-48082687D01*
X63942712Y-48026607D01*
X63976911Y-47962624D01*
X63997971Y-47893199D01*
X64005082Y-47821000D01*
X64005082Y-47475775D01*
X64266700Y-47475775D01*
X64266700Y-47857275D01*
X64280854Y-47928430D01*
X64308617Y-47995456D01*
X64348923Y-48055778D01*
X64400223Y-48107078D01*
X64460545Y-48147383D01*
X64527571Y-48175147D01*
X64598726Y-48189300D01*
X64780225Y-48189300D01*
X64872300Y-48097225D01*
X64872300Y-47383700D01*
X64897700Y-47383700D01*
X64897700Y-48097225D01*
X64989775Y-48189300D01*
X65171274Y-48189300D01*
X65242429Y-48175147D01*
X65309455Y-48147383D01*
X65369777Y-48107078D01*
X65421077Y-48055778D01*
X65461383Y-47995456D01*
X65489146Y-47928430D01*
X65503300Y-47857275D01*
X65503300Y-47475775D01*
X65411225Y-47383700D01*
X64897700Y-47383700D01*
X64872300Y-47383700D01*
X64358775Y-47383700D01*
X64266700Y-47475775D01*
X64005082Y-47475775D01*
X64005082Y-46921000D01*
X64001510Y-46884725D01*
X64266700Y-46884725D01*
X64266700Y-47266225D01*
X64358775Y-47358300D01*
X64872300Y-47358300D01*
X64872300Y-46644775D01*
X64897700Y-46644775D01*
X64897700Y-47358300D01*
X65411225Y-47358300D01*
X65503300Y-47266225D01*
X65503300Y-46884725D01*
X65489146Y-46813570D01*
X65461383Y-46746544D01*
X65421077Y-46686222D01*
X65369777Y-46634922D01*
X65309455Y-46594617D01*
X65242429Y-46566853D01*
X65171274Y-46552700D01*
X64989775Y-46552700D01*
X64897700Y-46644775D01*
X64872300Y-46644775D01*
X64780225Y-46552700D01*
X64598726Y-46552700D01*
X64527571Y-46566853D01*
X64460545Y-46594617D01*
X64400223Y-46634922D01*
X64348923Y-46686222D01*
X64308617Y-46746544D01*
X64280854Y-46813570D01*
X64266700Y-46884725D01*
X64001510Y-46884725D01*
X63997971Y-46848801D01*
X63976911Y-46779376D01*
X63969200Y-46764949D01*
X63969200Y-46489200D01*
X63963925Y-46435405D01*
X63959230Y-46381736D01*
X63958374Y-46378791D01*
X63958074Y-46375728D01*
X63942456Y-46323999D01*
X63927421Y-46272247D01*
X63926009Y-46269522D01*
X63925120Y-46266579D01*
X63899774Y-46218910D01*
X63883862Y-46188212D01*
X63896687Y-46177687D01*
X63942712Y-46121607D01*
X63976911Y-46057624D01*
X63997971Y-45988199D01*
X64005082Y-45916000D01*
X64005082Y-45570775D01*
X64266700Y-45570775D01*
X64266700Y-45952275D01*
X64280854Y-46023430D01*
X64308617Y-46090456D01*
X64348923Y-46150778D01*
X64400223Y-46202078D01*
X64460545Y-46242383D01*
X64527571Y-46270147D01*
X64598726Y-46284300D01*
X64780225Y-46284300D01*
X64872300Y-46192225D01*
X64872300Y-45478700D01*
X64897700Y-45478700D01*
X64897700Y-46192225D01*
X64989775Y-46284300D01*
X65171274Y-46284300D01*
X65242429Y-46270147D01*
X65309455Y-46242383D01*
X65369777Y-46202078D01*
X65421077Y-46150778D01*
X65461383Y-46090456D01*
X65489146Y-46023430D01*
X65503300Y-45952275D01*
X65503300Y-45570775D01*
X65411225Y-45478700D01*
X64897700Y-45478700D01*
X64872300Y-45478700D01*
X64358775Y-45478700D01*
X64266700Y-45570775D01*
X64005082Y-45570775D01*
X64005082Y-45016000D01*
X64001510Y-44979725D01*
X64266700Y-44979725D01*
X64266700Y-45361225D01*
X64358775Y-45453300D01*
X64872300Y-45453300D01*
X64872300Y-44739775D01*
X64897700Y-44739775D01*
X64897700Y-45453300D01*
X65411225Y-45453300D01*
X65503300Y-45361225D01*
X65503300Y-44979725D01*
X65489146Y-44908570D01*
X65461383Y-44841544D01*
X65421077Y-44781222D01*
X65369777Y-44729922D01*
X65309455Y-44689617D01*
X65242429Y-44661853D01*
X65171274Y-44647700D01*
X64989775Y-44647700D01*
X64897700Y-44739775D01*
X64872300Y-44739775D01*
X64780225Y-44647700D01*
X64598726Y-44647700D01*
X64527571Y-44661853D01*
X64460545Y-44689617D01*
X64400223Y-44729922D01*
X64348923Y-44781222D01*
X64308617Y-44841544D01*
X64280854Y-44908570D01*
X64266700Y-44979725D01*
X64001510Y-44979725D01*
X63997971Y-44943801D01*
X63976911Y-44874376D01*
X63942712Y-44810393D01*
X63896687Y-44754313D01*
X63840607Y-44708288D01*
X63776624Y-44674089D01*
X63707199Y-44653029D01*
X63635000Y-44645918D01*
X63135000Y-44645918D01*
X63062801Y-44653029D01*
X62993376Y-44674089D01*
X62929393Y-44708288D01*
X62873313Y-44754313D01*
X62827288Y-44810393D01*
X62793089Y-44874376D01*
X62790837Y-44881800D01*
X62369000Y-44881800D01*
X62318006Y-44886800D01*
X62101200Y-44886800D01*
X62101200Y-44741082D01*
X62217000Y-44741082D01*
X62289199Y-44733971D01*
X62358624Y-44712911D01*
X62422607Y-44678712D01*
X62478687Y-44632687D01*
X62524712Y-44576607D01*
X62558911Y-44512624D01*
X62579971Y-44443199D01*
X62587082Y-44371000D01*
X62587082Y-44173775D01*
X80269700Y-44173775D01*
X80269700Y-44480275D01*
X80283854Y-44551430D01*
X80311617Y-44618456D01*
X80351923Y-44678778D01*
X80403223Y-44730078D01*
X80463545Y-44770383D01*
X80530571Y-44798147D01*
X80601726Y-44812300D01*
X80933225Y-44812300D01*
X81025300Y-44720225D01*
X81025300Y-44081700D01*
X80361775Y-44081700D01*
X80269700Y-44173775D01*
X62587082Y-44173775D01*
X62587082Y-43657725D01*
X80269700Y-43657725D01*
X80269700Y-43964225D01*
X80361775Y-44056300D01*
X81025300Y-44056300D01*
X81025300Y-43417775D01*
X80933225Y-43325700D01*
X80601726Y-43325700D01*
X80530571Y-43339853D01*
X80463545Y-43367617D01*
X80403223Y-43407922D01*
X80351923Y-43459222D01*
X80311617Y-43519544D01*
X80283854Y-43586570D01*
X80269700Y-43657725D01*
X62587082Y-43657725D01*
X62587082Y-43471000D01*
X62579971Y-43398801D01*
X62558911Y-43329376D01*
X62524712Y-43265393D01*
X62478687Y-43209313D01*
X62422607Y-43163288D01*
X62358624Y-43129089D01*
X62289199Y-43108029D01*
X62217000Y-43100918D01*
X61451200Y-43100918D01*
X61451200Y-42732768D01*
X61571470Y-42635376D01*
X61674670Y-42511511D01*
X77944700Y-42511511D01*
X77944700Y-42743011D01*
X77958854Y-42814166D01*
X77986617Y-42881192D01*
X78026923Y-42941514D01*
X78078223Y-42992814D01*
X78138545Y-43033119D01*
X78205571Y-43060883D01*
X78276726Y-43075036D01*
X78983225Y-43075036D01*
X79075300Y-42982961D01*
X79075300Y-42419436D01*
X79100700Y-42419436D01*
X79100700Y-42982961D01*
X79192775Y-43075036D01*
X79899274Y-43075036D01*
X79970429Y-43060883D01*
X80037455Y-43033119D01*
X80097777Y-42992814D01*
X80149077Y-42941514D01*
X80189383Y-42881192D01*
X80217146Y-42814166D01*
X80231300Y-42743011D01*
X80231300Y-42511511D01*
X80139225Y-42419436D01*
X79100700Y-42419436D01*
X79075300Y-42419436D01*
X78036775Y-42419436D01*
X77944700Y-42511511D01*
X61674670Y-42511511D01*
X61696810Y-42484938D01*
X61790543Y-42313020D01*
X61849098Y-42126171D01*
X61870244Y-41931506D01*
X61853178Y-41736441D01*
X61798549Y-41548407D01*
X61708438Y-41374564D01*
X61602224Y-41241511D01*
X77944700Y-41241511D01*
X77944700Y-41473011D01*
X77958854Y-41544166D01*
X77986617Y-41611192D01*
X78026923Y-41671514D01*
X78078223Y-41722814D01*
X78138545Y-41763119D01*
X78159348Y-41771736D01*
X78138545Y-41780353D01*
X78078223Y-41820658D01*
X78026923Y-41871958D01*
X77986617Y-41932280D01*
X77958854Y-41999306D01*
X77944700Y-42070461D01*
X77944700Y-42301961D01*
X78036775Y-42394036D01*
X79075300Y-42394036D01*
X79075300Y-41830511D01*
X79016525Y-41771736D01*
X79075300Y-41712961D01*
X79075300Y-41149436D01*
X79100700Y-41149436D01*
X79100700Y-41712961D01*
X79159475Y-41771736D01*
X79100700Y-41830511D01*
X79100700Y-42394036D01*
X80139225Y-42394036D01*
X80231300Y-42301961D01*
X80231300Y-42070461D01*
X80217146Y-41999306D01*
X80189383Y-41932280D01*
X80149077Y-41871958D01*
X80097777Y-41820658D01*
X80037455Y-41780353D01*
X80016652Y-41771736D01*
X80037455Y-41763119D01*
X80097777Y-41722814D01*
X80149077Y-41671514D01*
X80189383Y-41611192D01*
X80217146Y-41544166D01*
X80231300Y-41473011D01*
X80231300Y-41241511D01*
X80139225Y-41149436D01*
X79100700Y-41149436D01*
X79075300Y-41149436D01*
X78036775Y-41149436D01*
X77944700Y-41241511D01*
X61602224Y-41241511D01*
X61586276Y-41221534D01*
X61576440Y-41211560D01*
X61565440Y-41200560D01*
X61493829Y-41141739D01*
X61422831Y-41082164D01*
X61418207Y-41079622D01*
X61414131Y-41076274D01*
X61332456Y-41032480D01*
X61251242Y-40987832D01*
X61246215Y-40986237D01*
X61241563Y-40983743D01*
X61152894Y-40956634D01*
X61064598Y-40928625D01*
X61059358Y-40928037D01*
X61054310Y-40926494D01*
X60962072Y-40917125D01*
X60870008Y-40906798D01*
X60859698Y-40906726D01*
X60859502Y-40906706D01*
X60859320Y-40906723D01*
X60856000Y-40906700D01*
X59684974Y-40906700D01*
X59761960Y-40843912D01*
X59886773Y-40693038D01*
X59979905Y-40520794D01*
X60037808Y-40333741D01*
X60058276Y-40139004D01*
X60043033Y-39971511D01*
X77944700Y-39971511D01*
X77944700Y-40203011D01*
X77958854Y-40274166D01*
X77986617Y-40341192D01*
X78026923Y-40401514D01*
X78078223Y-40452814D01*
X78138545Y-40493119D01*
X78159348Y-40501736D01*
X78138545Y-40510353D01*
X78078223Y-40550658D01*
X78026923Y-40601958D01*
X77986617Y-40662280D01*
X77958854Y-40729306D01*
X77944700Y-40800461D01*
X77944700Y-41031961D01*
X78036775Y-41124036D01*
X79075300Y-41124036D01*
X79075300Y-40560511D01*
X79016525Y-40501736D01*
X79075300Y-40442961D01*
X79075300Y-39879436D01*
X79100700Y-39879436D01*
X79100700Y-40442961D01*
X79159475Y-40501736D01*
X79100700Y-40560511D01*
X79100700Y-41124036D01*
X80139225Y-41124036D01*
X80231300Y-41031961D01*
X80231300Y-40800461D01*
X80217146Y-40729306D01*
X80189383Y-40662280D01*
X80149077Y-40601958D01*
X80097777Y-40550658D01*
X80037455Y-40510353D01*
X80016652Y-40501736D01*
X80037455Y-40493119D01*
X80097777Y-40452814D01*
X80149077Y-40401514D01*
X80189383Y-40341192D01*
X80217146Y-40274166D01*
X80231300Y-40203011D01*
X80231300Y-39971511D01*
X80139225Y-39879436D01*
X79100700Y-39879436D01*
X79075300Y-39879436D01*
X78036775Y-39879436D01*
X77944700Y-39971511D01*
X60043033Y-39971511D01*
X60040529Y-39944000D01*
X59985244Y-39756157D01*
X59894526Y-39582630D01*
X59771830Y-39430028D01*
X59621831Y-39304164D01*
X59450242Y-39209832D01*
X59263598Y-39150625D01*
X59069008Y-39128798D01*
X59055000Y-39128700D01*
X48421580Y-39128700D01*
X47953440Y-38660560D01*
X47881829Y-38601739D01*
X47810831Y-38542164D01*
X47806207Y-38539622D01*
X47802131Y-38536274D01*
X47720456Y-38492480D01*
X47639242Y-38447832D01*
X47634215Y-38446237D01*
X47629563Y-38443743D01*
X47540894Y-38416634D01*
X47452598Y-38388625D01*
X47447358Y-38388037D01*
X47442310Y-38386494D01*
X47350072Y-38377125D01*
X47258008Y-38366798D01*
X47247698Y-38366726D01*
X47247502Y-38366706D01*
X47247320Y-38366723D01*
X47244000Y-38366700D01*
X41427679Y-38366700D01*
X39090464Y-36029485D01*
X39082537Y-35945629D01*
X39202292Y-35982700D01*
X39441400Y-36007831D01*
X39680835Y-35986041D01*
X39911478Y-35918159D01*
X39949607Y-35898225D01*
X41449691Y-37398309D01*
X41481451Y-37424397D01*
X41512872Y-37450763D01*
X41514918Y-37451888D01*
X41516726Y-37453373D01*
X41552923Y-37472781D01*
X41588893Y-37492556D01*
X41591122Y-37493263D01*
X41593181Y-37494367D01*
X41632381Y-37506351D01*
X41671583Y-37518787D01*
X41673912Y-37519048D01*
X41676142Y-37519730D01*
X41716915Y-37523872D01*
X41757794Y-37528457D01*
X41762366Y-37528489D01*
X41762448Y-37528497D01*
X41762524Y-37528490D01*
X41764000Y-37528500D01*
X42236113Y-37528500D01*
X42266723Y-37560198D01*
X42366936Y-37629848D01*
X42478768Y-37678706D01*
X42597961Y-37704912D01*
X42719973Y-37707468D01*
X42840159Y-37686276D01*
X42953939Y-37642144D01*
X43056980Y-37576752D01*
X43145357Y-37492591D01*
X43215705Y-37392867D01*
X43265343Y-37281379D01*
X43292380Y-37162372D01*
X43292743Y-37136325D01*
X51446882Y-37136325D01*
X51468912Y-37256359D01*
X51513838Y-37369828D01*
X51579948Y-37472411D01*
X51664723Y-37560198D01*
X51764936Y-37629848D01*
X51876768Y-37678706D01*
X51995961Y-37704912D01*
X52063713Y-37706331D01*
X52771691Y-38414309D01*
X52803451Y-38440397D01*
X52834872Y-38466763D01*
X52836918Y-38467888D01*
X52838726Y-38469373D01*
X52874923Y-38488781D01*
X52910893Y-38508556D01*
X52913122Y-38509263D01*
X52915181Y-38510367D01*
X52954422Y-38522364D01*
X52993583Y-38534787D01*
X52995907Y-38535048D01*
X52998142Y-38535731D01*
X53038960Y-38539877D01*
X53079794Y-38544457D01*
X53084367Y-38544489D01*
X53084449Y-38544497D01*
X53084525Y-38544490D01*
X53086000Y-38544500D01*
X58492113Y-38544500D01*
X58522723Y-38576198D01*
X58622936Y-38645848D01*
X58734768Y-38694706D01*
X58853961Y-38720912D01*
X58975973Y-38723468D01*
X59096159Y-38702276D01*
X59209939Y-38658144D01*
X59312980Y-38592752D01*
X59401357Y-38508591D01*
X59471705Y-38408867D01*
X59521343Y-38297379D01*
X59548380Y-38178372D01*
X59550327Y-38038980D01*
X59526622Y-37919265D01*
X59480117Y-37806434D01*
X59412581Y-37704785D01*
X59326588Y-37618190D01*
X59225413Y-37549946D01*
X59112909Y-37502654D01*
X58993363Y-37478115D01*
X58871326Y-37477263D01*
X58751449Y-37500130D01*
X58638296Y-37545847D01*
X58536178Y-37612671D01*
X58492443Y-37655500D01*
X53270118Y-37655500D01*
X52691573Y-37076955D01*
X52692327Y-37022980D01*
X52668622Y-36903265D01*
X52622117Y-36790434D01*
X52554581Y-36688785D01*
X52468588Y-36602190D01*
X52367413Y-36533946D01*
X52254909Y-36486654D01*
X52135363Y-36462115D01*
X52013326Y-36461263D01*
X51893449Y-36484130D01*
X51780296Y-36529847D01*
X51678178Y-36596671D01*
X51590984Y-36682058D01*
X51522036Y-36782754D01*
X51473959Y-36894925D01*
X51448586Y-37014297D01*
X51446882Y-37136325D01*
X43292743Y-37136325D01*
X43294327Y-37022980D01*
X43270622Y-36903265D01*
X43224117Y-36790434D01*
X43156581Y-36688785D01*
X43070588Y-36602190D01*
X42969413Y-36533946D01*
X42856909Y-36486654D01*
X42737363Y-36462115D01*
X42615326Y-36461263D01*
X42495449Y-36484130D01*
X42382296Y-36529847D01*
X42280178Y-36596671D01*
X42236443Y-36639500D01*
X41948118Y-36639500D01*
X40577882Y-35269264D01*
X40582283Y-35261258D01*
X40654980Y-35032087D01*
X40681780Y-34793161D01*
X40681900Y-34775961D01*
X40681900Y-34764039D01*
X40658439Y-34524762D01*
X40588948Y-34294598D01*
X40476076Y-34082316D01*
X40324120Y-33896000D01*
X40138870Y-33742748D01*
X39927380Y-33628396D01*
X39697708Y-33557300D01*
X39458600Y-33532169D01*
X39219165Y-33553959D01*
X38988522Y-33621841D01*
X38802299Y-33719196D01*
X38802299Y-33538099D01*
X38797034Y-33484398D01*
X38792330Y-33430635D01*
X38791473Y-33427685D01*
X38791173Y-33424627D01*
X38775568Y-33372940D01*
X38760520Y-33321146D01*
X38759108Y-33318421D01*
X38758219Y-33315478D01*
X38732862Y-33267788D01*
X38708050Y-33219921D01*
X38706135Y-33217523D01*
X38704692Y-33214808D01*
X38681621Y-33186520D01*
X38736220Y-33234040D01*
X38945814Y-33353999D01*
X39174783Y-33430763D01*
X39244755Y-33444682D01*
X39437300Y-33369754D01*
X39437300Y-32242700D01*
X39462700Y-32242700D01*
X39462700Y-33369754D01*
X39655245Y-33444682D01*
X39725217Y-33430763D01*
X39954186Y-33353999D01*
X40163780Y-33234040D01*
X40345943Y-33075496D01*
X40493676Y-32884460D01*
X40601301Y-32668274D01*
X40664682Y-32435245D01*
X40589760Y-32242700D01*
X39462700Y-32242700D01*
X39437300Y-32242700D01*
X38310240Y-32242700D01*
X38235318Y-32435245D01*
X38298699Y-32668274D01*
X38406324Y-32884460D01*
X38459818Y-32953634D01*
X38086874Y-32580690D01*
X38114980Y-32492087D01*
X38141780Y-32253161D01*
X38141900Y-32235961D01*
X38141900Y-32224039D01*
X38122361Y-32024755D01*
X38235318Y-32024755D01*
X38310240Y-32217300D01*
X39437300Y-32217300D01*
X39437300Y-31090246D01*
X39462700Y-31090246D01*
X39462700Y-32217300D01*
X40589760Y-32217300D01*
X40664682Y-32024755D01*
X40601301Y-31791726D01*
X40493676Y-31575540D01*
X40345943Y-31384504D01*
X40163780Y-31225960D01*
X39954186Y-31106001D01*
X39725217Y-31029237D01*
X39655245Y-31015318D01*
X39462700Y-31090246D01*
X39437300Y-31090246D01*
X39244755Y-31015318D01*
X39174783Y-31029237D01*
X38945814Y-31106001D01*
X38736220Y-31225960D01*
X38554057Y-31384504D01*
X38406324Y-31575540D01*
X38298699Y-31791726D01*
X38235318Y-32024755D01*
X38122361Y-32024755D01*
X38118439Y-31984762D01*
X38048948Y-31754598D01*
X37936076Y-31542316D01*
X37784120Y-31356000D01*
X37598870Y-31202748D01*
X37387380Y-31088396D01*
X37157708Y-31017300D01*
X36918600Y-30992169D01*
X36679165Y-31013959D01*
X36448522Y-31081841D01*
X36235457Y-31193229D01*
X36193827Y-31226700D01*
X35087823Y-31226700D01*
X35058870Y-31202748D01*
X34847380Y-31088396D01*
X34617708Y-31017300D01*
X34378600Y-30992169D01*
X34139165Y-31013959D01*
X33908522Y-31081841D01*
X33695457Y-31193229D01*
X33508085Y-31343880D01*
X33353543Y-31528056D01*
X33237717Y-31738742D01*
X33165020Y-31967913D01*
X33138220Y-32206839D01*
X33138100Y-32224039D01*
X33138100Y-32235961D01*
X33161561Y-32475238D01*
X33231052Y-32705402D01*
X33343924Y-32917684D01*
X33495880Y-33104000D01*
X33681130Y-33257252D01*
X33892620Y-33371604D01*
X34122292Y-33442700D01*
X34361400Y-33467831D01*
X34600835Y-33446041D01*
X34723697Y-33409881D01*
X34850134Y-33536318D01*
X33506400Y-33536318D01*
X33434201Y-33543429D01*
X33364776Y-33564489D01*
X33300793Y-33598688D01*
X33244713Y-33644713D01*
X33198688Y-33700793D01*
X33164489Y-33764776D01*
X33143429Y-33834201D01*
X33136318Y-33906400D01*
X33136318Y-35633600D01*
X33143429Y-35705799D01*
X33164489Y-35775224D01*
X33198688Y-35839207D01*
X33244713Y-35895287D01*
X33300793Y-35941312D01*
X33364776Y-35975511D01*
X33434201Y-35996571D01*
X33506400Y-36003682D01*
X35093899Y-36003682D01*
X35093899Y-36059099D01*
X35099164Y-36112800D01*
X35103868Y-36166563D01*
X35104154Y-36167548D01*
X35104247Y-36168567D01*
X35104825Y-36170531D01*
X35105025Y-36172571D01*
X35120616Y-36224212D01*
X35135677Y-36276052D01*
X35136149Y-36276963D01*
X35136438Y-36277944D01*
X35137387Y-36279759D01*
X35137979Y-36281720D01*
X35163317Y-36329374D01*
X35177666Y-36357056D01*
X35189420Y-36486202D01*
X35237707Y-36650268D01*
X35316941Y-36801830D01*
X35424106Y-36935115D01*
X35555117Y-37045047D01*
X35704987Y-37127438D01*
X35868005Y-37179151D01*
X36037963Y-37198215D01*
X36050198Y-37198300D01*
X37421519Y-37198300D01*
X40108919Y-39885700D01*
X26418300Y-39885700D01*
X26418300Y-34448445D01*
X26627316Y-34976359D01*
X26968785Y-35506216D01*
X27406668Y-35959657D01*
X27924285Y-36319410D01*
X28501921Y-36571773D01*
X29117573Y-36707133D01*
X29747791Y-36720334D01*
X30368571Y-36610874D01*
X30956268Y-36382921D01*
X31488496Y-36045159D01*
X31944983Y-35610452D01*
X32308341Y-35095360D01*
X32564730Y-34519500D01*
X32704385Y-33904808D01*
X32714438Y-33184822D01*
X32592001Y-32566470D01*
X32351791Y-31983676D01*
X32002957Y-31458638D01*
X31558786Y-31011355D01*
X31036196Y-30658864D01*
X30463917Y-30418300D01*
X42768933Y-30418300D01*
X42759036Y-30432754D01*
X42759036Y-30432754D01*
G37*
X42759036Y-30432754D02*
X42710959Y-30544925D01*
X42685586Y-30664297D01*
X42683882Y-30786325D01*
X42705912Y-30906359D01*
X42750838Y-31019828D01*
X42816948Y-31122411D01*
X42862500Y-31169581D01*
X42862500Y-31354660D01*
X42678870Y-31202748D01*
X42467380Y-31088396D01*
X42237708Y-31017300D01*
X41998600Y-30992169D01*
X41759165Y-31013959D01*
X41528522Y-31081841D01*
X41315457Y-31193229D01*
X41128085Y-31343880D01*
X40973543Y-31528056D01*
X40857717Y-31738742D01*
X40785020Y-31967913D01*
X40758220Y-32206839D01*
X40758100Y-32224039D01*
X40758100Y-32235961D01*
X40781561Y-32475238D01*
X40851052Y-32705402D01*
X40963924Y-32917684D01*
X41115880Y-33104000D01*
X41301130Y-33257252D01*
X41512620Y-33371604D01*
X41742292Y-33442700D01*
X41981400Y-33467831D01*
X42220835Y-33446041D01*
X42451478Y-33378159D01*
X42664543Y-33266771D01*
X42851915Y-33116120D01*
X42862500Y-33103505D01*
X42862500Y-33268882D01*
X42490490Y-33640892D01*
X42467380Y-33628396D01*
X42237708Y-33557300D01*
X41998600Y-33532169D01*
X41759165Y-33553959D01*
X41528522Y-33621841D01*
X41315457Y-33733229D01*
X41128085Y-33883880D01*
X40973543Y-34068056D01*
X40857717Y-34278742D01*
X40785020Y-34507913D01*
X40758220Y-34746839D01*
X40758100Y-34764039D01*
X40758100Y-34775961D01*
X40781561Y-35015238D01*
X40851052Y-35245402D01*
X40963924Y-35457684D01*
X41115880Y-35644000D01*
X41301130Y-35797252D01*
X41512620Y-35911604D01*
X41742292Y-35982700D01*
X41981400Y-36007831D01*
X42220835Y-35986041D01*
X42451478Y-35918159D01*
X42664543Y-35806771D01*
X42851915Y-35656120D01*
X43006457Y-35471944D01*
X43122283Y-35261258D01*
X43194980Y-35032087D01*
X43201355Y-34975245D01*
X43315318Y-34975245D01*
X43378699Y-35208274D01*
X43486324Y-35424460D01*
X43634057Y-35615496D01*
X43816220Y-35774040D01*
X44025814Y-35893999D01*
X44254783Y-35970763D01*
X44324755Y-35984682D01*
X44517300Y-35909754D01*
X44517300Y-34782700D01*
X44542700Y-34782700D01*
X44542700Y-35909754D01*
X44735245Y-35984682D01*
X44805217Y-35970763D01*
X45034186Y-35893999D01*
X45243780Y-35774040D01*
X45425943Y-35615496D01*
X45573676Y-35424460D01*
X45681301Y-35208274D01*
X45744682Y-34975245D01*
X45669760Y-34782700D01*
X44542700Y-34782700D01*
X44517300Y-34782700D01*
X43390240Y-34782700D01*
X43315318Y-34975245D01*
X43201355Y-34975245D01*
X43221780Y-34793161D01*
X43221900Y-34775961D01*
X43221900Y-34764039D01*
X45838100Y-34764039D01*
X45838100Y-34775961D01*
X45861561Y-35015238D01*
X45931052Y-35245402D01*
X46043924Y-35457684D01*
X46195880Y-35644000D01*
X46381130Y-35797252D01*
X46592620Y-35911604D01*
X46822292Y-35982700D01*
X47061400Y-36007831D01*
X47300835Y-35986041D01*
X47531478Y-35918159D01*
X47744543Y-35806771D01*
X47931915Y-35656120D01*
X48086457Y-35471944D01*
X48202283Y-35261258D01*
X48274980Y-35032087D01*
X48301780Y-34793161D01*
X48301900Y-34775961D01*
X48301900Y-34764039D01*
X48378100Y-34764039D01*
X48378100Y-34775961D01*
X48401561Y-35015238D01*
X48471052Y-35245402D01*
X48583924Y-35457684D01*
X48735880Y-35644000D01*
X48921130Y-35797252D01*
X49132620Y-35911604D01*
X49362292Y-35982700D01*
X49601400Y-36007831D01*
X49840835Y-35986041D01*
X50071478Y-35918159D01*
X50284543Y-35806771D01*
X50471915Y-35656120D01*
X50626457Y-35471944D01*
X50742283Y-35261258D01*
X50814980Y-35032087D01*
X50841780Y-34793161D01*
X50841900Y-34775961D01*
X50841900Y-34764039D01*
X50918100Y-34764039D01*
X50918100Y-34775961D01*
X50941561Y-35015238D01*
X51011052Y-35245402D01*
X51123924Y-35457684D01*
X51275880Y-35644000D01*
X51461130Y-35797252D01*
X51672620Y-35911604D01*
X51902292Y-35982700D01*
X52141400Y-36007831D01*
X52380835Y-35986041D01*
X52611478Y-35918159D01*
X52824543Y-35806771D01*
X53011915Y-35656120D01*
X53166457Y-35471944D01*
X53282283Y-35261258D01*
X53354980Y-35032087D01*
X53381780Y-34793161D01*
X53381900Y-34775961D01*
X53381900Y-34764039D01*
X53458100Y-34764039D01*
X53458100Y-34775961D01*
X53481561Y-35015238D01*
X53551052Y-35245402D01*
X53663924Y-35457684D01*
X53815880Y-35644000D01*
X54001130Y-35797252D01*
X54212620Y-35911604D01*
X54442292Y-35982700D01*
X54681400Y-36007831D01*
X54920835Y-35986041D01*
X55151478Y-35918159D01*
X55364543Y-35806771D01*
X55551915Y-35656120D01*
X55706457Y-35471944D01*
X55822283Y-35261258D01*
X55894980Y-35032087D01*
X55921780Y-34793161D01*
X55921900Y-34775961D01*
X55921900Y-34764039D01*
X55998100Y-34764039D01*
X55998100Y-34775961D01*
X56021561Y-35015238D01*
X56091052Y-35245402D01*
X56203924Y-35457684D01*
X56355880Y-35644000D01*
X56541130Y-35797252D01*
X56752620Y-35911604D01*
X56982292Y-35982700D01*
X57221400Y-36007831D01*
X57460835Y-35986041D01*
X57691478Y-35918159D01*
X57904543Y-35806771D01*
X58091915Y-35656120D01*
X58246457Y-35471944D01*
X58362283Y-35261258D01*
X58434980Y-35032087D01*
X58461780Y-34793161D01*
X58461900Y-34775961D01*
X58461900Y-34764039D01*
X58538100Y-34764039D01*
X58538100Y-34775961D01*
X58561561Y-35015238D01*
X58631052Y-35245402D01*
X58743924Y-35457684D01*
X58895880Y-35644000D01*
X59081130Y-35797252D01*
X59292620Y-35911604D01*
X59522292Y-35982700D01*
X59761400Y-36007831D01*
X60000835Y-35986041D01*
X60231478Y-35918159D01*
X60444543Y-35806771D01*
X60631915Y-35656120D01*
X60786457Y-35471944D01*
X60902283Y-35261258D01*
X60974980Y-35032087D01*
X61001780Y-34793161D01*
X61001900Y-34775961D01*
X61001900Y-34764039D01*
X61078100Y-34764039D01*
X61078100Y-34775961D01*
X61101561Y-35015238D01*
X61171052Y-35245402D01*
X61283924Y-35457684D01*
X61435880Y-35644000D01*
X61621130Y-35797252D01*
X61832620Y-35911604D01*
X62062292Y-35982700D01*
X62301400Y-36007831D01*
X62540835Y-35986041D01*
X62771478Y-35918159D01*
X62920544Y-35840229D01*
X62903959Y-35878925D01*
X62878586Y-35998297D01*
X62876882Y-36120325D01*
X62898912Y-36240359D01*
X62943838Y-36353828D01*
X63009948Y-36456411D01*
X63094723Y-36544198D01*
X63194936Y-36613848D01*
X63306768Y-36662706D01*
X63425961Y-36688912D01*
X63493713Y-36690331D01*
X65979691Y-39176309D01*
X66011451Y-39202397D01*
X66042872Y-39228763D01*
X66044918Y-39229888D01*
X66046726Y-39231373D01*
X66082958Y-39250800D01*
X66118893Y-39270556D01*
X66121118Y-39271262D01*
X66123181Y-39272368D01*
X66162468Y-39284379D01*
X66201583Y-39296787D01*
X66203907Y-39297048D01*
X66206142Y-39297731D01*
X66246960Y-39301877D01*
X66287794Y-39306457D01*
X66292367Y-39306489D01*
X66292449Y-39306497D01*
X66292525Y-39306490D01*
X66294000Y-39306500D01*
X71954113Y-39306500D01*
X71984723Y-39338198D01*
X72084936Y-39407848D01*
X72196768Y-39456706D01*
X72315961Y-39482912D01*
X72437973Y-39485468D01*
X72558159Y-39464276D01*
X72671939Y-39420144D01*
X72774980Y-39354752D01*
X72863357Y-39270591D01*
X72933705Y-39170867D01*
X72983343Y-39059379D01*
X73010380Y-38940372D01*
X73012327Y-38800980D01*
X72992631Y-38701511D01*
X77944700Y-38701511D01*
X77944700Y-38933011D01*
X77958854Y-39004166D01*
X77986617Y-39071192D01*
X78026923Y-39131514D01*
X78078223Y-39182814D01*
X78138545Y-39223119D01*
X78159348Y-39231736D01*
X78138545Y-39240353D01*
X78078223Y-39280658D01*
X78026923Y-39331958D01*
X77986617Y-39392280D01*
X77958854Y-39459306D01*
X77944700Y-39530461D01*
X77944700Y-39761961D01*
X78036775Y-39854036D01*
X79075300Y-39854036D01*
X79075300Y-39290511D01*
X79016525Y-39231736D01*
X79075300Y-39172961D01*
X79075300Y-38609436D01*
X79100700Y-38609436D01*
X79100700Y-39172961D01*
X79159475Y-39231736D01*
X79100700Y-39290511D01*
X79100700Y-39854036D01*
X80139225Y-39854036D01*
X80231300Y-39761961D01*
X80231300Y-39530461D01*
X80217146Y-39459306D01*
X80189383Y-39392280D01*
X80149077Y-39331958D01*
X80097777Y-39280658D01*
X80037455Y-39240353D01*
X80016652Y-39231736D01*
X80037455Y-39223119D01*
X80097777Y-39182814D01*
X80149077Y-39131514D01*
X80189383Y-39071192D01*
X80217146Y-39004166D01*
X80231300Y-38933011D01*
X80231300Y-38701511D01*
X80139225Y-38609436D01*
X79100700Y-38609436D01*
X79075300Y-38609436D01*
X78036775Y-38609436D01*
X77944700Y-38701511D01*
X72992631Y-38701511D01*
X72988622Y-38681265D01*
X72942117Y-38568434D01*
X72874581Y-38466785D01*
X72788588Y-38380190D01*
X72687413Y-38311946D01*
X72574909Y-38264654D01*
X72554483Y-38260461D01*
X77944700Y-38260461D01*
X77944700Y-38491961D01*
X78036775Y-38584036D01*
X79075300Y-38584036D01*
X79075300Y-38020511D01*
X79100700Y-38020511D01*
X79100700Y-38584036D01*
X80139225Y-38584036D01*
X80231300Y-38491961D01*
X80231300Y-38260461D01*
X80217146Y-38189306D01*
X80189383Y-38122280D01*
X80149077Y-38061958D01*
X80097777Y-38010658D01*
X80037455Y-37970353D01*
X79970429Y-37942589D01*
X79899274Y-37928436D01*
X79192775Y-37928436D01*
X79100700Y-38020511D01*
X79075300Y-38020511D01*
X78983225Y-37928436D01*
X78276726Y-37928436D01*
X78205571Y-37942589D01*
X78138545Y-37970353D01*
X78078223Y-38010658D01*
X78026923Y-38061958D01*
X77986617Y-38122280D01*
X77958854Y-38189306D01*
X77944700Y-38260461D01*
X72554483Y-38260461D01*
X72455363Y-38240115D01*
X72333326Y-38239263D01*
X72213449Y-38262130D01*
X72100296Y-38307847D01*
X71998178Y-38374671D01*
X71954443Y-38417500D01*
X66478118Y-38417500D01*
X64121573Y-36060955D01*
X64122327Y-36006980D01*
X64098622Y-35887265D01*
X64052117Y-35774434D01*
X63984581Y-35672785D01*
X63898588Y-35586190D01*
X63797413Y-35517946D01*
X63684909Y-35470654D01*
X63565363Y-35446115D01*
X63443326Y-35445263D01*
X63329152Y-35467042D01*
X63442283Y-35261258D01*
X63514980Y-35032087D01*
X63521355Y-34975245D01*
X63635318Y-34975245D01*
X63698699Y-35208274D01*
X63806324Y-35424460D01*
X63954057Y-35615496D01*
X64136220Y-35774040D01*
X64345814Y-35893999D01*
X64574783Y-35970763D01*
X64644755Y-35984682D01*
X64837300Y-35909754D01*
X64837300Y-34782700D01*
X64862700Y-34782700D01*
X64862700Y-35909754D01*
X65055245Y-35984682D01*
X65125217Y-35970763D01*
X65354186Y-35893999D01*
X65563780Y-35774040D01*
X65745943Y-35615496D01*
X65893676Y-35424460D01*
X66001301Y-35208274D01*
X66064682Y-34975245D01*
X65989760Y-34782700D01*
X64862700Y-34782700D01*
X64837300Y-34782700D01*
X63710240Y-34782700D01*
X63635318Y-34975245D01*
X63521355Y-34975245D01*
X63541780Y-34793161D01*
X63541900Y-34775961D01*
X63541900Y-34764039D01*
X63522361Y-34564755D01*
X63635318Y-34564755D01*
X63710240Y-34757300D01*
X64837300Y-34757300D01*
X64837300Y-33630246D01*
X64862700Y-33630246D01*
X64862700Y-34757300D01*
X65989760Y-34757300D01*
X66064682Y-34564755D01*
X66001301Y-34331726D01*
X65893676Y-34115540D01*
X65745943Y-33924504D01*
X65563780Y-33765960D01*
X65354186Y-33646001D01*
X65125217Y-33569237D01*
X65055245Y-33555318D01*
X64862700Y-33630246D01*
X64837300Y-33630246D01*
X64644755Y-33555318D01*
X64574783Y-33569237D01*
X64345814Y-33646001D01*
X64136220Y-33765960D01*
X63954057Y-33924504D01*
X63806324Y-34115540D01*
X63698699Y-34331726D01*
X63635318Y-34564755D01*
X63522361Y-34564755D01*
X63518439Y-34524762D01*
X63448948Y-34294598D01*
X63336076Y-34082316D01*
X63184120Y-33896000D01*
X62998870Y-33742748D01*
X62787380Y-33628396D01*
X62557708Y-33557300D01*
X62318600Y-33532169D01*
X62079165Y-33553959D01*
X61848522Y-33621841D01*
X61635457Y-33733229D01*
X61448085Y-33883880D01*
X61293543Y-34068056D01*
X61177717Y-34278742D01*
X61105020Y-34507913D01*
X61078220Y-34746839D01*
X61078100Y-34764039D01*
X61001900Y-34764039D01*
X60978439Y-34524762D01*
X60908948Y-34294598D01*
X60796076Y-34082316D01*
X60644120Y-33896000D01*
X60458870Y-33742748D01*
X60247380Y-33628396D01*
X60017708Y-33557300D01*
X59778600Y-33532169D01*
X59539165Y-33553959D01*
X59308522Y-33621841D01*
X59095457Y-33733229D01*
X58908085Y-33883880D01*
X58753543Y-34068056D01*
X58637717Y-34278742D01*
X58565020Y-34507913D01*
X58538220Y-34746839D01*
X58538100Y-34764039D01*
X58461900Y-34764039D01*
X58438439Y-34524762D01*
X58368948Y-34294598D01*
X58256076Y-34082316D01*
X58104120Y-33896000D01*
X57918870Y-33742748D01*
X57707380Y-33628396D01*
X57477708Y-33557300D01*
X57238600Y-33532169D01*
X56999165Y-33553959D01*
X56768522Y-33621841D01*
X56555457Y-33733229D01*
X56368085Y-33883880D01*
X56213543Y-34068056D01*
X56097717Y-34278742D01*
X56025020Y-34507913D01*
X55998220Y-34746839D01*
X55998100Y-34764039D01*
X55921900Y-34764039D01*
X55898439Y-34524762D01*
X55828948Y-34294598D01*
X55716076Y-34082316D01*
X55564120Y-33896000D01*
X55378870Y-33742748D01*
X55167380Y-33628396D01*
X54937708Y-33557300D01*
X54698600Y-33532169D01*
X54459165Y-33553959D01*
X54228522Y-33621841D01*
X54015457Y-33733229D01*
X53828085Y-33883880D01*
X53673543Y-34068056D01*
X53557717Y-34278742D01*
X53485020Y-34507913D01*
X53458220Y-34746839D01*
X53458100Y-34764039D01*
X53381900Y-34764039D01*
X53358439Y-34524762D01*
X53288948Y-34294598D01*
X53176076Y-34082316D01*
X53024120Y-33896000D01*
X52838870Y-33742748D01*
X52627380Y-33628396D01*
X52397708Y-33557300D01*
X52158600Y-33532169D01*
X51919165Y-33553959D01*
X51688522Y-33621841D01*
X51475457Y-33733229D01*
X51288085Y-33883880D01*
X51133543Y-34068056D01*
X51017717Y-34278742D01*
X50945020Y-34507913D01*
X50918220Y-34746839D01*
X50918100Y-34764039D01*
X50841900Y-34764039D01*
X50818439Y-34524762D01*
X50748948Y-34294598D01*
X50636076Y-34082316D01*
X50484120Y-33896000D01*
X50298870Y-33742748D01*
X50087380Y-33628396D01*
X49857708Y-33557300D01*
X49618600Y-33532169D01*
X49379165Y-33553959D01*
X49148522Y-33621841D01*
X48935457Y-33733229D01*
X48748085Y-33883880D01*
X48593543Y-34068056D01*
X48477717Y-34278742D01*
X48405020Y-34507913D01*
X48378220Y-34746839D01*
X48378100Y-34764039D01*
X48301900Y-34764039D01*
X48278439Y-34524762D01*
X48208948Y-34294598D01*
X48096076Y-34082316D01*
X47944120Y-33896000D01*
X47758870Y-33742748D01*
X47547380Y-33628396D01*
X47317708Y-33557300D01*
X47078600Y-33532169D01*
X46839165Y-33553959D01*
X46608522Y-33621841D01*
X46395457Y-33733229D01*
X46208085Y-33883880D01*
X46053543Y-34068056D01*
X45937717Y-34278742D01*
X45865020Y-34507913D01*
X45838220Y-34746839D01*
X45838100Y-34764039D01*
X43221900Y-34764039D01*
X43202361Y-34564755D01*
X43315318Y-34564755D01*
X43390240Y-34757300D01*
X44517300Y-34757300D01*
X44517300Y-33630246D01*
X44542700Y-33630246D01*
X44542700Y-34757300D01*
X45669760Y-34757300D01*
X45744682Y-34564755D01*
X45681301Y-34331726D01*
X45573676Y-34115540D01*
X45425943Y-33924504D01*
X45243780Y-33765960D01*
X45034186Y-33646001D01*
X44805217Y-33569237D01*
X44735245Y-33555318D01*
X44542700Y-33630246D01*
X44517300Y-33630246D01*
X44324755Y-33555318D01*
X44254783Y-33569237D01*
X44025814Y-33646001D01*
X43816220Y-33765960D01*
X43634057Y-33924504D01*
X43486324Y-34115540D01*
X43378699Y-34331726D01*
X43315318Y-34564755D01*
X43202361Y-34564755D01*
X43198439Y-34524762D01*
X43128948Y-34294598D01*
X43116823Y-34271795D01*
X43621309Y-33767309D01*
X43647397Y-33735549D01*
X43673763Y-33704128D01*
X43674888Y-33702082D01*
X43676373Y-33700274D01*
X43695792Y-33664058D01*
X43715556Y-33628107D01*
X43716262Y-33625880D01*
X43717367Y-33623820D01*
X43729356Y-33584605D01*
X43741787Y-33545417D01*
X43742048Y-33543088D01*
X43742730Y-33540858D01*
X43746872Y-33500085D01*
X43751457Y-33459206D01*
X43751489Y-33454634D01*
X43751497Y-33454552D01*
X43751490Y-33454476D01*
X43751500Y-33453000D01*
X43751500Y-33183104D01*
X43841130Y-33257252D01*
X44052620Y-33371604D01*
X44282292Y-33442700D01*
X44521400Y-33467831D01*
X44760835Y-33446041D01*
X44991478Y-33378159D01*
X45204543Y-33266771D01*
X45391915Y-33116120D01*
X45546457Y-32931944D01*
X45662283Y-32721258D01*
X45734980Y-32492087D01*
X45761780Y-32253161D01*
X45761900Y-32235961D01*
X45761900Y-32224039D01*
X45838100Y-32224039D01*
X45838100Y-32235961D01*
X45861561Y-32475238D01*
X45931052Y-32705402D01*
X46043924Y-32917684D01*
X46195880Y-33104000D01*
X46381130Y-33257252D01*
X46592620Y-33371604D01*
X46822292Y-33442700D01*
X47061400Y-33467831D01*
X47300835Y-33446041D01*
X47531478Y-33378159D01*
X47744543Y-33266771D01*
X47931915Y-33116120D01*
X48086457Y-32931944D01*
X48202283Y-32721258D01*
X48274980Y-32492087D01*
X48281355Y-32435245D01*
X48395318Y-32435245D01*
X48458699Y-32668274D01*
X48566324Y-32884460D01*
X48714057Y-33075496D01*
X48896220Y-33234040D01*
X49105814Y-33353999D01*
X49334783Y-33430763D01*
X49404755Y-33444682D01*
X49597300Y-33369754D01*
X49597300Y-32242700D01*
X49622700Y-32242700D01*
X49622700Y-33369754D01*
X49815245Y-33444682D01*
X49885217Y-33430763D01*
X50114186Y-33353999D01*
X50323780Y-33234040D01*
X50505943Y-33075496D01*
X50653676Y-32884460D01*
X50761301Y-32668274D01*
X50824682Y-32435245D01*
X50749760Y-32242700D01*
X49622700Y-32242700D01*
X49597300Y-32242700D01*
X48470240Y-32242700D01*
X48395318Y-32435245D01*
X48281355Y-32435245D01*
X48301780Y-32253161D01*
X48301900Y-32235961D01*
X48301900Y-32224039D01*
X50918100Y-32224039D01*
X50918100Y-32235961D01*
X50941561Y-32475238D01*
X51011052Y-32705402D01*
X51123924Y-32917684D01*
X51275880Y-33104000D01*
X51461130Y-33257252D01*
X51672620Y-33371604D01*
X51902292Y-33442700D01*
X52141400Y-33467831D01*
X52380835Y-33446041D01*
X52611478Y-33378159D01*
X52824543Y-33266771D01*
X53011915Y-33116120D01*
X53166457Y-32931944D01*
X53282283Y-32721258D01*
X53354980Y-32492087D01*
X53381780Y-32253161D01*
X53381900Y-32235961D01*
X53381900Y-32224039D01*
X53458100Y-32224039D01*
X53458100Y-32235961D01*
X53481561Y-32475238D01*
X53551052Y-32705402D01*
X53663924Y-32917684D01*
X53815880Y-33104000D01*
X54001130Y-33257252D01*
X54212620Y-33371604D01*
X54442292Y-33442700D01*
X54681400Y-33467831D01*
X54920835Y-33446041D01*
X55151478Y-33378159D01*
X55364543Y-33266771D01*
X55551915Y-33116120D01*
X55706457Y-32931944D01*
X55822283Y-32721258D01*
X55894980Y-32492087D01*
X55901355Y-32435245D01*
X56015318Y-32435245D01*
X56078699Y-32668274D01*
X56186324Y-32884460D01*
X56334057Y-33075496D01*
X56516220Y-33234040D01*
X56725814Y-33353999D01*
X56954783Y-33430763D01*
X57024755Y-33444682D01*
X57217300Y-33369754D01*
X57217300Y-32242700D01*
X57242700Y-32242700D01*
X57242700Y-33369754D01*
X57435245Y-33444682D01*
X57505217Y-33430763D01*
X57734186Y-33353999D01*
X57943780Y-33234040D01*
X58125943Y-33075496D01*
X58273676Y-32884460D01*
X58381301Y-32668274D01*
X58444682Y-32435245D01*
X58369760Y-32242700D01*
X57242700Y-32242700D01*
X57217300Y-32242700D01*
X56090240Y-32242700D01*
X56015318Y-32435245D01*
X55901355Y-32435245D01*
X55921780Y-32253161D01*
X55921900Y-32235961D01*
X55921900Y-32224039D01*
X58538100Y-32224039D01*
X58538100Y-32235961D01*
X58561561Y-32475238D01*
X58631052Y-32705402D01*
X58743924Y-32917684D01*
X58895880Y-33104000D01*
X59081130Y-33257252D01*
X59292620Y-33371604D01*
X59522292Y-33442700D01*
X59761400Y-33467831D01*
X60000835Y-33446041D01*
X60231478Y-33378159D01*
X60444543Y-33266771D01*
X60631915Y-33116120D01*
X60786457Y-32931944D01*
X60902283Y-32721258D01*
X60974980Y-32492087D01*
X61001780Y-32253161D01*
X61001900Y-32235961D01*
X61001900Y-32224039D01*
X61078100Y-32224039D01*
X61078100Y-32235961D01*
X61101561Y-32475238D01*
X61171052Y-32705402D01*
X61283924Y-32917684D01*
X61435880Y-33104000D01*
X61621130Y-33257252D01*
X61832620Y-33371604D01*
X62062292Y-33442700D01*
X62301400Y-33467831D01*
X62540835Y-33446041D01*
X62771478Y-33378159D01*
X62984543Y-33266771D01*
X63171915Y-33116120D01*
X63326457Y-32931944D01*
X63442283Y-32721258D01*
X63514980Y-32492087D01*
X63541780Y-32253161D01*
X63541900Y-32235961D01*
X63541900Y-32224039D01*
X63618100Y-32224039D01*
X63618100Y-32235961D01*
X63641561Y-32475238D01*
X63711052Y-32705402D01*
X63823924Y-32917684D01*
X63975880Y-33104000D01*
X64161130Y-33257252D01*
X64372620Y-33371604D01*
X64602292Y-33442700D01*
X64841400Y-33467831D01*
X65080835Y-33446041D01*
X65311478Y-33378159D01*
X65524543Y-33266771D01*
X65711915Y-33116120D01*
X65866457Y-32931944D01*
X65982283Y-32721258D01*
X66054980Y-32492087D01*
X66081780Y-32253161D01*
X66081900Y-32235961D01*
X66081900Y-32224039D01*
X66158100Y-32224039D01*
X66158100Y-32235961D01*
X66181561Y-32475238D01*
X66251052Y-32705402D01*
X66363924Y-32917684D01*
X66515880Y-33104000D01*
X66701130Y-33257252D01*
X66912620Y-33371604D01*
X67142292Y-33442700D01*
X67381400Y-33467831D01*
X67620835Y-33446041D01*
X67840832Y-33381292D01*
X68037701Y-33578161D01*
X68037701Y-33720488D01*
X67867380Y-33628396D01*
X67637708Y-33557300D01*
X67398600Y-33532169D01*
X67159165Y-33553959D01*
X66928522Y-33621841D01*
X66715457Y-33733229D01*
X66528085Y-33883880D01*
X66373543Y-34068056D01*
X66257717Y-34278742D01*
X66185020Y-34507913D01*
X66158220Y-34746839D01*
X66158100Y-34764039D01*
X66158100Y-34775961D01*
X66181561Y-35015238D01*
X66251052Y-35245402D01*
X66363924Y-35457684D01*
X66515880Y-35644000D01*
X66701130Y-35797252D01*
X66912620Y-35911604D01*
X67142292Y-35982700D01*
X67381400Y-36007831D01*
X67620835Y-35986041D01*
X67840832Y-35921292D01*
X69734770Y-37815230D01*
X69770140Y-37844283D01*
X69805172Y-37873679D01*
X69807454Y-37874934D01*
X69809467Y-37876587D01*
X69849800Y-37898213D01*
X69889881Y-37920248D01*
X69892363Y-37921035D01*
X69894658Y-37922266D01*
X69938404Y-37935641D01*
X69982021Y-37949477D01*
X69984610Y-37949767D01*
X69987101Y-37950529D01*
X70032615Y-37955152D01*
X70078085Y-37960252D01*
X70083176Y-37960287D01*
X70083271Y-37960297D01*
X70083360Y-37960289D01*
X70085000Y-37960300D01*
X76330207Y-37960300D01*
X76402936Y-38010848D01*
X76514768Y-38059706D01*
X76633961Y-38085912D01*
X76755973Y-38088468D01*
X76876159Y-38067276D01*
X76989939Y-38023144D01*
X77092980Y-37957752D01*
X77181357Y-37873591D01*
X77251705Y-37773867D01*
X77301343Y-37662379D01*
X77328380Y-37543372D01*
X77330327Y-37403980D01*
X77306622Y-37284265D01*
X77260117Y-37171434D01*
X77192581Y-37069785D01*
X77106588Y-36983190D01*
X77005413Y-36914946D01*
X76927811Y-36882325D01*
X81037882Y-36882325D01*
X81059912Y-37002359D01*
X81104838Y-37115828D01*
X81165700Y-37210268D01*
X81165700Y-37514736D01*
X81170167Y-37560298D01*
X81174152Y-37605847D01*
X81174879Y-37608349D01*
X81175133Y-37610940D01*
X81188355Y-37654735D01*
X81201121Y-37698675D01*
X81202319Y-37700987D01*
X81203072Y-37703480D01*
X81224543Y-37743861D01*
X81245606Y-37784496D01*
X81247232Y-37786533D01*
X81248454Y-37788831D01*
X81277340Y-37824248D01*
X81305914Y-37860042D01*
X81309493Y-37863671D01*
X81309550Y-37863741D01*
X81309615Y-37863795D01*
X81310770Y-37864966D01*
X83342918Y-39897114D01*
X83342918Y-40166736D01*
X83350029Y-40238935D01*
X83371089Y-40308360D01*
X83405288Y-40372343D01*
X83451313Y-40428423D01*
X83507393Y-40474448D01*
X83558446Y-40501736D01*
X83507393Y-40529024D01*
X83451313Y-40575049D01*
X83405288Y-40631129D01*
X83371089Y-40695112D01*
X83350029Y-40764537D01*
X83342918Y-40836736D01*
X83342918Y-41436736D01*
X83350029Y-41508935D01*
X83371089Y-41578360D01*
X83405288Y-41642343D01*
X83451313Y-41698423D01*
X83507393Y-41744448D01*
X83558446Y-41771736D01*
X83507393Y-41799024D01*
X83451313Y-41845049D01*
X83405288Y-41901129D01*
X83371089Y-41965112D01*
X83350029Y-42034537D01*
X83342918Y-42106736D01*
X83342918Y-42437898D01*
X82456898Y-43323918D01*
X82138000Y-43323918D01*
X82065801Y-43331029D01*
X81996376Y-43352089D01*
X81932393Y-43386288D01*
X81876313Y-43432313D01*
X81830288Y-43488393D01*
X81796089Y-43552376D01*
X81788434Y-43577609D01*
X81764383Y-43519544D01*
X81724077Y-43459222D01*
X81672777Y-43407922D01*
X81612455Y-43367617D01*
X81545429Y-43339853D01*
X81474274Y-43325700D01*
X81142775Y-43325700D01*
X81050700Y-43417775D01*
X81050700Y-44056300D01*
X81070700Y-44056300D01*
X81070700Y-44081700D01*
X81050700Y-44081700D01*
X81050700Y-44720225D01*
X81142775Y-44812300D01*
X81474274Y-44812300D01*
X81545429Y-44798147D01*
X81612455Y-44770383D01*
X81672777Y-44730078D01*
X81724077Y-44678778D01*
X81764383Y-44618456D01*
X81788434Y-44560391D01*
X81796089Y-44585624D01*
X81830288Y-44649607D01*
X81876313Y-44705687D01*
X81932393Y-44751712D01*
X81996376Y-44785911D01*
X82065801Y-44806971D01*
X82138000Y-44814082D01*
X82938000Y-44814082D01*
X83010199Y-44806971D01*
X83079624Y-44785911D01*
X83143607Y-44751712D01*
X83199687Y-44705687D01*
X83242763Y-44653200D01*
X83347579Y-44653200D01*
X83452678Y-44726246D01*
X83587333Y-44785075D01*
X83730851Y-44816630D01*
X83877764Y-44819707D01*
X84022477Y-44794190D01*
X84159477Y-44741051D01*
X84283548Y-44662314D01*
X84389961Y-44560977D01*
X84474665Y-44440902D01*
X84534433Y-44306660D01*
X84566989Y-44163367D01*
X84569333Y-43995527D01*
X84556667Y-43931561D01*
X85118737Y-44493631D01*
X85154080Y-44522662D01*
X85189139Y-44552080D01*
X85191425Y-44553337D01*
X85193434Y-44554987D01*
X85233728Y-44576593D01*
X85273848Y-44598649D01*
X85276330Y-44599436D01*
X85278625Y-44600667D01*
X85322384Y-44614046D01*
X85365988Y-44627878D01*
X85368575Y-44628168D01*
X85371067Y-44628930D01*
X85416587Y-44633553D01*
X85462052Y-44638653D01*
X85467143Y-44638688D01*
X85467238Y-44638698D01*
X85467327Y-44638690D01*
X85468967Y-44638701D01*
X86854599Y-44638701D01*
X86900161Y-44634234D01*
X86945710Y-44630249D01*
X86948212Y-44629522D01*
X86950803Y-44629268D01*
X86994598Y-44616046D01*
X87038538Y-44603280D01*
X87040850Y-44602082D01*
X87043343Y-44601329D01*
X87083724Y-44579858D01*
X87124359Y-44558795D01*
X87126396Y-44557169D01*
X87128694Y-44555947D01*
X87164111Y-44527061D01*
X87199905Y-44498487D01*
X87203534Y-44494908D01*
X87203604Y-44494851D01*
X87203658Y-44494786D01*
X87204829Y-44493631D01*
X87668800Y-44029660D01*
X87668800Y-47867000D01*
X87674065Y-47920701D01*
X87678769Y-47974464D01*
X87679626Y-47977415D01*
X87679926Y-47980472D01*
X87695517Y-48032113D01*
X87710578Y-48083953D01*
X87711993Y-48086682D01*
X87712880Y-48089621D01*
X87738218Y-48137275D01*
X87763049Y-48185178D01*
X87764964Y-48187576D01*
X87766407Y-48190291D01*
X87800518Y-48232115D01*
X87834181Y-48274284D01*
X87838401Y-48278564D01*
X87838469Y-48278647D01*
X87838546Y-48278711D01*
X87839908Y-48280092D01*
X87946060Y-48386244D01*
X87959043Y-48456982D01*
X88010387Y-48586661D01*
X88085941Y-48703898D01*
X88182827Y-48804226D01*
X88297355Y-48883826D01*
X88425164Y-48939664D01*
X88561384Y-48969614D01*
X88700827Y-48972535D01*
X88838181Y-48948315D01*
X88968216Y-48897878D01*
X89085977Y-48823145D01*
X89186980Y-48726961D01*
X89267377Y-48612991D01*
X89324106Y-48485576D01*
X89355006Y-48349568D01*
X89357230Y-48190263D01*
X89330140Y-48053446D01*
X89276991Y-47924496D01*
X89199807Y-47808326D01*
X89101529Y-47709360D01*
X88985901Y-47631367D01*
X88857325Y-47577319D01*
X88837200Y-47573188D01*
X88837200Y-43151051D01*
X88844911Y-43136624D01*
X88865971Y-43067199D01*
X88873082Y-42995000D01*
X88873082Y-42095000D01*
X88865971Y-42022801D01*
X88844911Y-41953376D01*
X88810712Y-41889393D01*
X88764687Y-41833313D01*
X88748300Y-41819864D01*
X88748300Y-41238136D01*
X88764687Y-41224687D01*
X88810712Y-41168607D01*
X88844911Y-41104624D01*
X88865971Y-41035199D01*
X88873082Y-40963000D01*
X88873082Y-40063000D01*
X88865971Y-39990801D01*
X88844911Y-39921376D01*
X88810712Y-39857393D01*
X88764687Y-39801313D01*
X88748300Y-39787864D01*
X88748300Y-39321872D01*
X88764687Y-39308423D01*
X88810712Y-39252343D01*
X88844911Y-39188360D01*
X88865971Y-39118935D01*
X88873082Y-39046736D01*
X88873082Y-38146736D01*
X88865971Y-38074537D01*
X88844911Y-38005112D01*
X88810712Y-37941129D01*
X88764687Y-37885049D01*
X88708607Y-37839024D01*
X88644624Y-37804825D01*
X88575199Y-37783765D01*
X88503000Y-37776654D01*
X88003000Y-37776654D01*
X87930801Y-37783765D01*
X87861376Y-37804825D01*
X87797393Y-37839024D01*
X87741313Y-37885049D01*
X87695288Y-37941129D01*
X87661089Y-38005112D01*
X87640029Y-38074537D01*
X87632918Y-38146736D01*
X87632918Y-39046736D01*
X87640029Y-39118935D01*
X87661089Y-39188360D01*
X87695288Y-39252343D01*
X87741313Y-39308423D01*
X87757700Y-39321872D01*
X87757700Y-39787864D01*
X87741313Y-39801313D01*
X87695288Y-39857393D01*
X87661089Y-39921376D01*
X87640029Y-39990801D01*
X87632918Y-40063000D01*
X87632918Y-40963000D01*
X87640029Y-41035199D01*
X87661089Y-41104624D01*
X87695288Y-41168607D01*
X87741313Y-41224687D01*
X87757700Y-41238136D01*
X87757700Y-41819864D01*
X87741313Y-41833313D01*
X87695288Y-41889393D01*
X87661089Y-41953376D01*
X87640029Y-42022801D01*
X87632918Y-42095000D01*
X87632918Y-42664622D01*
X87373082Y-42924458D01*
X87373082Y-42095000D01*
X87365971Y-42022801D01*
X87344911Y-41953376D01*
X87310712Y-41889393D01*
X87264687Y-41833313D01*
X87208607Y-41787288D01*
X87144624Y-41753089D01*
X87075199Y-41732029D01*
X87003000Y-41724918D01*
X86503000Y-41724918D01*
X86430801Y-41732029D01*
X86361376Y-41753089D01*
X86308223Y-41781499D01*
X85633082Y-41106358D01*
X85633082Y-40836736D01*
X85625971Y-40764537D01*
X85604911Y-40695112D01*
X85570712Y-40631129D01*
X85524687Y-40575049D01*
X85468607Y-40529024D01*
X85417554Y-40501736D01*
X85439702Y-40489898D01*
X85813034Y-40863230D01*
X85848399Y-40892279D01*
X85883436Y-40921679D01*
X85885719Y-40922934D01*
X85887730Y-40924586D01*
X85928046Y-40946203D01*
X85968145Y-40968248D01*
X85970627Y-40969035D01*
X85972922Y-40970266D01*
X86016640Y-40983632D01*
X86060285Y-40997477D01*
X86062877Y-40997768D01*
X86065364Y-40998528D01*
X86110789Y-41003142D01*
X86137163Y-41006100D01*
X86140029Y-41035199D01*
X86161089Y-41104624D01*
X86195288Y-41168607D01*
X86241313Y-41224687D01*
X86297393Y-41270712D01*
X86361376Y-41304911D01*
X86430801Y-41325971D01*
X86503000Y-41333082D01*
X87003000Y-41333082D01*
X87075199Y-41325971D01*
X87144624Y-41304911D01*
X87208607Y-41270712D01*
X87264687Y-41224687D01*
X87310712Y-41168607D01*
X87344911Y-41104624D01*
X87365971Y-41035199D01*
X87373082Y-40963000D01*
X87373082Y-40063000D01*
X87365971Y-39990801D01*
X87344911Y-39921376D01*
X87310712Y-39857393D01*
X87264687Y-39801313D01*
X87208607Y-39755288D01*
X87144624Y-39721089D01*
X87075199Y-39700029D01*
X87003000Y-39692918D01*
X86503000Y-39692918D01*
X86430801Y-39700029D01*
X86361376Y-39721089D01*
X86297393Y-39755288D01*
X86241313Y-39801313D01*
X86201071Y-39850347D01*
X85867230Y-39516506D01*
X85831887Y-39487475D01*
X85796828Y-39458057D01*
X85794542Y-39456800D01*
X85792533Y-39455150D01*
X85752239Y-39433544D01*
X85712119Y-39411488D01*
X85709637Y-39410701D01*
X85707342Y-39409470D01*
X85663583Y-39396091D01*
X85619979Y-39382259D01*
X85617392Y-39381969D01*
X85614900Y-39381207D01*
X85579523Y-39377614D01*
X85570712Y-39361129D01*
X85524687Y-39305049D01*
X85468607Y-39259024D01*
X85417554Y-39231736D01*
X85468607Y-39204448D01*
X85524687Y-39158423D01*
X85570712Y-39102343D01*
X85576221Y-39092036D01*
X86137380Y-39092036D01*
X86140029Y-39118935D01*
X86161089Y-39188360D01*
X86195288Y-39252343D01*
X86241313Y-39308423D01*
X86297393Y-39354448D01*
X86361376Y-39388647D01*
X86430801Y-39409707D01*
X86503000Y-39416818D01*
X87003000Y-39416818D01*
X87075199Y-39409707D01*
X87144624Y-39388647D01*
X87208607Y-39354448D01*
X87264687Y-39308423D01*
X87310712Y-39252343D01*
X87344911Y-39188360D01*
X87365971Y-39118935D01*
X87373082Y-39046736D01*
X87373082Y-38146736D01*
X87365971Y-38074537D01*
X87344911Y-38005112D01*
X87310712Y-37941129D01*
X87264687Y-37885049D01*
X87208607Y-37839024D01*
X87144624Y-37804825D01*
X87075199Y-37783765D01*
X87003000Y-37776654D01*
X86503000Y-37776654D01*
X86430801Y-37783765D01*
X86361376Y-37804825D01*
X86297393Y-37839024D01*
X86241313Y-37885049D01*
X86195288Y-37941129D01*
X86161089Y-38005112D01*
X86140029Y-38074537D01*
X86137380Y-38101436D01*
X85576221Y-38101436D01*
X85570712Y-38091129D01*
X85524687Y-38035049D01*
X85468607Y-37989024D01*
X85404624Y-37954825D01*
X85335199Y-37933765D01*
X85263000Y-37926654D01*
X83966114Y-37926654D01*
X83422102Y-37382642D01*
X83402622Y-37284265D01*
X83356117Y-37171434D01*
X83288581Y-37069785D01*
X83202588Y-36983190D01*
X83101413Y-36914946D01*
X82988909Y-36867654D01*
X82869363Y-36843115D01*
X82747326Y-36842263D01*
X82627449Y-36865130D01*
X82514296Y-36910847D01*
X82412178Y-36977671D01*
X82324984Y-37063058D01*
X82256036Y-37163754D01*
X82207959Y-37275925D01*
X82193005Y-37346281D01*
X82156300Y-37309576D01*
X82156300Y-37207485D01*
X82204705Y-37138867D01*
X82254343Y-37027379D01*
X82281380Y-36908372D01*
X82283327Y-36768980D01*
X82259622Y-36649265D01*
X82213117Y-36536434D01*
X82145581Y-36434785D01*
X82059588Y-36348190D01*
X81958413Y-36279946D01*
X81845909Y-36232654D01*
X81726363Y-36208115D01*
X81604326Y-36207263D01*
X81484449Y-36230130D01*
X81371296Y-36275847D01*
X81269178Y-36342671D01*
X81181984Y-36428058D01*
X81113036Y-36528754D01*
X81064959Y-36640925D01*
X81039586Y-36760297D01*
X81037882Y-36882325D01*
X76927811Y-36882325D01*
X76892909Y-36867654D01*
X76773363Y-36843115D01*
X76651326Y-36842263D01*
X76531449Y-36865130D01*
X76418296Y-36910847D01*
X76328359Y-36969700D01*
X76298447Y-36969700D01*
X76312380Y-36908372D01*
X76314327Y-36768980D01*
X76290622Y-36649265D01*
X76244117Y-36536434D01*
X76176581Y-36434785D01*
X76090588Y-36348190D01*
X75989413Y-36279946D01*
X75876909Y-36232654D01*
X75757363Y-36208115D01*
X75635326Y-36207263D01*
X75515449Y-36230130D01*
X75402296Y-36275847D01*
X75312359Y-36334700D01*
X70503518Y-36334700D01*
X70155357Y-35986539D01*
X70160835Y-35986041D01*
X70391478Y-35918159D01*
X70604543Y-35806771D01*
X70791915Y-35656120D01*
X70946457Y-35471944D01*
X71062283Y-35261258D01*
X71134980Y-35032087D01*
X71161780Y-34793161D01*
X71161900Y-34775961D01*
X71161900Y-34764039D01*
X71238100Y-34764039D01*
X71238100Y-34775961D01*
X71261561Y-35015238D01*
X71331052Y-35245402D01*
X71443924Y-35457684D01*
X71595880Y-35644000D01*
X71781130Y-35797252D01*
X71992620Y-35911604D01*
X72222292Y-35982700D01*
X72461400Y-36007831D01*
X72700835Y-35986041D01*
X72931478Y-35918159D01*
X73144543Y-35806771D01*
X73331915Y-35656120D01*
X73486457Y-35471944D01*
X73602283Y-35261258D01*
X73674980Y-35032087D01*
X73701780Y-34793161D01*
X73701900Y-34775961D01*
X73701900Y-34764039D01*
X73778100Y-34764039D01*
X73778100Y-34775961D01*
X73801561Y-35015238D01*
X73871052Y-35245402D01*
X73983924Y-35457684D01*
X74135880Y-35644000D01*
X74321130Y-35797252D01*
X74532620Y-35911604D01*
X74762292Y-35982700D01*
X75001400Y-36007831D01*
X75240835Y-35986041D01*
X75471478Y-35918159D01*
X75684543Y-35806771D01*
X75871915Y-35656120D01*
X76026457Y-35471944D01*
X76142283Y-35261258D01*
X76214980Y-35032087D01*
X76241780Y-34793161D01*
X76241900Y-34775961D01*
X76241900Y-34764039D01*
X76318100Y-34764039D01*
X76318100Y-34775961D01*
X76341561Y-35015238D01*
X76411052Y-35245402D01*
X76523924Y-35457684D01*
X76675880Y-35644000D01*
X76861130Y-35797252D01*
X77072620Y-35911604D01*
X77302292Y-35982700D01*
X77541400Y-36007831D01*
X77780835Y-35986041D01*
X78011478Y-35918159D01*
X78224543Y-35806771D01*
X78411915Y-35656120D01*
X78566457Y-35471944D01*
X78682283Y-35261258D01*
X78754980Y-35032087D01*
X78781780Y-34793161D01*
X78781900Y-34775961D01*
X78781900Y-34764039D01*
X78858100Y-34764039D01*
X78858100Y-34775961D01*
X78881561Y-35015238D01*
X78951052Y-35245402D01*
X79063924Y-35457684D01*
X79215880Y-35644000D01*
X79401130Y-35797252D01*
X79612620Y-35911604D01*
X79842292Y-35982700D01*
X80081400Y-36007831D01*
X80320835Y-35986041D01*
X80551478Y-35918159D01*
X80764543Y-35806771D01*
X80951915Y-35656120D01*
X81106457Y-35471944D01*
X81222283Y-35261258D01*
X81294980Y-35032087D01*
X81301355Y-34975245D01*
X81415318Y-34975245D01*
X81478699Y-35208274D01*
X81586324Y-35424460D01*
X81734057Y-35615496D01*
X81916220Y-35774040D01*
X82125814Y-35893999D01*
X82354783Y-35970763D01*
X82424755Y-35984682D01*
X82617300Y-35909754D01*
X82617300Y-34782700D01*
X82642700Y-34782700D01*
X82642700Y-35909754D01*
X82835245Y-35984682D01*
X82905217Y-35970763D01*
X83134186Y-35893999D01*
X83343780Y-35774040D01*
X83525943Y-35615496D01*
X83673676Y-35424460D01*
X83781301Y-35208274D01*
X83844682Y-34975245D01*
X83769760Y-34782700D01*
X82642700Y-34782700D01*
X82617300Y-34782700D01*
X81490240Y-34782700D01*
X81415318Y-34975245D01*
X81301355Y-34975245D01*
X81321780Y-34793161D01*
X81321900Y-34775961D01*
X81321900Y-34764039D01*
X81302361Y-34564755D01*
X81415318Y-34564755D01*
X81490240Y-34757300D01*
X82617300Y-34757300D01*
X82617300Y-33630246D01*
X82642700Y-33630246D01*
X82642700Y-34757300D01*
X83769760Y-34757300D01*
X83844682Y-34564755D01*
X83781301Y-34331726D01*
X83673676Y-34115540D01*
X83525943Y-33924504D01*
X83343780Y-33765960D01*
X83134186Y-33646001D01*
X82905217Y-33569237D01*
X82835245Y-33555318D01*
X82642700Y-33630246D01*
X82617300Y-33630246D01*
X82424755Y-33555318D01*
X82354783Y-33569237D01*
X82125814Y-33646001D01*
X81916220Y-33765960D01*
X81734057Y-33924504D01*
X81586324Y-34115540D01*
X81478699Y-34331726D01*
X81415318Y-34564755D01*
X81302361Y-34564755D01*
X81298439Y-34524762D01*
X81228948Y-34294598D01*
X81116076Y-34082316D01*
X80964120Y-33896000D01*
X80778870Y-33742748D01*
X80567380Y-33628396D01*
X80337708Y-33557300D01*
X80098600Y-33532169D01*
X79859165Y-33553959D01*
X79628522Y-33621841D01*
X79415457Y-33733229D01*
X79228085Y-33883880D01*
X79073543Y-34068056D01*
X78957717Y-34278742D01*
X78885020Y-34507913D01*
X78858220Y-34746839D01*
X78858100Y-34764039D01*
X78781900Y-34764039D01*
X78758439Y-34524762D01*
X78688948Y-34294598D01*
X78576076Y-34082316D01*
X78424120Y-33896000D01*
X78238870Y-33742748D01*
X78027380Y-33628396D01*
X77797708Y-33557300D01*
X77558600Y-33532169D01*
X77319165Y-33553959D01*
X77088522Y-33621841D01*
X76875457Y-33733229D01*
X76688085Y-33883880D01*
X76533543Y-34068056D01*
X76417717Y-34278742D01*
X76345020Y-34507913D01*
X76318220Y-34746839D01*
X76318100Y-34764039D01*
X76241900Y-34764039D01*
X76218439Y-34524762D01*
X76148948Y-34294598D01*
X76036076Y-34082316D01*
X75884120Y-33896000D01*
X75698870Y-33742748D01*
X75487380Y-33628396D01*
X75257708Y-33557300D01*
X75018600Y-33532169D01*
X74779165Y-33553959D01*
X74548522Y-33621841D01*
X74335457Y-33733229D01*
X74148085Y-33883880D01*
X73993543Y-34068056D01*
X73877717Y-34278742D01*
X73805020Y-34507913D01*
X73778220Y-34746839D01*
X73778100Y-34764039D01*
X73701900Y-34764039D01*
X73678439Y-34524762D01*
X73608948Y-34294598D01*
X73496076Y-34082316D01*
X73344120Y-33896000D01*
X73158870Y-33742748D01*
X72947380Y-33628396D01*
X72717708Y-33557300D01*
X72478600Y-33532169D01*
X72239165Y-33553959D01*
X72008522Y-33621841D01*
X71795457Y-33733229D01*
X71608085Y-33883880D01*
X71453543Y-34068056D01*
X71337717Y-34278742D01*
X71265020Y-34507913D01*
X71238220Y-34746839D01*
X71238100Y-34764039D01*
X71161900Y-34764039D01*
X71138439Y-34524762D01*
X71068948Y-34294598D01*
X70956076Y-34082316D01*
X70804120Y-33896000D01*
X70618870Y-33742748D01*
X70407380Y-33628396D01*
X70177708Y-33557300D01*
X69938600Y-33532169D01*
X69699165Y-33553959D01*
X69468522Y-33621841D01*
X69255457Y-33733229D01*
X69068085Y-33883880D01*
X69028301Y-33931293D01*
X69028301Y-33373001D01*
X69023834Y-33327439D01*
X69019849Y-33281890D01*
X69019122Y-33279388D01*
X69018868Y-33276797D01*
X69005646Y-33233002D01*
X68992880Y-33189062D01*
X68991682Y-33186750D01*
X68990929Y-33184257D01*
X68969458Y-33143876D01*
X68948395Y-33103241D01*
X68946769Y-33101204D01*
X68945547Y-33098906D01*
X68916661Y-33063489D01*
X68888087Y-33027695D01*
X68884508Y-33024066D01*
X68884451Y-33023996D01*
X68884386Y-33023942D01*
X68883231Y-33022771D01*
X68536596Y-32676136D01*
X68594980Y-32492087D01*
X68601355Y-32435245D01*
X68715318Y-32435245D01*
X68778699Y-32668274D01*
X68886324Y-32884460D01*
X69034057Y-33075496D01*
X69216220Y-33234040D01*
X69425814Y-33353999D01*
X69654783Y-33430763D01*
X69724755Y-33444682D01*
X69917300Y-33369754D01*
X69917300Y-32242700D01*
X69942700Y-32242700D01*
X69942700Y-33369754D01*
X70135245Y-33444682D01*
X70205217Y-33430763D01*
X70434186Y-33353999D01*
X70643780Y-33234040D01*
X70825943Y-33075496D01*
X70973676Y-32884460D01*
X71081301Y-32668274D01*
X71144682Y-32435245D01*
X71069760Y-32242700D01*
X69942700Y-32242700D01*
X69917300Y-32242700D01*
X68790240Y-32242700D01*
X68715318Y-32435245D01*
X68601355Y-32435245D01*
X68621780Y-32253161D01*
X68621900Y-32235961D01*
X68621900Y-32224039D01*
X71238100Y-32224039D01*
X71238100Y-32235961D01*
X71261561Y-32475238D01*
X71331052Y-32705402D01*
X71443924Y-32917684D01*
X71595880Y-33104000D01*
X71781130Y-33257252D01*
X71992620Y-33371604D01*
X72222292Y-33442700D01*
X72461400Y-33467831D01*
X72700835Y-33446041D01*
X72931478Y-33378159D01*
X73144543Y-33266771D01*
X73331915Y-33116120D01*
X73486457Y-32931944D01*
X73602283Y-32721258D01*
X73674980Y-32492087D01*
X73681355Y-32435245D01*
X73795318Y-32435245D01*
X73858699Y-32668274D01*
X73966324Y-32884460D01*
X74114057Y-33075496D01*
X74296220Y-33234040D01*
X74505814Y-33353999D01*
X74734783Y-33430763D01*
X74804755Y-33444682D01*
X74997300Y-33369754D01*
X74997300Y-32242700D01*
X75022700Y-32242700D01*
X75022700Y-33369754D01*
X75215245Y-33444682D01*
X75285217Y-33430763D01*
X75514186Y-33353999D01*
X75723780Y-33234040D01*
X75905943Y-33075496D01*
X76053676Y-32884460D01*
X76161301Y-32668274D01*
X76224682Y-32435245D01*
X76149760Y-32242700D01*
X75022700Y-32242700D01*
X74997300Y-32242700D01*
X73870240Y-32242700D01*
X73795318Y-32435245D01*
X73681355Y-32435245D01*
X73701780Y-32253161D01*
X73701900Y-32235961D01*
X73701900Y-32224039D01*
X76318100Y-32224039D01*
X76318100Y-32235961D01*
X76341561Y-32475238D01*
X76411052Y-32705402D01*
X76523924Y-32917684D01*
X76675880Y-33104000D01*
X76861130Y-33257252D01*
X77072620Y-33371604D01*
X77302292Y-33442700D01*
X77541400Y-33467831D01*
X77780835Y-33446041D01*
X78011478Y-33378159D01*
X78224543Y-33266771D01*
X78411915Y-33116120D01*
X78566457Y-32931944D01*
X78682283Y-32721258D01*
X78754980Y-32492087D01*
X78781780Y-32253161D01*
X78781900Y-32235961D01*
X78781900Y-32224039D01*
X78858100Y-32224039D01*
X78858100Y-32235961D01*
X78881561Y-32475238D01*
X78951052Y-32705402D01*
X79063924Y-32917684D01*
X79215880Y-33104000D01*
X79401130Y-33257252D01*
X79612620Y-33371604D01*
X79842292Y-33442700D01*
X80081400Y-33467831D01*
X80320835Y-33446041D01*
X80551478Y-33378159D01*
X80764543Y-33266771D01*
X80951915Y-33116120D01*
X81106457Y-32931944D01*
X81222283Y-32721258D01*
X81294980Y-32492087D01*
X81321780Y-32253161D01*
X81321900Y-32235961D01*
X81321900Y-32224039D01*
X81398100Y-32224039D01*
X81398100Y-32235961D01*
X81421561Y-32475238D01*
X81491052Y-32705402D01*
X81603924Y-32917684D01*
X81755880Y-33104000D01*
X81941130Y-33257252D01*
X82152620Y-33371604D01*
X82382292Y-33442700D01*
X82621400Y-33467831D01*
X82860835Y-33446041D01*
X83091478Y-33378159D01*
X83304543Y-33266771D01*
X83491915Y-33116120D01*
X83646457Y-32931944D01*
X83762283Y-32721258D01*
X83834980Y-32492087D01*
X83861780Y-32253161D01*
X83861900Y-32235961D01*
X83861900Y-32224039D01*
X83838439Y-31984762D01*
X83768948Y-31754598D01*
X83656076Y-31542316D01*
X83504120Y-31356000D01*
X83318870Y-31202748D01*
X83107380Y-31088396D01*
X82877708Y-31017300D01*
X82638600Y-30992169D01*
X82399165Y-31013959D01*
X82168522Y-31081841D01*
X81955457Y-31193229D01*
X81768085Y-31343880D01*
X81613543Y-31528056D01*
X81497717Y-31738742D01*
X81425020Y-31967913D01*
X81398220Y-32206839D01*
X81398100Y-32224039D01*
X81321900Y-32224039D01*
X81298439Y-31984762D01*
X81228948Y-31754598D01*
X81116076Y-31542316D01*
X80964120Y-31356000D01*
X80778870Y-31202748D01*
X80567380Y-31088396D01*
X80337708Y-31017300D01*
X80098600Y-30992169D01*
X79859165Y-31013959D01*
X79628522Y-31081841D01*
X79415457Y-31193229D01*
X79228085Y-31343880D01*
X79073543Y-31528056D01*
X78957717Y-31738742D01*
X78885020Y-31967913D01*
X78858220Y-32206839D01*
X78858100Y-32224039D01*
X78781900Y-32224039D01*
X78758439Y-31984762D01*
X78688948Y-31754598D01*
X78576076Y-31542316D01*
X78424120Y-31356000D01*
X78238870Y-31202748D01*
X78027380Y-31088396D01*
X77797708Y-31017300D01*
X77558600Y-30992169D01*
X77319165Y-31013959D01*
X77088522Y-31081841D01*
X76875457Y-31193229D01*
X76688085Y-31343880D01*
X76533543Y-31528056D01*
X76417717Y-31738742D01*
X76345020Y-31967913D01*
X76318220Y-32206839D01*
X76318100Y-32224039D01*
X73701900Y-32224039D01*
X73682361Y-32024755D01*
X73795318Y-32024755D01*
X73870240Y-32217300D01*
X74997300Y-32217300D01*
X74997300Y-31090246D01*
X75022700Y-31090246D01*
X75022700Y-32217300D01*
X76149760Y-32217300D01*
X76224682Y-32024755D01*
X76161301Y-31791726D01*
X76053676Y-31575540D01*
X75905943Y-31384504D01*
X75723780Y-31225960D01*
X75514186Y-31106001D01*
X75285217Y-31029237D01*
X75215245Y-31015318D01*
X75022700Y-31090246D01*
X74997300Y-31090246D01*
X74804755Y-31015318D01*
X74734783Y-31029237D01*
X74505814Y-31106001D01*
X74296220Y-31225960D01*
X74114057Y-31384504D01*
X73966324Y-31575540D01*
X73858699Y-31791726D01*
X73795318Y-32024755D01*
X73682361Y-32024755D01*
X73678439Y-31984762D01*
X73608948Y-31754598D01*
X73496076Y-31542316D01*
X73344120Y-31356000D01*
X73158870Y-31202748D01*
X72947380Y-31088396D01*
X72717708Y-31017300D01*
X72478600Y-30992169D01*
X72239165Y-31013959D01*
X72008522Y-31081841D01*
X71795457Y-31193229D01*
X71608085Y-31343880D01*
X71453543Y-31528056D01*
X71337717Y-31738742D01*
X71265020Y-31967913D01*
X71238220Y-32206839D01*
X71238100Y-32224039D01*
X68621900Y-32224039D01*
X68602361Y-32024755D01*
X68715318Y-32024755D01*
X68790240Y-32217300D01*
X69917300Y-32217300D01*
X69917300Y-31090246D01*
X69942700Y-31090246D01*
X69942700Y-32217300D01*
X71069760Y-32217300D01*
X71144682Y-32024755D01*
X71081301Y-31791726D01*
X70973676Y-31575540D01*
X70825943Y-31384504D01*
X70643780Y-31225960D01*
X70434186Y-31106001D01*
X70205217Y-31029237D01*
X70135245Y-31015318D01*
X69942700Y-31090246D01*
X69917300Y-31090246D01*
X69724755Y-31015318D01*
X69654783Y-31029237D01*
X69425814Y-31106001D01*
X69216220Y-31225960D01*
X69034057Y-31384504D01*
X68886324Y-31575540D01*
X68778699Y-31791726D01*
X68715318Y-32024755D01*
X68602361Y-32024755D01*
X68598439Y-31984762D01*
X68528948Y-31754598D01*
X68416076Y-31542316D01*
X68264120Y-31356000D01*
X68078870Y-31202748D01*
X67867380Y-31088396D01*
X67637708Y-31017300D01*
X67398600Y-30992169D01*
X67159165Y-31013959D01*
X66928522Y-31081841D01*
X66715457Y-31193229D01*
X66528085Y-31343880D01*
X66373543Y-31528056D01*
X66257717Y-31738742D01*
X66185020Y-31967913D01*
X66158220Y-32206839D01*
X66158100Y-32224039D01*
X66081900Y-32224039D01*
X66058439Y-31984762D01*
X65988948Y-31754598D01*
X65876076Y-31542316D01*
X65724120Y-31356000D01*
X65538870Y-31202748D01*
X65327380Y-31088396D01*
X65097708Y-31017300D01*
X64858600Y-30992169D01*
X64619165Y-31013959D01*
X64388522Y-31081841D01*
X64175457Y-31193229D01*
X63988085Y-31343880D01*
X63833543Y-31528056D01*
X63717717Y-31738742D01*
X63645020Y-31967913D01*
X63618220Y-32206839D01*
X63618100Y-32224039D01*
X63541900Y-32224039D01*
X63518439Y-31984762D01*
X63448948Y-31754598D01*
X63336076Y-31542316D01*
X63184120Y-31356000D01*
X62998870Y-31202748D01*
X62787380Y-31088396D01*
X62557708Y-31017300D01*
X62318600Y-30992169D01*
X62079165Y-31013959D01*
X61848522Y-31081841D01*
X61635457Y-31193229D01*
X61448085Y-31343880D01*
X61293543Y-31528056D01*
X61177717Y-31738742D01*
X61105020Y-31967913D01*
X61078220Y-32206839D01*
X61078100Y-32224039D01*
X61001900Y-32224039D01*
X60978439Y-31984762D01*
X60908948Y-31754598D01*
X60796076Y-31542316D01*
X60644120Y-31356000D01*
X60458870Y-31202748D01*
X60247380Y-31088396D01*
X60017708Y-31017300D01*
X59778600Y-30992169D01*
X59539165Y-31013959D01*
X59308522Y-31081841D01*
X59095457Y-31193229D01*
X58908085Y-31343880D01*
X58753543Y-31528056D01*
X58637717Y-31738742D01*
X58565020Y-31967913D01*
X58538220Y-32206839D01*
X58538100Y-32224039D01*
X55921900Y-32224039D01*
X55902361Y-32024755D01*
X56015318Y-32024755D01*
X56090240Y-32217300D01*
X57217300Y-32217300D01*
X57217300Y-31090246D01*
X57242700Y-31090246D01*
X57242700Y-32217300D01*
X58369760Y-32217300D01*
X58444682Y-32024755D01*
X58381301Y-31791726D01*
X58273676Y-31575540D01*
X58125943Y-31384504D01*
X57943780Y-31225960D01*
X57734186Y-31106001D01*
X57505217Y-31029237D01*
X57435245Y-31015318D01*
X57242700Y-31090246D01*
X57217300Y-31090246D01*
X57024755Y-31015318D01*
X56954783Y-31029237D01*
X56725814Y-31106001D01*
X56516220Y-31225960D01*
X56334057Y-31384504D01*
X56186324Y-31575540D01*
X56078699Y-31791726D01*
X56015318Y-32024755D01*
X55902361Y-32024755D01*
X55898439Y-31984762D01*
X55828948Y-31754598D01*
X55716076Y-31542316D01*
X55564120Y-31356000D01*
X55378870Y-31202748D01*
X55167380Y-31088396D01*
X54937708Y-31017300D01*
X54698600Y-30992169D01*
X54459165Y-31013959D01*
X54228522Y-31081841D01*
X54015457Y-31193229D01*
X53828085Y-31343880D01*
X53673543Y-31528056D01*
X53557717Y-31738742D01*
X53485020Y-31967913D01*
X53458220Y-32206839D01*
X53458100Y-32224039D01*
X53381900Y-32224039D01*
X53358439Y-31984762D01*
X53288948Y-31754598D01*
X53176076Y-31542316D01*
X53024120Y-31356000D01*
X52838870Y-31202748D01*
X52627380Y-31088396D01*
X52397708Y-31017300D01*
X52158600Y-30992169D01*
X51919165Y-31013959D01*
X51688522Y-31081841D01*
X51475457Y-31193229D01*
X51288085Y-31343880D01*
X51133543Y-31528056D01*
X51017717Y-31738742D01*
X50945020Y-31967913D01*
X50918220Y-32206839D01*
X50918100Y-32224039D01*
X48301900Y-32224039D01*
X48282361Y-32024755D01*
X48395318Y-32024755D01*
X48470240Y-32217300D01*
X49597300Y-32217300D01*
X49597300Y-31090246D01*
X49622700Y-31090246D01*
X49622700Y-32217300D01*
X50749760Y-32217300D01*
X50824682Y-32024755D01*
X50761301Y-31791726D01*
X50653676Y-31575540D01*
X50505943Y-31384504D01*
X50323780Y-31225960D01*
X50114186Y-31106001D01*
X49885217Y-31029237D01*
X49815245Y-31015318D01*
X49622700Y-31090246D01*
X49597300Y-31090246D01*
X49404755Y-31015318D01*
X49334783Y-31029237D01*
X49105814Y-31106001D01*
X48896220Y-31225960D01*
X48714057Y-31384504D01*
X48566324Y-31575540D01*
X48458699Y-31791726D01*
X48395318Y-32024755D01*
X48282361Y-32024755D01*
X48278439Y-31984762D01*
X48208948Y-31754598D01*
X48096076Y-31542316D01*
X47944120Y-31356000D01*
X47758870Y-31202748D01*
X47547380Y-31088396D01*
X47317708Y-31017300D01*
X47078600Y-30992169D01*
X46839165Y-31013959D01*
X46608522Y-31081841D01*
X46395457Y-31193229D01*
X46208085Y-31343880D01*
X46053543Y-31528056D01*
X45937717Y-31738742D01*
X45865020Y-31967913D01*
X45838220Y-32206839D01*
X45838100Y-32224039D01*
X45761900Y-32224039D01*
X45738439Y-31984762D01*
X45668948Y-31754598D01*
X45556076Y-31542316D01*
X45404120Y-31356000D01*
X45218870Y-31202748D01*
X45007380Y-31088396D01*
X44777708Y-31017300D01*
X44538600Y-30992169D01*
X44299165Y-31013959D01*
X44068522Y-31081841D01*
X43855457Y-31193229D01*
X43751500Y-31276813D01*
X43751500Y-31170071D01*
X43780357Y-31142591D01*
X43850705Y-31042867D01*
X43900343Y-30931379D01*
X43927380Y-30812372D01*
X43929327Y-30672980D01*
X43905622Y-30553265D01*
X43859117Y-30440434D01*
X43844411Y-30418300D01*
X86546639Y-30418300D01*
X86003622Y-30637693D01*
X85476162Y-30982853D01*
X85025789Y-31423891D01*
X84669658Y-31944006D01*
X84421334Y-32523390D01*
X84290276Y-33139972D01*
X84281475Y-33770267D01*
X84395266Y-34390268D01*
X84627316Y-34976359D01*
X84968785Y-35506216D01*
X85406668Y-35959657D01*
X85924285Y-36319410D01*
X86501921Y-36571773D01*
X87117573Y-36707133D01*
X87747791Y-36720334D01*
X88368571Y-36610874D01*
X88956268Y-36382921D01*
X89488496Y-36045159D01*
X89944983Y-35610452D01*
X90308341Y-35095360D01*
X90564730Y-34519500D01*
X90581700Y-34444806D01*
X90581700Y-58508900D01*
X79453300Y-58508900D01*
X79453300Y-57254775D01*
X79361225Y-57162700D01*
X78954040Y-57162700D01*
X78930486Y-57149487D01*
X78954447Y-57137300D01*
X79361225Y-57137300D01*
X79453300Y-57045225D01*
X79453300Y-55638726D01*
X79439147Y-55567571D01*
X79411383Y-55500545D01*
X79371078Y-55440223D01*
X79319778Y-55388923D01*
X79259456Y-55348617D01*
X79192430Y-55320854D01*
X79121275Y-55306700D01*
X76939775Y-55306700D01*
X76847700Y-55398775D01*
X76847700Y-56230960D01*
X76822300Y-56276238D01*
X76822300Y-55398775D01*
X76730225Y-55306700D01*
X74548725Y-55306700D01*
X74477570Y-55320854D01*
X74410544Y-55348617D01*
X74350222Y-55388923D01*
X74298922Y-55440223D01*
X74258617Y-55500545D01*
X74230853Y-55567571D01*
X74216700Y-55638726D01*
X74216700Y-57045225D01*
X74308775Y-57137300D01*
X74715960Y-57137300D01*
X74739514Y-57150513D01*
X74715553Y-57162700D01*
X74308775Y-57162700D01*
X74216700Y-57254775D01*
X74216700Y-58508900D01*
X64848300Y-58508900D01*
X64848300Y-57254775D01*
X64756225Y-57162700D01*
X64349040Y-57162700D01*
X64325486Y-57149487D01*
X64349447Y-57137300D01*
X64756225Y-57137300D01*
X64848300Y-57045225D01*
X64848300Y-55638726D01*
X64834147Y-55567571D01*
X64806383Y-55500545D01*
X64766078Y-55440223D01*
X64714778Y-55388923D01*
X64654456Y-55348617D01*
X64587430Y-55320854D01*
X64516275Y-55306700D01*
X62334775Y-55306700D01*
X62242700Y-55398775D01*
X62242700Y-56230960D01*
X62217300Y-56276238D01*
X62217300Y-55398775D01*
X62125225Y-55306700D01*
X59943725Y-55306700D01*
X59872570Y-55320854D01*
X59805544Y-55348617D01*
X59745222Y-55388923D01*
X59693922Y-55440223D01*
X59653617Y-55500545D01*
X59625853Y-55567571D01*
X59611700Y-55638726D01*
X59611700Y-57045225D01*
X59703775Y-57137300D01*
X60110960Y-57137300D01*
X60134514Y-57150513D01*
X60110553Y-57162700D01*
X59703775Y-57162700D01*
X59611700Y-57254775D01*
X59611700Y-58508900D01*
X50243300Y-58508900D01*
X50243300Y-57254775D01*
X50151225Y-57162700D01*
X49744040Y-57162700D01*
X49720486Y-57149487D01*
X49744447Y-57137300D01*
X50151225Y-57137300D01*
X50243300Y-57045225D01*
X50243300Y-55638726D01*
X50229147Y-55567571D01*
X50201383Y-55500545D01*
X50161078Y-55440223D01*
X50109778Y-55388923D01*
X50049456Y-55348617D01*
X49982430Y-55320854D01*
X49911275Y-55306700D01*
X47729775Y-55306700D01*
X47637700Y-55398775D01*
X47637700Y-56230960D01*
X47612300Y-56276238D01*
X47612300Y-55398775D01*
X47520225Y-55306700D01*
X45338725Y-55306700D01*
X45267570Y-55320854D01*
X45200544Y-55348617D01*
X45140222Y-55388923D01*
X45088922Y-55440223D01*
X45048617Y-55500545D01*
X45020853Y-55567571D01*
X45006700Y-55638726D01*
X45006700Y-57045225D01*
X45098775Y-57137300D01*
X45505960Y-57137300D01*
X45529514Y-57150513D01*
X45505553Y-57162700D01*
X45098775Y-57162700D01*
X45006700Y-57254775D01*
X45006700Y-58508900D01*
X35638300Y-58508900D01*
X35638300Y-57254775D01*
X35546225Y-57162700D01*
X35139040Y-57162700D01*
X35115486Y-57149487D01*
X35139447Y-57137300D01*
X35546225Y-57137300D01*
X35638300Y-57045225D01*
X35638300Y-55638726D01*
X35624147Y-55567571D01*
X35596383Y-55500545D01*
X35556078Y-55440223D01*
X35504778Y-55388923D01*
X35444456Y-55348617D01*
X35377430Y-55320854D01*
X35306275Y-55306700D01*
X33124775Y-55306700D01*
X33032700Y-55398775D01*
X33032700Y-56230960D01*
X33007300Y-56276238D01*
X33007300Y-55398775D01*
X32915225Y-55306700D01*
X30733725Y-55306700D01*
X30721300Y-55309172D01*
X30721300Y-54533800D01*
X35560000Y-54533800D01*
X35786439Y-54511597D01*
X36013219Y-54491757D01*
X36025666Y-54488141D01*
X36038555Y-54486877D01*
X36256375Y-54421113D01*
X36474976Y-54357604D01*
X36486479Y-54351641D01*
X36498881Y-54347897D01*
X36699803Y-54241065D01*
X36901881Y-54136317D01*
X36912008Y-54128233D01*
X36923446Y-54122151D01*
X37099792Y-53978327D01*
X37277676Y-53836324D01*
X37295711Y-53818539D01*
X37296078Y-53818240D01*
X37296359Y-53817900D01*
X37302170Y-53812170D01*
X39334170Y-51780170D01*
X39478618Y-51604315D01*
X39624915Y-51429966D01*
X39631157Y-51418612D01*
X39639380Y-51408601D01*
X39746932Y-51208017D01*
X39856566Y-51008594D01*
X39860483Y-50996247D01*
X39866606Y-50984827D01*
X39933149Y-50767173D01*
X40001960Y-50550253D01*
X40003404Y-50537377D01*
X40007192Y-50524988D01*
X40030190Y-50298581D01*
X40055560Y-50072400D01*
X40055737Y-50047076D01*
X40055785Y-50046600D01*
X40055743Y-50046157D01*
X40055800Y-50038000D01*
X40055800Y-47739775D01*
X40466700Y-47739775D01*
X40466700Y-48421275D01*
X40480854Y-48492430D01*
X40508617Y-48559456D01*
X40548923Y-48619778D01*
X40600223Y-48671078D01*
X40660545Y-48711383D01*
X40727571Y-48739147D01*
X40798726Y-48753300D01*
X41730225Y-48753300D01*
X41822300Y-48661225D01*
X41822300Y-47647700D01*
X41847700Y-47647700D01*
X41847700Y-48661225D01*
X41939775Y-48753300D01*
X42871274Y-48753300D01*
X42942429Y-48739147D01*
X43009455Y-48711383D01*
X43069777Y-48671078D01*
X43121077Y-48619778D01*
X43161383Y-48559456D01*
X43189146Y-48492430D01*
X43203300Y-48421275D01*
X43203300Y-47739775D01*
X43111225Y-47647700D01*
X41847700Y-47647700D01*
X41822300Y-47647700D01*
X40558775Y-47647700D01*
X40466700Y-47739775D01*
X40055800Y-47739775D01*
X40055800Y-46848725D01*
X40466700Y-46848725D01*
X40466700Y-47530225D01*
X40558775Y-47622300D01*
X41822300Y-47622300D01*
X41822300Y-46608775D01*
X41847700Y-46608775D01*
X41847700Y-47622300D01*
X43111225Y-47622300D01*
X43203300Y-47530225D01*
X43203300Y-47095717D01*
X55891047Y-47095717D01*
X55935557Y-47338236D01*
X56026326Y-47567490D01*
X56159894Y-47774748D01*
X56331176Y-47952115D01*
X56533646Y-48092836D01*
X56759593Y-48191550D01*
X57000410Y-48244497D01*
X57246926Y-48249660D01*
X57489749Y-48206844D01*
X57719631Y-48117679D01*
X57927817Y-47985560D01*
X58106375Y-47815521D01*
X58248506Y-47614038D01*
X58348795Y-47388786D01*
X58403422Y-47148344D01*
X58407354Y-46866715D01*
X58359462Y-46624842D01*
X58265502Y-46396877D01*
X58129052Y-46191504D01*
X57955311Y-46016546D01*
X57750896Y-45878666D01*
X57523593Y-45783117D01*
X57282060Y-45733537D01*
X57035496Y-45731816D01*
X56793294Y-45778018D01*
X56564679Y-45870385D01*
X56358359Y-46005397D01*
X56182192Y-46177912D01*
X56042888Y-46381360D01*
X55945754Y-46607991D01*
X55894490Y-46849172D01*
X55891047Y-47095717D01*
X43203300Y-47095717D01*
X43203300Y-46848725D01*
X43189146Y-46777570D01*
X43161383Y-46710544D01*
X43121077Y-46650222D01*
X43069777Y-46598922D01*
X43009455Y-46558617D01*
X42942429Y-46530853D01*
X42871274Y-46516700D01*
X41939775Y-46516700D01*
X41847700Y-46608775D01*
X41822300Y-46608775D01*
X41730225Y-46516700D01*
X40798726Y-46516700D01*
X40727571Y-46530853D01*
X40660545Y-46558617D01*
X40600223Y-46598922D01*
X40548923Y-46650222D01*
X40508617Y-46710544D01*
X40480854Y-46777570D01*
X40466700Y-46848725D01*
X40055800Y-46848725D01*
X40055800Y-46114300D01*
X43900000Y-46114300D01*
X43922299Y-46112104D01*
X43943741Y-46105599D01*
X43963502Y-46095037D01*
X43980822Y-46080822D01*
X43995037Y-46063502D01*
X44005599Y-46043741D01*
X44012104Y-46022299D01*
X44014300Y-46000000D01*
X44014300Y-45287172D01*
X56330789Y-45287172D01*
X56417713Y-45479512D01*
X56632631Y-45602593D01*
X56867432Y-45681380D01*
X57113091Y-45712845D01*
X57360169Y-45695781D01*
X57599171Y-45630841D01*
X57820911Y-45520523D01*
X57882287Y-45479512D01*
X57969211Y-45287172D01*
X57150000Y-44467961D01*
X56330789Y-45287172D01*
X44014300Y-45287172D01*
X44014300Y-44034775D01*
X54120700Y-44034775D01*
X54120700Y-44366274D01*
X54134853Y-44437429D01*
X54162617Y-44504455D01*
X54202922Y-44564777D01*
X54254222Y-44616077D01*
X54314544Y-44656383D01*
X54381570Y-44684146D01*
X54452725Y-44698300D01*
X54759225Y-44698300D01*
X54851300Y-44606225D01*
X54851300Y-43942700D01*
X54876700Y-43942700D01*
X54876700Y-44606225D01*
X54968775Y-44698300D01*
X55275275Y-44698300D01*
X55346430Y-44684146D01*
X55413456Y-44656383D01*
X55473778Y-44616077D01*
X55525078Y-44564777D01*
X55565383Y-44504455D01*
X55593147Y-44437429D01*
X55597987Y-44413091D01*
X55887155Y-44413091D01*
X55904219Y-44660169D01*
X55969159Y-44899171D01*
X56079477Y-45120911D01*
X56120488Y-45182287D01*
X56312828Y-45269211D01*
X57132039Y-44450000D01*
X57167961Y-44450000D01*
X57987172Y-45269211D01*
X58179512Y-45182287D01*
X58302593Y-44967369D01*
X58381380Y-44732568D01*
X58412845Y-44486909D01*
X58395781Y-44239831D01*
X58330841Y-44000829D01*
X58220523Y-43779089D01*
X58179512Y-43717713D01*
X57987172Y-43630789D01*
X57167961Y-44450000D01*
X57132039Y-44450000D01*
X56312828Y-43630789D01*
X56120488Y-43717713D01*
X55997407Y-43932631D01*
X55918620Y-44167432D01*
X55887155Y-44413091D01*
X55597987Y-44413091D01*
X55607300Y-44366274D01*
X55607300Y-44034775D01*
X55515225Y-43942700D01*
X54876700Y-43942700D01*
X54851300Y-43942700D01*
X54212775Y-43942700D01*
X54120700Y-44034775D01*
X44014300Y-44034775D01*
X44014300Y-40373300D01*
X46828420Y-40373300D01*
X47296560Y-40841440D01*
X47368171Y-40900261D01*
X47439169Y-40959836D01*
X47443793Y-40962378D01*
X47447869Y-40965726D01*
X47529544Y-41009520D01*
X47610758Y-41054168D01*
X47615785Y-41055763D01*
X47620437Y-41058257D01*
X47709134Y-41085375D01*
X47797402Y-41113375D01*
X47802639Y-41113962D01*
X47807691Y-41115507D01*
X47899968Y-41124880D01*
X47991992Y-41135202D01*
X48002303Y-41135274D01*
X48002499Y-41135294D01*
X48002681Y-41135277D01*
X48006000Y-41135300D01*
X54753963Y-41135300D01*
X54684534Y-41190724D01*
X54677194Y-41197962D01*
X54677040Y-41198088D01*
X54676922Y-41198231D01*
X54674560Y-41200560D01*
X54154560Y-41720560D01*
X54030274Y-41871869D01*
X53937743Y-42044437D01*
X53880494Y-42231690D01*
X53860706Y-42426498D01*
X53879134Y-42621439D01*
X53935075Y-42809088D01*
X54026397Y-42982298D01*
X54149624Y-43134471D01*
X54269079Y-43233996D01*
X54254222Y-43243923D01*
X54202922Y-43295223D01*
X54162617Y-43355545D01*
X54134853Y-43422571D01*
X54120700Y-43493726D01*
X54120700Y-43825225D01*
X54212775Y-43917300D01*
X54851300Y-43917300D01*
X54851300Y-43897300D01*
X54876700Y-43897300D01*
X54876700Y-43917300D01*
X55515225Y-43917300D01*
X55607300Y-43825225D01*
X55607300Y-43612828D01*
X56330789Y-43612828D01*
X57150000Y-44432039D01*
X57969211Y-43612828D01*
X57882287Y-43420488D01*
X57667369Y-43297407D01*
X57432568Y-43218620D01*
X57186909Y-43187155D01*
X56939831Y-43204219D01*
X56700829Y-43269159D01*
X56479089Y-43379477D01*
X56417713Y-43420488D01*
X56330789Y-43612828D01*
X55607300Y-43612828D01*
X55607300Y-43493726D01*
X55593147Y-43422571D01*
X55565383Y-43355545D01*
X55525078Y-43295223D01*
X55473778Y-43243923D01*
X55458060Y-43233420D01*
X55563466Y-43149276D01*
X55573440Y-43139440D01*
X55799580Y-42913300D01*
X56390433Y-42913300D01*
X56533646Y-43012836D01*
X56759593Y-43111550D01*
X57000410Y-43164497D01*
X57246926Y-43169660D01*
X57489749Y-43126844D01*
X57719631Y-43037679D01*
X57915621Y-42913300D01*
X58270303Y-42913300D01*
X58215677Y-43040751D01*
X58179948Y-43208847D01*
X58177548Y-43380682D01*
X58208571Y-43549710D01*
X58271833Y-43709493D01*
X58364927Y-43853945D01*
X58484305Y-43977565D01*
X58625420Y-44075643D01*
X58782898Y-44144443D01*
X58934499Y-44177775D01*
X59129427Y-44372703D01*
X59115639Y-44389489D01*
X59080969Y-44430807D01*
X59079489Y-44433499D01*
X59077539Y-44435873D01*
X59052042Y-44483424D01*
X59026041Y-44530720D01*
X59025112Y-44533649D01*
X59023661Y-44536355D01*
X59007894Y-44587927D01*
X58991566Y-44639399D01*
X58991223Y-44642454D01*
X58990326Y-44645389D01*
X58984877Y-44699032D01*
X58978857Y-44752704D01*
X58978815Y-44758714D01*
X58978804Y-44758822D01*
X58978814Y-44758923D01*
X58978800Y-44760861D01*
X58978800Y-47904942D01*
X58984065Y-47958643D01*
X58988769Y-48012406D01*
X58989626Y-48015357D01*
X58989926Y-48018414D01*
X59005517Y-48070055D01*
X59020578Y-48121895D01*
X59021993Y-48124624D01*
X59022880Y-48127563D01*
X59048218Y-48175217D01*
X59073049Y-48223120D01*
X59074964Y-48225518D01*
X59076407Y-48228233D01*
X59110518Y-48270057D01*
X59144181Y-48312226D01*
X59148401Y-48316506D01*
X59148469Y-48316589D01*
X59148546Y-48316653D01*
X59149908Y-48318034D01*
X59309267Y-48477393D01*
X59350992Y-48511666D01*
X59392305Y-48546332D01*
X59394996Y-48547812D01*
X59397372Y-48549763D01*
X59444956Y-48575278D01*
X59492218Y-48601260D01*
X59495145Y-48602189D01*
X59497854Y-48603641D01*
X59549498Y-48619430D01*
X59600897Y-48635735D01*
X59603947Y-48636077D01*
X59606887Y-48636976D01*
X59660579Y-48642429D01*
X59714202Y-48648444D01*
X59720212Y-48648486D01*
X59720320Y-48648497D01*
X59720421Y-48648487D01*
X59722359Y-48648501D01*
X61361641Y-48648501D01*
X61415342Y-48643236D01*
X61469105Y-48638532D01*
X61472056Y-48637675D01*
X61475113Y-48637375D01*
X61526754Y-48621784D01*
X61578594Y-48606723D01*
X61581323Y-48605308D01*
X61584262Y-48604421D01*
X61631916Y-48579083D01*
X61679819Y-48554252D01*
X61682217Y-48552337D01*
X61684932Y-48550894D01*
X61726756Y-48516783D01*
X61768925Y-48483120D01*
X61773205Y-48478900D01*
X61773288Y-48478832D01*
X61773352Y-48478755D01*
X61774733Y-48477393D01*
X61930092Y-48322034D01*
X61964361Y-48280314D01*
X61999031Y-48238996D01*
X62000511Y-48236304D01*
X62002461Y-48233930D01*
X62027958Y-48186379D01*
X62053959Y-48139083D01*
X62054888Y-48136154D01*
X62056339Y-48133448D01*
X62072119Y-48081835D01*
X62088434Y-48030404D01*
X62088776Y-48027354D01*
X62089675Y-48024414D01*
X62095128Y-47970722D01*
X62101143Y-47917099D01*
X62101185Y-47911089D01*
X62101196Y-47910981D01*
X62101186Y-47910880D01*
X62101200Y-47908942D01*
X62101200Y-47371000D01*
X62090074Y-47257528D01*
X62087082Y-47247618D01*
X62087082Y-47046000D01*
X62079971Y-46973801D01*
X62069475Y-46939200D01*
X62764918Y-46939200D01*
X62764918Y-47821000D01*
X62772029Y-47893199D01*
X62793089Y-47962624D01*
X62827288Y-48026607D01*
X62873313Y-48082687D01*
X62929393Y-48128712D01*
X62993376Y-48162911D01*
X63062801Y-48183971D01*
X63135000Y-48191082D01*
X63635000Y-48191082D01*
X63707199Y-48183971D01*
X63776624Y-48162911D01*
X63840607Y-48128712D01*
X63896687Y-48082687D01*
X63942712Y-48026607D01*
X63976911Y-47962624D01*
X63997971Y-47893199D01*
X64005082Y-47821000D01*
X64005082Y-47475775D01*
X64266700Y-47475775D01*
X64266700Y-47857275D01*
X64280854Y-47928430D01*
X64308617Y-47995456D01*
X64348923Y-48055778D01*
X64400223Y-48107078D01*
X64460545Y-48147383D01*
X64527571Y-48175147D01*
X64598726Y-48189300D01*
X64780225Y-48189300D01*
X64872300Y-48097225D01*
X64872300Y-47383700D01*
X64897700Y-47383700D01*
X64897700Y-48097225D01*
X64989775Y-48189300D01*
X65171274Y-48189300D01*
X65242429Y-48175147D01*
X65309455Y-48147383D01*
X65369777Y-48107078D01*
X65421077Y-48055778D01*
X65461383Y-47995456D01*
X65489146Y-47928430D01*
X65503300Y-47857275D01*
X65503300Y-47475775D01*
X65411225Y-47383700D01*
X64897700Y-47383700D01*
X64872300Y-47383700D01*
X64358775Y-47383700D01*
X64266700Y-47475775D01*
X64005082Y-47475775D01*
X64005082Y-46921000D01*
X64001510Y-46884725D01*
X64266700Y-46884725D01*
X64266700Y-47266225D01*
X64358775Y-47358300D01*
X64872300Y-47358300D01*
X64872300Y-46644775D01*
X64897700Y-46644775D01*
X64897700Y-47358300D01*
X65411225Y-47358300D01*
X65503300Y-47266225D01*
X65503300Y-46884725D01*
X65489146Y-46813570D01*
X65461383Y-46746544D01*
X65421077Y-46686222D01*
X65369777Y-46634922D01*
X65309455Y-46594617D01*
X65242429Y-46566853D01*
X65171274Y-46552700D01*
X64989775Y-46552700D01*
X64897700Y-46644775D01*
X64872300Y-46644775D01*
X64780225Y-46552700D01*
X64598726Y-46552700D01*
X64527571Y-46566853D01*
X64460545Y-46594617D01*
X64400223Y-46634922D01*
X64348923Y-46686222D01*
X64308617Y-46746544D01*
X64280854Y-46813570D01*
X64266700Y-46884725D01*
X64001510Y-46884725D01*
X63997971Y-46848801D01*
X63976911Y-46779376D01*
X63969200Y-46764949D01*
X63969200Y-46489200D01*
X63963925Y-46435405D01*
X63959230Y-46381736D01*
X63958374Y-46378791D01*
X63958074Y-46375728D01*
X63942456Y-46323999D01*
X63927421Y-46272247D01*
X63926009Y-46269522D01*
X63925120Y-46266579D01*
X63899774Y-46218910D01*
X63883862Y-46188212D01*
X63896687Y-46177687D01*
X63942712Y-46121607D01*
X63976911Y-46057624D01*
X63997971Y-45988199D01*
X64005082Y-45916000D01*
X64005082Y-45570775D01*
X64266700Y-45570775D01*
X64266700Y-45952275D01*
X64280854Y-46023430D01*
X64308617Y-46090456D01*
X64348923Y-46150778D01*
X64400223Y-46202078D01*
X64460545Y-46242383D01*
X64527571Y-46270147D01*
X64598726Y-46284300D01*
X64780225Y-46284300D01*
X64872300Y-46192225D01*
X64872300Y-45478700D01*
X64897700Y-45478700D01*
X64897700Y-46192225D01*
X64989775Y-46284300D01*
X65171274Y-46284300D01*
X65242429Y-46270147D01*
X65309455Y-46242383D01*
X65369777Y-46202078D01*
X65421077Y-46150778D01*
X65461383Y-46090456D01*
X65489146Y-46023430D01*
X65503300Y-45952275D01*
X65503300Y-45570775D01*
X65411225Y-45478700D01*
X64897700Y-45478700D01*
X64872300Y-45478700D01*
X64358775Y-45478700D01*
X64266700Y-45570775D01*
X64005082Y-45570775D01*
X64005082Y-45016000D01*
X64001510Y-44979725D01*
X64266700Y-44979725D01*
X64266700Y-45361225D01*
X64358775Y-45453300D01*
X64872300Y-45453300D01*
X64872300Y-44739775D01*
X64897700Y-44739775D01*
X64897700Y-45453300D01*
X65411225Y-45453300D01*
X65503300Y-45361225D01*
X65503300Y-44979725D01*
X65489146Y-44908570D01*
X65461383Y-44841544D01*
X65421077Y-44781222D01*
X65369777Y-44729922D01*
X65309455Y-44689617D01*
X65242429Y-44661853D01*
X65171274Y-44647700D01*
X64989775Y-44647700D01*
X64897700Y-44739775D01*
X64872300Y-44739775D01*
X64780225Y-44647700D01*
X64598726Y-44647700D01*
X64527571Y-44661853D01*
X64460545Y-44689617D01*
X64400223Y-44729922D01*
X64348923Y-44781222D01*
X64308617Y-44841544D01*
X64280854Y-44908570D01*
X64266700Y-44979725D01*
X64001510Y-44979725D01*
X63997971Y-44943801D01*
X63976911Y-44874376D01*
X63942712Y-44810393D01*
X63896687Y-44754313D01*
X63840607Y-44708288D01*
X63776624Y-44674089D01*
X63707199Y-44653029D01*
X63635000Y-44645918D01*
X63135000Y-44645918D01*
X63062801Y-44653029D01*
X62993376Y-44674089D01*
X62929393Y-44708288D01*
X62873313Y-44754313D01*
X62827288Y-44810393D01*
X62793089Y-44874376D01*
X62790837Y-44881800D01*
X62369000Y-44881800D01*
X62318006Y-44886800D01*
X62101200Y-44886800D01*
X62101200Y-44741082D01*
X62217000Y-44741082D01*
X62289199Y-44733971D01*
X62358624Y-44712911D01*
X62422607Y-44678712D01*
X62478687Y-44632687D01*
X62524712Y-44576607D01*
X62558911Y-44512624D01*
X62579971Y-44443199D01*
X62587082Y-44371000D01*
X62587082Y-44173775D01*
X80269700Y-44173775D01*
X80269700Y-44480275D01*
X80283854Y-44551430D01*
X80311617Y-44618456D01*
X80351923Y-44678778D01*
X80403223Y-44730078D01*
X80463545Y-44770383D01*
X80530571Y-44798147D01*
X80601726Y-44812300D01*
X80933225Y-44812300D01*
X81025300Y-44720225D01*
X81025300Y-44081700D01*
X80361775Y-44081700D01*
X80269700Y-44173775D01*
X62587082Y-44173775D01*
X62587082Y-43657725D01*
X80269700Y-43657725D01*
X80269700Y-43964225D01*
X80361775Y-44056300D01*
X81025300Y-44056300D01*
X81025300Y-43417775D01*
X80933225Y-43325700D01*
X80601726Y-43325700D01*
X80530571Y-43339853D01*
X80463545Y-43367617D01*
X80403223Y-43407922D01*
X80351923Y-43459222D01*
X80311617Y-43519544D01*
X80283854Y-43586570D01*
X80269700Y-43657725D01*
X62587082Y-43657725D01*
X62587082Y-43471000D01*
X62579971Y-43398801D01*
X62558911Y-43329376D01*
X62524712Y-43265393D01*
X62478687Y-43209313D01*
X62422607Y-43163288D01*
X62358624Y-43129089D01*
X62289199Y-43108029D01*
X62217000Y-43100918D01*
X61451200Y-43100918D01*
X61451200Y-42732768D01*
X61571470Y-42635376D01*
X61674670Y-42511511D01*
X77944700Y-42511511D01*
X77944700Y-42743011D01*
X77958854Y-42814166D01*
X77986617Y-42881192D01*
X78026923Y-42941514D01*
X78078223Y-42992814D01*
X78138545Y-43033119D01*
X78205571Y-43060883D01*
X78276726Y-43075036D01*
X78983225Y-43075036D01*
X79075300Y-42982961D01*
X79075300Y-42419436D01*
X79100700Y-42419436D01*
X79100700Y-42982961D01*
X79192775Y-43075036D01*
X79899274Y-43075036D01*
X79970429Y-43060883D01*
X80037455Y-43033119D01*
X80097777Y-42992814D01*
X80149077Y-42941514D01*
X80189383Y-42881192D01*
X80217146Y-42814166D01*
X80231300Y-42743011D01*
X80231300Y-42511511D01*
X80139225Y-42419436D01*
X79100700Y-42419436D01*
X79075300Y-42419436D01*
X78036775Y-42419436D01*
X77944700Y-42511511D01*
X61674670Y-42511511D01*
X61696810Y-42484938D01*
X61790543Y-42313020D01*
X61849098Y-42126171D01*
X61870244Y-41931506D01*
X61853178Y-41736441D01*
X61798549Y-41548407D01*
X61708438Y-41374564D01*
X61602224Y-41241511D01*
X77944700Y-41241511D01*
X77944700Y-41473011D01*
X77958854Y-41544166D01*
X77986617Y-41611192D01*
X78026923Y-41671514D01*
X78078223Y-41722814D01*
X78138545Y-41763119D01*
X78159348Y-41771736D01*
X78138545Y-41780353D01*
X78078223Y-41820658D01*
X78026923Y-41871958D01*
X77986617Y-41932280D01*
X77958854Y-41999306D01*
X77944700Y-42070461D01*
X77944700Y-42301961D01*
X78036775Y-42394036D01*
X79075300Y-42394036D01*
X79075300Y-41830511D01*
X79016525Y-41771736D01*
X79075300Y-41712961D01*
X79075300Y-41149436D01*
X79100700Y-41149436D01*
X79100700Y-41712961D01*
X79159475Y-41771736D01*
X79100700Y-41830511D01*
X79100700Y-42394036D01*
X80139225Y-42394036D01*
X80231300Y-42301961D01*
X80231300Y-42070461D01*
X80217146Y-41999306D01*
X80189383Y-41932280D01*
X80149077Y-41871958D01*
X80097777Y-41820658D01*
X80037455Y-41780353D01*
X80016652Y-41771736D01*
X80037455Y-41763119D01*
X80097777Y-41722814D01*
X80149077Y-41671514D01*
X80189383Y-41611192D01*
X80217146Y-41544166D01*
X80231300Y-41473011D01*
X80231300Y-41241511D01*
X80139225Y-41149436D01*
X79100700Y-41149436D01*
X79075300Y-41149436D01*
X78036775Y-41149436D01*
X77944700Y-41241511D01*
X61602224Y-41241511D01*
X61586276Y-41221534D01*
X61576440Y-41211560D01*
X61565440Y-41200560D01*
X61493829Y-41141739D01*
X61422831Y-41082164D01*
X61418207Y-41079622D01*
X61414131Y-41076274D01*
X61332456Y-41032480D01*
X61251242Y-40987832D01*
X61246215Y-40986237D01*
X61241563Y-40983743D01*
X61152894Y-40956634D01*
X61064598Y-40928625D01*
X61059358Y-40928037D01*
X61054310Y-40926494D01*
X60962072Y-40917125D01*
X60870008Y-40906798D01*
X60859698Y-40906726D01*
X60859502Y-40906706D01*
X60859320Y-40906723D01*
X60856000Y-40906700D01*
X59684974Y-40906700D01*
X59761960Y-40843912D01*
X59886773Y-40693038D01*
X59979905Y-40520794D01*
X60037808Y-40333741D01*
X60058276Y-40139004D01*
X60043033Y-39971511D01*
X77944700Y-39971511D01*
X77944700Y-40203011D01*
X77958854Y-40274166D01*
X77986617Y-40341192D01*
X78026923Y-40401514D01*
X78078223Y-40452814D01*
X78138545Y-40493119D01*
X78159348Y-40501736D01*
X78138545Y-40510353D01*
X78078223Y-40550658D01*
X78026923Y-40601958D01*
X77986617Y-40662280D01*
X77958854Y-40729306D01*
X77944700Y-40800461D01*
X77944700Y-41031961D01*
X78036775Y-41124036D01*
X79075300Y-41124036D01*
X79075300Y-40560511D01*
X79016525Y-40501736D01*
X79075300Y-40442961D01*
X79075300Y-39879436D01*
X79100700Y-39879436D01*
X79100700Y-40442961D01*
X79159475Y-40501736D01*
X79100700Y-40560511D01*
X79100700Y-41124036D01*
X80139225Y-41124036D01*
X80231300Y-41031961D01*
X80231300Y-40800461D01*
X80217146Y-40729306D01*
X80189383Y-40662280D01*
X80149077Y-40601958D01*
X80097777Y-40550658D01*
X80037455Y-40510353D01*
X80016652Y-40501736D01*
X80037455Y-40493119D01*
X80097777Y-40452814D01*
X80149077Y-40401514D01*
X80189383Y-40341192D01*
X80217146Y-40274166D01*
X80231300Y-40203011D01*
X80231300Y-39971511D01*
X80139225Y-39879436D01*
X79100700Y-39879436D01*
X79075300Y-39879436D01*
X78036775Y-39879436D01*
X77944700Y-39971511D01*
X60043033Y-39971511D01*
X60040529Y-39944000D01*
X59985244Y-39756157D01*
X59894526Y-39582630D01*
X59771830Y-39430028D01*
X59621831Y-39304164D01*
X59450242Y-39209832D01*
X59263598Y-39150625D01*
X59069008Y-39128798D01*
X59055000Y-39128700D01*
X48421580Y-39128700D01*
X47953440Y-38660560D01*
X47881829Y-38601739D01*
X47810831Y-38542164D01*
X47806207Y-38539622D01*
X47802131Y-38536274D01*
X47720456Y-38492480D01*
X47639242Y-38447832D01*
X47634215Y-38446237D01*
X47629563Y-38443743D01*
X47540894Y-38416634D01*
X47452598Y-38388625D01*
X47447358Y-38388037D01*
X47442310Y-38386494D01*
X47350072Y-38377125D01*
X47258008Y-38366798D01*
X47247698Y-38366726D01*
X47247502Y-38366706D01*
X47247320Y-38366723D01*
X47244000Y-38366700D01*
X41427679Y-38366700D01*
X39090464Y-36029485D01*
X39082537Y-35945629D01*
X39202292Y-35982700D01*
X39441400Y-36007831D01*
X39680835Y-35986041D01*
X39911478Y-35918159D01*
X39949607Y-35898225D01*
X41449691Y-37398309D01*
X41481451Y-37424397D01*
X41512872Y-37450763D01*
X41514918Y-37451888D01*
X41516726Y-37453373D01*
X41552923Y-37472781D01*
X41588893Y-37492556D01*
X41591122Y-37493263D01*
X41593181Y-37494367D01*
X41632381Y-37506351D01*
X41671583Y-37518787D01*
X41673912Y-37519048D01*
X41676142Y-37519730D01*
X41716915Y-37523872D01*
X41757794Y-37528457D01*
X41762366Y-37528489D01*
X41762448Y-37528497D01*
X41762524Y-37528490D01*
X41764000Y-37528500D01*
X42236113Y-37528500D01*
X42266723Y-37560198D01*
X42366936Y-37629848D01*
X42478768Y-37678706D01*
X42597961Y-37704912D01*
X42719973Y-37707468D01*
X42840159Y-37686276D01*
X42953939Y-37642144D01*
X43056980Y-37576752D01*
X43145357Y-37492591D01*
X43215705Y-37392867D01*
X43265343Y-37281379D01*
X43292380Y-37162372D01*
X43292743Y-37136325D01*
X51446882Y-37136325D01*
X51468912Y-37256359D01*
X51513838Y-37369828D01*
X51579948Y-37472411D01*
X51664723Y-37560198D01*
X51764936Y-37629848D01*
X51876768Y-37678706D01*
X51995961Y-37704912D01*
X52063713Y-37706331D01*
X52771691Y-38414309D01*
X52803451Y-38440397D01*
X52834872Y-38466763D01*
X52836918Y-38467888D01*
X52838726Y-38469373D01*
X52874923Y-38488781D01*
X52910893Y-38508556D01*
X52913122Y-38509263D01*
X52915181Y-38510367D01*
X52954422Y-38522364D01*
X52993583Y-38534787D01*
X52995907Y-38535048D01*
X52998142Y-38535731D01*
X53038960Y-38539877D01*
X53079794Y-38544457D01*
X53084367Y-38544489D01*
X53084449Y-38544497D01*
X53084525Y-38544490D01*
X53086000Y-38544500D01*
X58492113Y-38544500D01*
X58522723Y-38576198D01*
X58622936Y-38645848D01*
X58734768Y-38694706D01*
X58853961Y-38720912D01*
X58975973Y-38723468D01*
X59096159Y-38702276D01*
X59209939Y-38658144D01*
X59312980Y-38592752D01*
X59401357Y-38508591D01*
X59471705Y-38408867D01*
X59521343Y-38297379D01*
X59548380Y-38178372D01*
X59550327Y-38038980D01*
X59526622Y-37919265D01*
X59480117Y-37806434D01*
X59412581Y-37704785D01*
X59326588Y-37618190D01*
X59225413Y-37549946D01*
X59112909Y-37502654D01*
X58993363Y-37478115D01*
X58871326Y-37477263D01*
X58751449Y-37500130D01*
X58638296Y-37545847D01*
X58536178Y-37612671D01*
X58492443Y-37655500D01*
X53270118Y-37655500D01*
X52691573Y-37076955D01*
X52692327Y-37022980D01*
X52668622Y-36903265D01*
X52622117Y-36790434D01*
X52554581Y-36688785D01*
X52468588Y-36602190D01*
X52367413Y-36533946D01*
X52254909Y-36486654D01*
X52135363Y-36462115D01*
X52013326Y-36461263D01*
X51893449Y-36484130D01*
X51780296Y-36529847D01*
X51678178Y-36596671D01*
X51590984Y-36682058D01*
X51522036Y-36782754D01*
X51473959Y-36894925D01*
X51448586Y-37014297D01*
X51446882Y-37136325D01*
X43292743Y-37136325D01*
X43294327Y-37022980D01*
X43270622Y-36903265D01*
X43224117Y-36790434D01*
X43156581Y-36688785D01*
X43070588Y-36602190D01*
X42969413Y-36533946D01*
X42856909Y-36486654D01*
X42737363Y-36462115D01*
X42615326Y-36461263D01*
X42495449Y-36484130D01*
X42382296Y-36529847D01*
X42280178Y-36596671D01*
X42236443Y-36639500D01*
X41948118Y-36639500D01*
X40577882Y-35269264D01*
X40582283Y-35261258D01*
X40654980Y-35032087D01*
X40681780Y-34793161D01*
X40681900Y-34775961D01*
X40681900Y-34764039D01*
X40658439Y-34524762D01*
X40588948Y-34294598D01*
X40476076Y-34082316D01*
X40324120Y-33896000D01*
X40138870Y-33742748D01*
X39927380Y-33628396D01*
X39697708Y-33557300D01*
X39458600Y-33532169D01*
X39219165Y-33553959D01*
X38988522Y-33621841D01*
X38802299Y-33719196D01*
X38802299Y-33538099D01*
X38797034Y-33484398D01*
X38792330Y-33430635D01*
X38791473Y-33427685D01*
X38791173Y-33424627D01*
X38775568Y-33372940D01*
X38760520Y-33321146D01*
X38759108Y-33318421D01*
X38758219Y-33315478D01*
X38732862Y-33267788D01*
X38708050Y-33219921D01*
X38706135Y-33217523D01*
X38704692Y-33214808D01*
X38681621Y-33186520D01*
X38736220Y-33234040D01*
X38945814Y-33353999D01*
X39174783Y-33430763D01*
X39244755Y-33444682D01*
X39437300Y-33369754D01*
X39437300Y-32242700D01*
X39462700Y-32242700D01*
X39462700Y-33369754D01*
X39655245Y-33444682D01*
X39725217Y-33430763D01*
X39954186Y-33353999D01*
X40163780Y-33234040D01*
X40345943Y-33075496D01*
X40493676Y-32884460D01*
X40601301Y-32668274D01*
X40664682Y-32435245D01*
X40589760Y-32242700D01*
X39462700Y-32242700D01*
X39437300Y-32242700D01*
X38310240Y-32242700D01*
X38235318Y-32435245D01*
X38298699Y-32668274D01*
X38406324Y-32884460D01*
X38459818Y-32953634D01*
X38086874Y-32580690D01*
X38114980Y-32492087D01*
X38141780Y-32253161D01*
X38141900Y-32235961D01*
X38141900Y-32224039D01*
X38122361Y-32024755D01*
X38235318Y-32024755D01*
X38310240Y-32217300D01*
X39437300Y-32217300D01*
X39437300Y-31090246D01*
X39462700Y-31090246D01*
X39462700Y-32217300D01*
X40589760Y-32217300D01*
X40664682Y-32024755D01*
X40601301Y-31791726D01*
X40493676Y-31575540D01*
X40345943Y-31384504D01*
X40163780Y-31225960D01*
X39954186Y-31106001D01*
X39725217Y-31029237D01*
X39655245Y-31015318D01*
X39462700Y-31090246D01*
X39437300Y-31090246D01*
X39244755Y-31015318D01*
X39174783Y-31029237D01*
X38945814Y-31106001D01*
X38736220Y-31225960D01*
X38554057Y-31384504D01*
X38406324Y-31575540D01*
X38298699Y-31791726D01*
X38235318Y-32024755D01*
X38122361Y-32024755D01*
X38118439Y-31984762D01*
X38048948Y-31754598D01*
X37936076Y-31542316D01*
X37784120Y-31356000D01*
X37598870Y-31202748D01*
X37387380Y-31088396D01*
X37157708Y-31017300D01*
X36918600Y-30992169D01*
X36679165Y-31013959D01*
X36448522Y-31081841D01*
X36235457Y-31193229D01*
X36193827Y-31226700D01*
X35087823Y-31226700D01*
X35058870Y-31202748D01*
X34847380Y-31088396D01*
X34617708Y-31017300D01*
X34378600Y-30992169D01*
X34139165Y-31013959D01*
X33908522Y-31081841D01*
X33695457Y-31193229D01*
X33508085Y-31343880D01*
X33353543Y-31528056D01*
X33237717Y-31738742D01*
X33165020Y-31967913D01*
X33138220Y-32206839D01*
X33138100Y-32224039D01*
X33138100Y-32235961D01*
X33161561Y-32475238D01*
X33231052Y-32705402D01*
X33343924Y-32917684D01*
X33495880Y-33104000D01*
X33681130Y-33257252D01*
X33892620Y-33371604D01*
X34122292Y-33442700D01*
X34361400Y-33467831D01*
X34600835Y-33446041D01*
X34723697Y-33409881D01*
X34850134Y-33536318D01*
X33506400Y-33536318D01*
X33434201Y-33543429D01*
X33364776Y-33564489D01*
X33300793Y-33598688D01*
X33244713Y-33644713D01*
X33198688Y-33700793D01*
X33164489Y-33764776D01*
X33143429Y-33834201D01*
X33136318Y-33906400D01*
X33136318Y-35633600D01*
X33143429Y-35705799D01*
X33164489Y-35775224D01*
X33198688Y-35839207D01*
X33244713Y-35895287D01*
X33300793Y-35941312D01*
X33364776Y-35975511D01*
X33434201Y-35996571D01*
X33506400Y-36003682D01*
X35093899Y-36003682D01*
X35093899Y-36059099D01*
X35099164Y-36112800D01*
X35103868Y-36166563D01*
X35104154Y-36167548D01*
X35104247Y-36168567D01*
X35104825Y-36170531D01*
X35105025Y-36172571D01*
X35120616Y-36224212D01*
X35135677Y-36276052D01*
X35136149Y-36276963D01*
X35136438Y-36277944D01*
X35137387Y-36279759D01*
X35137979Y-36281720D01*
X35163317Y-36329374D01*
X35177666Y-36357056D01*
X35189420Y-36486202D01*
X35237707Y-36650268D01*
X35316941Y-36801830D01*
X35424106Y-36935115D01*
X35555117Y-37045047D01*
X35704987Y-37127438D01*
X35868005Y-37179151D01*
X36037963Y-37198215D01*
X36050198Y-37198300D01*
X37421519Y-37198300D01*
X40108919Y-39885700D01*
X26418300Y-39885700D01*
X26418300Y-34448445D01*
X26627316Y-34976359D01*
X26968785Y-35506216D01*
X27406668Y-35959657D01*
X27924285Y-36319410D01*
X28501921Y-36571773D01*
X29117573Y-36707133D01*
X29747791Y-36720334D01*
X30368571Y-36610874D01*
X30956268Y-36382921D01*
X31488496Y-36045159D01*
X31944983Y-35610452D01*
X32308341Y-35095360D01*
X32564730Y-34519500D01*
X32704385Y-33904808D01*
X32714438Y-33184822D01*
X32592001Y-32566470D01*
X32351791Y-31983676D01*
X32002957Y-31458638D01*
X31558786Y-31011355D01*
X31036196Y-30658864D01*
X30463917Y-30418300D01*
X42768933Y-30418300D01*
X42759036Y-30432754D01*
G36*
X76847700Y-56869447D02*
X76847700Y-57137300D01*
X77115960Y-57137300D01*
X77139514Y-57150513D01*
X77115553Y-57162700D01*
X76847700Y-57162700D01*
X76847700Y-57182700D01*
X76822300Y-57182700D01*
X76822300Y-57162700D01*
X76454040Y-57162700D01*
X76430486Y-57149487D01*
X76454447Y-57137300D01*
X76822300Y-57137300D01*
X76822300Y-56819507D01*
X76847700Y-56869447D01*
X76847700Y-56869447D01*
G37*
X76847700Y-56869447D02*
X76847700Y-57137300D01*
X77115960Y-57137300D01*
X77139514Y-57150513D01*
X77115553Y-57162700D01*
X76847700Y-57162700D01*
X76847700Y-57182700D01*
X76822300Y-57182700D01*
X76822300Y-57162700D01*
X76454040Y-57162700D01*
X76430486Y-57149487D01*
X76454447Y-57137300D01*
X76822300Y-57137300D01*
X76822300Y-56819507D01*
X76847700Y-56869447D01*
G36*
X62242700Y-56869447D02*
X62242700Y-57137300D01*
X62510960Y-57137300D01*
X62534514Y-57150513D01*
X62510553Y-57162700D01*
X62242700Y-57162700D01*
X62242700Y-57182700D01*
X62217300Y-57182700D01*
X62217300Y-57162700D01*
X61849040Y-57162700D01*
X61825486Y-57149487D01*
X61849447Y-57137300D01*
X62217300Y-57137300D01*
X62217300Y-56819507D01*
X62242700Y-56869447D01*
X62242700Y-56869447D01*
G37*
X62242700Y-56869447D02*
X62242700Y-57137300D01*
X62510960Y-57137300D01*
X62534514Y-57150513D01*
X62510553Y-57162700D01*
X62242700Y-57162700D01*
X62242700Y-57182700D01*
X62217300Y-57182700D01*
X62217300Y-57162700D01*
X61849040Y-57162700D01*
X61825486Y-57149487D01*
X61849447Y-57137300D01*
X62217300Y-57137300D01*
X62217300Y-56819507D01*
X62242700Y-56869447D01*
G36*
X47637700Y-56869447D02*
X47637700Y-57137300D01*
X47905960Y-57137300D01*
X47929514Y-57150513D01*
X47905553Y-57162700D01*
X47637700Y-57162700D01*
X47637700Y-57182700D01*
X47612300Y-57182700D01*
X47612300Y-57162700D01*
X47244040Y-57162700D01*
X47220486Y-57149487D01*
X47244447Y-57137300D01*
X47612300Y-57137300D01*
X47612300Y-56819507D01*
X47637700Y-56869447D01*
X47637700Y-56869447D01*
G37*
X47637700Y-56869447D02*
X47637700Y-57137300D01*
X47905960Y-57137300D01*
X47929514Y-57150513D01*
X47905553Y-57162700D01*
X47637700Y-57162700D01*
X47637700Y-57182700D01*
X47612300Y-57182700D01*
X47612300Y-57162700D01*
X47244040Y-57162700D01*
X47220486Y-57149487D01*
X47244447Y-57137300D01*
X47612300Y-57137300D01*
X47612300Y-56819507D01*
X47637700Y-56869447D01*
G36*
X33032700Y-56869447D02*
X33032700Y-57137300D01*
X33300960Y-57137300D01*
X33324514Y-57150513D01*
X33300553Y-57162700D01*
X33032700Y-57162700D01*
X33032700Y-57182700D01*
X33007300Y-57182700D01*
X33007300Y-57162700D01*
X32987300Y-57162700D01*
X32987300Y-57137300D01*
X33007300Y-57137300D01*
X33007300Y-56819507D01*
X33032700Y-56869447D01*
X33032700Y-56869447D01*
G37*
X33032700Y-56869447D02*
X33032700Y-57137300D01*
X33300960Y-57137300D01*
X33324514Y-57150513D01*
X33300553Y-57162700D01*
X33032700Y-57162700D01*
X33032700Y-57182700D01*
X33007300Y-57182700D01*
X33007300Y-57162700D01*
X32987300Y-57162700D01*
X32987300Y-57137300D01*
X33007300Y-57137300D01*
X33007300Y-56819507D01*
X33032700Y-56869447D01*
G36*
X63734514Y-57150513D02*
X63710553Y-57162700D01*
X63149040Y-57162700D01*
X63125486Y-57149487D01*
X63149447Y-57137300D01*
X63710960Y-57137300D01*
X63734514Y-57150513D01*
X63734514Y-57150513D01*
G37*
X63734514Y-57150513D02*
X63710553Y-57162700D01*
X63149040Y-57162700D01*
X63125486Y-57149487D01*
X63149447Y-57137300D01*
X63710960Y-57137300D01*
X63734514Y-57150513D01*
G36*
X61234514Y-57150513D02*
X61210553Y-57162700D01*
X60749040Y-57162700D01*
X60725486Y-57149487D01*
X60749447Y-57137300D01*
X61210960Y-57137300D01*
X61234514Y-57150513D01*
X61234514Y-57150513D01*
G37*
X61234514Y-57150513D02*
X61210553Y-57162700D01*
X60749040Y-57162700D01*
X60725486Y-57149487D01*
X60749447Y-57137300D01*
X61210960Y-57137300D01*
X61234514Y-57150513D01*
G36*
X34524514Y-57150513D02*
X34500553Y-57162700D01*
X33939040Y-57162700D01*
X33915486Y-57149487D01*
X33939447Y-57137300D01*
X34500960Y-57137300D01*
X34524514Y-57150513D01*
X34524514Y-57150513D01*
G37*
X34524514Y-57150513D02*
X34500553Y-57162700D01*
X33939040Y-57162700D01*
X33915486Y-57149487D01*
X33939447Y-57137300D01*
X34500960Y-57137300D01*
X34524514Y-57150513D01*
G36*
X78339514Y-57150513D02*
X78315553Y-57162700D01*
X77754040Y-57162700D01*
X77730486Y-57149487D01*
X77754447Y-57137300D01*
X78315960Y-57137300D01*
X78339514Y-57150513D01*
X78339514Y-57150513D01*
G37*
X78339514Y-57150513D02*
X78315553Y-57162700D01*
X77754040Y-57162700D01*
X77730486Y-57149487D01*
X77754447Y-57137300D01*
X78315960Y-57137300D01*
X78339514Y-57150513D01*
G36*
X46629514Y-57150513D02*
X46605553Y-57162700D01*
X46144040Y-57162700D01*
X46120486Y-57149487D01*
X46144447Y-57137300D01*
X46605960Y-57137300D01*
X46629514Y-57150513D01*
X46629514Y-57150513D01*
G37*
X46629514Y-57150513D02*
X46605553Y-57162700D01*
X46144040Y-57162700D01*
X46120486Y-57149487D01*
X46144447Y-57137300D01*
X46605960Y-57137300D01*
X46629514Y-57150513D01*
G36*
X49129514Y-57150513D02*
X49105553Y-57162700D01*
X48544040Y-57162700D01*
X48520486Y-57149487D01*
X48544447Y-57137300D01*
X49105960Y-57137300D01*
X49129514Y-57150513D01*
X49129514Y-57150513D01*
G37*
X49129514Y-57150513D02*
X49105553Y-57162700D01*
X48544040Y-57162700D01*
X48520486Y-57149487D01*
X48544447Y-57137300D01*
X49105960Y-57137300D01*
X49129514Y-57150513D01*
G36*
X75839514Y-57150513D02*
X75815553Y-57162700D01*
X75354040Y-57162700D01*
X75330486Y-57149487D01*
X75354447Y-57137300D01*
X75815960Y-57137300D01*
X75839514Y-57150513D01*
X75839514Y-57150513D01*
G37*
X75839514Y-57150513D02*
X75815553Y-57162700D01*
X75354040Y-57162700D01*
X75330486Y-57149487D01*
X75354447Y-57137300D01*
X75815960Y-57137300D01*
X75839514Y-57150513D01*
D28*
G36*
X35687000Y-58496200D02*
X30734000Y-58496200D01*
X30734000Y-55245000D01*
X35687000Y-55245000D01*
X35687000Y-58496200D01*
X35687000Y-58496200D01*
G37*
X35687000Y-58496200D02*
X30734000Y-58496200D01*
X30734000Y-55245000D01*
X35687000Y-55245000D01*
X35687000Y-58496200D01*
G36*
X50292000Y-58496200D02*
X44958000Y-58496200D01*
X44958000Y-55245000D01*
X50292000Y-55245000D01*
X50292000Y-58496200D01*
X50292000Y-58496200D01*
G37*
X50292000Y-58496200D02*
X44958000Y-58496200D01*
X44958000Y-55245000D01*
X50292000Y-55245000D01*
X50292000Y-58496200D01*
G36*
X64897000Y-58496200D02*
X59563000Y-58496200D01*
X59563000Y-55245000D01*
X64897000Y-55245000D01*
X64897000Y-58496200D01*
X64897000Y-58496200D01*
G37*
X64897000Y-58496200D02*
X59563000Y-58496200D01*
X59563000Y-55245000D01*
X64897000Y-55245000D01*
X64897000Y-58496200D01*
G36*
X79502000Y-58496200D02*
X74168000Y-58496200D01*
X74168000Y-55245000D01*
X79502000Y-55245000D01*
X79502000Y-58496200D01*
X79502000Y-58496200D01*
G37*
X79502000Y-58496200D02*
X74168000Y-58496200D01*
X74168000Y-55245000D01*
X79502000Y-55245000D01*
X79502000Y-58496200D01*
G36*
X90569000Y-64389000D02*
X85471000Y-64389000D01*
X85446224Y-64391440D01*
X85422399Y-64398667D01*
X85400443Y-64410403D01*
X85381197Y-64426197D01*
X85365403Y-64445443D01*
X85353667Y-64467399D01*
X85346440Y-64491224D01*
X85344000Y-64516000D01*
X85344000Y-80094500D01*
X85016014Y-80415688D01*
X84658476Y-80937859D01*
X84409171Y-81519531D01*
X84379101Y-81661000D01*
X37465000Y-81661000D01*
X37465000Y-79540517D01*
X46923912Y-79540517D01*
X46993600Y-79920218D01*
X47135712Y-80279151D01*
X47344835Y-80603646D01*
X47613003Y-80881342D01*
X47930001Y-81101662D01*
X48283757Y-81256214D01*
X48660794Y-81339111D01*
X49046752Y-81347195D01*
X49426930Y-81280160D01*
X49786847Y-81140557D01*
X50112794Y-80933705D01*
X50392355Y-80667482D01*
X50614883Y-80352029D01*
X50771900Y-79999362D01*
X50857428Y-79622912D01*
X50858578Y-79540517D01*
X61528912Y-79540517D01*
X61598600Y-79920218D01*
X61740712Y-80279151D01*
X61949835Y-80603646D01*
X62218003Y-80881342D01*
X62535001Y-81101662D01*
X62888757Y-81256214D01*
X63265794Y-81339111D01*
X63651752Y-81347195D01*
X64031930Y-81280160D01*
X64391847Y-81140557D01*
X64717794Y-80933705D01*
X64997355Y-80667482D01*
X65219883Y-80352029D01*
X65376900Y-79999362D01*
X65462428Y-79622912D01*
X65463578Y-79540517D01*
X75752912Y-79540517D01*
X75822600Y-79920218D01*
X75964712Y-80279151D01*
X76173835Y-80603646D01*
X76442003Y-80881342D01*
X76759001Y-81101662D01*
X77112757Y-81256214D01*
X77489794Y-81339111D01*
X77875752Y-81347195D01*
X78255930Y-81280160D01*
X78615847Y-81140557D01*
X78941794Y-80933705D01*
X79221355Y-80667482D01*
X79443883Y-80352029D01*
X79600900Y-79999362D01*
X79686428Y-79622912D01*
X79692585Y-79181979D01*
X79617602Y-78803288D01*
X79470492Y-78446374D01*
X79256860Y-78124830D01*
X78984841Y-77850906D01*
X78664797Y-77635033D01*
X78308918Y-77485436D01*
X77930760Y-77407811D01*
X77544726Y-77405116D01*
X77165522Y-77477453D01*
X76807589Y-77622067D01*
X76484562Y-77833450D01*
X76208745Y-78103550D01*
X75990643Y-78422079D01*
X75838565Y-78776905D01*
X75758302Y-79154512D01*
X75752912Y-79540517D01*
X65463578Y-79540517D01*
X65468585Y-79181979D01*
X65393602Y-78803288D01*
X65246492Y-78446374D01*
X65032860Y-78124830D01*
X64760841Y-77850906D01*
X64440797Y-77635033D01*
X64084918Y-77485436D01*
X63706760Y-77407811D01*
X63320726Y-77405116D01*
X62941522Y-77477453D01*
X62583589Y-77622067D01*
X62260562Y-77833450D01*
X61984745Y-78103550D01*
X61766643Y-78422079D01*
X61614565Y-78776905D01*
X61534302Y-79154512D01*
X61528912Y-79540517D01*
X50858578Y-79540517D01*
X50863585Y-79181979D01*
X50788602Y-78803288D01*
X50641492Y-78446374D01*
X50427860Y-78124830D01*
X50155841Y-77850906D01*
X49835797Y-77635033D01*
X49479918Y-77485436D01*
X49101760Y-77407811D01*
X48715726Y-77405116D01*
X48336522Y-77477453D01*
X47978589Y-77622067D01*
X47655562Y-77833450D01*
X47379745Y-78103550D01*
X47161643Y-78422079D01*
X47009565Y-78776905D01*
X46929302Y-79154512D01*
X46923912Y-79540517D01*
X37465000Y-79540517D01*
X37465000Y-64516000D01*
X41529000Y-64516000D01*
X41529000Y-75184000D01*
X41531440Y-75208776D01*
X41538667Y-75232601D01*
X41550403Y-75254557D01*
X41566197Y-75273803D01*
X41585443Y-75289597D01*
X41607399Y-75301333D01*
X41631224Y-75308560D01*
X41656000Y-75311000D01*
X51943000Y-75311000D01*
X51967776Y-75308560D01*
X51991601Y-75301333D01*
X52013557Y-75289597D01*
X52032803Y-75273803D01*
X52048597Y-75254557D01*
X52060333Y-75232601D01*
X52067560Y-75208776D01*
X52070000Y-75184000D01*
X52070000Y-64516000D01*
X56134000Y-64516000D01*
X56134000Y-75184000D01*
X56136440Y-75208776D01*
X56143667Y-75232601D01*
X56155403Y-75254557D01*
X56171197Y-75273803D01*
X56190443Y-75289597D01*
X56212399Y-75301333D01*
X56236224Y-75308560D01*
X56261000Y-75311000D01*
X66548000Y-75311000D01*
X66572776Y-75308560D01*
X66596601Y-75301333D01*
X66618557Y-75289597D01*
X66637803Y-75273803D01*
X66653597Y-75254557D01*
X66665333Y-75232601D01*
X66672560Y-75208776D01*
X66675000Y-75184000D01*
X66675000Y-64516000D01*
X70739000Y-64516000D01*
X70739000Y-75184000D01*
X70741440Y-75208776D01*
X70748667Y-75232601D01*
X70760403Y-75254557D01*
X70776197Y-75273803D01*
X70795443Y-75289597D01*
X70817399Y-75301333D01*
X70841224Y-75308560D01*
X70866000Y-75311000D01*
X81153000Y-75311000D01*
X81177776Y-75308560D01*
X81201601Y-75301333D01*
X81223557Y-75289597D01*
X81242803Y-75273803D01*
X81258597Y-75254557D01*
X81270333Y-75232601D01*
X81277560Y-75208776D01*
X81280000Y-75184000D01*
X81280000Y-64516000D01*
X81277560Y-64491224D01*
X81270333Y-64467399D01*
X81258597Y-64445443D01*
X81242803Y-64426197D01*
X81223557Y-64410403D01*
X81201601Y-64398667D01*
X81177776Y-64391440D01*
X81153000Y-64389000D01*
X70866000Y-64389000D01*
X70841224Y-64391440D01*
X70817399Y-64398667D01*
X70795443Y-64410403D01*
X70776197Y-64426197D01*
X70760403Y-64445443D01*
X70748667Y-64467399D01*
X70741440Y-64491224D01*
X70739000Y-64516000D01*
X66675000Y-64516000D01*
X66672560Y-64491224D01*
X66665333Y-64467399D01*
X66653597Y-64445443D01*
X66637803Y-64426197D01*
X66618557Y-64410403D01*
X66596601Y-64398667D01*
X66572776Y-64391440D01*
X66548000Y-64389000D01*
X56261000Y-64389000D01*
X56236224Y-64391440D01*
X56212399Y-64398667D01*
X56190443Y-64410403D01*
X56171197Y-64426197D01*
X56155403Y-64445443D01*
X56143667Y-64467399D01*
X56136440Y-64491224D01*
X56134000Y-64516000D01*
X52070000Y-64516000D01*
X52067560Y-64491224D01*
X52060333Y-64467399D01*
X52048597Y-64445443D01*
X52032803Y-64426197D01*
X52013557Y-64410403D01*
X51991601Y-64398667D01*
X51967776Y-64391440D01*
X51943000Y-64389000D01*
X41656000Y-64389000D01*
X41631224Y-64391440D01*
X41607399Y-64398667D01*
X41585443Y-64410403D01*
X41566197Y-64426197D01*
X41550403Y-64445443D01*
X41538667Y-64467399D01*
X41531440Y-64491224D01*
X41529000Y-64516000D01*
X37465000Y-64516000D01*
X37462560Y-64491224D01*
X37455333Y-64467399D01*
X37443597Y-64445443D01*
X37427803Y-64426197D01*
X37408557Y-64410403D01*
X37386601Y-64398667D01*
X37362776Y-64391440D01*
X37338000Y-64389000D01*
X26431000Y-64389000D01*
X26431000Y-59182000D01*
X90569000Y-59182000D01*
X90569000Y-64389000D01*
X90569000Y-64389000D01*
G37*
X90569000Y-64389000D02*
X85471000Y-64389000D01*
X85446224Y-64391440D01*
X85422399Y-64398667D01*
X85400443Y-64410403D01*
X85381197Y-64426197D01*
X85365403Y-64445443D01*
X85353667Y-64467399D01*
X85346440Y-64491224D01*
X85344000Y-64516000D01*
X85344000Y-80094500D01*
X85016014Y-80415688D01*
X84658476Y-80937859D01*
X84409171Y-81519531D01*
X84379101Y-81661000D01*
X37465000Y-81661000D01*
X37465000Y-79540517D01*
X46923912Y-79540517D01*
X46993600Y-79920218D01*
X47135712Y-80279151D01*
X47344835Y-80603646D01*
X47613003Y-80881342D01*
X47930001Y-81101662D01*
X48283757Y-81256214D01*
X48660794Y-81339111D01*
X49046752Y-81347195D01*
X49426930Y-81280160D01*
X49786847Y-81140557D01*
X50112794Y-80933705D01*
X50392355Y-80667482D01*
X50614883Y-80352029D01*
X50771900Y-79999362D01*
X50857428Y-79622912D01*
X50858578Y-79540517D01*
X61528912Y-79540517D01*
X61598600Y-79920218D01*
X61740712Y-80279151D01*
X61949835Y-80603646D01*
X62218003Y-80881342D01*
X62535001Y-81101662D01*
X62888757Y-81256214D01*
X63265794Y-81339111D01*
X63651752Y-81347195D01*
X64031930Y-81280160D01*
X64391847Y-81140557D01*
X64717794Y-80933705D01*
X64997355Y-80667482D01*
X65219883Y-80352029D01*
X65376900Y-79999362D01*
X65462428Y-79622912D01*
X65463578Y-79540517D01*
X75752912Y-79540517D01*
X75822600Y-79920218D01*
X75964712Y-80279151D01*
X76173835Y-80603646D01*
X76442003Y-80881342D01*
X76759001Y-81101662D01*
X77112757Y-81256214D01*
X77489794Y-81339111D01*
X77875752Y-81347195D01*
X78255930Y-81280160D01*
X78615847Y-81140557D01*
X78941794Y-80933705D01*
X79221355Y-80667482D01*
X79443883Y-80352029D01*
X79600900Y-79999362D01*
X79686428Y-79622912D01*
X79692585Y-79181979D01*
X79617602Y-78803288D01*
X79470492Y-78446374D01*
X79256860Y-78124830D01*
X78984841Y-77850906D01*
X78664797Y-77635033D01*
X78308918Y-77485436D01*
X77930760Y-77407811D01*
X77544726Y-77405116D01*
X77165522Y-77477453D01*
X76807589Y-77622067D01*
X76484562Y-77833450D01*
X76208745Y-78103550D01*
X75990643Y-78422079D01*
X75838565Y-78776905D01*
X75758302Y-79154512D01*
X75752912Y-79540517D01*
X65463578Y-79540517D01*
X65468585Y-79181979D01*
X65393602Y-78803288D01*
X65246492Y-78446374D01*
X65032860Y-78124830D01*
X64760841Y-77850906D01*
X64440797Y-77635033D01*
X64084918Y-77485436D01*
X63706760Y-77407811D01*
X63320726Y-77405116D01*
X62941522Y-77477453D01*
X62583589Y-77622067D01*
X62260562Y-77833450D01*
X61984745Y-78103550D01*
X61766643Y-78422079D01*
X61614565Y-78776905D01*
X61534302Y-79154512D01*
X61528912Y-79540517D01*
X50858578Y-79540517D01*
X50863585Y-79181979D01*
X50788602Y-78803288D01*
X50641492Y-78446374D01*
X50427860Y-78124830D01*
X50155841Y-77850906D01*
X49835797Y-77635033D01*
X49479918Y-77485436D01*
X49101760Y-77407811D01*
X48715726Y-77405116D01*
X48336522Y-77477453D01*
X47978589Y-77622067D01*
X47655562Y-77833450D01*
X47379745Y-78103550D01*
X47161643Y-78422079D01*
X47009565Y-78776905D01*
X46929302Y-79154512D01*
X46923912Y-79540517D01*
X37465000Y-79540517D01*
X37465000Y-64516000D01*
X41529000Y-64516000D01*
X41529000Y-75184000D01*
X41531440Y-75208776D01*
X41538667Y-75232601D01*
X41550403Y-75254557D01*
X41566197Y-75273803D01*
X41585443Y-75289597D01*
X41607399Y-75301333D01*
X41631224Y-75308560D01*
X41656000Y-75311000D01*
X51943000Y-75311000D01*
X51967776Y-75308560D01*
X51991601Y-75301333D01*
X52013557Y-75289597D01*
X52032803Y-75273803D01*
X52048597Y-75254557D01*
X52060333Y-75232601D01*
X52067560Y-75208776D01*
X52070000Y-75184000D01*
X52070000Y-64516000D01*
X56134000Y-64516000D01*
X56134000Y-75184000D01*
X56136440Y-75208776D01*
X56143667Y-75232601D01*
X56155403Y-75254557D01*
X56171197Y-75273803D01*
X56190443Y-75289597D01*
X56212399Y-75301333D01*
X56236224Y-75308560D01*
X56261000Y-75311000D01*
X66548000Y-75311000D01*
X66572776Y-75308560D01*
X66596601Y-75301333D01*
X66618557Y-75289597D01*
X66637803Y-75273803D01*
X66653597Y-75254557D01*
X66665333Y-75232601D01*
X66672560Y-75208776D01*
X66675000Y-75184000D01*
X66675000Y-64516000D01*
X70739000Y-64516000D01*
X70739000Y-75184000D01*
X70741440Y-75208776D01*
X70748667Y-75232601D01*
X70760403Y-75254557D01*
X70776197Y-75273803D01*
X70795443Y-75289597D01*
X70817399Y-75301333D01*
X70841224Y-75308560D01*
X70866000Y-75311000D01*
X81153000Y-75311000D01*
X81177776Y-75308560D01*
X81201601Y-75301333D01*
X81223557Y-75289597D01*
X81242803Y-75273803D01*
X81258597Y-75254557D01*
X81270333Y-75232601D01*
X81277560Y-75208776D01*
X81280000Y-75184000D01*
X81280000Y-64516000D01*
X81277560Y-64491224D01*
X81270333Y-64467399D01*
X81258597Y-64445443D01*
X81242803Y-64426197D01*
X81223557Y-64410403D01*
X81201601Y-64398667D01*
X81177776Y-64391440D01*
X81153000Y-64389000D01*
X70866000Y-64389000D01*
X70841224Y-64391440D01*
X70817399Y-64398667D01*
X70795443Y-64410403D01*
X70776197Y-64426197D01*
X70760403Y-64445443D01*
X70748667Y-64467399D01*
X70741440Y-64491224D01*
X70739000Y-64516000D01*
X66675000Y-64516000D01*
X66672560Y-64491224D01*
X66665333Y-64467399D01*
X66653597Y-64445443D01*
X66637803Y-64426197D01*
X66618557Y-64410403D01*
X66596601Y-64398667D01*
X66572776Y-64391440D01*
X66548000Y-64389000D01*
X56261000Y-64389000D01*
X56236224Y-64391440D01*
X56212399Y-64398667D01*
X56190443Y-64410403D01*
X56171197Y-64426197D01*
X56155403Y-64445443D01*
X56143667Y-64467399D01*
X56136440Y-64491224D01*
X56134000Y-64516000D01*
X52070000Y-64516000D01*
X52067560Y-64491224D01*
X52060333Y-64467399D01*
X52048597Y-64445443D01*
X52032803Y-64426197D01*
X52013557Y-64410403D01*
X51991601Y-64398667D01*
X51967776Y-64391440D01*
X51943000Y-64389000D01*
X41656000Y-64389000D01*
X41631224Y-64391440D01*
X41607399Y-64398667D01*
X41585443Y-64410403D01*
X41566197Y-64426197D01*
X41550403Y-64445443D01*
X41538667Y-64467399D01*
X41531440Y-64491224D01*
X41529000Y-64516000D01*
X37465000Y-64516000D01*
X37462560Y-64491224D01*
X37455333Y-64467399D01*
X37443597Y-64445443D01*
X37427803Y-64426197D01*
X37408557Y-64410403D01*
X37386601Y-64398667D01*
X37362776Y-64391440D01*
X37338000Y-64389000D01*
X26431000Y-64389000D01*
X26431000Y-59182000D01*
X90569000Y-59182000D01*
X90569000Y-64389000D01*
D38*
G36*
X43385700Y-45385700D02*
X35614300Y-45385700D01*
X35614300Y-40614300D01*
X43385700Y-40614300D01*
X43385700Y-45385700D01*
X43385700Y-45385700D01*
G37*
X43385700Y-45385700D02*
X35614300Y-45385700D01*
X35614300Y-40614300D01*
X43385700Y-40614300D01*
X43385700Y-45385700D01*
G36*
X34385700Y-44885700D02*
X26418300Y-44885700D01*
X26418300Y-40614300D01*
X34385700Y-40614300D01*
X34385700Y-44885700D01*
X34385700Y-44885700D01*
G37*
X34385700Y-44885700D02*
X26418300Y-44885700D01*
X26418300Y-40614300D01*
X34385700Y-40614300D01*
X34385700Y-44885700D01*
G36*
X34385700Y-49385700D02*
X26418300Y-49385700D01*
X26418300Y-45614300D01*
X34385700Y-45614300D01*
X34385700Y-49385700D01*
X34385700Y-49385700D01*
G37*
X34385700Y-49385700D02*
X26418300Y-49385700D01*
X26418300Y-45614300D01*
X34385700Y-45614300D01*
X34385700Y-49385700D01*
M02*
