G04 #@! TF.GenerationSoftware,KiCad,Pcbnew,(2018-01-11 revision 6f2beeb)-master*
G04 #@! TF.CreationDate,2018-01-26T06:56:05-06:00*
G04 #@! TF.ProjectId,RPi-HAT-RGBW-LED-Controller,5250692D4841542D524742572D4C4544,rev?*
G04 #@! TF.SameCoordinates,Original*
G04 #@! TF.FileFunction,Copper,L1,Top,Signal*
G04 #@! TF.FilePolarity,Positive*
%FSLAX46Y46*%
G04 Gerber Fmt 4.6, Leading zero omitted, Abs format (unit mm)*
G04 Created by KiCad (PCBNEW (2018-01-11 revision 6f2beeb)-master) date Friday, January 26, 2018 'AMt' 06:56:05 AM*
%MOMM*%
%LPD*%
G01*
G04 APERTURE LIST*
%ADD10R,2.500000X4.000000*%
%ADD11C,3.175000*%
%ADD12R,2.400000X1.500000*%
%ADD13R,1.050000X1.500000*%
%ADD14R,2.500000X1.000000*%
%ADD15R,0.500000X0.900000*%
%ADD16R,0.800000X0.750000*%
%ADD17R,3.500000X2.000000*%
%ADD18R,3.100000X2.600000*%
%ADD19R,4.500000X2.950000*%
%ADD20R,0.600000X1.550000*%
%ADD21C,0.600000*%
%ADD22R,0.900000X0.500000*%
%ADD23R,1.727200X1.727200*%
%ADD24O,1.727200X1.727200*%
%ADD25R,0.750000X0.800000*%
%ADD26R,0.400000X1.100000*%
%ADD27R,1.700000X0.900000*%
%ADD28C,1.778000*%
%ADD29R,0.450000X1.450000*%
%ADD30C,0.685800*%
%ADD31C,0.762000*%
%ADD32C,0.508000*%
%ADD33C,1.016000*%
%ADD34C,0.152400*%
%ADD35C,0.431800*%
%ADD36C,0.254000*%
%ADD37C,0.600000*%
%ADD38C,0.800000*%
%ADD39C,1.270000*%
%ADD40C,3.556000*%
%ADD41C,2.540000*%
%ADD42C,0.508000*%
%ADD43C,0.500000*%
%ADD44C,0.228600*%
G04 APERTURE END LIST*
D10*
X48895000Y-39434000D03*
X48895000Y-47434000D03*
D11*
X77724000Y-79375000D03*
X82804000Y-79375000D03*
X34290000Y-79375000D03*
X39370000Y-79375000D03*
X48895000Y-79375000D03*
X53975000Y-79375000D03*
X63500000Y-79375000D03*
X68580000Y-79375000D03*
X29210000Y-42545000D03*
X29210000Y-47625000D03*
D12*
X79615400Y-62230000D03*
D13*
X77240400Y-62230000D03*
D14*
X81280000Y-59577100D03*
X81280000Y-56577100D03*
D15*
X74700000Y-52705000D03*
X76200000Y-52705000D03*
D16*
X77470000Y-52705000D03*
X78970000Y-52705000D03*
D17*
X75996800Y-65527800D03*
X75996800Y-74527800D03*
D18*
X76835000Y-57150000D03*
D19*
X76835000Y-57150000D03*
D20*
X78740000Y-54450000D03*
X77470000Y-54450000D03*
X76200000Y-54450000D03*
X74930000Y-54450000D03*
X74930000Y-59850000D03*
X76200000Y-59850000D03*
X77470000Y-59850000D03*
X78740000Y-59850000D03*
D21*
X78635000Y-56550000D03*
X77435000Y-56550000D03*
X77435000Y-57750000D03*
X78635000Y-57750000D03*
X75035000Y-56550000D03*
X76135000Y-56550000D03*
X76135000Y-57750000D03*
X75035000Y-57750000D03*
D22*
X73533000Y-58350000D03*
X73533000Y-59850000D03*
D16*
X62865000Y-52705000D03*
X64365000Y-52705000D03*
D15*
X60095000Y-52705000D03*
X61595000Y-52705000D03*
D14*
X66675000Y-59577100D03*
X66675000Y-56577100D03*
D12*
X65010400Y-62230000D03*
D13*
X62635400Y-62230000D03*
D22*
X58928000Y-58350000D03*
X58928000Y-59850000D03*
D18*
X62230000Y-57150000D03*
D19*
X62230000Y-57150000D03*
D20*
X64135000Y-54450000D03*
X62865000Y-54450000D03*
X61595000Y-54450000D03*
X60325000Y-54450000D03*
X60325000Y-59850000D03*
X61595000Y-59850000D03*
X62865000Y-59850000D03*
X64135000Y-59850000D03*
D21*
X64030000Y-56550000D03*
X62830000Y-56550000D03*
X62830000Y-57750000D03*
X64030000Y-57750000D03*
X60430000Y-56550000D03*
X61530000Y-56550000D03*
X61530000Y-57750000D03*
X60430000Y-57750000D03*
D16*
X48260000Y-52705000D03*
X49760000Y-52705000D03*
D15*
X45490000Y-52705000D03*
X46990000Y-52705000D03*
D14*
X52070000Y-59577100D03*
X52070000Y-56577100D03*
D12*
X50405400Y-62230000D03*
D13*
X48030400Y-62230000D03*
D22*
X44323000Y-58350000D03*
X44323000Y-59850000D03*
D18*
X47625000Y-57150000D03*
D19*
X47625000Y-57150000D03*
D20*
X49530000Y-54450000D03*
X48260000Y-54450000D03*
X46990000Y-54450000D03*
X45720000Y-54450000D03*
X45720000Y-59850000D03*
X46990000Y-59850000D03*
X48260000Y-59850000D03*
X49530000Y-59850000D03*
D21*
X49425000Y-56550000D03*
X48225000Y-56550000D03*
X48225000Y-57750000D03*
X49425000Y-57750000D03*
X45825000Y-56550000D03*
X46925000Y-56550000D03*
X46925000Y-57750000D03*
X45825000Y-57750000D03*
D23*
X34370000Y-34770000D03*
D24*
X34370000Y-32230000D03*
X36910000Y-34770000D03*
X36910000Y-32230000D03*
X39450000Y-34770000D03*
X39450000Y-32230000D03*
X41990000Y-34770000D03*
X41990000Y-32230000D03*
X44530000Y-34770000D03*
X44530000Y-32230000D03*
X47070000Y-34770000D03*
X47070000Y-32230000D03*
X49610000Y-34770000D03*
X49610000Y-32230000D03*
X52150000Y-34770000D03*
X52150000Y-32230000D03*
X54690000Y-34770000D03*
X54690000Y-32230000D03*
X57230000Y-34770000D03*
X57230000Y-32230000D03*
X59770000Y-34770000D03*
X59770000Y-32230000D03*
X62310000Y-34770000D03*
X62310000Y-32230000D03*
X64850000Y-34770000D03*
X64850000Y-32230000D03*
X67390000Y-34770000D03*
X67390000Y-32230000D03*
X69930000Y-34770000D03*
X69930000Y-32230000D03*
X72470000Y-34770000D03*
X72470000Y-32230000D03*
X75010000Y-34770000D03*
X75010000Y-32230000D03*
X77550000Y-34770000D03*
X77550000Y-32230000D03*
X80090000Y-34770000D03*
X80090000Y-32230000D03*
X82630000Y-34770000D03*
X82630000Y-32230000D03*
D25*
X74163182Y-44692000D03*
X74163182Y-43192000D03*
D26*
X76034182Y-46736000D03*
X76684182Y-46736000D03*
X77334182Y-46736000D03*
X77984182Y-46736000D03*
X78634182Y-46736000D03*
X79284182Y-46736000D03*
X79934182Y-46736000D03*
X80584182Y-46736000D03*
X81234182Y-46736000D03*
X81884182Y-46736000D03*
X82534182Y-46736000D03*
X83184182Y-46736000D03*
X83834182Y-46736000D03*
X84484182Y-46736000D03*
X84484182Y-41036000D03*
X83834182Y-41036000D03*
X83184182Y-41036000D03*
X82534182Y-41036000D03*
X81884182Y-41036000D03*
X81234182Y-41036000D03*
X80584182Y-41036000D03*
X79934182Y-41036000D03*
X79284182Y-41036000D03*
X78634182Y-41036000D03*
X77984182Y-41036000D03*
X77334182Y-41036000D03*
X76684182Y-41036000D03*
X76034182Y-41036000D03*
D27*
X88265000Y-43610000D03*
X88265000Y-40210000D03*
D16*
X33655000Y-52705000D03*
X35155000Y-52705000D03*
D14*
X37465000Y-59577100D03*
X37465000Y-56577100D03*
D22*
X29718000Y-58350000D03*
X29718000Y-59850000D03*
D15*
X30885000Y-52705000D03*
X32385000Y-52705000D03*
D12*
X35800400Y-62230000D03*
D13*
X33425400Y-62230000D03*
D18*
X33020000Y-57150000D03*
D19*
X33020000Y-57150000D03*
D20*
X34925000Y-54450000D03*
X33655000Y-54450000D03*
X32385000Y-54450000D03*
X31115000Y-54450000D03*
X31115000Y-59850000D03*
X32385000Y-59850000D03*
X33655000Y-59850000D03*
X34925000Y-59850000D03*
D21*
X34820000Y-56550000D03*
X33620000Y-56550000D03*
X33620000Y-57750000D03*
X34820000Y-57750000D03*
X31220000Y-56550000D03*
X32320000Y-56550000D03*
X32320000Y-57750000D03*
X31220000Y-57750000D03*
D17*
X32181800Y-65527800D03*
X32181800Y-74527800D03*
X46786800Y-65527800D03*
X46786800Y-74527800D03*
X61391800Y-65527800D03*
X61391800Y-74527800D03*
D28*
X57150000Y-46990000D03*
X57150000Y-44450000D03*
X57150000Y-41910000D03*
D10*
X37465000Y-39434000D03*
X37465000Y-47434000D03*
D16*
X88634000Y-51943000D03*
X87134000Y-51943000D03*
D22*
X90170000Y-47256000D03*
X90170000Y-48756000D03*
D29*
X88605000Y-50206000D03*
X87955000Y-50206000D03*
X87305000Y-50206000D03*
X86655000Y-50206000D03*
X86655000Y-45806000D03*
X87305000Y-45806000D03*
X87955000Y-45806000D03*
X88605000Y-45806000D03*
D30*
X88646000Y-48260000D03*
D31*
X83820000Y-44069000D03*
D30*
X86655000Y-47498000D03*
D31*
X44450000Y-43942000D03*
X44450000Y-42926000D03*
X44450000Y-41910000D03*
D32*
X77470000Y-42406736D03*
D31*
X72898000Y-44692000D03*
D32*
X89662000Y-41402000D03*
D31*
X45466000Y-43942000D03*
X45466000Y-42926000D03*
X45466000Y-41910000D03*
X46482000Y-41910000D03*
X46482000Y-42926000D03*
X46482000Y-43942000D03*
X47498000Y-43942000D03*
X47498000Y-42926000D03*
X47498000Y-41910000D03*
D32*
X85725000Y-43610000D03*
X82804000Y-37465000D03*
X76708000Y-37465000D03*
X81661000Y-36830000D03*
D31*
X36576000Y-44704000D03*
X37592000Y-44704000D03*
X38608000Y-44704000D03*
X39624000Y-44704000D03*
X39624000Y-43688000D03*
X38608000Y-43688000D03*
X37592000Y-43688000D03*
X36576000Y-43688000D03*
X36576000Y-42672000D03*
X37592000Y-42672000D03*
X38608000Y-42672000D03*
X39624000Y-42672000D03*
D32*
X63500000Y-36068000D03*
X72390000Y-38862000D03*
X58928000Y-38100000D03*
X52070000Y-37084000D03*
X42672000Y-37084000D03*
X75692000Y-36830000D03*
D33*
X59055000Y-40132000D03*
X59055000Y-43307000D03*
D31*
X81534000Y-62738000D03*
X82550000Y-62738000D03*
X83566000Y-62738000D03*
X84582000Y-62738000D03*
X84582000Y-61722000D03*
X83566000Y-61722000D03*
X82550000Y-61722000D03*
X81534000Y-61722000D03*
X52197000Y-62738000D03*
X53213000Y-62738000D03*
X54229000Y-62738000D03*
X55245000Y-62738000D03*
X55245000Y-61722000D03*
X54229000Y-61722000D03*
X53213000Y-61722000D03*
X52197000Y-61722000D03*
X66802000Y-62738000D03*
X67818000Y-62738000D03*
X68834000Y-62738000D03*
X69850000Y-62738000D03*
X69850000Y-61722000D03*
X68834000Y-61722000D03*
X67818000Y-61722000D03*
X66802000Y-61722000D03*
X37592000Y-62738000D03*
X38608000Y-62738000D03*
X39624000Y-62738000D03*
X40640000Y-62738000D03*
X40640000Y-61722000D03*
X39624000Y-61722000D03*
X38608000Y-61722000D03*
X37592000Y-61722000D03*
D32*
X43307000Y-30734000D03*
D34*
X88605000Y-50206000D02*
X88605000Y-48301000D01*
X88605000Y-48301000D02*
X88646000Y-48260000D01*
D35*
X88605000Y-50206000D02*
X88605000Y-49049200D01*
X88605000Y-49049200D02*
X88898200Y-48756000D01*
X88898200Y-48756000D02*
X90170000Y-48756000D01*
X88605000Y-50206000D02*
X88605000Y-51914000D01*
X88605000Y-51914000D02*
X88634000Y-51943000D01*
X84484182Y-46736000D02*
X85893000Y-46736000D01*
X85893000Y-46736000D02*
X86655000Y-47498000D01*
X87134000Y-51943000D02*
X86302200Y-51943000D01*
X86302200Y-51943000D02*
X86061699Y-51702499D01*
X86061699Y-51702499D02*
X86061699Y-48091301D01*
X86061699Y-48091301D02*
X86312101Y-47840899D01*
X86312101Y-47840899D02*
X86655000Y-47498000D01*
X86655000Y-46962800D02*
X86655000Y-47498000D01*
X86655000Y-45806000D02*
X86655000Y-46962800D01*
D36*
X76034182Y-46736000D02*
X74676000Y-46736000D01*
X74676000Y-46736000D02*
X74163182Y-46223182D01*
X74163182Y-46223182D02*
X74163182Y-44692000D01*
X44450000Y-41910000D02*
X45466000Y-41910000D01*
X47498000Y-41910000D02*
X48673000Y-41910000D01*
X48895000Y-41688000D02*
X48895000Y-39434000D01*
X48673000Y-41910000D02*
X48895000Y-41688000D01*
X44450000Y-41910000D02*
X44450000Y-42926000D01*
X77984182Y-41036000D02*
X77984182Y-41903818D01*
X77984182Y-41903818D02*
X77470000Y-42418000D01*
X78634182Y-41036000D02*
X77984182Y-41036000D01*
X79284182Y-41036000D02*
X78634182Y-41036000D01*
D35*
X74163182Y-44692000D02*
X72898000Y-44692000D01*
D36*
X89662000Y-41275000D02*
X89662000Y-41402000D01*
X89662000Y-40503000D02*
X89662000Y-41275000D01*
X88265000Y-40210000D02*
X89369000Y-40210000D01*
X89369000Y-40210000D02*
X89662000Y-40503000D01*
X45466000Y-42926000D02*
X45466000Y-43942000D01*
X46482000Y-41910000D02*
X45466000Y-41910000D01*
X46482000Y-43942000D02*
X46482000Y-42926000D01*
X47498000Y-42926000D02*
X47498000Y-43942000D01*
X78662100Y-56577100D02*
X78635000Y-56550000D01*
X34847100Y-56577100D02*
X34820000Y-56550000D01*
X66647900Y-56550000D02*
X66675000Y-56577100D01*
X52042900Y-56550000D02*
X52070000Y-56577100D01*
D34*
X30885000Y-54220000D02*
X31115000Y-54450000D01*
X45490000Y-54220000D02*
X45720000Y-54450000D01*
X60095000Y-54220000D02*
X60325000Y-54450000D01*
X74700000Y-52705000D02*
X74700000Y-54220000D01*
X74700000Y-54220000D02*
X74930000Y-54450000D01*
D36*
X78634182Y-46736000D02*
X77984182Y-46736000D01*
X77984182Y-46736000D02*
X77334182Y-46736000D01*
X76684182Y-46736000D02*
X77334182Y-46736000D01*
X76034182Y-46736000D02*
X76684182Y-46736000D01*
D37*
X77470000Y-52705000D02*
X77470000Y-53232400D01*
D38*
X77470000Y-52705000D02*
X77470000Y-51181000D01*
D37*
X77470000Y-53232400D02*
X77470000Y-54450000D01*
X77470000Y-54450000D02*
X77470000Y-56515000D01*
D34*
X74930000Y-56445000D02*
X75035000Y-56550000D01*
D37*
X74930000Y-54450000D02*
X74930000Y-56445000D01*
D34*
X77470000Y-56515000D02*
X76835000Y-57150000D01*
D37*
X62865000Y-52705000D02*
X62865000Y-53232400D01*
D38*
X62865000Y-52705000D02*
X62865000Y-51181000D01*
D37*
X62865000Y-53232400D02*
X62865000Y-54450000D01*
D34*
X62865000Y-56515000D02*
X62230000Y-57150000D01*
D37*
X60325000Y-54450000D02*
X60325000Y-56445000D01*
D34*
X60325000Y-56445000D02*
X60430000Y-56550000D01*
D37*
X62865000Y-54450000D02*
X62865000Y-56515000D01*
X48260000Y-52705000D02*
X48260000Y-53232400D01*
D38*
X48260000Y-52705000D02*
X48260000Y-51181000D01*
D37*
X48260000Y-53232400D02*
X48260000Y-54450000D01*
D34*
X48260000Y-56515000D02*
X47625000Y-57150000D01*
D37*
X45720000Y-54450000D02*
X45720000Y-56445000D01*
D34*
X45720000Y-56445000D02*
X45825000Y-56550000D01*
D37*
X48260000Y-54450000D02*
X48260000Y-56515000D01*
D38*
X33655000Y-52705000D02*
X33655000Y-51181000D01*
D37*
X33655000Y-52705000D02*
X33655000Y-53232400D01*
X33655000Y-53232400D02*
X33655000Y-54450000D01*
X31115000Y-54450000D02*
X31115000Y-56445000D01*
D34*
X31115000Y-56445000D02*
X31220000Y-56550000D01*
D37*
X33655000Y-54450000D02*
X33655000Y-56515000D01*
D34*
X33655000Y-56515000D02*
X33020000Y-57150000D01*
D36*
X85725000Y-43610000D02*
X88265000Y-43610000D01*
X76708000Y-37465000D02*
X82804000Y-37465000D01*
X75692000Y-36830000D02*
X81661000Y-36830000D01*
D39*
X59055000Y-43307000D02*
X59055000Y-40132000D01*
D40*
X48895000Y-47434000D02*
X56706000Y-47434000D01*
D41*
X56706000Y-47434000D02*
X57150000Y-46990000D01*
D36*
X37592000Y-44704000D02*
X36576000Y-44704000D01*
X38608000Y-44704000D02*
X37592000Y-44704000D01*
X38608000Y-43688000D02*
X39624000Y-43688000D01*
X36576000Y-43688000D02*
X37592000Y-43688000D01*
D34*
X29610119Y-60853601D02*
X28448000Y-59691482D01*
X28448000Y-59691482D02*
X28448000Y-50292000D01*
X32385000Y-60325000D02*
X31856399Y-60853601D01*
X31856399Y-60853601D02*
X29610119Y-60853601D01*
X28829000Y-49911000D02*
X43053000Y-49911000D01*
X28448000Y-50292000D02*
X28829000Y-49911000D01*
X43053000Y-49911000D02*
X43230810Y-49733190D01*
X57354678Y-49733190D02*
X57684868Y-49403000D01*
X57684868Y-49403000D02*
X71858802Y-49403000D01*
X43230810Y-49733190D02*
X57354678Y-49733190D01*
X32385000Y-59850000D02*
X32385000Y-60325000D01*
X71858802Y-49403000D02*
X72138232Y-49123570D01*
X72138232Y-49123570D02*
X77599012Y-49123570D01*
X77599012Y-49123570D02*
X79284182Y-47438400D01*
X79284182Y-47438400D02*
X79284182Y-46736000D01*
X46990000Y-60325000D02*
X46461399Y-60853601D01*
X43434000Y-50038000D02*
X57480934Y-50038000D01*
X43180000Y-59818482D02*
X43180000Y-50292000D01*
X43180000Y-50292000D02*
X43434000Y-50038000D01*
X44215119Y-60853601D02*
X43180000Y-59818482D01*
X46990000Y-59850000D02*
X46990000Y-60325000D01*
X57811125Y-49707809D02*
X71985059Y-49707809D01*
X57480934Y-50038000D02*
X57811125Y-49707809D01*
X46461399Y-60853601D02*
X44215119Y-60853601D01*
X71985059Y-49707809D02*
X72264487Y-49428381D01*
X72264487Y-49428381D02*
X77944202Y-49428380D01*
X77944202Y-49428380D02*
X79934182Y-47438400D01*
X79934182Y-47438400D02*
X79934182Y-46736000D01*
X61595000Y-59850000D02*
X61595000Y-60325000D01*
X61595000Y-60325000D02*
X61066399Y-60853601D01*
X57785000Y-50165000D02*
X57912000Y-50038000D01*
X61066399Y-60853601D02*
X58820119Y-60853601D01*
X57785000Y-59818482D02*
X57785000Y-50165000D01*
X58820119Y-60853601D02*
X57785000Y-59818482D01*
X57912000Y-50038000D02*
X72085934Y-50038000D01*
X72085934Y-50038000D02*
X72390744Y-49733190D01*
X72390744Y-49733190D02*
X78289392Y-49733190D01*
X78289392Y-49733190D02*
X80584182Y-47438400D01*
X80584182Y-47438400D02*
X80584182Y-46736000D01*
X76200000Y-59850000D02*
X76200000Y-60325000D01*
X73425119Y-60853601D02*
X72390744Y-59819226D01*
X75671399Y-60853601D02*
X73425119Y-60853601D01*
X76200000Y-60325000D02*
X75671399Y-60853601D01*
X72390744Y-50164256D02*
X72517000Y-50038000D01*
X72390744Y-59819226D02*
X72390744Y-50164256D01*
X72517000Y-50038000D02*
X78634582Y-50038000D01*
X78634582Y-50038000D02*
X81234182Y-47438400D01*
X81234182Y-47438400D02*
X81234182Y-46736000D01*
X75974582Y-39624000D02*
X73152000Y-39624000D01*
X73152000Y-39624000D02*
X72390000Y-38862000D01*
X76684182Y-40333600D02*
X75974582Y-39624000D01*
X63500000Y-36068000D02*
X63500000Y-34343542D01*
X63500000Y-34343542D02*
X62834257Y-33677799D01*
X76684182Y-41036000D02*
X76684182Y-40333600D01*
X62834257Y-33677799D02*
X38002201Y-33677799D01*
X38002201Y-33677799D02*
X37773599Y-33906401D01*
X37773599Y-33906401D02*
X36910000Y-34770000D01*
X76100838Y-39319190D02*
X73561440Y-39319190D01*
X77334182Y-40333600D02*
X76319773Y-39319191D01*
X76319773Y-39319191D02*
X76100838Y-39319190D01*
X72342250Y-38100000D02*
X58928000Y-38100000D01*
X73561440Y-39319190D02*
X72342250Y-38100000D01*
X77334182Y-41036000D02*
X77334182Y-40333600D01*
X42672000Y-37084000D02*
X52070000Y-37084000D01*
D36*
X75717401Y-36804599D02*
X75692000Y-36830000D01*
D42*
X83566000Y-62738000D02*
X82550000Y-62738000D01*
X84582000Y-61722000D02*
X84582000Y-62738000D01*
X82550000Y-61722000D02*
X83566000Y-61722000D01*
X79615400Y-62230000D02*
X81026000Y-62230000D01*
X81026000Y-62230000D02*
X81534000Y-61722000D01*
X54229000Y-62738000D02*
X53213000Y-62738000D01*
X55245000Y-61722000D02*
X55245000Y-62738000D01*
X53213000Y-61722000D02*
X54229000Y-61722000D01*
X50405400Y-62230000D02*
X51689000Y-62230000D01*
X51689000Y-62230000D02*
X52197000Y-61722000D01*
X67818000Y-62738000D02*
X66802000Y-62738000D01*
X69850000Y-62738000D02*
X68834000Y-62738000D01*
X68834000Y-61722000D02*
X69850000Y-61722000D01*
X66802000Y-61722000D02*
X67818000Y-61722000D01*
X65010400Y-62230000D02*
X66294000Y-62230000D01*
X66294000Y-62230000D02*
X66802000Y-61722000D01*
X50405400Y-62230000D02*
X51943000Y-62230000D01*
X39624000Y-62738000D02*
X38608000Y-62738000D01*
X40640000Y-61722000D02*
X40640000Y-62738000D01*
X38608000Y-61722000D02*
X39624000Y-61722000D01*
X35800400Y-62230000D02*
X37084000Y-62230000D01*
X37084000Y-62230000D02*
X37592000Y-61722000D01*
D34*
X83185000Y-78740000D02*
X83185000Y-62230000D01*
X68580000Y-62230000D02*
X65010400Y-62230000D01*
X68580000Y-78740000D02*
X68580000Y-62230000D01*
X83185000Y-62230000D02*
X79615400Y-62230000D01*
D43*
X31115000Y-59850000D02*
X29718000Y-59850000D01*
X32385000Y-52705000D02*
X32385000Y-54450000D01*
X45720000Y-59850000D02*
X44323000Y-59850000D01*
X46990000Y-52705000D02*
X46990000Y-54450000D01*
D37*
X34925000Y-54450000D02*
X34925000Y-52935000D01*
D34*
X34925000Y-52935000D02*
X35155000Y-52705000D01*
X49530000Y-52935000D02*
X49760000Y-52705000D01*
D37*
X49530000Y-54450000D02*
X49530000Y-52935000D01*
D34*
X64135000Y-52935000D02*
X64365000Y-52705000D01*
D37*
X64135000Y-54450000D02*
X64135000Y-52935000D01*
D43*
X78740000Y-54450000D02*
X78740000Y-52935000D01*
X78740000Y-52935000D02*
X78970000Y-52705000D01*
X60325000Y-59850000D02*
X58928000Y-59850000D01*
X61595000Y-52705000D02*
X61595000Y-54450000D01*
X74930000Y-59850000D02*
X73533000Y-59850000D01*
X76200000Y-52705000D02*
X76200000Y-54450000D01*
D34*
X90424000Y-44831000D02*
X90297000Y-44958000D01*
X90297000Y-44958000D02*
X90170000Y-45085000D01*
X88605000Y-45806000D02*
X89449000Y-45806000D01*
X89449000Y-45806000D02*
X90297000Y-44958000D01*
X90170000Y-45085000D02*
X90170000Y-47256000D01*
X88011000Y-36830000D02*
X86106000Y-36830000D01*
X84201000Y-30988000D02*
X83693000Y-30480000D01*
X83693000Y-30480000D02*
X43561000Y-30480000D01*
X90424000Y-44831000D02*
X90424000Y-39243000D01*
X84201000Y-34925000D02*
X84201000Y-30988000D01*
X90424000Y-39243000D02*
X88011000Y-36830000D01*
X86106000Y-36830000D02*
X84201000Y-34925000D01*
X43561000Y-30480000D02*
X43307000Y-30734000D01*
D36*
G36*
X41529000Y-81661000D02*
X37465000Y-81661000D01*
X37465000Y-64516000D01*
X37462560Y-64491224D01*
X37455333Y-64467399D01*
X37443597Y-64445443D01*
X37427803Y-64426197D01*
X37408557Y-64410403D01*
X37386601Y-64398667D01*
X37362776Y-64391440D01*
X37338000Y-64389000D01*
X34671000Y-64389000D01*
X34671000Y-59182000D01*
X41529000Y-59182000D01*
X41529000Y-81661000D01*
X41529000Y-81661000D01*
G37*
X41529000Y-81661000D02*
X37465000Y-81661000D01*
X37465000Y-64516000D01*
X37462560Y-64491224D01*
X37455333Y-64467399D01*
X37443597Y-64445443D01*
X37427803Y-64426197D01*
X37408557Y-64410403D01*
X37386601Y-64398667D01*
X37362776Y-64391440D01*
X37338000Y-64389000D01*
X34671000Y-64389000D01*
X34671000Y-59182000D01*
X41529000Y-59182000D01*
X41529000Y-81661000D01*
G36*
X41529000Y-58496200D02*
X28956000Y-58496200D01*
X28956000Y-51816000D01*
X31292800Y-51816000D01*
X31292800Y-55676800D01*
X31302467Y-55725401D01*
X31329997Y-55766603D01*
X31371199Y-55794133D01*
X31419800Y-55803800D01*
X35814000Y-55803800D01*
X35862601Y-55794133D01*
X35903803Y-55766603D01*
X35931333Y-55725401D01*
X35941000Y-55676800D01*
X35941000Y-53092387D01*
X35943464Y-53080000D01*
X35943464Y-52330000D01*
X35941000Y-52317613D01*
X35941000Y-51816000D01*
X35931333Y-51767399D01*
X35903803Y-51726197D01*
X35862601Y-51698667D01*
X35814000Y-51689000D01*
X31419800Y-51689000D01*
X31371199Y-51698667D01*
X31329997Y-51726197D01*
X31302467Y-51767399D01*
X31292800Y-51816000D01*
X28956000Y-51816000D01*
X28956000Y-50430578D01*
X28967578Y-50419000D01*
X41529000Y-50419000D01*
X41529000Y-58496200D01*
X41529000Y-58496200D01*
G37*
X41529000Y-58496200D02*
X28956000Y-58496200D01*
X28956000Y-51816000D01*
X31292800Y-51816000D01*
X31292800Y-55676800D01*
X31302467Y-55725401D01*
X31329997Y-55766603D01*
X31371199Y-55794133D01*
X31419800Y-55803800D01*
X35814000Y-55803800D01*
X35862601Y-55794133D01*
X35903803Y-55766603D01*
X35931333Y-55725401D01*
X35941000Y-55676800D01*
X35941000Y-53092387D01*
X35943464Y-53080000D01*
X35943464Y-52330000D01*
X35941000Y-52317613D01*
X35941000Y-51816000D01*
X35931333Y-51767399D01*
X35903803Y-51726197D01*
X35862601Y-51698667D01*
X35814000Y-51689000D01*
X31419800Y-51689000D01*
X31371199Y-51698667D01*
X31329997Y-51726197D01*
X31302467Y-51767399D01*
X31292800Y-51816000D01*
X28956000Y-51816000D01*
X28956000Y-50430578D01*
X28967578Y-50419000D01*
X41529000Y-50419000D01*
X41529000Y-58496200D01*
G36*
X33909000Y-66421000D02*
X30353000Y-66421000D01*
X30353000Y-64308981D01*
X33370426Y-60788651D01*
X33394715Y-60745459D01*
X33401000Y-60706000D01*
X33401000Y-59182000D01*
X33909000Y-59182000D01*
X33909000Y-66421000D01*
X33909000Y-66421000D01*
G37*
X33909000Y-66421000D02*
X30353000Y-66421000D01*
X30353000Y-64308981D01*
X33370426Y-60788651D01*
X33394715Y-60745459D01*
X33401000Y-60706000D01*
X33401000Y-59182000D01*
X33909000Y-59182000D01*
X33909000Y-66421000D01*
G36*
X56134000Y-81661000D02*
X52070000Y-81661000D01*
X52070000Y-64516000D01*
X52067560Y-64491224D01*
X52060333Y-64467399D01*
X52048597Y-64445443D01*
X52032803Y-64426197D01*
X52013557Y-64410403D01*
X51991601Y-64398667D01*
X51967776Y-64391440D01*
X51943000Y-64389000D01*
X49276000Y-64389000D01*
X49276000Y-59182000D01*
X56134000Y-59182000D01*
X56134000Y-81661000D01*
X56134000Y-81661000D01*
G37*
X56134000Y-81661000D02*
X52070000Y-81661000D01*
X52070000Y-64516000D01*
X52067560Y-64491224D01*
X52060333Y-64467399D01*
X52048597Y-64445443D01*
X52032803Y-64426197D01*
X52013557Y-64410403D01*
X51991601Y-64398667D01*
X51967776Y-64391440D01*
X51943000Y-64389000D01*
X49276000Y-64389000D01*
X49276000Y-59182000D01*
X56134000Y-59182000D01*
X56134000Y-81661000D01*
G36*
X48514000Y-66421000D02*
X44958000Y-66421000D01*
X44958000Y-64308981D01*
X47975426Y-60788651D01*
X47999715Y-60745459D01*
X48006000Y-60706000D01*
X48006000Y-59182000D01*
X48514000Y-59182000D01*
X48514000Y-66421000D01*
X48514000Y-66421000D01*
G37*
X48514000Y-66421000D02*
X44958000Y-66421000D01*
X44958000Y-64308981D01*
X47975426Y-60788651D01*
X47999715Y-60745459D01*
X48006000Y-60706000D01*
X48006000Y-59182000D01*
X48514000Y-59182000D01*
X48514000Y-66421000D01*
G36*
X56134000Y-58496200D02*
X43637200Y-58496200D01*
X43637200Y-51816000D01*
X45897800Y-51816000D01*
X45897800Y-55676800D01*
X45907467Y-55725401D01*
X45934997Y-55766603D01*
X45976199Y-55794133D01*
X46024800Y-55803800D01*
X50419000Y-55803800D01*
X50467601Y-55794133D01*
X50508803Y-55766603D01*
X50536333Y-55725401D01*
X50546000Y-55676800D01*
X50546000Y-53092387D01*
X50548464Y-53080000D01*
X50548464Y-52330000D01*
X50546000Y-52317613D01*
X50546000Y-51816000D01*
X50536333Y-51767399D01*
X50508803Y-51726197D01*
X50467601Y-51698667D01*
X50419000Y-51689000D01*
X46024800Y-51689000D01*
X45976199Y-51698667D01*
X45934997Y-51726197D01*
X45907467Y-51767399D01*
X45897800Y-51816000D01*
X43637200Y-51816000D01*
X43637200Y-50495200D01*
X56134000Y-50495200D01*
X56134000Y-58496200D01*
X56134000Y-58496200D01*
G37*
X56134000Y-58496200D02*
X43637200Y-58496200D01*
X43637200Y-51816000D01*
X45897800Y-51816000D01*
X45897800Y-55676800D01*
X45907467Y-55725401D01*
X45934997Y-55766603D01*
X45976199Y-55794133D01*
X46024800Y-55803800D01*
X50419000Y-55803800D01*
X50467601Y-55794133D01*
X50508803Y-55766603D01*
X50536333Y-55725401D01*
X50546000Y-55676800D01*
X50546000Y-53092387D01*
X50548464Y-53080000D01*
X50548464Y-52330000D01*
X50546000Y-52317613D01*
X50546000Y-51816000D01*
X50536333Y-51767399D01*
X50508803Y-51726197D01*
X50467601Y-51698667D01*
X50419000Y-51689000D01*
X46024800Y-51689000D01*
X45976199Y-51698667D01*
X45934997Y-51726197D01*
X45907467Y-51767399D01*
X45897800Y-51816000D01*
X43637200Y-51816000D01*
X43637200Y-50495200D01*
X56134000Y-50495200D01*
X56134000Y-58496200D01*
G36*
X70739000Y-81661000D02*
X66675000Y-81661000D01*
X66675000Y-64516000D01*
X66672560Y-64491224D01*
X66665333Y-64467399D01*
X66653597Y-64445443D01*
X66637803Y-64426197D01*
X66618557Y-64410403D01*
X66596601Y-64398667D01*
X66572776Y-64391440D01*
X66548000Y-64389000D01*
X63881000Y-64389000D01*
X63881000Y-59182000D01*
X70739000Y-59182000D01*
X70739000Y-81661000D01*
X70739000Y-81661000D01*
G37*
X70739000Y-81661000D02*
X66675000Y-81661000D01*
X66675000Y-64516000D01*
X66672560Y-64491224D01*
X66665333Y-64467399D01*
X66653597Y-64445443D01*
X66637803Y-64426197D01*
X66618557Y-64410403D01*
X66596601Y-64398667D01*
X66572776Y-64391440D01*
X66548000Y-64389000D01*
X63881000Y-64389000D01*
X63881000Y-59182000D01*
X70739000Y-59182000D01*
X70739000Y-81661000D01*
G36*
X63119000Y-66421000D02*
X59563000Y-66421000D01*
X59563000Y-64308981D01*
X62580426Y-60788651D01*
X62604715Y-60745459D01*
X62611000Y-60706000D01*
X62611000Y-59182000D01*
X63119000Y-59182000D01*
X63119000Y-66421000D01*
X63119000Y-66421000D01*
G37*
X63119000Y-66421000D02*
X59563000Y-66421000D01*
X59563000Y-64308981D01*
X62580426Y-60788651D01*
X62604715Y-60745459D01*
X62611000Y-60706000D01*
X62611000Y-59182000D01*
X63119000Y-59182000D01*
X63119000Y-66421000D01*
G36*
X70739000Y-58496200D02*
X58242200Y-58496200D01*
X58242200Y-51816000D01*
X60502800Y-51816000D01*
X60502800Y-55676800D01*
X60505240Y-55701576D01*
X60512467Y-55725401D01*
X60524203Y-55747357D01*
X60539997Y-55766603D01*
X60559243Y-55782397D01*
X60581199Y-55794133D01*
X60605024Y-55801360D01*
X60629800Y-55803800D01*
X65024000Y-55803800D01*
X65048776Y-55801360D01*
X65072601Y-55794133D01*
X65094557Y-55782397D01*
X65113803Y-55766603D01*
X65129597Y-55747357D01*
X65141333Y-55725401D01*
X65148560Y-55701576D01*
X65151000Y-55676800D01*
X65151000Y-51816000D01*
X65148560Y-51791224D01*
X65141333Y-51767399D01*
X65129597Y-51745443D01*
X65113803Y-51726197D01*
X65094557Y-51710403D01*
X65072601Y-51698667D01*
X65048776Y-51691440D01*
X65024000Y-51689000D01*
X60629800Y-51689000D01*
X60605024Y-51691440D01*
X60581199Y-51698667D01*
X60559243Y-51710403D01*
X60539997Y-51726197D01*
X60524203Y-51745443D01*
X60512467Y-51767399D01*
X60505240Y-51791224D01*
X60502800Y-51816000D01*
X58242200Y-51816000D01*
X58242200Y-50495200D01*
X70739000Y-50495200D01*
X70739000Y-58496200D01*
X70739000Y-58496200D01*
G37*
X70739000Y-58496200D02*
X58242200Y-58496200D01*
X58242200Y-51816000D01*
X60502800Y-51816000D01*
X60502800Y-55676800D01*
X60505240Y-55701576D01*
X60512467Y-55725401D01*
X60524203Y-55747357D01*
X60539997Y-55766603D01*
X60559243Y-55782397D01*
X60581199Y-55794133D01*
X60605024Y-55801360D01*
X60629800Y-55803800D01*
X65024000Y-55803800D01*
X65048776Y-55801360D01*
X65072601Y-55794133D01*
X65094557Y-55782397D01*
X65113803Y-55766603D01*
X65129597Y-55747357D01*
X65141333Y-55725401D01*
X65148560Y-55701576D01*
X65151000Y-55676800D01*
X65151000Y-51816000D01*
X65148560Y-51791224D01*
X65141333Y-51767399D01*
X65129597Y-51745443D01*
X65113803Y-51726197D01*
X65094557Y-51710403D01*
X65072601Y-51698667D01*
X65048776Y-51691440D01*
X65024000Y-51689000D01*
X60629800Y-51689000D01*
X60605024Y-51691440D01*
X60581199Y-51698667D01*
X60559243Y-51710403D01*
X60539997Y-51726197D01*
X60524203Y-51745443D01*
X60512467Y-51767399D01*
X60505240Y-51791224D01*
X60502800Y-51816000D01*
X58242200Y-51816000D01*
X58242200Y-50495200D01*
X70739000Y-50495200D01*
X70739000Y-58496200D01*
G36*
X33909000Y-75184000D02*
X33911440Y-75208776D01*
X33918667Y-75232601D01*
X33930403Y-75254557D01*
X33946197Y-75273803D01*
X33965443Y-75289597D01*
X33987399Y-75301333D01*
X34011224Y-75308560D01*
X34036000Y-75311000D01*
X36703000Y-75311000D01*
X36703000Y-81661000D01*
X32623666Y-81661000D01*
X32604218Y-81562781D01*
X32363058Y-80977685D01*
X32012846Y-80450573D01*
X31566920Y-80001523D01*
X31042266Y-79647639D01*
X30458867Y-79402401D01*
X30353000Y-79380670D01*
X30353000Y-73533000D01*
X33909000Y-73533000D01*
X33909000Y-75184000D01*
X33909000Y-75184000D01*
G37*
X33909000Y-75184000D02*
X33911440Y-75208776D01*
X33918667Y-75232601D01*
X33930403Y-75254557D01*
X33946197Y-75273803D01*
X33965443Y-75289597D01*
X33987399Y-75301333D01*
X34011224Y-75308560D01*
X34036000Y-75311000D01*
X36703000Y-75311000D01*
X36703000Y-81661000D01*
X32623666Y-81661000D01*
X32604218Y-81562781D01*
X32363058Y-80977685D01*
X32012846Y-80450573D01*
X31566920Y-80001523D01*
X31042266Y-79647639D01*
X30458867Y-79402401D01*
X30353000Y-79380670D01*
X30353000Y-73533000D01*
X33909000Y-73533000D01*
X33909000Y-75184000D01*
G36*
X48514000Y-75184000D02*
X48523667Y-75232601D01*
X48551197Y-75273803D01*
X48592399Y-75301333D01*
X48641000Y-75311000D01*
X51308000Y-75311000D01*
X51308000Y-81661000D01*
X44958000Y-81661000D01*
X44958000Y-73533000D01*
X48514000Y-73533000D01*
X48514000Y-75184000D01*
X48514000Y-75184000D01*
G37*
X48514000Y-75184000D02*
X48523667Y-75232601D01*
X48551197Y-75273803D01*
X48592399Y-75301333D01*
X48641000Y-75311000D01*
X51308000Y-75311000D01*
X51308000Y-81661000D01*
X44958000Y-81661000D01*
X44958000Y-73533000D01*
X48514000Y-73533000D01*
X48514000Y-75184000D01*
G36*
X63119000Y-75184000D02*
X63128667Y-75232601D01*
X63156197Y-75273803D01*
X63197399Y-75301333D01*
X63246000Y-75311000D01*
X65913000Y-75311000D01*
X65913000Y-81661000D01*
X59563000Y-81661000D01*
X59563000Y-73533000D01*
X63119000Y-73533000D01*
X63119000Y-75184000D01*
X63119000Y-75184000D01*
G37*
X63119000Y-75184000D02*
X63128667Y-75232601D01*
X63156197Y-75273803D01*
X63197399Y-75301333D01*
X63246000Y-75311000D01*
X65913000Y-75311000D01*
X65913000Y-81661000D01*
X59563000Y-81661000D01*
X59563000Y-73533000D01*
X63119000Y-73533000D01*
X63119000Y-75184000D01*
G36*
X77724000Y-75184000D02*
X77733667Y-75232601D01*
X77761197Y-75273803D01*
X77802399Y-75301333D01*
X77851000Y-75311000D01*
X80518000Y-75311000D01*
X80518000Y-81661000D01*
X74168000Y-81661000D01*
X74168000Y-73533000D01*
X77724000Y-73533000D01*
X77724000Y-75184000D01*
X77724000Y-75184000D01*
G37*
X77724000Y-75184000D02*
X77733667Y-75232601D01*
X77761197Y-75273803D01*
X77802399Y-75301333D01*
X77851000Y-75311000D01*
X80518000Y-75311000D01*
X80518000Y-81661000D01*
X74168000Y-81661000D01*
X74168000Y-73533000D01*
X77724000Y-73533000D01*
X77724000Y-75184000D01*
G36*
X77724000Y-66421000D02*
X74168000Y-66421000D01*
X74168000Y-64308981D01*
X77185426Y-60788651D01*
X77209715Y-60745459D01*
X77216000Y-60706000D01*
X77216000Y-59182000D01*
X77724000Y-59182000D01*
X77724000Y-66421000D01*
X77724000Y-66421000D01*
G37*
X77724000Y-66421000D02*
X74168000Y-66421000D01*
X74168000Y-64308981D01*
X77185426Y-60788651D01*
X77209715Y-60745459D01*
X77216000Y-60706000D01*
X77216000Y-59182000D01*
X77724000Y-59182000D01*
X77724000Y-66421000D01*
G36*
X85344000Y-58496200D02*
X72847944Y-58496200D01*
X72847944Y-51816000D01*
X75107800Y-51816000D01*
X75107800Y-55676800D01*
X75117467Y-55725401D01*
X75144997Y-55766603D01*
X75186199Y-55794133D01*
X75234800Y-55803800D01*
X79629000Y-55803800D01*
X79677601Y-55794133D01*
X79718803Y-55766603D01*
X79746333Y-55725401D01*
X79756000Y-55676800D01*
X79756000Y-53092387D01*
X79758464Y-53080000D01*
X79758464Y-52330000D01*
X79756000Y-52317613D01*
X79756000Y-51816000D01*
X79746333Y-51767399D01*
X79718803Y-51726197D01*
X79677601Y-51698667D01*
X79629000Y-51689000D01*
X75234800Y-51689000D01*
X75186199Y-51698667D01*
X75144997Y-51726197D01*
X75117467Y-51767399D01*
X75107800Y-51816000D01*
X72847944Y-51816000D01*
X72847944Y-50495200D01*
X78634582Y-50495200D01*
X78809545Y-50460398D01*
X78871501Y-50419000D01*
X85344000Y-50419000D01*
X85344000Y-58496200D01*
X85344000Y-58496200D01*
G37*
X85344000Y-58496200D02*
X72847944Y-58496200D01*
X72847944Y-51816000D01*
X75107800Y-51816000D01*
X75107800Y-55676800D01*
X75117467Y-55725401D01*
X75144997Y-55766603D01*
X75186199Y-55794133D01*
X75234800Y-55803800D01*
X79629000Y-55803800D01*
X79677601Y-55794133D01*
X79718803Y-55766603D01*
X79746333Y-55725401D01*
X79756000Y-55676800D01*
X79756000Y-53092387D01*
X79758464Y-53080000D01*
X79758464Y-52330000D01*
X79756000Y-52317613D01*
X79756000Y-51816000D01*
X79746333Y-51767399D01*
X79718803Y-51726197D01*
X79677601Y-51698667D01*
X79629000Y-51689000D01*
X75234800Y-51689000D01*
X75186199Y-51698667D01*
X75144997Y-51726197D01*
X75117467Y-51767399D01*
X75107800Y-51816000D01*
X72847944Y-51816000D01*
X72847944Y-50495200D01*
X78634582Y-50495200D01*
X78809545Y-50460398D01*
X78871501Y-50419000D01*
X85344000Y-50419000D01*
X85344000Y-58496200D01*
D44*
G36*
X89725500Y-46635918D02*
X89720000Y-46635918D01*
X89647801Y-46643029D01*
X89578376Y-46664089D01*
X89514393Y-46698288D01*
X89458313Y-46744313D01*
X89412288Y-46800393D01*
X89378089Y-46864376D01*
X89357029Y-46933801D01*
X89349918Y-47006000D01*
X89349918Y-47506000D01*
X89357029Y-47578199D01*
X89378089Y-47647624D01*
X89412288Y-47711607D01*
X89458313Y-47767687D01*
X89514393Y-47813712D01*
X89578376Y-47847911D01*
X89647801Y-47868971D01*
X89720000Y-47876082D01*
X90581700Y-47876082D01*
X90581700Y-48137700D01*
X90274775Y-48137700D01*
X90182700Y-48229775D01*
X90182700Y-48743300D01*
X90202700Y-48743300D01*
X90202700Y-48768700D01*
X90182700Y-48768700D01*
X90182700Y-49282225D01*
X90274775Y-49374300D01*
X90581700Y-49374300D01*
X90581700Y-49885700D01*
X89198300Y-49885700D01*
X89198300Y-49444726D01*
X89184147Y-49373571D01*
X89156383Y-49306545D01*
X89116078Y-49246223D01*
X89064778Y-49194923D01*
X89004456Y-49154617D01*
X88937430Y-49126854D01*
X88866275Y-49112700D01*
X88709775Y-49112700D01*
X88617700Y-49204775D01*
X88617700Y-49885700D01*
X88592300Y-49885700D01*
X88592300Y-49204775D01*
X88500225Y-49112700D01*
X88343725Y-49112700D01*
X88277837Y-49125806D01*
X88252199Y-49118029D01*
X88180000Y-49110918D01*
X87730000Y-49110918D01*
X87657801Y-49118029D01*
X87630000Y-49126462D01*
X87602199Y-49118029D01*
X87530000Y-49110918D01*
X87080000Y-49110918D01*
X87007801Y-49118029D01*
X86980000Y-49126462D01*
X86952199Y-49118029D01*
X86880000Y-49110918D01*
X86645899Y-49110918D01*
X86645899Y-48860775D01*
X89351700Y-48860775D01*
X89351700Y-49042274D01*
X89365853Y-49113429D01*
X89393617Y-49180455D01*
X89433922Y-49240777D01*
X89485222Y-49292077D01*
X89545544Y-49332383D01*
X89612570Y-49360146D01*
X89683725Y-49374300D01*
X90065225Y-49374300D01*
X90157300Y-49282225D01*
X90157300Y-48768700D01*
X89443775Y-48768700D01*
X89351700Y-48860775D01*
X86645899Y-48860775D01*
X86645899Y-48469726D01*
X89351700Y-48469726D01*
X89351700Y-48651225D01*
X89443775Y-48743300D01*
X90157300Y-48743300D01*
X90157300Y-48229775D01*
X90065225Y-48137700D01*
X89683725Y-48137700D01*
X89612570Y-48151854D01*
X89545544Y-48179617D01*
X89485222Y-48219923D01*
X89433922Y-48271223D01*
X89393617Y-48331545D01*
X89365853Y-48398571D01*
X89351700Y-48469726D01*
X86645899Y-48469726D01*
X86645899Y-48333285D01*
X86781242Y-48197942D01*
X86847181Y-48186315D01*
X86977216Y-48135878D01*
X87094977Y-48061145D01*
X87195980Y-47964961D01*
X87276377Y-47850991D01*
X87333106Y-47723576D01*
X87364006Y-47587568D01*
X87366230Y-47428263D01*
X87339140Y-47291446D01*
X87285991Y-47162496D01*
X87239200Y-47092071D01*
X87239200Y-46901082D01*
X87530000Y-46901082D01*
X87602199Y-46893971D01*
X87630000Y-46885538D01*
X87657801Y-46893971D01*
X87730000Y-46901082D01*
X88180000Y-46901082D01*
X88252199Y-46893971D01*
X88280000Y-46885538D01*
X88307801Y-46893971D01*
X88380000Y-46901082D01*
X88830000Y-46901082D01*
X88902199Y-46893971D01*
X88971624Y-46872911D01*
X89035607Y-46838712D01*
X89091687Y-46792687D01*
X89137712Y-46736607D01*
X89171911Y-46672624D01*
X89192971Y-46603199D01*
X89200082Y-46531000D01*
X89200082Y-46250500D01*
X89449000Y-46250500D01*
X89489901Y-46246490D01*
X89530766Y-46242915D01*
X89533009Y-46242263D01*
X89535337Y-46242035D01*
X89574669Y-46230160D01*
X89614073Y-46218712D01*
X89616147Y-46217637D01*
X89618386Y-46216961D01*
X89654609Y-46197701D01*
X89691092Y-46178790D01*
X89692923Y-46177328D01*
X89694983Y-46176233D01*
X89725500Y-46151344D01*
X89725500Y-46635918D01*
X89725500Y-46635918D01*
G37*
X89725500Y-46635918D02*
X89720000Y-46635918D01*
X89647801Y-46643029D01*
X89578376Y-46664089D01*
X89514393Y-46698288D01*
X89458313Y-46744313D01*
X89412288Y-46800393D01*
X89378089Y-46864376D01*
X89357029Y-46933801D01*
X89349918Y-47006000D01*
X89349918Y-47506000D01*
X89357029Y-47578199D01*
X89378089Y-47647624D01*
X89412288Y-47711607D01*
X89458313Y-47767687D01*
X89514393Y-47813712D01*
X89578376Y-47847911D01*
X89647801Y-47868971D01*
X89720000Y-47876082D01*
X90581700Y-47876082D01*
X90581700Y-48137700D01*
X90274775Y-48137700D01*
X90182700Y-48229775D01*
X90182700Y-48743300D01*
X90202700Y-48743300D01*
X90202700Y-48768700D01*
X90182700Y-48768700D01*
X90182700Y-49282225D01*
X90274775Y-49374300D01*
X90581700Y-49374300D01*
X90581700Y-49885700D01*
X89198300Y-49885700D01*
X89198300Y-49444726D01*
X89184147Y-49373571D01*
X89156383Y-49306545D01*
X89116078Y-49246223D01*
X89064778Y-49194923D01*
X89004456Y-49154617D01*
X88937430Y-49126854D01*
X88866275Y-49112700D01*
X88709775Y-49112700D01*
X88617700Y-49204775D01*
X88617700Y-49885700D01*
X88592300Y-49885700D01*
X88592300Y-49204775D01*
X88500225Y-49112700D01*
X88343725Y-49112700D01*
X88277837Y-49125806D01*
X88252199Y-49118029D01*
X88180000Y-49110918D01*
X87730000Y-49110918D01*
X87657801Y-49118029D01*
X87630000Y-49126462D01*
X87602199Y-49118029D01*
X87530000Y-49110918D01*
X87080000Y-49110918D01*
X87007801Y-49118029D01*
X86980000Y-49126462D01*
X86952199Y-49118029D01*
X86880000Y-49110918D01*
X86645899Y-49110918D01*
X86645899Y-48860775D01*
X89351700Y-48860775D01*
X89351700Y-49042274D01*
X89365853Y-49113429D01*
X89393617Y-49180455D01*
X89433922Y-49240777D01*
X89485222Y-49292077D01*
X89545544Y-49332383D01*
X89612570Y-49360146D01*
X89683725Y-49374300D01*
X90065225Y-49374300D01*
X90157300Y-49282225D01*
X90157300Y-48768700D01*
X89443775Y-48768700D01*
X89351700Y-48860775D01*
X86645899Y-48860775D01*
X86645899Y-48469726D01*
X89351700Y-48469726D01*
X89351700Y-48651225D01*
X89443775Y-48743300D01*
X90157300Y-48743300D01*
X90157300Y-48229775D01*
X90065225Y-48137700D01*
X89683725Y-48137700D01*
X89612570Y-48151854D01*
X89545544Y-48179617D01*
X89485222Y-48219923D01*
X89433922Y-48271223D01*
X89393617Y-48331545D01*
X89365853Y-48398571D01*
X89351700Y-48469726D01*
X86645899Y-48469726D01*
X86645899Y-48333285D01*
X86781242Y-48197942D01*
X86847181Y-48186315D01*
X86977216Y-48135878D01*
X87094977Y-48061145D01*
X87195980Y-47964961D01*
X87276377Y-47850991D01*
X87333106Y-47723576D01*
X87364006Y-47587568D01*
X87366230Y-47428263D01*
X87339140Y-47291446D01*
X87285991Y-47162496D01*
X87239200Y-47092071D01*
X87239200Y-46901082D01*
X87530000Y-46901082D01*
X87602199Y-46893971D01*
X87630000Y-46885538D01*
X87657801Y-46893971D01*
X87730000Y-46901082D01*
X88180000Y-46901082D01*
X88252199Y-46893971D01*
X88280000Y-46885538D01*
X88307801Y-46893971D01*
X88380000Y-46901082D01*
X88830000Y-46901082D01*
X88902199Y-46893971D01*
X88971624Y-46872911D01*
X89035607Y-46838712D01*
X89091687Y-46792687D01*
X89137712Y-46736607D01*
X89171911Y-46672624D01*
X89192971Y-46603199D01*
X89200082Y-46531000D01*
X89200082Y-46250500D01*
X89449000Y-46250500D01*
X89489901Y-46246490D01*
X89530766Y-46242915D01*
X89533009Y-46242263D01*
X89535337Y-46242035D01*
X89574669Y-46230160D01*
X89614073Y-46218712D01*
X89616147Y-46217637D01*
X89618386Y-46216961D01*
X89654609Y-46197701D01*
X89691092Y-46178790D01*
X89692923Y-46177328D01*
X89694983Y-46176233D01*
X89725500Y-46151344D01*
X89725500Y-46635918D01*
G36*
X42759036Y-30432754D02*
X42710959Y-30544925D01*
X42685586Y-30664297D01*
X42683882Y-30786325D01*
X42705912Y-30906359D01*
X42750838Y-31019828D01*
X42816948Y-31122411D01*
X42901723Y-31210198D01*
X43001936Y-31279848D01*
X43113768Y-31328706D01*
X43232961Y-31354912D01*
X43354973Y-31357468D01*
X43475159Y-31336276D01*
X43588939Y-31292144D01*
X43691980Y-31226752D01*
X43780357Y-31142591D01*
X43850705Y-31042867D01*
X43900343Y-30931379D01*
X43901906Y-30924500D01*
X83508882Y-30924500D01*
X83756500Y-31172118D01*
X83756500Y-31731187D01*
X83656076Y-31542316D01*
X83504120Y-31356000D01*
X83318870Y-31202748D01*
X83107380Y-31088396D01*
X82877708Y-31017300D01*
X82638600Y-30992169D01*
X82399165Y-31013959D01*
X82168522Y-31081841D01*
X81955457Y-31193229D01*
X81768085Y-31343880D01*
X81613543Y-31528056D01*
X81497717Y-31738742D01*
X81425020Y-31967913D01*
X81398220Y-32206839D01*
X81398100Y-32224039D01*
X81398100Y-32235961D01*
X81421561Y-32475238D01*
X81491052Y-32705402D01*
X81603924Y-32917684D01*
X81755880Y-33104000D01*
X81941130Y-33257252D01*
X82152620Y-33371604D01*
X82382292Y-33442700D01*
X82621400Y-33467831D01*
X82860835Y-33446041D01*
X83091478Y-33378159D01*
X83304543Y-33266771D01*
X83491915Y-33116120D01*
X83646457Y-32931944D01*
X83756500Y-32731777D01*
X83756500Y-34271187D01*
X83656076Y-34082316D01*
X83504120Y-33896000D01*
X83318870Y-33742748D01*
X83107380Y-33628396D01*
X82877708Y-33557300D01*
X82638600Y-33532169D01*
X82399165Y-33553959D01*
X82168522Y-33621841D01*
X81955457Y-33733229D01*
X81768085Y-33883880D01*
X81613543Y-34068056D01*
X81497717Y-34278742D01*
X81425020Y-34507913D01*
X81398220Y-34746839D01*
X81398100Y-34764039D01*
X81398100Y-34775961D01*
X81421561Y-35015238D01*
X81491052Y-35245402D01*
X81603924Y-35457684D01*
X81755880Y-35644000D01*
X81941130Y-35797252D01*
X82152620Y-35911604D01*
X82382292Y-35982700D01*
X82621400Y-36007831D01*
X82860835Y-35986041D01*
X83091478Y-35918159D01*
X83304543Y-35806771D01*
X83491915Y-35656120D01*
X83646457Y-35471944D01*
X83762283Y-35261258D01*
X83805809Y-35124045D01*
X83809299Y-35130609D01*
X83828210Y-35167092D01*
X83829672Y-35168923D01*
X83830767Y-35170983D01*
X83856684Y-35202760D01*
X83882333Y-35234890D01*
X83885543Y-35238145D01*
X83885596Y-35238210D01*
X83885657Y-35238260D01*
X83886691Y-35239309D01*
X85791691Y-37144309D01*
X85823451Y-37170397D01*
X85854872Y-37196763D01*
X85856918Y-37197888D01*
X85858726Y-37199373D01*
X85894923Y-37218781D01*
X85930893Y-37238556D01*
X85933122Y-37239263D01*
X85935181Y-37240367D01*
X85974422Y-37252364D01*
X86013583Y-37264787D01*
X86015907Y-37265048D01*
X86018142Y-37265731D01*
X86058960Y-37269877D01*
X86099794Y-37274457D01*
X86104367Y-37274489D01*
X86104449Y-37274497D01*
X86104525Y-37274490D01*
X86106000Y-37274500D01*
X87826882Y-37274500D01*
X89979500Y-39427118D01*
X89979500Y-40120040D01*
X89719230Y-39859770D01*
X89683887Y-39830739D01*
X89648828Y-39801321D01*
X89646542Y-39800064D01*
X89644533Y-39798414D01*
X89604239Y-39776808D01*
X89564119Y-39754752D01*
X89561637Y-39753965D01*
X89559342Y-39752734D01*
X89515583Y-39739355D01*
X89481999Y-39728702D01*
X89477971Y-39687801D01*
X89456911Y-39618376D01*
X89422712Y-39554393D01*
X89376687Y-39498313D01*
X89320607Y-39452288D01*
X89256624Y-39418089D01*
X89187199Y-39397029D01*
X89115000Y-39389918D01*
X87415000Y-39389918D01*
X87342801Y-39397029D01*
X87273376Y-39418089D01*
X87209393Y-39452288D01*
X87153313Y-39498313D01*
X87107288Y-39554393D01*
X87073089Y-39618376D01*
X87052029Y-39687801D01*
X87044918Y-39760000D01*
X87044918Y-40660000D01*
X87052029Y-40732199D01*
X87073089Y-40801624D01*
X87107288Y-40865607D01*
X87153313Y-40921687D01*
X87209393Y-40967712D01*
X87273376Y-41001911D01*
X87342801Y-41022971D01*
X87415000Y-41030082D01*
X89115000Y-41030082D01*
X89165856Y-41025073D01*
X89114036Y-41100754D01*
X89065959Y-41212925D01*
X89040586Y-41332297D01*
X89038882Y-41454325D01*
X89060912Y-41574359D01*
X89105838Y-41687828D01*
X89171948Y-41790411D01*
X89256723Y-41878198D01*
X89356936Y-41947848D01*
X89468768Y-41996706D01*
X89587961Y-42022912D01*
X89709973Y-42025468D01*
X89830159Y-42004276D01*
X89943939Y-41960144D01*
X89979500Y-41937576D01*
X89979500Y-44646882D01*
X89264882Y-45361500D01*
X89200082Y-45361500D01*
X89200082Y-45081000D01*
X89192971Y-45008801D01*
X89171911Y-44939376D01*
X89137712Y-44875393D01*
X89091687Y-44819313D01*
X89035607Y-44773288D01*
X88971624Y-44739089D01*
X88902199Y-44718029D01*
X88830000Y-44710918D01*
X88380000Y-44710918D01*
X88307801Y-44718029D01*
X88280000Y-44726462D01*
X88252199Y-44718029D01*
X88180000Y-44710918D01*
X87730000Y-44710918D01*
X87657801Y-44718029D01*
X87630000Y-44726462D01*
X87602199Y-44718029D01*
X87530000Y-44710918D01*
X87080000Y-44710918D01*
X87007801Y-44718029D01*
X86980000Y-44726462D01*
X86952199Y-44718029D01*
X86880000Y-44710918D01*
X86430000Y-44710918D01*
X86357801Y-44718029D01*
X86288376Y-44739089D01*
X86224393Y-44773288D01*
X86168313Y-44819313D01*
X86122288Y-44875393D01*
X86088089Y-44939376D01*
X86067029Y-45008801D01*
X86059918Y-45081000D01*
X86059918Y-46178985D01*
X86014462Y-46164566D01*
X86011407Y-46164223D01*
X86008472Y-46163326D01*
X85954829Y-46157877D01*
X85901157Y-46151857D01*
X85895147Y-46151815D01*
X85895039Y-46151804D01*
X85894938Y-46151814D01*
X85893000Y-46151800D01*
X85050896Y-46151800D01*
X85047153Y-46113801D01*
X85026093Y-46044376D01*
X84991894Y-45980393D01*
X84945869Y-45924313D01*
X84889789Y-45878288D01*
X84825806Y-45844089D01*
X84756381Y-45823029D01*
X84684182Y-45815918D01*
X84284182Y-45815918D01*
X84211983Y-45823029D01*
X84159182Y-45839046D01*
X84106381Y-45823029D01*
X84034182Y-45815918D01*
X83634182Y-45815918D01*
X83561983Y-45823029D01*
X83509182Y-45839046D01*
X83456381Y-45823029D01*
X83384182Y-45815918D01*
X82984182Y-45815918D01*
X82911983Y-45823029D01*
X82859182Y-45839046D01*
X82806381Y-45823029D01*
X82734182Y-45815918D01*
X82334182Y-45815918D01*
X82261983Y-45823029D01*
X82209182Y-45839046D01*
X82156381Y-45823029D01*
X82084182Y-45815918D01*
X81684182Y-45815918D01*
X81611983Y-45823029D01*
X81559182Y-45839046D01*
X81506381Y-45823029D01*
X81434182Y-45815918D01*
X81034182Y-45815918D01*
X80961983Y-45823029D01*
X80909182Y-45839046D01*
X80856381Y-45823029D01*
X80784182Y-45815918D01*
X80384182Y-45815918D01*
X80311983Y-45823029D01*
X80259182Y-45839046D01*
X80206381Y-45823029D01*
X80134182Y-45815918D01*
X79734182Y-45815918D01*
X79661983Y-45823029D01*
X79609182Y-45839046D01*
X79556381Y-45823029D01*
X79484182Y-45815918D01*
X79084182Y-45815918D01*
X79011983Y-45823029D01*
X78959182Y-45839046D01*
X78906381Y-45823029D01*
X78834182Y-45815918D01*
X78434182Y-45815918D01*
X78361983Y-45823029D01*
X78309182Y-45839046D01*
X78256381Y-45823029D01*
X78184182Y-45815918D01*
X77784182Y-45815918D01*
X77711983Y-45823029D01*
X77659182Y-45839046D01*
X77606381Y-45823029D01*
X77534182Y-45815918D01*
X77134182Y-45815918D01*
X77061983Y-45823029D01*
X77009182Y-45839046D01*
X76956381Y-45823029D01*
X76884182Y-45815918D01*
X76484182Y-45815918D01*
X76411983Y-45823029D01*
X76359182Y-45839046D01*
X76306381Y-45823029D01*
X76234182Y-45815918D01*
X75834182Y-45815918D01*
X75761983Y-45823029D01*
X75692558Y-45844089D01*
X75628575Y-45878288D01*
X75572495Y-45924313D01*
X75526470Y-45980393D01*
X75492271Y-46044376D01*
X75471211Y-46113801D01*
X75464100Y-46186000D01*
X75464100Y-46240700D01*
X74881160Y-46240700D01*
X74658482Y-46018022D01*
X74658482Y-45440380D01*
X74679806Y-45433911D01*
X74743789Y-45399712D01*
X74799869Y-45353687D01*
X74845894Y-45297607D01*
X74880093Y-45233624D01*
X74901153Y-45164199D01*
X74908264Y-45092000D01*
X74908264Y-44292000D01*
X74901153Y-44219801D01*
X74880093Y-44150376D01*
X74845894Y-44086393D01*
X74799869Y-44030313D01*
X74743789Y-43984288D01*
X74679806Y-43950089D01*
X74654573Y-43942434D01*
X74712638Y-43918383D01*
X74772960Y-43878077D01*
X74824260Y-43826777D01*
X74864565Y-43766455D01*
X74892329Y-43699429D01*
X74899709Y-43662325D01*
X85101882Y-43662325D01*
X85123912Y-43782359D01*
X85168838Y-43895828D01*
X85234948Y-43998411D01*
X85319723Y-44086198D01*
X85419936Y-44155848D01*
X85531768Y-44204706D01*
X85650961Y-44230912D01*
X85772973Y-44233468D01*
X85893159Y-44212276D01*
X86006939Y-44168144D01*
X86105965Y-44105300D01*
X87049380Y-44105300D01*
X87052029Y-44132199D01*
X87073089Y-44201624D01*
X87107288Y-44265607D01*
X87153313Y-44321687D01*
X87209393Y-44367712D01*
X87273376Y-44401911D01*
X87342801Y-44422971D01*
X87415000Y-44430082D01*
X89115000Y-44430082D01*
X89187199Y-44422971D01*
X89256624Y-44401911D01*
X89320607Y-44367712D01*
X89376687Y-44321687D01*
X89422712Y-44265607D01*
X89456911Y-44201624D01*
X89477971Y-44132199D01*
X89485082Y-44060000D01*
X89485082Y-43160000D01*
X89477971Y-43087801D01*
X89456911Y-43018376D01*
X89422712Y-42954393D01*
X89376687Y-42898313D01*
X89320607Y-42852288D01*
X89256624Y-42818089D01*
X89187199Y-42797029D01*
X89115000Y-42789918D01*
X87415000Y-42789918D01*
X87342801Y-42797029D01*
X87273376Y-42818089D01*
X87209393Y-42852288D01*
X87153313Y-42898313D01*
X87107288Y-42954393D01*
X87073089Y-43018376D01*
X87052029Y-43087801D01*
X87049380Y-43114700D01*
X86103588Y-43114700D01*
X86022413Y-43059946D01*
X85909909Y-43012654D01*
X85790363Y-42988115D01*
X85668326Y-42987263D01*
X85548449Y-43010130D01*
X85435296Y-43055847D01*
X85333178Y-43122671D01*
X85245984Y-43208058D01*
X85177036Y-43308754D01*
X85128959Y-43420925D01*
X85103586Y-43540297D01*
X85101882Y-43662325D01*
X74899709Y-43662325D01*
X74906482Y-43628274D01*
X74906482Y-43296775D01*
X74814407Y-43204700D01*
X74175882Y-43204700D01*
X74175882Y-43224700D01*
X74150482Y-43224700D01*
X74150482Y-43204700D01*
X73511957Y-43204700D01*
X73419882Y-43296775D01*
X73419882Y-43628274D01*
X73434035Y-43699429D01*
X73461799Y-43766455D01*
X73502104Y-43826777D01*
X73553404Y-43878077D01*
X73613726Y-43918383D01*
X73671791Y-43942434D01*
X73646558Y-43950089D01*
X73582575Y-43984288D01*
X73526495Y-44030313D01*
X73480470Y-44086393D01*
X73469028Y-44107800D01*
X73371912Y-44107800D01*
X73256110Y-44029690D01*
X73120646Y-43972746D01*
X72976702Y-43943199D01*
X72829760Y-43942173D01*
X72685418Y-43969708D01*
X72549172Y-44024754D01*
X72426214Y-44105216D01*
X72321225Y-44208028D01*
X72238206Y-44329275D01*
X72180318Y-44464338D01*
X72149766Y-44608072D01*
X72147715Y-44755003D01*
X72174241Y-44899535D01*
X72228335Y-45036161D01*
X72307937Y-45159678D01*
X72410014Y-45265382D01*
X72530678Y-45349246D01*
X72665333Y-45408075D01*
X72808851Y-45439630D01*
X72955764Y-45442707D01*
X73100477Y-45417190D01*
X73237477Y-45364051D01*
X73361548Y-45285314D01*
X73371119Y-45276200D01*
X73469028Y-45276200D01*
X73480470Y-45297607D01*
X73526495Y-45353687D01*
X73582575Y-45399712D01*
X73646558Y-45433911D01*
X73667882Y-45440380D01*
X73667882Y-46223182D01*
X73672349Y-46268744D01*
X73676334Y-46314293D01*
X73677061Y-46316795D01*
X73677315Y-46319386D01*
X73690537Y-46363181D01*
X73703303Y-46407121D01*
X73704501Y-46409433D01*
X73705254Y-46411926D01*
X73726725Y-46452307D01*
X73747788Y-46492942D01*
X73749414Y-46494979D01*
X73750636Y-46497277D01*
X73779522Y-46532694D01*
X73808096Y-46568488D01*
X73811675Y-46572117D01*
X73811732Y-46572187D01*
X73811797Y-46572241D01*
X73812952Y-46573412D01*
X74325770Y-47086230D01*
X74361113Y-47115261D01*
X74396172Y-47144679D01*
X74398458Y-47145936D01*
X74400467Y-47147586D01*
X74440761Y-47169192D01*
X74480881Y-47191248D01*
X74483363Y-47192035D01*
X74485658Y-47193266D01*
X74529376Y-47206632D01*
X74573021Y-47220477D01*
X74575613Y-47220768D01*
X74578100Y-47221528D01*
X74623525Y-47226142D01*
X74669085Y-47231252D01*
X74674186Y-47231287D01*
X74674271Y-47231296D01*
X74674350Y-47231289D01*
X74676000Y-47231300D01*
X75464100Y-47231300D01*
X75464100Y-47286000D01*
X75471211Y-47358199D01*
X75492271Y-47427624D01*
X75526470Y-47491607D01*
X75572495Y-47547687D01*
X75628575Y-47593712D01*
X75692558Y-47627911D01*
X75761983Y-47648971D01*
X75834182Y-47656082D01*
X76234182Y-47656082D01*
X76306381Y-47648971D01*
X76359182Y-47632954D01*
X76411983Y-47648971D01*
X76484182Y-47656082D01*
X76884182Y-47656082D01*
X76956381Y-47648971D01*
X77009182Y-47632954D01*
X77061983Y-47648971D01*
X77134182Y-47656082D01*
X77534182Y-47656082D01*
X77606381Y-47648971D01*
X77659182Y-47632954D01*
X77711983Y-47648971D01*
X77784182Y-47656082D01*
X78184182Y-47656082D01*
X78256381Y-47648971D01*
X78309182Y-47632954D01*
X78361983Y-47648971D01*
X78434182Y-47656082D01*
X78437882Y-47656082D01*
X77414894Y-48679070D01*
X72138232Y-48679070D01*
X72097376Y-48683076D01*
X72056466Y-48686655D01*
X72054223Y-48687307D01*
X72051895Y-48687535D01*
X72012563Y-48699410D01*
X71973159Y-48710858D01*
X71971085Y-48711933D01*
X71968846Y-48712609D01*
X71932623Y-48731869D01*
X71896140Y-48750780D01*
X71894309Y-48752242D01*
X71892249Y-48753337D01*
X71860472Y-48779254D01*
X71828342Y-48804903D01*
X71825087Y-48808113D01*
X71825022Y-48808166D01*
X71824972Y-48808227D01*
X71823923Y-48809261D01*
X71674684Y-48958500D01*
X58216458Y-48958500D01*
X58218356Y-48956952D01*
X58485363Y-48634196D01*
X58684595Y-48265725D01*
X58808462Y-47865574D01*
X58852248Y-47448984D01*
X58814283Y-47031823D01*
X58781019Y-46918802D01*
X58758200Y-46677398D01*
X58666854Y-46370984D01*
X58517731Y-46088147D01*
X58316512Y-45839662D01*
X58070861Y-45634994D01*
X57833360Y-45505504D01*
X57927817Y-45445560D01*
X58106375Y-45275521D01*
X58248506Y-45074038D01*
X58348795Y-44848786D01*
X58403422Y-44608344D01*
X58407354Y-44326715D01*
X58359462Y-44084842D01*
X58317127Y-43982128D01*
X58343088Y-44013960D01*
X58493962Y-44138773D01*
X58666206Y-44231905D01*
X58853259Y-44289808D01*
X59047996Y-44310276D01*
X59243000Y-44292529D01*
X59430843Y-44237244D01*
X59604370Y-44146526D01*
X59756972Y-44023830D01*
X59882836Y-43873831D01*
X59977168Y-43702242D01*
X60036375Y-43515598D01*
X60058202Y-43321008D01*
X60058300Y-43307000D01*
X60058300Y-42755726D01*
X73419882Y-42755726D01*
X73419882Y-43087225D01*
X73511957Y-43179300D01*
X74150482Y-43179300D01*
X74150482Y-42515775D01*
X74175882Y-42515775D01*
X74175882Y-43179300D01*
X74814407Y-43179300D01*
X74906482Y-43087225D01*
X74906482Y-42755726D01*
X74892329Y-42684571D01*
X74864565Y-42617545D01*
X74824260Y-42557223D01*
X74772960Y-42505923D01*
X74712638Y-42465617D01*
X74645612Y-42437854D01*
X74574457Y-42423700D01*
X74267957Y-42423700D01*
X74175882Y-42515775D01*
X74150482Y-42515775D01*
X74058407Y-42423700D01*
X73751907Y-42423700D01*
X73680752Y-42437854D01*
X73613726Y-42465617D01*
X73553404Y-42505923D01*
X73502104Y-42557223D01*
X73461799Y-42617545D01*
X73434035Y-42684571D01*
X73419882Y-42755726D01*
X60058300Y-42755726D01*
X60058300Y-41140775D01*
X75465882Y-41140775D01*
X75465882Y-41622274D01*
X75480035Y-41693429D01*
X75507799Y-41760455D01*
X75548104Y-41820777D01*
X75599404Y-41872077D01*
X75659726Y-41912383D01*
X75726752Y-41940146D01*
X75797907Y-41954300D01*
X75929407Y-41954300D01*
X76021482Y-41862225D01*
X76021482Y-41048700D01*
X75557957Y-41048700D01*
X75465882Y-41140775D01*
X60058300Y-41140775D01*
X60058300Y-40132000D01*
X60039192Y-39937125D01*
X59982597Y-39749672D01*
X59890670Y-39576782D01*
X59766912Y-39425040D01*
X59616038Y-39300227D01*
X59443794Y-39207095D01*
X59256741Y-39149192D01*
X59062004Y-39128724D01*
X58867000Y-39146471D01*
X58679157Y-39201756D01*
X58505630Y-39292474D01*
X58353028Y-39415170D01*
X58227164Y-39565169D01*
X58132832Y-39736758D01*
X58073625Y-39923402D01*
X58051798Y-40117992D01*
X58051700Y-40132000D01*
X58051700Y-41033610D01*
X57955311Y-40936546D01*
X57750896Y-40798666D01*
X57523593Y-40703117D01*
X57282060Y-40653537D01*
X57035496Y-40651816D01*
X56793294Y-40698018D01*
X56564679Y-40790385D01*
X56358359Y-40925397D01*
X56182192Y-41097912D01*
X56042888Y-41301360D01*
X55945754Y-41527991D01*
X55894490Y-41769172D01*
X55891047Y-42015717D01*
X55935557Y-42258236D01*
X56026326Y-42487490D01*
X56159894Y-42694748D01*
X56331176Y-42872115D01*
X56533646Y-43012836D01*
X56759593Y-43111550D01*
X57000410Y-43164497D01*
X57246926Y-43169660D01*
X57489749Y-43126844D01*
X57719631Y-43037679D01*
X57927817Y-42905560D01*
X58051700Y-42787587D01*
X58051700Y-43307000D01*
X58070808Y-43501875D01*
X58110274Y-43632595D01*
X57955311Y-43476546D01*
X57750896Y-43338666D01*
X57523593Y-43243117D01*
X57282060Y-43193537D01*
X57035496Y-43191816D01*
X56793294Y-43238018D01*
X56564679Y-43330385D01*
X56358359Y-43465397D01*
X56182192Y-43637912D01*
X56042888Y-43841360D01*
X55945754Y-44067991D01*
X55894490Y-44309172D01*
X55891047Y-44555717D01*
X55935557Y-44798236D01*
X56026326Y-45027490D01*
X56159894Y-45234748D01*
X56211029Y-45287700D01*
X52114300Y-45287700D01*
X52114300Y-38152325D01*
X58304882Y-38152325D01*
X58326912Y-38272359D01*
X58371838Y-38385828D01*
X58437948Y-38488411D01*
X58522723Y-38576198D01*
X58622936Y-38645848D01*
X58734768Y-38694706D01*
X58853961Y-38720912D01*
X58975973Y-38723468D01*
X59096159Y-38702276D01*
X59209939Y-38658144D01*
X59312980Y-38592752D01*
X59363649Y-38544500D01*
X71853165Y-38544500D01*
X71842036Y-38560754D01*
X71793959Y-38672925D01*
X71768586Y-38792297D01*
X71766882Y-38914325D01*
X71788912Y-39034359D01*
X71833838Y-39147828D01*
X71899948Y-39250411D01*
X71984723Y-39338198D01*
X72084936Y-39407848D01*
X72196768Y-39456706D01*
X72315961Y-39482912D01*
X72383713Y-39484331D01*
X72837691Y-39938309D01*
X72869451Y-39964397D01*
X72900872Y-39990763D01*
X72902918Y-39991888D01*
X72904726Y-39993373D01*
X72940923Y-40012781D01*
X72976893Y-40032556D01*
X72979122Y-40033263D01*
X72981181Y-40034367D01*
X73020422Y-40046364D01*
X73059583Y-40058787D01*
X73061907Y-40059048D01*
X73064142Y-40059731D01*
X73104960Y-40063877D01*
X73145794Y-40068457D01*
X73150367Y-40068489D01*
X73150449Y-40068497D01*
X73150525Y-40068490D01*
X73152000Y-40068500D01*
X75790464Y-40068500D01*
X75839664Y-40117700D01*
X75797907Y-40117700D01*
X75726752Y-40131854D01*
X75659726Y-40159617D01*
X75599404Y-40199923D01*
X75548104Y-40251223D01*
X75507799Y-40311545D01*
X75480035Y-40378571D01*
X75465882Y-40449726D01*
X75465882Y-40931225D01*
X75557957Y-41023300D01*
X76021482Y-41023300D01*
X76021482Y-41003300D01*
X76046882Y-41003300D01*
X76046882Y-41023300D01*
X76066882Y-41023300D01*
X76066882Y-41048700D01*
X76046882Y-41048700D01*
X76046882Y-41862225D01*
X76138957Y-41954300D01*
X76270457Y-41954300D01*
X76341612Y-41940146D01*
X76359063Y-41932918D01*
X76411983Y-41948971D01*
X76484182Y-41956082D01*
X76884182Y-41956082D01*
X76956381Y-41948971D01*
X77009182Y-41932954D01*
X77051298Y-41945730D01*
X76990984Y-42004794D01*
X76922036Y-42105490D01*
X76873959Y-42217661D01*
X76848586Y-42337033D01*
X76846882Y-42459061D01*
X76868912Y-42579095D01*
X76913838Y-42692564D01*
X76979948Y-42795147D01*
X77064723Y-42882934D01*
X77164936Y-42952584D01*
X77276768Y-43001442D01*
X77395961Y-43027648D01*
X77517973Y-43030204D01*
X77638159Y-43009012D01*
X77751939Y-42964880D01*
X77854980Y-42899488D01*
X77943357Y-42815327D01*
X78013705Y-42715603D01*
X78063343Y-42604115D01*
X78086567Y-42501893D01*
X78334412Y-42254048D01*
X78363443Y-42218705D01*
X78392861Y-42183646D01*
X78394118Y-42181360D01*
X78395768Y-42179351D01*
X78417374Y-42139057D01*
X78439430Y-42098937D01*
X78440217Y-42096455D01*
X78441448Y-42094160D01*
X78454814Y-42050442D01*
X78468659Y-42006797D01*
X78468950Y-42004205D01*
X78469710Y-42001718D01*
X78474324Y-41956293D01*
X78474347Y-41956082D01*
X78834182Y-41956082D01*
X78906381Y-41948971D01*
X78959182Y-41932954D01*
X79011983Y-41948971D01*
X79084182Y-41956082D01*
X79484182Y-41956082D01*
X79556381Y-41948971D01*
X79609182Y-41932954D01*
X79661983Y-41948971D01*
X79734182Y-41956082D01*
X80134182Y-41956082D01*
X80206381Y-41948971D01*
X80259182Y-41932954D01*
X80311983Y-41948971D01*
X80384182Y-41956082D01*
X80784182Y-41956082D01*
X80856381Y-41948971D01*
X80909182Y-41932954D01*
X80961983Y-41948971D01*
X81034182Y-41956082D01*
X81434182Y-41956082D01*
X81506381Y-41948971D01*
X81559182Y-41932954D01*
X81611983Y-41948971D01*
X81684182Y-41956082D01*
X82084182Y-41956082D01*
X82156381Y-41948971D01*
X82209182Y-41932954D01*
X82261983Y-41948971D01*
X82334182Y-41956082D01*
X82734182Y-41956082D01*
X82806381Y-41948971D01*
X82859182Y-41932954D01*
X82911983Y-41948971D01*
X82984182Y-41956082D01*
X83384182Y-41956082D01*
X83456381Y-41948971D01*
X83509182Y-41932954D01*
X83561983Y-41948971D01*
X83634182Y-41956082D01*
X84034182Y-41956082D01*
X84106381Y-41948971D01*
X84159182Y-41932954D01*
X84211983Y-41948971D01*
X84284182Y-41956082D01*
X84684182Y-41956082D01*
X84756381Y-41948971D01*
X84825806Y-41927911D01*
X84889789Y-41893712D01*
X84945869Y-41847687D01*
X84991894Y-41791607D01*
X85026093Y-41727624D01*
X85047153Y-41658199D01*
X85054264Y-41586000D01*
X85054264Y-40486000D01*
X85047153Y-40413801D01*
X85026093Y-40344376D01*
X84991894Y-40280393D01*
X84945869Y-40224313D01*
X84889789Y-40178288D01*
X84825806Y-40144089D01*
X84756381Y-40123029D01*
X84684182Y-40115918D01*
X84284182Y-40115918D01*
X84211983Y-40123029D01*
X84159182Y-40139046D01*
X84106381Y-40123029D01*
X84034182Y-40115918D01*
X83634182Y-40115918D01*
X83561983Y-40123029D01*
X83509182Y-40139046D01*
X83456381Y-40123029D01*
X83384182Y-40115918D01*
X82984182Y-40115918D01*
X82911983Y-40123029D01*
X82859182Y-40139046D01*
X82806381Y-40123029D01*
X82734182Y-40115918D01*
X82334182Y-40115918D01*
X82261983Y-40123029D01*
X82209182Y-40139046D01*
X82156381Y-40123029D01*
X82084182Y-40115918D01*
X81684182Y-40115918D01*
X81611983Y-40123029D01*
X81559182Y-40139046D01*
X81506381Y-40123029D01*
X81434182Y-40115918D01*
X81034182Y-40115918D01*
X80961983Y-40123029D01*
X80909182Y-40139046D01*
X80856381Y-40123029D01*
X80784182Y-40115918D01*
X80384182Y-40115918D01*
X80311983Y-40123029D01*
X80259182Y-40139046D01*
X80206381Y-40123029D01*
X80134182Y-40115918D01*
X79734182Y-40115918D01*
X79661983Y-40123029D01*
X79609182Y-40139046D01*
X79556381Y-40123029D01*
X79484182Y-40115918D01*
X79084182Y-40115918D01*
X79011983Y-40123029D01*
X78959182Y-40139046D01*
X78906381Y-40123029D01*
X78834182Y-40115918D01*
X78434182Y-40115918D01*
X78361983Y-40123029D01*
X78309182Y-40139046D01*
X78256381Y-40123029D01*
X78184182Y-40115918D01*
X77784182Y-40115918D01*
X77722760Y-40121968D01*
X77706972Y-40091508D01*
X77705510Y-40089677D01*
X77704415Y-40087617D01*
X77678498Y-40055840D01*
X77652849Y-40023710D01*
X77649639Y-40020455D01*
X77649586Y-40020390D01*
X77649525Y-40020340D01*
X77648491Y-40019291D01*
X76634082Y-39004882D01*
X76602338Y-38978807D01*
X76570903Y-38952429D01*
X76568855Y-38951303D01*
X76567047Y-38949818D01*
X76530857Y-38930414D01*
X76494882Y-38910636D01*
X76492652Y-38909929D01*
X76490592Y-38908824D01*
X76451365Y-38896831D01*
X76412192Y-38884404D01*
X76409865Y-38884143D01*
X76407631Y-38883460D01*
X76366834Y-38879316D01*
X76325981Y-38874734D01*
X76321406Y-38874702D01*
X76321324Y-38874694D01*
X76321248Y-38874701D01*
X76319775Y-38874691D01*
X76100840Y-38874690D01*
X73745558Y-38874690D01*
X72656559Y-37785691D01*
X72624799Y-37759603D01*
X72593378Y-37733237D01*
X72591332Y-37732112D01*
X72589524Y-37730627D01*
X72553327Y-37711219D01*
X72517357Y-37691444D01*
X72515128Y-37690737D01*
X72513069Y-37689633D01*
X72473828Y-37677636D01*
X72434667Y-37665213D01*
X72432343Y-37664952D01*
X72430108Y-37664269D01*
X72389290Y-37660123D01*
X72348456Y-37655543D01*
X72343883Y-37655511D01*
X72343801Y-37655503D01*
X72343725Y-37655510D01*
X72342250Y-37655500D01*
X59363639Y-37655500D01*
X59326588Y-37618190D01*
X59225413Y-37549946D01*
X59112909Y-37502654D01*
X58993363Y-37478115D01*
X58871326Y-37477263D01*
X58751449Y-37500130D01*
X58638296Y-37545847D01*
X58536178Y-37612671D01*
X58448984Y-37698058D01*
X58380036Y-37798754D01*
X58331959Y-37910925D01*
X58306586Y-38030297D01*
X58304882Y-38152325D01*
X52114300Y-38152325D01*
X52114300Y-37707391D01*
X52117973Y-37707468D01*
X52238159Y-37686276D01*
X52351939Y-37642144D01*
X52454980Y-37576752D01*
X52543357Y-37492591D01*
X52613705Y-37392867D01*
X52663343Y-37281379D01*
X52690380Y-37162372D01*
X52692327Y-37022980D01*
X52668622Y-36903265D01*
X52659992Y-36882325D01*
X75068882Y-36882325D01*
X75090912Y-37002359D01*
X75135838Y-37115828D01*
X75201948Y-37218411D01*
X75286723Y-37306198D01*
X75386936Y-37375848D01*
X75498768Y-37424706D01*
X75617961Y-37450912D01*
X75739973Y-37453468D01*
X75860159Y-37432276D01*
X75973939Y-37388144D01*
X76072965Y-37325300D01*
X76101464Y-37325300D01*
X76086586Y-37395297D01*
X76084882Y-37517325D01*
X76106912Y-37637359D01*
X76151838Y-37750828D01*
X76217948Y-37853411D01*
X76302723Y-37941198D01*
X76402936Y-38010848D01*
X76514768Y-38059706D01*
X76633961Y-38085912D01*
X76755973Y-38088468D01*
X76876159Y-38067276D01*
X76989939Y-38023144D01*
X77088965Y-37960300D01*
X82426207Y-37960300D01*
X82498936Y-38010848D01*
X82610768Y-38059706D01*
X82729961Y-38085912D01*
X82851973Y-38088468D01*
X82972159Y-38067276D01*
X83085939Y-38023144D01*
X83188980Y-37957752D01*
X83277357Y-37873591D01*
X83347705Y-37773867D01*
X83397343Y-37662379D01*
X83424380Y-37543372D01*
X83426327Y-37403980D01*
X83402622Y-37284265D01*
X83356117Y-37171434D01*
X83288581Y-37069785D01*
X83202588Y-36983190D01*
X83101413Y-36914946D01*
X82988909Y-36867654D01*
X82869363Y-36843115D01*
X82747326Y-36842263D01*
X82627449Y-36865130D01*
X82514296Y-36910847D01*
X82424359Y-36969700D01*
X82267447Y-36969700D01*
X82281380Y-36908372D01*
X82283327Y-36768980D01*
X82259622Y-36649265D01*
X82213117Y-36536434D01*
X82145581Y-36434785D01*
X82059588Y-36348190D01*
X81958413Y-36279946D01*
X81845909Y-36232654D01*
X81726363Y-36208115D01*
X81604326Y-36207263D01*
X81484449Y-36230130D01*
X81371296Y-36275847D01*
X81281359Y-36334700D01*
X76070588Y-36334700D01*
X75989413Y-36279946D01*
X75876909Y-36232654D01*
X75757363Y-36208115D01*
X75635326Y-36207263D01*
X75515449Y-36230130D01*
X75402296Y-36275847D01*
X75300178Y-36342671D01*
X75212984Y-36428058D01*
X75144036Y-36528754D01*
X75095959Y-36640925D01*
X75070586Y-36760297D01*
X75068882Y-36882325D01*
X52659992Y-36882325D01*
X52622117Y-36790434D01*
X52554581Y-36688785D01*
X52468588Y-36602190D01*
X52367413Y-36533946D01*
X52254909Y-36486654D01*
X52135363Y-36462115D01*
X52013326Y-36461263D01*
X51893449Y-36484130D01*
X51780296Y-36529847D01*
X51678178Y-36596671D01*
X51634443Y-36639500D01*
X43107639Y-36639500D01*
X43070588Y-36602190D01*
X42969413Y-36533946D01*
X42856909Y-36486654D01*
X42737363Y-36462115D01*
X42615326Y-36461263D01*
X42495449Y-36484130D01*
X42382296Y-36529847D01*
X42280178Y-36596671D01*
X42192984Y-36682058D01*
X42124036Y-36782754D01*
X42079913Y-36885700D01*
X26418300Y-36885700D01*
X26418300Y-34448445D01*
X26627316Y-34976359D01*
X26968785Y-35506216D01*
X27406668Y-35959657D01*
X27924285Y-36319410D01*
X28501921Y-36571773D01*
X29117573Y-36707133D01*
X29747791Y-36720334D01*
X30368571Y-36610874D01*
X30956268Y-36382921D01*
X31488496Y-36045159D01*
X31944983Y-35610452D01*
X32308341Y-35095360D01*
X32406551Y-34874775D01*
X33138100Y-34874775D01*
X33138100Y-35669874D01*
X33152253Y-35741029D01*
X33180017Y-35808055D01*
X33220322Y-35868377D01*
X33271622Y-35919677D01*
X33331944Y-35959983D01*
X33398970Y-35987746D01*
X33470125Y-36001900D01*
X34265225Y-36001900D01*
X34357300Y-35909825D01*
X34357300Y-34782700D01*
X34382700Y-34782700D01*
X34382700Y-35909825D01*
X34474775Y-36001900D01*
X35269875Y-36001900D01*
X35341030Y-35987746D01*
X35408056Y-35959983D01*
X35468378Y-35919677D01*
X35519678Y-35868377D01*
X35559983Y-35808055D01*
X35587747Y-35741029D01*
X35601900Y-35669874D01*
X35601900Y-34874775D01*
X35509825Y-34782700D01*
X34382700Y-34782700D01*
X34357300Y-34782700D01*
X33230175Y-34782700D01*
X33138100Y-34874775D01*
X32406551Y-34874775D01*
X32455853Y-34764039D01*
X35678100Y-34764039D01*
X35678100Y-34775961D01*
X35701561Y-35015238D01*
X35771052Y-35245402D01*
X35883924Y-35457684D01*
X36035880Y-35644000D01*
X36221130Y-35797252D01*
X36432620Y-35911604D01*
X36662292Y-35982700D01*
X36901400Y-36007831D01*
X37140835Y-35986041D01*
X37371478Y-35918159D01*
X37584543Y-35806771D01*
X37771915Y-35656120D01*
X37926457Y-35471944D01*
X38042283Y-35261258D01*
X38114980Y-35032087D01*
X38141780Y-34793161D01*
X38141900Y-34775961D01*
X38141900Y-34764039D01*
X38118439Y-34524762D01*
X38048948Y-34294598D01*
X38036823Y-34271795D01*
X38186319Y-34122299D01*
X38403723Y-34122299D01*
X38317717Y-34278742D01*
X38245020Y-34507913D01*
X38218220Y-34746839D01*
X38218100Y-34764039D01*
X38218100Y-34775961D01*
X38241561Y-35015238D01*
X38311052Y-35245402D01*
X38423924Y-35457684D01*
X38575880Y-35644000D01*
X38761130Y-35797252D01*
X38972620Y-35911604D01*
X39202292Y-35982700D01*
X39441400Y-36007831D01*
X39680835Y-35986041D01*
X39911478Y-35918159D01*
X40124543Y-35806771D01*
X40311915Y-35656120D01*
X40466457Y-35471944D01*
X40582283Y-35261258D01*
X40654980Y-35032087D01*
X40681780Y-34793161D01*
X40681900Y-34775961D01*
X40681900Y-34764039D01*
X40658439Y-34524762D01*
X40588948Y-34294598D01*
X40497335Y-34122299D01*
X40943723Y-34122299D01*
X40857717Y-34278742D01*
X40785020Y-34507913D01*
X40758220Y-34746839D01*
X40758100Y-34764039D01*
X40758100Y-34775961D01*
X40781561Y-35015238D01*
X40851052Y-35245402D01*
X40963924Y-35457684D01*
X41115880Y-35644000D01*
X41301130Y-35797252D01*
X41512620Y-35911604D01*
X41742292Y-35982700D01*
X41981400Y-36007831D01*
X42220835Y-35986041D01*
X42451478Y-35918159D01*
X42664543Y-35806771D01*
X42851915Y-35656120D01*
X43006457Y-35471944D01*
X43122283Y-35261258D01*
X43194980Y-35032087D01*
X43221780Y-34793161D01*
X43221900Y-34775961D01*
X43221900Y-34764039D01*
X43198439Y-34524762D01*
X43128948Y-34294598D01*
X43037335Y-34122299D01*
X43483723Y-34122299D01*
X43397717Y-34278742D01*
X43325020Y-34507913D01*
X43298220Y-34746839D01*
X43298100Y-34764039D01*
X43298100Y-34775961D01*
X43321561Y-35015238D01*
X43391052Y-35245402D01*
X43503924Y-35457684D01*
X43655880Y-35644000D01*
X43841130Y-35797252D01*
X44052620Y-35911604D01*
X44282292Y-35982700D01*
X44521400Y-36007831D01*
X44760835Y-35986041D01*
X44991478Y-35918159D01*
X45204543Y-35806771D01*
X45391915Y-35656120D01*
X45546457Y-35471944D01*
X45662283Y-35261258D01*
X45734980Y-35032087D01*
X45761780Y-34793161D01*
X45761900Y-34775961D01*
X45761900Y-34764039D01*
X45738439Y-34524762D01*
X45668948Y-34294598D01*
X45577335Y-34122299D01*
X46023723Y-34122299D01*
X45937717Y-34278742D01*
X45865020Y-34507913D01*
X45838220Y-34746839D01*
X45838100Y-34764039D01*
X45838100Y-34775961D01*
X45861561Y-35015238D01*
X45931052Y-35245402D01*
X46043924Y-35457684D01*
X46195880Y-35644000D01*
X46381130Y-35797252D01*
X46592620Y-35911604D01*
X46822292Y-35982700D01*
X47061400Y-36007831D01*
X47300835Y-35986041D01*
X47531478Y-35918159D01*
X47744543Y-35806771D01*
X47931915Y-35656120D01*
X48086457Y-35471944D01*
X48202283Y-35261258D01*
X48274980Y-35032087D01*
X48301780Y-34793161D01*
X48301900Y-34775961D01*
X48301900Y-34764039D01*
X48278439Y-34524762D01*
X48208948Y-34294598D01*
X48117335Y-34122299D01*
X48563723Y-34122299D01*
X48477717Y-34278742D01*
X48405020Y-34507913D01*
X48378220Y-34746839D01*
X48378100Y-34764039D01*
X48378100Y-34775961D01*
X48401561Y-35015238D01*
X48471052Y-35245402D01*
X48583924Y-35457684D01*
X48735880Y-35644000D01*
X48921130Y-35797252D01*
X49132620Y-35911604D01*
X49362292Y-35982700D01*
X49601400Y-36007831D01*
X49840835Y-35986041D01*
X50071478Y-35918159D01*
X50284543Y-35806771D01*
X50471915Y-35656120D01*
X50626457Y-35471944D01*
X50742283Y-35261258D01*
X50814980Y-35032087D01*
X50841780Y-34793161D01*
X50841900Y-34775961D01*
X50841900Y-34764039D01*
X50818439Y-34524762D01*
X50748948Y-34294598D01*
X50657335Y-34122299D01*
X51103723Y-34122299D01*
X51017717Y-34278742D01*
X50945020Y-34507913D01*
X50918220Y-34746839D01*
X50918100Y-34764039D01*
X50918100Y-34775961D01*
X50941561Y-35015238D01*
X51011052Y-35245402D01*
X51123924Y-35457684D01*
X51275880Y-35644000D01*
X51461130Y-35797252D01*
X51672620Y-35911604D01*
X51902292Y-35982700D01*
X52141400Y-36007831D01*
X52380835Y-35986041D01*
X52611478Y-35918159D01*
X52824543Y-35806771D01*
X53011915Y-35656120D01*
X53166457Y-35471944D01*
X53282283Y-35261258D01*
X53354980Y-35032087D01*
X53361355Y-34975245D01*
X53475318Y-34975245D01*
X53538699Y-35208274D01*
X53646324Y-35424460D01*
X53794057Y-35615496D01*
X53976220Y-35774040D01*
X54185814Y-35893999D01*
X54414783Y-35970763D01*
X54484755Y-35984682D01*
X54677300Y-35909754D01*
X54677300Y-34782700D01*
X54702700Y-34782700D01*
X54702700Y-35909754D01*
X54895245Y-35984682D01*
X54965217Y-35970763D01*
X55194186Y-35893999D01*
X55403780Y-35774040D01*
X55585943Y-35615496D01*
X55733676Y-35424460D01*
X55841301Y-35208274D01*
X55904682Y-34975245D01*
X55829760Y-34782700D01*
X54702700Y-34782700D01*
X54677300Y-34782700D01*
X53550240Y-34782700D01*
X53475318Y-34975245D01*
X53361355Y-34975245D01*
X53381780Y-34793161D01*
X53381900Y-34775961D01*
X53381900Y-34764039D01*
X53358439Y-34524762D01*
X53288948Y-34294598D01*
X53197335Y-34122299D01*
X53642959Y-34122299D01*
X53538699Y-34331726D01*
X53475318Y-34564755D01*
X53550240Y-34757300D01*
X54677300Y-34757300D01*
X54677300Y-34737300D01*
X54702700Y-34737300D01*
X54702700Y-34757300D01*
X55829760Y-34757300D01*
X55904682Y-34564755D01*
X55841301Y-34331726D01*
X55737041Y-34122299D01*
X56183723Y-34122299D01*
X56097717Y-34278742D01*
X56025020Y-34507913D01*
X55998220Y-34746839D01*
X55998100Y-34764039D01*
X55998100Y-34775961D01*
X56021561Y-35015238D01*
X56091052Y-35245402D01*
X56203924Y-35457684D01*
X56355880Y-35644000D01*
X56541130Y-35797252D01*
X56752620Y-35911604D01*
X56982292Y-35982700D01*
X57221400Y-36007831D01*
X57460835Y-35986041D01*
X57691478Y-35918159D01*
X57904543Y-35806771D01*
X58091915Y-35656120D01*
X58246457Y-35471944D01*
X58362283Y-35261258D01*
X58434980Y-35032087D01*
X58461780Y-34793161D01*
X58461900Y-34775961D01*
X58461900Y-34764039D01*
X58438439Y-34524762D01*
X58368948Y-34294598D01*
X58277335Y-34122299D01*
X58723723Y-34122299D01*
X58637717Y-34278742D01*
X58565020Y-34507913D01*
X58538220Y-34746839D01*
X58538100Y-34764039D01*
X58538100Y-34775961D01*
X58561561Y-35015238D01*
X58631052Y-35245402D01*
X58743924Y-35457684D01*
X58895880Y-35644000D01*
X59081130Y-35797252D01*
X59292620Y-35911604D01*
X59522292Y-35982700D01*
X59761400Y-36007831D01*
X60000835Y-35986041D01*
X60231478Y-35918159D01*
X60444543Y-35806771D01*
X60631915Y-35656120D01*
X60786457Y-35471944D01*
X60902283Y-35261258D01*
X60974980Y-35032087D01*
X61001780Y-34793161D01*
X61001900Y-34775961D01*
X61001900Y-34764039D01*
X60978439Y-34524762D01*
X60908948Y-34294598D01*
X60817335Y-34122299D01*
X61263723Y-34122299D01*
X61177717Y-34278742D01*
X61105020Y-34507913D01*
X61078220Y-34746839D01*
X61078100Y-34764039D01*
X61078100Y-34775961D01*
X61101561Y-35015238D01*
X61171052Y-35245402D01*
X61283924Y-35457684D01*
X61435880Y-35644000D01*
X61621130Y-35797252D01*
X61832620Y-35911604D01*
X62062292Y-35982700D01*
X62301400Y-36007831D01*
X62540835Y-35986041D01*
X62771478Y-35918159D01*
X62920544Y-35840229D01*
X62903959Y-35878925D01*
X62878586Y-35998297D01*
X62876882Y-36120325D01*
X62898912Y-36240359D01*
X62943838Y-36353828D01*
X63009948Y-36456411D01*
X63094723Y-36544198D01*
X63194936Y-36613848D01*
X63306768Y-36662706D01*
X63425961Y-36688912D01*
X63547973Y-36691468D01*
X63668159Y-36670276D01*
X63781939Y-36626144D01*
X63884980Y-36560752D01*
X63973357Y-36476591D01*
X64043705Y-36376867D01*
X64093343Y-36265379D01*
X64120380Y-36146372D01*
X64122327Y-36006980D01*
X64098622Y-35887265D01*
X64052117Y-35774434D01*
X63984581Y-35672785D01*
X63944500Y-35632423D01*
X63944500Y-35605524D01*
X63975880Y-35644000D01*
X64161130Y-35797252D01*
X64372620Y-35911604D01*
X64602292Y-35982700D01*
X64841400Y-36007831D01*
X65080835Y-35986041D01*
X65311478Y-35918159D01*
X65524543Y-35806771D01*
X65711915Y-35656120D01*
X65866457Y-35471944D01*
X65982283Y-35261258D01*
X66054980Y-35032087D01*
X66081780Y-34793161D01*
X66081900Y-34775961D01*
X66081900Y-34764039D01*
X66158100Y-34764039D01*
X66158100Y-34775961D01*
X66181561Y-35015238D01*
X66251052Y-35245402D01*
X66363924Y-35457684D01*
X66515880Y-35644000D01*
X66701130Y-35797252D01*
X66912620Y-35911604D01*
X67142292Y-35982700D01*
X67381400Y-36007831D01*
X67620835Y-35986041D01*
X67851478Y-35918159D01*
X68064543Y-35806771D01*
X68251915Y-35656120D01*
X68406457Y-35471944D01*
X68522283Y-35261258D01*
X68594980Y-35032087D01*
X68621780Y-34793161D01*
X68621900Y-34775961D01*
X68621900Y-34764039D01*
X68698100Y-34764039D01*
X68698100Y-34775961D01*
X68721561Y-35015238D01*
X68791052Y-35245402D01*
X68903924Y-35457684D01*
X69055880Y-35644000D01*
X69241130Y-35797252D01*
X69452620Y-35911604D01*
X69682292Y-35982700D01*
X69921400Y-36007831D01*
X70160835Y-35986041D01*
X70391478Y-35918159D01*
X70604543Y-35806771D01*
X70791915Y-35656120D01*
X70946457Y-35471944D01*
X71062283Y-35261258D01*
X71134980Y-35032087D01*
X71161780Y-34793161D01*
X71161900Y-34775961D01*
X71161900Y-34764039D01*
X71238100Y-34764039D01*
X71238100Y-34775961D01*
X71261561Y-35015238D01*
X71331052Y-35245402D01*
X71443924Y-35457684D01*
X71595880Y-35644000D01*
X71781130Y-35797252D01*
X71992620Y-35911604D01*
X72222292Y-35982700D01*
X72461400Y-36007831D01*
X72700835Y-35986041D01*
X72931478Y-35918159D01*
X73144543Y-35806771D01*
X73331915Y-35656120D01*
X73486457Y-35471944D01*
X73602283Y-35261258D01*
X73674980Y-35032087D01*
X73701780Y-34793161D01*
X73701900Y-34775961D01*
X73701900Y-34764039D01*
X73778100Y-34764039D01*
X73778100Y-34775961D01*
X73801561Y-35015238D01*
X73871052Y-35245402D01*
X73983924Y-35457684D01*
X74135880Y-35644000D01*
X74321130Y-35797252D01*
X74532620Y-35911604D01*
X74762292Y-35982700D01*
X75001400Y-36007831D01*
X75240835Y-35986041D01*
X75471478Y-35918159D01*
X75684543Y-35806771D01*
X75871915Y-35656120D01*
X76026457Y-35471944D01*
X76142283Y-35261258D01*
X76214980Y-35032087D01*
X76241780Y-34793161D01*
X76241900Y-34775961D01*
X76241900Y-34764039D01*
X76318100Y-34764039D01*
X76318100Y-34775961D01*
X76341561Y-35015238D01*
X76411052Y-35245402D01*
X76523924Y-35457684D01*
X76675880Y-35644000D01*
X76861130Y-35797252D01*
X77072620Y-35911604D01*
X77302292Y-35982700D01*
X77541400Y-36007831D01*
X77780835Y-35986041D01*
X78011478Y-35918159D01*
X78224543Y-35806771D01*
X78411915Y-35656120D01*
X78566457Y-35471944D01*
X78682283Y-35261258D01*
X78754980Y-35032087D01*
X78781780Y-34793161D01*
X78781900Y-34775961D01*
X78781900Y-34764039D01*
X78858100Y-34764039D01*
X78858100Y-34775961D01*
X78881561Y-35015238D01*
X78951052Y-35245402D01*
X79063924Y-35457684D01*
X79215880Y-35644000D01*
X79401130Y-35797252D01*
X79612620Y-35911604D01*
X79842292Y-35982700D01*
X80081400Y-36007831D01*
X80320835Y-35986041D01*
X80551478Y-35918159D01*
X80764543Y-35806771D01*
X80951915Y-35656120D01*
X81106457Y-35471944D01*
X81222283Y-35261258D01*
X81294980Y-35032087D01*
X81321780Y-34793161D01*
X81321900Y-34775961D01*
X81321900Y-34764039D01*
X81298439Y-34524762D01*
X81228948Y-34294598D01*
X81116076Y-34082316D01*
X80964120Y-33896000D01*
X80778870Y-33742748D01*
X80567380Y-33628396D01*
X80337708Y-33557300D01*
X80098600Y-33532169D01*
X79859165Y-33553959D01*
X79628522Y-33621841D01*
X79415457Y-33733229D01*
X79228085Y-33883880D01*
X79073543Y-34068056D01*
X78957717Y-34278742D01*
X78885020Y-34507913D01*
X78858220Y-34746839D01*
X78858100Y-34764039D01*
X78781900Y-34764039D01*
X78758439Y-34524762D01*
X78688948Y-34294598D01*
X78576076Y-34082316D01*
X78424120Y-33896000D01*
X78238870Y-33742748D01*
X78027380Y-33628396D01*
X77797708Y-33557300D01*
X77558600Y-33532169D01*
X77319165Y-33553959D01*
X77088522Y-33621841D01*
X76875457Y-33733229D01*
X76688085Y-33883880D01*
X76533543Y-34068056D01*
X76417717Y-34278742D01*
X76345020Y-34507913D01*
X76318220Y-34746839D01*
X76318100Y-34764039D01*
X76241900Y-34764039D01*
X76218439Y-34524762D01*
X76148948Y-34294598D01*
X76036076Y-34082316D01*
X75884120Y-33896000D01*
X75698870Y-33742748D01*
X75487380Y-33628396D01*
X75257708Y-33557300D01*
X75018600Y-33532169D01*
X74779165Y-33553959D01*
X74548522Y-33621841D01*
X74335457Y-33733229D01*
X74148085Y-33883880D01*
X73993543Y-34068056D01*
X73877717Y-34278742D01*
X73805020Y-34507913D01*
X73778220Y-34746839D01*
X73778100Y-34764039D01*
X73701900Y-34764039D01*
X73678439Y-34524762D01*
X73608948Y-34294598D01*
X73496076Y-34082316D01*
X73344120Y-33896000D01*
X73158870Y-33742748D01*
X72947380Y-33628396D01*
X72717708Y-33557300D01*
X72478600Y-33532169D01*
X72239165Y-33553959D01*
X72008522Y-33621841D01*
X71795457Y-33733229D01*
X71608085Y-33883880D01*
X71453543Y-34068056D01*
X71337717Y-34278742D01*
X71265020Y-34507913D01*
X71238220Y-34746839D01*
X71238100Y-34764039D01*
X71161900Y-34764039D01*
X71138439Y-34524762D01*
X71068948Y-34294598D01*
X70956076Y-34082316D01*
X70804120Y-33896000D01*
X70618870Y-33742748D01*
X70407380Y-33628396D01*
X70177708Y-33557300D01*
X69938600Y-33532169D01*
X69699165Y-33553959D01*
X69468522Y-33621841D01*
X69255457Y-33733229D01*
X69068085Y-33883880D01*
X68913543Y-34068056D01*
X68797717Y-34278742D01*
X68725020Y-34507913D01*
X68698220Y-34746839D01*
X68698100Y-34764039D01*
X68621900Y-34764039D01*
X68598439Y-34524762D01*
X68528948Y-34294598D01*
X68416076Y-34082316D01*
X68264120Y-33896000D01*
X68078870Y-33742748D01*
X67867380Y-33628396D01*
X67637708Y-33557300D01*
X67398600Y-33532169D01*
X67159165Y-33553959D01*
X66928522Y-33621841D01*
X66715457Y-33733229D01*
X66528085Y-33883880D01*
X66373543Y-34068056D01*
X66257717Y-34278742D01*
X66185020Y-34507913D01*
X66158220Y-34746839D01*
X66158100Y-34764039D01*
X66081900Y-34764039D01*
X66058439Y-34524762D01*
X65988948Y-34294598D01*
X65876076Y-34082316D01*
X65724120Y-33896000D01*
X65538870Y-33742748D01*
X65327380Y-33628396D01*
X65097708Y-33557300D01*
X64858600Y-33532169D01*
X64619165Y-33553959D01*
X64388522Y-33621841D01*
X64175457Y-33733229D01*
X63988085Y-33883880D01*
X63839994Y-34060368D01*
X63818667Y-34033652D01*
X63815457Y-34030397D01*
X63815404Y-34030332D01*
X63815343Y-34030282D01*
X63814309Y-34029233D01*
X63148566Y-33363490D01*
X63116806Y-33337402D01*
X63085385Y-33311036D01*
X63083339Y-33309911D01*
X63081531Y-33308426D01*
X63045334Y-33289018D01*
X63009364Y-33269243D01*
X63007135Y-33268536D01*
X63005076Y-33267432D01*
X62989604Y-33262702D01*
X63171915Y-33116120D01*
X63326457Y-32931944D01*
X63442283Y-32721258D01*
X63514980Y-32492087D01*
X63541780Y-32253161D01*
X63541900Y-32235961D01*
X63541900Y-32224039D01*
X63618100Y-32224039D01*
X63618100Y-32235961D01*
X63641561Y-32475238D01*
X63711052Y-32705402D01*
X63823924Y-32917684D01*
X63975880Y-33104000D01*
X64161130Y-33257252D01*
X64372620Y-33371604D01*
X64602292Y-33442700D01*
X64841400Y-33467831D01*
X65080835Y-33446041D01*
X65311478Y-33378159D01*
X65524543Y-33266771D01*
X65711915Y-33116120D01*
X65866457Y-32931944D01*
X65982283Y-32721258D01*
X66054980Y-32492087D01*
X66081780Y-32253161D01*
X66081900Y-32235961D01*
X66081900Y-32224039D01*
X66158100Y-32224039D01*
X66158100Y-32235961D01*
X66181561Y-32475238D01*
X66251052Y-32705402D01*
X66363924Y-32917684D01*
X66515880Y-33104000D01*
X66701130Y-33257252D01*
X66912620Y-33371604D01*
X67142292Y-33442700D01*
X67381400Y-33467831D01*
X67620835Y-33446041D01*
X67851478Y-33378159D01*
X68064543Y-33266771D01*
X68251915Y-33116120D01*
X68406457Y-32931944D01*
X68522283Y-32721258D01*
X68594980Y-32492087D01*
X68621780Y-32253161D01*
X68621900Y-32235961D01*
X68621900Y-32224039D01*
X68698100Y-32224039D01*
X68698100Y-32235961D01*
X68721561Y-32475238D01*
X68791052Y-32705402D01*
X68903924Y-32917684D01*
X69055880Y-33104000D01*
X69241130Y-33257252D01*
X69452620Y-33371604D01*
X69682292Y-33442700D01*
X69921400Y-33467831D01*
X70160835Y-33446041D01*
X70391478Y-33378159D01*
X70604543Y-33266771D01*
X70791915Y-33116120D01*
X70946457Y-32931944D01*
X71062283Y-32721258D01*
X71134980Y-32492087D01*
X71161780Y-32253161D01*
X71161900Y-32235961D01*
X71161900Y-32224039D01*
X71238100Y-32224039D01*
X71238100Y-32235961D01*
X71261561Y-32475238D01*
X71331052Y-32705402D01*
X71443924Y-32917684D01*
X71595880Y-33104000D01*
X71781130Y-33257252D01*
X71992620Y-33371604D01*
X72222292Y-33442700D01*
X72461400Y-33467831D01*
X72700835Y-33446041D01*
X72931478Y-33378159D01*
X73144543Y-33266771D01*
X73331915Y-33116120D01*
X73486457Y-32931944D01*
X73602283Y-32721258D01*
X73674980Y-32492087D01*
X73701780Y-32253161D01*
X73701900Y-32235961D01*
X73701900Y-32224039D01*
X73778100Y-32224039D01*
X73778100Y-32235961D01*
X73801561Y-32475238D01*
X73871052Y-32705402D01*
X73983924Y-32917684D01*
X74135880Y-33104000D01*
X74321130Y-33257252D01*
X74532620Y-33371604D01*
X74762292Y-33442700D01*
X75001400Y-33467831D01*
X75240835Y-33446041D01*
X75471478Y-33378159D01*
X75684543Y-33266771D01*
X75871915Y-33116120D01*
X76026457Y-32931944D01*
X76142283Y-32721258D01*
X76214980Y-32492087D01*
X76241780Y-32253161D01*
X76241900Y-32235961D01*
X76241900Y-32224039D01*
X76318100Y-32224039D01*
X76318100Y-32235961D01*
X76341561Y-32475238D01*
X76411052Y-32705402D01*
X76523924Y-32917684D01*
X76675880Y-33104000D01*
X76861130Y-33257252D01*
X77072620Y-33371604D01*
X77302292Y-33442700D01*
X77541400Y-33467831D01*
X77780835Y-33446041D01*
X78011478Y-33378159D01*
X78224543Y-33266771D01*
X78411915Y-33116120D01*
X78566457Y-32931944D01*
X78682283Y-32721258D01*
X78754980Y-32492087D01*
X78781780Y-32253161D01*
X78781900Y-32235961D01*
X78781900Y-32224039D01*
X78858100Y-32224039D01*
X78858100Y-32235961D01*
X78881561Y-32475238D01*
X78951052Y-32705402D01*
X79063924Y-32917684D01*
X79215880Y-33104000D01*
X79401130Y-33257252D01*
X79612620Y-33371604D01*
X79842292Y-33442700D01*
X80081400Y-33467831D01*
X80320835Y-33446041D01*
X80551478Y-33378159D01*
X80764543Y-33266771D01*
X80951915Y-33116120D01*
X81106457Y-32931944D01*
X81222283Y-32721258D01*
X81294980Y-32492087D01*
X81321780Y-32253161D01*
X81321900Y-32235961D01*
X81321900Y-32224039D01*
X81298439Y-31984762D01*
X81228948Y-31754598D01*
X81116076Y-31542316D01*
X80964120Y-31356000D01*
X80778870Y-31202748D01*
X80567380Y-31088396D01*
X80337708Y-31017300D01*
X80098600Y-30992169D01*
X79859165Y-31013959D01*
X79628522Y-31081841D01*
X79415457Y-31193229D01*
X79228085Y-31343880D01*
X79073543Y-31528056D01*
X78957717Y-31738742D01*
X78885020Y-31967913D01*
X78858220Y-32206839D01*
X78858100Y-32224039D01*
X78781900Y-32224039D01*
X78758439Y-31984762D01*
X78688948Y-31754598D01*
X78576076Y-31542316D01*
X78424120Y-31356000D01*
X78238870Y-31202748D01*
X78027380Y-31088396D01*
X77797708Y-31017300D01*
X77558600Y-30992169D01*
X77319165Y-31013959D01*
X77088522Y-31081841D01*
X76875457Y-31193229D01*
X76688085Y-31343880D01*
X76533543Y-31528056D01*
X76417717Y-31738742D01*
X76345020Y-31967913D01*
X76318220Y-32206839D01*
X76318100Y-32224039D01*
X76241900Y-32224039D01*
X76218439Y-31984762D01*
X76148948Y-31754598D01*
X76036076Y-31542316D01*
X75884120Y-31356000D01*
X75698870Y-31202748D01*
X75487380Y-31088396D01*
X75257708Y-31017300D01*
X75018600Y-30992169D01*
X74779165Y-31013959D01*
X74548522Y-31081841D01*
X74335457Y-31193229D01*
X74148085Y-31343880D01*
X73993543Y-31528056D01*
X73877717Y-31738742D01*
X73805020Y-31967913D01*
X73778220Y-32206839D01*
X73778100Y-32224039D01*
X73701900Y-32224039D01*
X73678439Y-31984762D01*
X73608948Y-31754598D01*
X73496076Y-31542316D01*
X73344120Y-31356000D01*
X73158870Y-31202748D01*
X72947380Y-31088396D01*
X72717708Y-31017300D01*
X72478600Y-30992169D01*
X72239165Y-31013959D01*
X72008522Y-31081841D01*
X71795457Y-31193229D01*
X71608085Y-31343880D01*
X71453543Y-31528056D01*
X71337717Y-31738742D01*
X71265020Y-31967913D01*
X71238220Y-32206839D01*
X71238100Y-32224039D01*
X71161900Y-32224039D01*
X71138439Y-31984762D01*
X71068948Y-31754598D01*
X70956076Y-31542316D01*
X70804120Y-31356000D01*
X70618870Y-31202748D01*
X70407380Y-31088396D01*
X70177708Y-31017300D01*
X69938600Y-30992169D01*
X69699165Y-31013959D01*
X69468522Y-31081841D01*
X69255457Y-31193229D01*
X69068085Y-31343880D01*
X68913543Y-31528056D01*
X68797717Y-31738742D01*
X68725020Y-31967913D01*
X68698220Y-32206839D01*
X68698100Y-32224039D01*
X68621900Y-32224039D01*
X68598439Y-31984762D01*
X68528948Y-31754598D01*
X68416076Y-31542316D01*
X68264120Y-31356000D01*
X68078870Y-31202748D01*
X67867380Y-31088396D01*
X67637708Y-31017300D01*
X67398600Y-30992169D01*
X67159165Y-31013959D01*
X66928522Y-31081841D01*
X66715457Y-31193229D01*
X66528085Y-31343880D01*
X66373543Y-31528056D01*
X66257717Y-31738742D01*
X66185020Y-31967913D01*
X66158220Y-32206839D01*
X66158100Y-32224039D01*
X66081900Y-32224039D01*
X66058439Y-31984762D01*
X65988948Y-31754598D01*
X65876076Y-31542316D01*
X65724120Y-31356000D01*
X65538870Y-31202748D01*
X65327380Y-31088396D01*
X65097708Y-31017300D01*
X64858600Y-30992169D01*
X64619165Y-31013959D01*
X64388522Y-31081841D01*
X64175457Y-31193229D01*
X63988085Y-31343880D01*
X63833543Y-31528056D01*
X63717717Y-31738742D01*
X63645020Y-31967913D01*
X63618220Y-32206839D01*
X63618100Y-32224039D01*
X63541900Y-32224039D01*
X63518439Y-31984762D01*
X63448948Y-31754598D01*
X63336076Y-31542316D01*
X63184120Y-31356000D01*
X62998870Y-31202748D01*
X62787380Y-31088396D01*
X62557708Y-31017300D01*
X62318600Y-30992169D01*
X62079165Y-31013959D01*
X61848522Y-31081841D01*
X61635457Y-31193229D01*
X61448085Y-31343880D01*
X61293543Y-31528056D01*
X61177717Y-31738742D01*
X61105020Y-31967913D01*
X61078220Y-32206839D01*
X61078100Y-32224039D01*
X61078100Y-32235961D01*
X61101561Y-32475238D01*
X61171052Y-32705402D01*
X61283924Y-32917684D01*
X61435880Y-33104000D01*
X61592176Y-33233299D01*
X60486174Y-33233299D01*
X60631915Y-33116120D01*
X60786457Y-32931944D01*
X60902283Y-32721258D01*
X60974980Y-32492087D01*
X61001780Y-32253161D01*
X61001900Y-32235961D01*
X61001900Y-32224039D01*
X60978439Y-31984762D01*
X60908948Y-31754598D01*
X60796076Y-31542316D01*
X60644120Y-31356000D01*
X60458870Y-31202748D01*
X60247380Y-31088396D01*
X60017708Y-31017300D01*
X59778600Y-30992169D01*
X59539165Y-31013959D01*
X59308522Y-31081841D01*
X59095457Y-31193229D01*
X58908085Y-31343880D01*
X58753543Y-31528056D01*
X58637717Y-31738742D01*
X58565020Y-31967913D01*
X58538220Y-32206839D01*
X58538100Y-32224039D01*
X58538100Y-32235961D01*
X58561561Y-32475238D01*
X58631052Y-32705402D01*
X58743924Y-32917684D01*
X58895880Y-33104000D01*
X59052176Y-33233299D01*
X57946174Y-33233299D01*
X58091915Y-33116120D01*
X58246457Y-32931944D01*
X58362283Y-32721258D01*
X58434980Y-32492087D01*
X58461780Y-32253161D01*
X58461900Y-32235961D01*
X58461900Y-32224039D01*
X58438439Y-31984762D01*
X58368948Y-31754598D01*
X58256076Y-31542316D01*
X58104120Y-31356000D01*
X57918870Y-31202748D01*
X57707380Y-31088396D01*
X57477708Y-31017300D01*
X57238600Y-30992169D01*
X56999165Y-31013959D01*
X56768522Y-31081841D01*
X56555457Y-31193229D01*
X56368085Y-31343880D01*
X56213543Y-31528056D01*
X56097717Y-31738742D01*
X56025020Y-31967913D01*
X55998220Y-32206839D01*
X55998100Y-32224039D01*
X55998100Y-32235961D01*
X56021561Y-32475238D01*
X56091052Y-32705402D01*
X56203924Y-32917684D01*
X56355880Y-33104000D01*
X56512176Y-33233299D01*
X55406174Y-33233299D01*
X55551915Y-33116120D01*
X55706457Y-32931944D01*
X55822283Y-32721258D01*
X55894980Y-32492087D01*
X55921780Y-32253161D01*
X55921900Y-32235961D01*
X55921900Y-32224039D01*
X55898439Y-31984762D01*
X55828948Y-31754598D01*
X55716076Y-31542316D01*
X55564120Y-31356000D01*
X55378870Y-31202748D01*
X55167380Y-31088396D01*
X54937708Y-31017300D01*
X54698600Y-30992169D01*
X54459165Y-31013959D01*
X54228522Y-31081841D01*
X54015457Y-31193229D01*
X53828085Y-31343880D01*
X53673543Y-31528056D01*
X53557717Y-31738742D01*
X53485020Y-31967913D01*
X53458220Y-32206839D01*
X53458100Y-32224039D01*
X53458100Y-32235961D01*
X53481561Y-32475238D01*
X53551052Y-32705402D01*
X53663924Y-32917684D01*
X53815880Y-33104000D01*
X53972176Y-33233299D01*
X52866174Y-33233299D01*
X53011915Y-33116120D01*
X53166457Y-32931944D01*
X53282283Y-32721258D01*
X53354980Y-32492087D01*
X53381780Y-32253161D01*
X53381900Y-32235961D01*
X53381900Y-32224039D01*
X53358439Y-31984762D01*
X53288948Y-31754598D01*
X53176076Y-31542316D01*
X53024120Y-31356000D01*
X52838870Y-31202748D01*
X52627380Y-31088396D01*
X52397708Y-31017300D01*
X52158600Y-30992169D01*
X51919165Y-31013959D01*
X51688522Y-31081841D01*
X51475457Y-31193229D01*
X51288085Y-31343880D01*
X51133543Y-31528056D01*
X51017717Y-31738742D01*
X50945020Y-31967913D01*
X50918220Y-32206839D01*
X50918100Y-32224039D01*
X50918100Y-32235961D01*
X50941561Y-32475238D01*
X51011052Y-32705402D01*
X51123924Y-32917684D01*
X51275880Y-33104000D01*
X51432176Y-33233299D01*
X50326174Y-33233299D01*
X50471915Y-33116120D01*
X50626457Y-32931944D01*
X50742283Y-32721258D01*
X50814980Y-32492087D01*
X50841780Y-32253161D01*
X50841900Y-32235961D01*
X50841900Y-32224039D01*
X50818439Y-31984762D01*
X50748948Y-31754598D01*
X50636076Y-31542316D01*
X50484120Y-31356000D01*
X50298870Y-31202748D01*
X50087380Y-31088396D01*
X49857708Y-31017300D01*
X49618600Y-30992169D01*
X49379165Y-31013959D01*
X49148522Y-31081841D01*
X48935457Y-31193229D01*
X48748085Y-31343880D01*
X48593543Y-31528056D01*
X48477717Y-31738742D01*
X48405020Y-31967913D01*
X48378220Y-32206839D01*
X48378100Y-32224039D01*
X48378100Y-32235961D01*
X48401561Y-32475238D01*
X48471052Y-32705402D01*
X48583924Y-32917684D01*
X48735880Y-33104000D01*
X48892176Y-33233299D01*
X47786174Y-33233299D01*
X47931915Y-33116120D01*
X48086457Y-32931944D01*
X48202283Y-32721258D01*
X48274980Y-32492087D01*
X48301780Y-32253161D01*
X48301900Y-32235961D01*
X48301900Y-32224039D01*
X48278439Y-31984762D01*
X48208948Y-31754598D01*
X48096076Y-31542316D01*
X47944120Y-31356000D01*
X47758870Y-31202748D01*
X47547380Y-31088396D01*
X47317708Y-31017300D01*
X47078600Y-30992169D01*
X46839165Y-31013959D01*
X46608522Y-31081841D01*
X46395457Y-31193229D01*
X46208085Y-31343880D01*
X46053543Y-31528056D01*
X45937717Y-31738742D01*
X45865020Y-31967913D01*
X45838220Y-32206839D01*
X45838100Y-32224039D01*
X45838100Y-32235961D01*
X45861561Y-32475238D01*
X45931052Y-32705402D01*
X46043924Y-32917684D01*
X46195880Y-33104000D01*
X46352176Y-33233299D01*
X45246174Y-33233299D01*
X45391915Y-33116120D01*
X45546457Y-32931944D01*
X45662283Y-32721258D01*
X45734980Y-32492087D01*
X45761780Y-32253161D01*
X45761900Y-32235961D01*
X45761900Y-32224039D01*
X45738439Y-31984762D01*
X45668948Y-31754598D01*
X45556076Y-31542316D01*
X45404120Y-31356000D01*
X45218870Y-31202748D01*
X45007380Y-31088396D01*
X44777708Y-31017300D01*
X44538600Y-30992169D01*
X44299165Y-31013959D01*
X44068522Y-31081841D01*
X43855457Y-31193229D01*
X43668085Y-31343880D01*
X43513543Y-31528056D01*
X43397717Y-31738742D01*
X43325020Y-31967913D01*
X43298220Y-32206839D01*
X43298100Y-32224039D01*
X43298100Y-32235961D01*
X43321561Y-32475238D01*
X43391052Y-32705402D01*
X43503924Y-32917684D01*
X43655880Y-33104000D01*
X43812176Y-33233299D01*
X42706174Y-33233299D01*
X42851915Y-33116120D01*
X43006457Y-32931944D01*
X43122283Y-32721258D01*
X43194980Y-32492087D01*
X43221780Y-32253161D01*
X43221900Y-32235961D01*
X43221900Y-32224039D01*
X43198439Y-31984762D01*
X43128948Y-31754598D01*
X43016076Y-31542316D01*
X42864120Y-31356000D01*
X42678870Y-31202748D01*
X42467380Y-31088396D01*
X42237708Y-31017300D01*
X41998600Y-30992169D01*
X41759165Y-31013959D01*
X41528522Y-31081841D01*
X41315457Y-31193229D01*
X41128085Y-31343880D01*
X40973543Y-31528056D01*
X40857717Y-31738742D01*
X40785020Y-31967913D01*
X40758220Y-32206839D01*
X40758100Y-32224039D01*
X40758100Y-32235961D01*
X40781561Y-32475238D01*
X40851052Y-32705402D01*
X40963924Y-32917684D01*
X41115880Y-33104000D01*
X41272176Y-33233299D01*
X40166174Y-33233299D01*
X40311915Y-33116120D01*
X40466457Y-32931944D01*
X40582283Y-32721258D01*
X40654980Y-32492087D01*
X40681780Y-32253161D01*
X40681900Y-32235961D01*
X40681900Y-32224039D01*
X40658439Y-31984762D01*
X40588948Y-31754598D01*
X40476076Y-31542316D01*
X40324120Y-31356000D01*
X40138870Y-31202748D01*
X39927380Y-31088396D01*
X39697708Y-31017300D01*
X39458600Y-30992169D01*
X39219165Y-31013959D01*
X38988522Y-31081841D01*
X38775457Y-31193229D01*
X38588085Y-31343880D01*
X38433543Y-31528056D01*
X38317717Y-31738742D01*
X38245020Y-31967913D01*
X38218220Y-32206839D01*
X38218100Y-32224039D01*
X38218100Y-32235961D01*
X38241561Y-32475238D01*
X38311052Y-32705402D01*
X38423924Y-32917684D01*
X38575880Y-33104000D01*
X38732176Y-33233299D01*
X38002201Y-33233299D01*
X37961300Y-33237309D01*
X37920435Y-33240884D01*
X37918192Y-33241536D01*
X37915864Y-33241764D01*
X37876532Y-33253639D01*
X37837128Y-33265087D01*
X37835054Y-33266162D01*
X37832815Y-33266838D01*
X37796553Y-33286119D01*
X37760109Y-33305010D01*
X37758282Y-33306469D01*
X37756218Y-33307566D01*
X37724414Y-33333505D01*
X37692311Y-33359132D01*
X37689056Y-33362342D01*
X37688991Y-33362395D01*
X37688941Y-33362456D01*
X37687892Y-33363490D01*
X37410490Y-33640892D01*
X37387380Y-33628396D01*
X37157708Y-33557300D01*
X36918600Y-33532169D01*
X36679165Y-33553959D01*
X36448522Y-33621841D01*
X36235457Y-33733229D01*
X36048085Y-33883880D01*
X35893543Y-34068056D01*
X35777717Y-34278742D01*
X35705020Y-34507913D01*
X35678220Y-34746839D01*
X35678100Y-34764039D01*
X32455853Y-34764039D01*
X32564730Y-34519500D01*
X32704385Y-33904808D01*
X32704869Y-33870126D01*
X33138100Y-33870126D01*
X33138100Y-34665225D01*
X33230175Y-34757300D01*
X34357300Y-34757300D01*
X34357300Y-33630175D01*
X34382700Y-33630175D01*
X34382700Y-34757300D01*
X35509825Y-34757300D01*
X35601900Y-34665225D01*
X35601900Y-33870126D01*
X35587747Y-33798971D01*
X35559983Y-33731945D01*
X35519678Y-33671623D01*
X35468378Y-33620323D01*
X35408056Y-33580017D01*
X35341030Y-33552254D01*
X35269875Y-33538100D01*
X34474775Y-33538100D01*
X34382700Y-33630175D01*
X34357300Y-33630175D01*
X34265225Y-33538100D01*
X33470125Y-33538100D01*
X33398970Y-33552254D01*
X33331944Y-33580017D01*
X33271622Y-33620323D01*
X33220322Y-33671623D01*
X33180017Y-33731945D01*
X33152253Y-33798971D01*
X33138100Y-33870126D01*
X32704869Y-33870126D01*
X32714438Y-33184822D01*
X32592001Y-32566470D01*
X32450862Y-32224039D01*
X33138100Y-32224039D01*
X33138100Y-32235961D01*
X33161561Y-32475238D01*
X33231052Y-32705402D01*
X33343924Y-32917684D01*
X33495880Y-33104000D01*
X33681130Y-33257252D01*
X33892620Y-33371604D01*
X34122292Y-33442700D01*
X34361400Y-33467831D01*
X34600835Y-33446041D01*
X34831478Y-33378159D01*
X35044543Y-33266771D01*
X35231915Y-33116120D01*
X35386457Y-32931944D01*
X35502283Y-32721258D01*
X35574980Y-32492087D01*
X35601780Y-32253161D01*
X35601900Y-32235961D01*
X35601900Y-32224039D01*
X35678100Y-32224039D01*
X35678100Y-32235961D01*
X35701561Y-32475238D01*
X35771052Y-32705402D01*
X35883924Y-32917684D01*
X36035880Y-33104000D01*
X36221130Y-33257252D01*
X36432620Y-33371604D01*
X36662292Y-33442700D01*
X36901400Y-33467831D01*
X37140835Y-33446041D01*
X37371478Y-33378159D01*
X37584543Y-33266771D01*
X37771915Y-33116120D01*
X37926457Y-32931944D01*
X38042283Y-32721258D01*
X38114980Y-32492087D01*
X38141780Y-32253161D01*
X38141900Y-32235961D01*
X38141900Y-32224039D01*
X38118439Y-31984762D01*
X38048948Y-31754598D01*
X37936076Y-31542316D01*
X37784120Y-31356000D01*
X37598870Y-31202748D01*
X37387380Y-31088396D01*
X37157708Y-31017300D01*
X36918600Y-30992169D01*
X36679165Y-31013959D01*
X36448522Y-31081841D01*
X36235457Y-31193229D01*
X36048085Y-31343880D01*
X35893543Y-31528056D01*
X35777717Y-31738742D01*
X35705020Y-31967913D01*
X35678220Y-32206839D01*
X35678100Y-32224039D01*
X35601900Y-32224039D01*
X35578439Y-31984762D01*
X35508948Y-31754598D01*
X35396076Y-31542316D01*
X35244120Y-31356000D01*
X35058870Y-31202748D01*
X34847380Y-31088396D01*
X34617708Y-31017300D01*
X34378600Y-30992169D01*
X34139165Y-31013959D01*
X33908522Y-31081841D01*
X33695457Y-31193229D01*
X33508085Y-31343880D01*
X33353543Y-31528056D01*
X33237717Y-31738742D01*
X33165020Y-31967913D01*
X33138220Y-32206839D01*
X33138100Y-32224039D01*
X32450862Y-32224039D01*
X32351791Y-31983676D01*
X32002957Y-31458638D01*
X31558786Y-31011355D01*
X31036196Y-30658864D01*
X30463917Y-30418300D01*
X42768933Y-30418300D01*
X42759036Y-30432754D01*
X42759036Y-30432754D01*
G37*
X42759036Y-30432754D02*
X42710959Y-30544925D01*
X42685586Y-30664297D01*
X42683882Y-30786325D01*
X42705912Y-30906359D01*
X42750838Y-31019828D01*
X42816948Y-31122411D01*
X42901723Y-31210198D01*
X43001936Y-31279848D01*
X43113768Y-31328706D01*
X43232961Y-31354912D01*
X43354973Y-31357468D01*
X43475159Y-31336276D01*
X43588939Y-31292144D01*
X43691980Y-31226752D01*
X43780357Y-31142591D01*
X43850705Y-31042867D01*
X43900343Y-30931379D01*
X43901906Y-30924500D01*
X83508882Y-30924500D01*
X83756500Y-31172118D01*
X83756500Y-31731187D01*
X83656076Y-31542316D01*
X83504120Y-31356000D01*
X83318870Y-31202748D01*
X83107380Y-31088396D01*
X82877708Y-31017300D01*
X82638600Y-30992169D01*
X82399165Y-31013959D01*
X82168522Y-31081841D01*
X81955457Y-31193229D01*
X81768085Y-31343880D01*
X81613543Y-31528056D01*
X81497717Y-31738742D01*
X81425020Y-31967913D01*
X81398220Y-32206839D01*
X81398100Y-32224039D01*
X81398100Y-32235961D01*
X81421561Y-32475238D01*
X81491052Y-32705402D01*
X81603924Y-32917684D01*
X81755880Y-33104000D01*
X81941130Y-33257252D01*
X82152620Y-33371604D01*
X82382292Y-33442700D01*
X82621400Y-33467831D01*
X82860835Y-33446041D01*
X83091478Y-33378159D01*
X83304543Y-33266771D01*
X83491915Y-33116120D01*
X83646457Y-32931944D01*
X83756500Y-32731777D01*
X83756500Y-34271187D01*
X83656076Y-34082316D01*
X83504120Y-33896000D01*
X83318870Y-33742748D01*
X83107380Y-33628396D01*
X82877708Y-33557300D01*
X82638600Y-33532169D01*
X82399165Y-33553959D01*
X82168522Y-33621841D01*
X81955457Y-33733229D01*
X81768085Y-33883880D01*
X81613543Y-34068056D01*
X81497717Y-34278742D01*
X81425020Y-34507913D01*
X81398220Y-34746839D01*
X81398100Y-34764039D01*
X81398100Y-34775961D01*
X81421561Y-35015238D01*
X81491052Y-35245402D01*
X81603924Y-35457684D01*
X81755880Y-35644000D01*
X81941130Y-35797252D01*
X82152620Y-35911604D01*
X82382292Y-35982700D01*
X82621400Y-36007831D01*
X82860835Y-35986041D01*
X83091478Y-35918159D01*
X83304543Y-35806771D01*
X83491915Y-35656120D01*
X83646457Y-35471944D01*
X83762283Y-35261258D01*
X83805809Y-35124045D01*
X83809299Y-35130609D01*
X83828210Y-35167092D01*
X83829672Y-35168923D01*
X83830767Y-35170983D01*
X83856684Y-35202760D01*
X83882333Y-35234890D01*
X83885543Y-35238145D01*
X83885596Y-35238210D01*
X83885657Y-35238260D01*
X83886691Y-35239309D01*
X85791691Y-37144309D01*
X85823451Y-37170397D01*
X85854872Y-37196763D01*
X85856918Y-37197888D01*
X85858726Y-37199373D01*
X85894923Y-37218781D01*
X85930893Y-37238556D01*
X85933122Y-37239263D01*
X85935181Y-37240367D01*
X85974422Y-37252364D01*
X86013583Y-37264787D01*
X86015907Y-37265048D01*
X86018142Y-37265731D01*
X86058960Y-37269877D01*
X86099794Y-37274457D01*
X86104367Y-37274489D01*
X86104449Y-37274497D01*
X86104525Y-37274490D01*
X86106000Y-37274500D01*
X87826882Y-37274500D01*
X89979500Y-39427118D01*
X89979500Y-40120040D01*
X89719230Y-39859770D01*
X89683887Y-39830739D01*
X89648828Y-39801321D01*
X89646542Y-39800064D01*
X89644533Y-39798414D01*
X89604239Y-39776808D01*
X89564119Y-39754752D01*
X89561637Y-39753965D01*
X89559342Y-39752734D01*
X89515583Y-39739355D01*
X89481999Y-39728702D01*
X89477971Y-39687801D01*
X89456911Y-39618376D01*
X89422712Y-39554393D01*
X89376687Y-39498313D01*
X89320607Y-39452288D01*
X89256624Y-39418089D01*
X89187199Y-39397029D01*
X89115000Y-39389918D01*
X87415000Y-39389918D01*
X87342801Y-39397029D01*
X87273376Y-39418089D01*
X87209393Y-39452288D01*
X87153313Y-39498313D01*
X87107288Y-39554393D01*
X87073089Y-39618376D01*
X87052029Y-39687801D01*
X87044918Y-39760000D01*
X87044918Y-40660000D01*
X87052029Y-40732199D01*
X87073089Y-40801624D01*
X87107288Y-40865607D01*
X87153313Y-40921687D01*
X87209393Y-40967712D01*
X87273376Y-41001911D01*
X87342801Y-41022971D01*
X87415000Y-41030082D01*
X89115000Y-41030082D01*
X89165856Y-41025073D01*
X89114036Y-41100754D01*
X89065959Y-41212925D01*
X89040586Y-41332297D01*
X89038882Y-41454325D01*
X89060912Y-41574359D01*
X89105838Y-41687828D01*
X89171948Y-41790411D01*
X89256723Y-41878198D01*
X89356936Y-41947848D01*
X89468768Y-41996706D01*
X89587961Y-42022912D01*
X89709973Y-42025468D01*
X89830159Y-42004276D01*
X89943939Y-41960144D01*
X89979500Y-41937576D01*
X89979500Y-44646882D01*
X89264882Y-45361500D01*
X89200082Y-45361500D01*
X89200082Y-45081000D01*
X89192971Y-45008801D01*
X89171911Y-44939376D01*
X89137712Y-44875393D01*
X89091687Y-44819313D01*
X89035607Y-44773288D01*
X88971624Y-44739089D01*
X88902199Y-44718029D01*
X88830000Y-44710918D01*
X88380000Y-44710918D01*
X88307801Y-44718029D01*
X88280000Y-44726462D01*
X88252199Y-44718029D01*
X88180000Y-44710918D01*
X87730000Y-44710918D01*
X87657801Y-44718029D01*
X87630000Y-44726462D01*
X87602199Y-44718029D01*
X87530000Y-44710918D01*
X87080000Y-44710918D01*
X87007801Y-44718029D01*
X86980000Y-44726462D01*
X86952199Y-44718029D01*
X86880000Y-44710918D01*
X86430000Y-44710918D01*
X86357801Y-44718029D01*
X86288376Y-44739089D01*
X86224393Y-44773288D01*
X86168313Y-44819313D01*
X86122288Y-44875393D01*
X86088089Y-44939376D01*
X86067029Y-45008801D01*
X86059918Y-45081000D01*
X86059918Y-46178985D01*
X86014462Y-46164566D01*
X86011407Y-46164223D01*
X86008472Y-46163326D01*
X85954829Y-46157877D01*
X85901157Y-46151857D01*
X85895147Y-46151815D01*
X85895039Y-46151804D01*
X85894938Y-46151814D01*
X85893000Y-46151800D01*
X85050896Y-46151800D01*
X85047153Y-46113801D01*
X85026093Y-46044376D01*
X84991894Y-45980393D01*
X84945869Y-45924313D01*
X84889789Y-45878288D01*
X84825806Y-45844089D01*
X84756381Y-45823029D01*
X84684182Y-45815918D01*
X84284182Y-45815918D01*
X84211983Y-45823029D01*
X84159182Y-45839046D01*
X84106381Y-45823029D01*
X84034182Y-45815918D01*
X83634182Y-45815918D01*
X83561983Y-45823029D01*
X83509182Y-45839046D01*
X83456381Y-45823029D01*
X83384182Y-45815918D01*
X82984182Y-45815918D01*
X82911983Y-45823029D01*
X82859182Y-45839046D01*
X82806381Y-45823029D01*
X82734182Y-45815918D01*
X82334182Y-45815918D01*
X82261983Y-45823029D01*
X82209182Y-45839046D01*
X82156381Y-45823029D01*
X82084182Y-45815918D01*
X81684182Y-45815918D01*
X81611983Y-45823029D01*
X81559182Y-45839046D01*
X81506381Y-45823029D01*
X81434182Y-45815918D01*
X81034182Y-45815918D01*
X80961983Y-45823029D01*
X80909182Y-45839046D01*
X80856381Y-45823029D01*
X80784182Y-45815918D01*
X80384182Y-45815918D01*
X80311983Y-45823029D01*
X80259182Y-45839046D01*
X80206381Y-45823029D01*
X80134182Y-45815918D01*
X79734182Y-45815918D01*
X79661983Y-45823029D01*
X79609182Y-45839046D01*
X79556381Y-45823029D01*
X79484182Y-45815918D01*
X79084182Y-45815918D01*
X79011983Y-45823029D01*
X78959182Y-45839046D01*
X78906381Y-45823029D01*
X78834182Y-45815918D01*
X78434182Y-45815918D01*
X78361983Y-45823029D01*
X78309182Y-45839046D01*
X78256381Y-45823029D01*
X78184182Y-45815918D01*
X77784182Y-45815918D01*
X77711983Y-45823029D01*
X77659182Y-45839046D01*
X77606381Y-45823029D01*
X77534182Y-45815918D01*
X77134182Y-45815918D01*
X77061983Y-45823029D01*
X77009182Y-45839046D01*
X76956381Y-45823029D01*
X76884182Y-45815918D01*
X76484182Y-45815918D01*
X76411983Y-45823029D01*
X76359182Y-45839046D01*
X76306381Y-45823029D01*
X76234182Y-45815918D01*
X75834182Y-45815918D01*
X75761983Y-45823029D01*
X75692558Y-45844089D01*
X75628575Y-45878288D01*
X75572495Y-45924313D01*
X75526470Y-45980393D01*
X75492271Y-46044376D01*
X75471211Y-46113801D01*
X75464100Y-46186000D01*
X75464100Y-46240700D01*
X74881160Y-46240700D01*
X74658482Y-46018022D01*
X74658482Y-45440380D01*
X74679806Y-45433911D01*
X74743789Y-45399712D01*
X74799869Y-45353687D01*
X74845894Y-45297607D01*
X74880093Y-45233624D01*
X74901153Y-45164199D01*
X74908264Y-45092000D01*
X74908264Y-44292000D01*
X74901153Y-44219801D01*
X74880093Y-44150376D01*
X74845894Y-44086393D01*
X74799869Y-44030313D01*
X74743789Y-43984288D01*
X74679806Y-43950089D01*
X74654573Y-43942434D01*
X74712638Y-43918383D01*
X74772960Y-43878077D01*
X74824260Y-43826777D01*
X74864565Y-43766455D01*
X74892329Y-43699429D01*
X74899709Y-43662325D01*
X85101882Y-43662325D01*
X85123912Y-43782359D01*
X85168838Y-43895828D01*
X85234948Y-43998411D01*
X85319723Y-44086198D01*
X85419936Y-44155848D01*
X85531768Y-44204706D01*
X85650961Y-44230912D01*
X85772973Y-44233468D01*
X85893159Y-44212276D01*
X86006939Y-44168144D01*
X86105965Y-44105300D01*
X87049380Y-44105300D01*
X87052029Y-44132199D01*
X87073089Y-44201624D01*
X87107288Y-44265607D01*
X87153313Y-44321687D01*
X87209393Y-44367712D01*
X87273376Y-44401911D01*
X87342801Y-44422971D01*
X87415000Y-44430082D01*
X89115000Y-44430082D01*
X89187199Y-44422971D01*
X89256624Y-44401911D01*
X89320607Y-44367712D01*
X89376687Y-44321687D01*
X89422712Y-44265607D01*
X89456911Y-44201624D01*
X89477971Y-44132199D01*
X89485082Y-44060000D01*
X89485082Y-43160000D01*
X89477971Y-43087801D01*
X89456911Y-43018376D01*
X89422712Y-42954393D01*
X89376687Y-42898313D01*
X89320607Y-42852288D01*
X89256624Y-42818089D01*
X89187199Y-42797029D01*
X89115000Y-42789918D01*
X87415000Y-42789918D01*
X87342801Y-42797029D01*
X87273376Y-42818089D01*
X87209393Y-42852288D01*
X87153313Y-42898313D01*
X87107288Y-42954393D01*
X87073089Y-43018376D01*
X87052029Y-43087801D01*
X87049380Y-43114700D01*
X86103588Y-43114700D01*
X86022413Y-43059946D01*
X85909909Y-43012654D01*
X85790363Y-42988115D01*
X85668326Y-42987263D01*
X85548449Y-43010130D01*
X85435296Y-43055847D01*
X85333178Y-43122671D01*
X85245984Y-43208058D01*
X85177036Y-43308754D01*
X85128959Y-43420925D01*
X85103586Y-43540297D01*
X85101882Y-43662325D01*
X74899709Y-43662325D01*
X74906482Y-43628274D01*
X74906482Y-43296775D01*
X74814407Y-43204700D01*
X74175882Y-43204700D01*
X74175882Y-43224700D01*
X74150482Y-43224700D01*
X74150482Y-43204700D01*
X73511957Y-43204700D01*
X73419882Y-43296775D01*
X73419882Y-43628274D01*
X73434035Y-43699429D01*
X73461799Y-43766455D01*
X73502104Y-43826777D01*
X73553404Y-43878077D01*
X73613726Y-43918383D01*
X73671791Y-43942434D01*
X73646558Y-43950089D01*
X73582575Y-43984288D01*
X73526495Y-44030313D01*
X73480470Y-44086393D01*
X73469028Y-44107800D01*
X73371912Y-44107800D01*
X73256110Y-44029690D01*
X73120646Y-43972746D01*
X72976702Y-43943199D01*
X72829760Y-43942173D01*
X72685418Y-43969708D01*
X72549172Y-44024754D01*
X72426214Y-44105216D01*
X72321225Y-44208028D01*
X72238206Y-44329275D01*
X72180318Y-44464338D01*
X72149766Y-44608072D01*
X72147715Y-44755003D01*
X72174241Y-44899535D01*
X72228335Y-45036161D01*
X72307937Y-45159678D01*
X72410014Y-45265382D01*
X72530678Y-45349246D01*
X72665333Y-45408075D01*
X72808851Y-45439630D01*
X72955764Y-45442707D01*
X73100477Y-45417190D01*
X73237477Y-45364051D01*
X73361548Y-45285314D01*
X73371119Y-45276200D01*
X73469028Y-45276200D01*
X73480470Y-45297607D01*
X73526495Y-45353687D01*
X73582575Y-45399712D01*
X73646558Y-45433911D01*
X73667882Y-45440380D01*
X73667882Y-46223182D01*
X73672349Y-46268744D01*
X73676334Y-46314293D01*
X73677061Y-46316795D01*
X73677315Y-46319386D01*
X73690537Y-46363181D01*
X73703303Y-46407121D01*
X73704501Y-46409433D01*
X73705254Y-46411926D01*
X73726725Y-46452307D01*
X73747788Y-46492942D01*
X73749414Y-46494979D01*
X73750636Y-46497277D01*
X73779522Y-46532694D01*
X73808096Y-46568488D01*
X73811675Y-46572117D01*
X73811732Y-46572187D01*
X73811797Y-46572241D01*
X73812952Y-46573412D01*
X74325770Y-47086230D01*
X74361113Y-47115261D01*
X74396172Y-47144679D01*
X74398458Y-47145936D01*
X74400467Y-47147586D01*
X74440761Y-47169192D01*
X74480881Y-47191248D01*
X74483363Y-47192035D01*
X74485658Y-47193266D01*
X74529376Y-47206632D01*
X74573021Y-47220477D01*
X74575613Y-47220768D01*
X74578100Y-47221528D01*
X74623525Y-47226142D01*
X74669085Y-47231252D01*
X74674186Y-47231287D01*
X74674271Y-47231296D01*
X74674350Y-47231289D01*
X74676000Y-47231300D01*
X75464100Y-47231300D01*
X75464100Y-47286000D01*
X75471211Y-47358199D01*
X75492271Y-47427624D01*
X75526470Y-47491607D01*
X75572495Y-47547687D01*
X75628575Y-47593712D01*
X75692558Y-47627911D01*
X75761983Y-47648971D01*
X75834182Y-47656082D01*
X76234182Y-47656082D01*
X76306381Y-47648971D01*
X76359182Y-47632954D01*
X76411983Y-47648971D01*
X76484182Y-47656082D01*
X76884182Y-47656082D01*
X76956381Y-47648971D01*
X77009182Y-47632954D01*
X77061983Y-47648971D01*
X77134182Y-47656082D01*
X77534182Y-47656082D01*
X77606381Y-47648971D01*
X77659182Y-47632954D01*
X77711983Y-47648971D01*
X77784182Y-47656082D01*
X78184182Y-47656082D01*
X78256381Y-47648971D01*
X78309182Y-47632954D01*
X78361983Y-47648971D01*
X78434182Y-47656082D01*
X78437882Y-47656082D01*
X77414894Y-48679070D01*
X72138232Y-48679070D01*
X72097376Y-48683076D01*
X72056466Y-48686655D01*
X72054223Y-48687307D01*
X72051895Y-48687535D01*
X72012563Y-48699410D01*
X71973159Y-48710858D01*
X71971085Y-48711933D01*
X71968846Y-48712609D01*
X71932623Y-48731869D01*
X71896140Y-48750780D01*
X71894309Y-48752242D01*
X71892249Y-48753337D01*
X71860472Y-48779254D01*
X71828342Y-48804903D01*
X71825087Y-48808113D01*
X71825022Y-48808166D01*
X71824972Y-48808227D01*
X71823923Y-48809261D01*
X71674684Y-48958500D01*
X58216458Y-48958500D01*
X58218356Y-48956952D01*
X58485363Y-48634196D01*
X58684595Y-48265725D01*
X58808462Y-47865574D01*
X58852248Y-47448984D01*
X58814283Y-47031823D01*
X58781019Y-46918802D01*
X58758200Y-46677398D01*
X58666854Y-46370984D01*
X58517731Y-46088147D01*
X58316512Y-45839662D01*
X58070861Y-45634994D01*
X57833360Y-45505504D01*
X57927817Y-45445560D01*
X58106375Y-45275521D01*
X58248506Y-45074038D01*
X58348795Y-44848786D01*
X58403422Y-44608344D01*
X58407354Y-44326715D01*
X58359462Y-44084842D01*
X58317127Y-43982128D01*
X58343088Y-44013960D01*
X58493962Y-44138773D01*
X58666206Y-44231905D01*
X58853259Y-44289808D01*
X59047996Y-44310276D01*
X59243000Y-44292529D01*
X59430843Y-44237244D01*
X59604370Y-44146526D01*
X59756972Y-44023830D01*
X59882836Y-43873831D01*
X59977168Y-43702242D01*
X60036375Y-43515598D01*
X60058202Y-43321008D01*
X60058300Y-43307000D01*
X60058300Y-42755726D01*
X73419882Y-42755726D01*
X73419882Y-43087225D01*
X73511957Y-43179300D01*
X74150482Y-43179300D01*
X74150482Y-42515775D01*
X74175882Y-42515775D01*
X74175882Y-43179300D01*
X74814407Y-43179300D01*
X74906482Y-43087225D01*
X74906482Y-42755726D01*
X74892329Y-42684571D01*
X74864565Y-42617545D01*
X74824260Y-42557223D01*
X74772960Y-42505923D01*
X74712638Y-42465617D01*
X74645612Y-42437854D01*
X74574457Y-42423700D01*
X74267957Y-42423700D01*
X74175882Y-42515775D01*
X74150482Y-42515775D01*
X74058407Y-42423700D01*
X73751907Y-42423700D01*
X73680752Y-42437854D01*
X73613726Y-42465617D01*
X73553404Y-42505923D01*
X73502104Y-42557223D01*
X73461799Y-42617545D01*
X73434035Y-42684571D01*
X73419882Y-42755726D01*
X60058300Y-42755726D01*
X60058300Y-41140775D01*
X75465882Y-41140775D01*
X75465882Y-41622274D01*
X75480035Y-41693429D01*
X75507799Y-41760455D01*
X75548104Y-41820777D01*
X75599404Y-41872077D01*
X75659726Y-41912383D01*
X75726752Y-41940146D01*
X75797907Y-41954300D01*
X75929407Y-41954300D01*
X76021482Y-41862225D01*
X76021482Y-41048700D01*
X75557957Y-41048700D01*
X75465882Y-41140775D01*
X60058300Y-41140775D01*
X60058300Y-40132000D01*
X60039192Y-39937125D01*
X59982597Y-39749672D01*
X59890670Y-39576782D01*
X59766912Y-39425040D01*
X59616038Y-39300227D01*
X59443794Y-39207095D01*
X59256741Y-39149192D01*
X59062004Y-39128724D01*
X58867000Y-39146471D01*
X58679157Y-39201756D01*
X58505630Y-39292474D01*
X58353028Y-39415170D01*
X58227164Y-39565169D01*
X58132832Y-39736758D01*
X58073625Y-39923402D01*
X58051798Y-40117992D01*
X58051700Y-40132000D01*
X58051700Y-41033610D01*
X57955311Y-40936546D01*
X57750896Y-40798666D01*
X57523593Y-40703117D01*
X57282060Y-40653537D01*
X57035496Y-40651816D01*
X56793294Y-40698018D01*
X56564679Y-40790385D01*
X56358359Y-40925397D01*
X56182192Y-41097912D01*
X56042888Y-41301360D01*
X55945754Y-41527991D01*
X55894490Y-41769172D01*
X55891047Y-42015717D01*
X55935557Y-42258236D01*
X56026326Y-42487490D01*
X56159894Y-42694748D01*
X56331176Y-42872115D01*
X56533646Y-43012836D01*
X56759593Y-43111550D01*
X57000410Y-43164497D01*
X57246926Y-43169660D01*
X57489749Y-43126844D01*
X57719631Y-43037679D01*
X57927817Y-42905560D01*
X58051700Y-42787587D01*
X58051700Y-43307000D01*
X58070808Y-43501875D01*
X58110274Y-43632595D01*
X57955311Y-43476546D01*
X57750896Y-43338666D01*
X57523593Y-43243117D01*
X57282060Y-43193537D01*
X57035496Y-43191816D01*
X56793294Y-43238018D01*
X56564679Y-43330385D01*
X56358359Y-43465397D01*
X56182192Y-43637912D01*
X56042888Y-43841360D01*
X55945754Y-44067991D01*
X55894490Y-44309172D01*
X55891047Y-44555717D01*
X55935557Y-44798236D01*
X56026326Y-45027490D01*
X56159894Y-45234748D01*
X56211029Y-45287700D01*
X52114300Y-45287700D01*
X52114300Y-38152325D01*
X58304882Y-38152325D01*
X58326912Y-38272359D01*
X58371838Y-38385828D01*
X58437948Y-38488411D01*
X58522723Y-38576198D01*
X58622936Y-38645848D01*
X58734768Y-38694706D01*
X58853961Y-38720912D01*
X58975973Y-38723468D01*
X59096159Y-38702276D01*
X59209939Y-38658144D01*
X59312980Y-38592752D01*
X59363649Y-38544500D01*
X71853165Y-38544500D01*
X71842036Y-38560754D01*
X71793959Y-38672925D01*
X71768586Y-38792297D01*
X71766882Y-38914325D01*
X71788912Y-39034359D01*
X71833838Y-39147828D01*
X71899948Y-39250411D01*
X71984723Y-39338198D01*
X72084936Y-39407848D01*
X72196768Y-39456706D01*
X72315961Y-39482912D01*
X72383713Y-39484331D01*
X72837691Y-39938309D01*
X72869451Y-39964397D01*
X72900872Y-39990763D01*
X72902918Y-39991888D01*
X72904726Y-39993373D01*
X72940923Y-40012781D01*
X72976893Y-40032556D01*
X72979122Y-40033263D01*
X72981181Y-40034367D01*
X73020422Y-40046364D01*
X73059583Y-40058787D01*
X73061907Y-40059048D01*
X73064142Y-40059731D01*
X73104960Y-40063877D01*
X73145794Y-40068457D01*
X73150367Y-40068489D01*
X73150449Y-40068497D01*
X73150525Y-40068490D01*
X73152000Y-40068500D01*
X75790464Y-40068500D01*
X75839664Y-40117700D01*
X75797907Y-40117700D01*
X75726752Y-40131854D01*
X75659726Y-40159617D01*
X75599404Y-40199923D01*
X75548104Y-40251223D01*
X75507799Y-40311545D01*
X75480035Y-40378571D01*
X75465882Y-40449726D01*
X75465882Y-40931225D01*
X75557957Y-41023300D01*
X76021482Y-41023300D01*
X76021482Y-41003300D01*
X76046882Y-41003300D01*
X76046882Y-41023300D01*
X76066882Y-41023300D01*
X76066882Y-41048700D01*
X76046882Y-41048700D01*
X76046882Y-41862225D01*
X76138957Y-41954300D01*
X76270457Y-41954300D01*
X76341612Y-41940146D01*
X76359063Y-41932918D01*
X76411983Y-41948971D01*
X76484182Y-41956082D01*
X76884182Y-41956082D01*
X76956381Y-41948971D01*
X77009182Y-41932954D01*
X77051298Y-41945730D01*
X76990984Y-42004794D01*
X76922036Y-42105490D01*
X76873959Y-42217661D01*
X76848586Y-42337033D01*
X76846882Y-42459061D01*
X76868912Y-42579095D01*
X76913838Y-42692564D01*
X76979948Y-42795147D01*
X77064723Y-42882934D01*
X77164936Y-42952584D01*
X77276768Y-43001442D01*
X77395961Y-43027648D01*
X77517973Y-43030204D01*
X77638159Y-43009012D01*
X77751939Y-42964880D01*
X77854980Y-42899488D01*
X77943357Y-42815327D01*
X78013705Y-42715603D01*
X78063343Y-42604115D01*
X78086567Y-42501893D01*
X78334412Y-42254048D01*
X78363443Y-42218705D01*
X78392861Y-42183646D01*
X78394118Y-42181360D01*
X78395768Y-42179351D01*
X78417374Y-42139057D01*
X78439430Y-42098937D01*
X78440217Y-42096455D01*
X78441448Y-42094160D01*
X78454814Y-42050442D01*
X78468659Y-42006797D01*
X78468950Y-42004205D01*
X78469710Y-42001718D01*
X78474324Y-41956293D01*
X78474347Y-41956082D01*
X78834182Y-41956082D01*
X78906381Y-41948971D01*
X78959182Y-41932954D01*
X79011983Y-41948971D01*
X79084182Y-41956082D01*
X79484182Y-41956082D01*
X79556381Y-41948971D01*
X79609182Y-41932954D01*
X79661983Y-41948971D01*
X79734182Y-41956082D01*
X80134182Y-41956082D01*
X80206381Y-41948971D01*
X80259182Y-41932954D01*
X80311983Y-41948971D01*
X80384182Y-41956082D01*
X80784182Y-41956082D01*
X80856381Y-41948971D01*
X80909182Y-41932954D01*
X80961983Y-41948971D01*
X81034182Y-41956082D01*
X81434182Y-41956082D01*
X81506381Y-41948971D01*
X81559182Y-41932954D01*
X81611983Y-41948971D01*
X81684182Y-41956082D01*
X82084182Y-41956082D01*
X82156381Y-41948971D01*
X82209182Y-41932954D01*
X82261983Y-41948971D01*
X82334182Y-41956082D01*
X82734182Y-41956082D01*
X82806381Y-41948971D01*
X82859182Y-41932954D01*
X82911983Y-41948971D01*
X82984182Y-41956082D01*
X83384182Y-41956082D01*
X83456381Y-41948971D01*
X83509182Y-41932954D01*
X83561983Y-41948971D01*
X83634182Y-41956082D01*
X84034182Y-41956082D01*
X84106381Y-41948971D01*
X84159182Y-41932954D01*
X84211983Y-41948971D01*
X84284182Y-41956082D01*
X84684182Y-41956082D01*
X84756381Y-41948971D01*
X84825806Y-41927911D01*
X84889789Y-41893712D01*
X84945869Y-41847687D01*
X84991894Y-41791607D01*
X85026093Y-41727624D01*
X85047153Y-41658199D01*
X85054264Y-41586000D01*
X85054264Y-40486000D01*
X85047153Y-40413801D01*
X85026093Y-40344376D01*
X84991894Y-40280393D01*
X84945869Y-40224313D01*
X84889789Y-40178288D01*
X84825806Y-40144089D01*
X84756381Y-40123029D01*
X84684182Y-40115918D01*
X84284182Y-40115918D01*
X84211983Y-40123029D01*
X84159182Y-40139046D01*
X84106381Y-40123029D01*
X84034182Y-40115918D01*
X83634182Y-40115918D01*
X83561983Y-40123029D01*
X83509182Y-40139046D01*
X83456381Y-40123029D01*
X83384182Y-40115918D01*
X82984182Y-40115918D01*
X82911983Y-40123029D01*
X82859182Y-40139046D01*
X82806381Y-40123029D01*
X82734182Y-40115918D01*
X82334182Y-40115918D01*
X82261983Y-40123029D01*
X82209182Y-40139046D01*
X82156381Y-40123029D01*
X82084182Y-40115918D01*
X81684182Y-40115918D01*
X81611983Y-40123029D01*
X81559182Y-40139046D01*
X81506381Y-40123029D01*
X81434182Y-40115918D01*
X81034182Y-40115918D01*
X80961983Y-40123029D01*
X80909182Y-40139046D01*
X80856381Y-40123029D01*
X80784182Y-40115918D01*
X80384182Y-40115918D01*
X80311983Y-40123029D01*
X80259182Y-40139046D01*
X80206381Y-40123029D01*
X80134182Y-40115918D01*
X79734182Y-40115918D01*
X79661983Y-40123029D01*
X79609182Y-40139046D01*
X79556381Y-40123029D01*
X79484182Y-40115918D01*
X79084182Y-40115918D01*
X79011983Y-40123029D01*
X78959182Y-40139046D01*
X78906381Y-40123029D01*
X78834182Y-40115918D01*
X78434182Y-40115918D01*
X78361983Y-40123029D01*
X78309182Y-40139046D01*
X78256381Y-40123029D01*
X78184182Y-40115918D01*
X77784182Y-40115918D01*
X77722760Y-40121968D01*
X77706972Y-40091508D01*
X77705510Y-40089677D01*
X77704415Y-40087617D01*
X77678498Y-40055840D01*
X77652849Y-40023710D01*
X77649639Y-40020455D01*
X77649586Y-40020390D01*
X77649525Y-40020340D01*
X77648491Y-40019291D01*
X76634082Y-39004882D01*
X76602338Y-38978807D01*
X76570903Y-38952429D01*
X76568855Y-38951303D01*
X76567047Y-38949818D01*
X76530857Y-38930414D01*
X76494882Y-38910636D01*
X76492652Y-38909929D01*
X76490592Y-38908824D01*
X76451365Y-38896831D01*
X76412192Y-38884404D01*
X76409865Y-38884143D01*
X76407631Y-38883460D01*
X76366834Y-38879316D01*
X76325981Y-38874734D01*
X76321406Y-38874702D01*
X76321324Y-38874694D01*
X76321248Y-38874701D01*
X76319775Y-38874691D01*
X76100840Y-38874690D01*
X73745558Y-38874690D01*
X72656559Y-37785691D01*
X72624799Y-37759603D01*
X72593378Y-37733237D01*
X72591332Y-37732112D01*
X72589524Y-37730627D01*
X72553327Y-37711219D01*
X72517357Y-37691444D01*
X72515128Y-37690737D01*
X72513069Y-37689633D01*
X72473828Y-37677636D01*
X72434667Y-37665213D01*
X72432343Y-37664952D01*
X72430108Y-37664269D01*
X72389290Y-37660123D01*
X72348456Y-37655543D01*
X72343883Y-37655511D01*
X72343801Y-37655503D01*
X72343725Y-37655510D01*
X72342250Y-37655500D01*
X59363639Y-37655500D01*
X59326588Y-37618190D01*
X59225413Y-37549946D01*
X59112909Y-37502654D01*
X58993363Y-37478115D01*
X58871326Y-37477263D01*
X58751449Y-37500130D01*
X58638296Y-37545847D01*
X58536178Y-37612671D01*
X58448984Y-37698058D01*
X58380036Y-37798754D01*
X58331959Y-37910925D01*
X58306586Y-38030297D01*
X58304882Y-38152325D01*
X52114300Y-38152325D01*
X52114300Y-37707391D01*
X52117973Y-37707468D01*
X52238159Y-37686276D01*
X52351939Y-37642144D01*
X52454980Y-37576752D01*
X52543357Y-37492591D01*
X52613705Y-37392867D01*
X52663343Y-37281379D01*
X52690380Y-37162372D01*
X52692327Y-37022980D01*
X52668622Y-36903265D01*
X52659992Y-36882325D01*
X75068882Y-36882325D01*
X75090912Y-37002359D01*
X75135838Y-37115828D01*
X75201948Y-37218411D01*
X75286723Y-37306198D01*
X75386936Y-37375848D01*
X75498768Y-37424706D01*
X75617961Y-37450912D01*
X75739973Y-37453468D01*
X75860159Y-37432276D01*
X75973939Y-37388144D01*
X76072965Y-37325300D01*
X76101464Y-37325300D01*
X76086586Y-37395297D01*
X76084882Y-37517325D01*
X76106912Y-37637359D01*
X76151838Y-37750828D01*
X76217948Y-37853411D01*
X76302723Y-37941198D01*
X76402936Y-38010848D01*
X76514768Y-38059706D01*
X76633961Y-38085912D01*
X76755973Y-38088468D01*
X76876159Y-38067276D01*
X76989939Y-38023144D01*
X77088965Y-37960300D01*
X82426207Y-37960300D01*
X82498936Y-38010848D01*
X82610768Y-38059706D01*
X82729961Y-38085912D01*
X82851973Y-38088468D01*
X82972159Y-38067276D01*
X83085939Y-38023144D01*
X83188980Y-37957752D01*
X83277357Y-37873591D01*
X83347705Y-37773867D01*
X83397343Y-37662379D01*
X83424380Y-37543372D01*
X83426327Y-37403980D01*
X83402622Y-37284265D01*
X83356117Y-37171434D01*
X83288581Y-37069785D01*
X83202588Y-36983190D01*
X83101413Y-36914946D01*
X82988909Y-36867654D01*
X82869363Y-36843115D01*
X82747326Y-36842263D01*
X82627449Y-36865130D01*
X82514296Y-36910847D01*
X82424359Y-36969700D01*
X82267447Y-36969700D01*
X82281380Y-36908372D01*
X82283327Y-36768980D01*
X82259622Y-36649265D01*
X82213117Y-36536434D01*
X82145581Y-36434785D01*
X82059588Y-36348190D01*
X81958413Y-36279946D01*
X81845909Y-36232654D01*
X81726363Y-36208115D01*
X81604326Y-36207263D01*
X81484449Y-36230130D01*
X81371296Y-36275847D01*
X81281359Y-36334700D01*
X76070588Y-36334700D01*
X75989413Y-36279946D01*
X75876909Y-36232654D01*
X75757363Y-36208115D01*
X75635326Y-36207263D01*
X75515449Y-36230130D01*
X75402296Y-36275847D01*
X75300178Y-36342671D01*
X75212984Y-36428058D01*
X75144036Y-36528754D01*
X75095959Y-36640925D01*
X75070586Y-36760297D01*
X75068882Y-36882325D01*
X52659992Y-36882325D01*
X52622117Y-36790434D01*
X52554581Y-36688785D01*
X52468588Y-36602190D01*
X52367413Y-36533946D01*
X52254909Y-36486654D01*
X52135363Y-36462115D01*
X52013326Y-36461263D01*
X51893449Y-36484130D01*
X51780296Y-36529847D01*
X51678178Y-36596671D01*
X51634443Y-36639500D01*
X43107639Y-36639500D01*
X43070588Y-36602190D01*
X42969413Y-36533946D01*
X42856909Y-36486654D01*
X42737363Y-36462115D01*
X42615326Y-36461263D01*
X42495449Y-36484130D01*
X42382296Y-36529847D01*
X42280178Y-36596671D01*
X42192984Y-36682058D01*
X42124036Y-36782754D01*
X42079913Y-36885700D01*
X26418300Y-36885700D01*
X26418300Y-34448445D01*
X26627316Y-34976359D01*
X26968785Y-35506216D01*
X27406668Y-35959657D01*
X27924285Y-36319410D01*
X28501921Y-36571773D01*
X29117573Y-36707133D01*
X29747791Y-36720334D01*
X30368571Y-36610874D01*
X30956268Y-36382921D01*
X31488496Y-36045159D01*
X31944983Y-35610452D01*
X32308341Y-35095360D01*
X32406551Y-34874775D01*
X33138100Y-34874775D01*
X33138100Y-35669874D01*
X33152253Y-35741029D01*
X33180017Y-35808055D01*
X33220322Y-35868377D01*
X33271622Y-35919677D01*
X33331944Y-35959983D01*
X33398970Y-35987746D01*
X33470125Y-36001900D01*
X34265225Y-36001900D01*
X34357300Y-35909825D01*
X34357300Y-34782700D01*
X34382700Y-34782700D01*
X34382700Y-35909825D01*
X34474775Y-36001900D01*
X35269875Y-36001900D01*
X35341030Y-35987746D01*
X35408056Y-35959983D01*
X35468378Y-35919677D01*
X35519678Y-35868377D01*
X35559983Y-35808055D01*
X35587747Y-35741029D01*
X35601900Y-35669874D01*
X35601900Y-34874775D01*
X35509825Y-34782700D01*
X34382700Y-34782700D01*
X34357300Y-34782700D01*
X33230175Y-34782700D01*
X33138100Y-34874775D01*
X32406551Y-34874775D01*
X32455853Y-34764039D01*
X35678100Y-34764039D01*
X35678100Y-34775961D01*
X35701561Y-35015238D01*
X35771052Y-35245402D01*
X35883924Y-35457684D01*
X36035880Y-35644000D01*
X36221130Y-35797252D01*
X36432620Y-35911604D01*
X36662292Y-35982700D01*
X36901400Y-36007831D01*
X37140835Y-35986041D01*
X37371478Y-35918159D01*
X37584543Y-35806771D01*
X37771915Y-35656120D01*
X37926457Y-35471944D01*
X38042283Y-35261258D01*
X38114980Y-35032087D01*
X38141780Y-34793161D01*
X38141900Y-34775961D01*
X38141900Y-34764039D01*
X38118439Y-34524762D01*
X38048948Y-34294598D01*
X38036823Y-34271795D01*
X38186319Y-34122299D01*
X38403723Y-34122299D01*
X38317717Y-34278742D01*
X38245020Y-34507913D01*
X38218220Y-34746839D01*
X38218100Y-34764039D01*
X38218100Y-34775961D01*
X38241561Y-35015238D01*
X38311052Y-35245402D01*
X38423924Y-35457684D01*
X38575880Y-35644000D01*
X38761130Y-35797252D01*
X38972620Y-35911604D01*
X39202292Y-35982700D01*
X39441400Y-36007831D01*
X39680835Y-35986041D01*
X39911478Y-35918159D01*
X40124543Y-35806771D01*
X40311915Y-35656120D01*
X40466457Y-35471944D01*
X40582283Y-35261258D01*
X40654980Y-35032087D01*
X40681780Y-34793161D01*
X40681900Y-34775961D01*
X40681900Y-34764039D01*
X40658439Y-34524762D01*
X40588948Y-34294598D01*
X40497335Y-34122299D01*
X40943723Y-34122299D01*
X40857717Y-34278742D01*
X40785020Y-34507913D01*
X40758220Y-34746839D01*
X40758100Y-34764039D01*
X40758100Y-34775961D01*
X40781561Y-35015238D01*
X40851052Y-35245402D01*
X40963924Y-35457684D01*
X41115880Y-35644000D01*
X41301130Y-35797252D01*
X41512620Y-35911604D01*
X41742292Y-35982700D01*
X41981400Y-36007831D01*
X42220835Y-35986041D01*
X42451478Y-35918159D01*
X42664543Y-35806771D01*
X42851915Y-35656120D01*
X43006457Y-35471944D01*
X43122283Y-35261258D01*
X43194980Y-35032087D01*
X43221780Y-34793161D01*
X43221900Y-34775961D01*
X43221900Y-34764039D01*
X43198439Y-34524762D01*
X43128948Y-34294598D01*
X43037335Y-34122299D01*
X43483723Y-34122299D01*
X43397717Y-34278742D01*
X43325020Y-34507913D01*
X43298220Y-34746839D01*
X43298100Y-34764039D01*
X43298100Y-34775961D01*
X43321561Y-35015238D01*
X43391052Y-35245402D01*
X43503924Y-35457684D01*
X43655880Y-35644000D01*
X43841130Y-35797252D01*
X44052620Y-35911604D01*
X44282292Y-35982700D01*
X44521400Y-36007831D01*
X44760835Y-35986041D01*
X44991478Y-35918159D01*
X45204543Y-35806771D01*
X45391915Y-35656120D01*
X45546457Y-35471944D01*
X45662283Y-35261258D01*
X45734980Y-35032087D01*
X45761780Y-34793161D01*
X45761900Y-34775961D01*
X45761900Y-34764039D01*
X45738439Y-34524762D01*
X45668948Y-34294598D01*
X45577335Y-34122299D01*
X46023723Y-34122299D01*
X45937717Y-34278742D01*
X45865020Y-34507913D01*
X45838220Y-34746839D01*
X45838100Y-34764039D01*
X45838100Y-34775961D01*
X45861561Y-35015238D01*
X45931052Y-35245402D01*
X46043924Y-35457684D01*
X46195880Y-35644000D01*
X46381130Y-35797252D01*
X46592620Y-35911604D01*
X46822292Y-35982700D01*
X47061400Y-36007831D01*
X47300835Y-35986041D01*
X47531478Y-35918159D01*
X47744543Y-35806771D01*
X47931915Y-35656120D01*
X48086457Y-35471944D01*
X48202283Y-35261258D01*
X48274980Y-35032087D01*
X48301780Y-34793161D01*
X48301900Y-34775961D01*
X48301900Y-34764039D01*
X48278439Y-34524762D01*
X48208948Y-34294598D01*
X48117335Y-34122299D01*
X48563723Y-34122299D01*
X48477717Y-34278742D01*
X48405020Y-34507913D01*
X48378220Y-34746839D01*
X48378100Y-34764039D01*
X48378100Y-34775961D01*
X48401561Y-35015238D01*
X48471052Y-35245402D01*
X48583924Y-35457684D01*
X48735880Y-35644000D01*
X48921130Y-35797252D01*
X49132620Y-35911604D01*
X49362292Y-35982700D01*
X49601400Y-36007831D01*
X49840835Y-35986041D01*
X50071478Y-35918159D01*
X50284543Y-35806771D01*
X50471915Y-35656120D01*
X50626457Y-35471944D01*
X50742283Y-35261258D01*
X50814980Y-35032087D01*
X50841780Y-34793161D01*
X50841900Y-34775961D01*
X50841900Y-34764039D01*
X50818439Y-34524762D01*
X50748948Y-34294598D01*
X50657335Y-34122299D01*
X51103723Y-34122299D01*
X51017717Y-34278742D01*
X50945020Y-34507913D01*
X50918220Y-34746839D01*
X50918100Y-34764039D01*
X50918100Y-34775961D01*
X50941561Y-35015238D01*
X51011052Y-35245402D01*
X51123924Y-35457684D01*
X51275880Y-35644000D01*
X51461130Y-35797252D01*
X51672620Y-35911604D01*
X51902292Y-35982700D01*
X52141400Y-36007831D01*
X52380835Y-35986041D01*
X52611478Y-35918159D01*
X52824543Y-35806771D01*
X53011915Y-35656120D01*
X53166457Y-35471944D01*
X53282283Y-35261258D01*
X53354980Y-35032087D01*
X53361355Y-34975245D01*
X53475318Y-34975245D01*
X53538699Y-35208274D01*
X53646324Y-35424460D01*
X53794057Y-35615496D01*
X53976220Y-35774040D01*
X54185814Y-35893999D01*
X54414783Y-35970763D01*
X54484755Y-35984682D01*
X54677300Y-35909754D01*
X54677300Y-34782700D01*
X54702700Y-34782700D01*
X54702700Y-35909754D01*
X54895245Y-35984682D01*
X54965217Y-35970763D01*
X55194186Y-35893999D01*
X55403780Y-35774040D01*
X55585943Y-35615496D01*
X55733676Y-35424460D01*
X55841301Y-35208274D01*
X55904682Y-34975245D01*
X55829760Y-34782700D01*
X54702700Y-34782700D01*
X54677300Y-34782700D01*
X53550240Y-34782700D01*
X53475318Y-34975245D01*
X53361355Y-34975245D01*
X53381780Y-34793161D01*
X53381900Y-34775961D01*
X53381900Y-34764039D01*
X53358439Y-34524762D01*
X53288948Y-34294598D01*
X53197335Y-34122299D01*
X53642959Y-34122299D01*
X53538699Y-34331726D01*
X53475318Y-34564755D01*
X53550240Y-34757300D01*
X54677300Y-34757300D01*
X54677300Y-34737300D01*
X54702700Y-34737300D01*
X54702700Y-34757300D01*
X55829760Y-34757300D01*
X55904682Y-34564755D01*
X55841301Y-34331726D01*
X55737041Y-34122299D01*
X56183723Y-34122299D01*
X56097717Y-34278742D01*
X56025020Y-34507913D01*
X55998220Y-34746839D01*
X55998100Y-34764039D01*
X55998100Y-34775961D01*
X56021561Y-35015238D01*
X56091052Y-35245402D01*
X56203924Y-35457684D01*
X56355880Y-35644000D01*
X56541130Y-35797252D01*
X56752620Y-35911604D01*
X56982292Y-35982700D01*
X57221400Y-36007831D01*
X57460835Y-35986041D01*
X57691478Y-35918159D01*
X57904543Y-35806771D01*
X58091915Y-35656120D01*
X58246457Y-35471944D01*
X58362283Y-35261258D01*
X58434980Y-35032087D01*
X58461780Y-34793161D01*
X58461900Y-34775961D01*
X58461900Y-34764039D01*
X58438439Y-34524762D01*
X58368948Y-34294598D01*
X58277335Y-34122299D01*
X58723723Y-34122299D01*
X58637717Y-34278742D01*
X58565020Y-34507913D01*
X58538220Y-34746839D01*
X58538100Y-34764039D01*
X58538100Y-34775961D01*
X58561561Y-35015238D01*
X58631052Y-35245402D01*
X58743924Y-35457684D01*
X58895880Y-35644000D01*
X59081130Y-35797252D01*
X59292620Y-35911604D01*
X59522292Y-35982700D01*
X59761400Y-36007831D01*
X60000835Y-35986041D01*
X60231478Y-35918159D01*
X60444543Y-35806771D01*
X60631915Y-35656120D01*
X60786457Y-35471944D01*
X60902283Y-35261258D01*
X60974980Y-35032087D01*
X61001780Y-34793161D01*
X61001900Y-34775961D01*
X61001900Y-34764039D01*
X60978439Y-34524762D01*
X60908948Y-34294598D01*
X60817335Y-34122299D01*
X61263723Y-34122299D01*
X61177717Y-34278742D01*
X61105020Y-34507913D01*
X61078220Y-34746839D01*
X61078100Y-34764039D01*
X61078100Y-34775961D01*
X61101561Y-35015238D01*
X61171052Y-35245402D01*
X61283924Y-35457684D01*
X61435880Y-35644000D01*
X61621130Y-35797252D01*
X61832620Y-35911604D01*
X62062292Y-35982700D01*
X62301400Y-36007831D01*
X62540835Y-35986041D01*
X62771478Y-35918159D01*
X62920544Y-35840229D01*
X62903959Y-35878925D01*
X62878586Y-35998297D01*
X62876882Y-36120325D01*
X62898912Y-36240359D01*
X62943838Y-36353828D01*
X63009948Y-36456411D01*
X63094723Y-36544198D01*
X63194936Y-36613848D01*
X63306768Y-36662706D01*
X63425961Y-36688912D01*
X63547973Y-36691468D01*
X63668159Y-36670276D01*
X63781939Y-36626144D01*
X63884980Y-36560752D01*
X63973357Y-36476591D01*
X64043705Y-36376867D01*
X64093343Y-36265379D01*
X64120380Y-36146372D01*
X64122327Y-36006980D01*
X64098622Y-35887265D01*
X64052117Y-35774434D01*
X63984581Y-35672785D01*
X63944500Y-35632423D01*
X63944500Y-35605524D01*
X63975880Y-35644000D01*
X64161130Y-35797252D01*
X64372620Y-35911604D01*
X64602292Y-35982700D01*
X64841400Y-36007831D01*
X65080835Y-35986041D01*
X65311478Y-35918159D01*
X65524543Y-35806771D01*
X65711915Y-35656120D01*
X65866457Y-35471944D01*
X65982283Y-35261258D01*
X66054980Y-35032087D01*
X66081780Y-34793161D01*
X66081900Y-34775961D01*
X66081900Y-34764039D01*
X66158100Y-34764039D01*
X66158100Y-34775961D01*
X66181561Y-35015238D01*
X66251052Y-35245402D01*
X66363924Y-35457684D01*
X66515880Y-35644000D01*
X66701130Y-35797252D01*
X66912620Y-35911604D01*
X67142292Y-35982700D01*
X67381400Y-36007831D01*
X67620835Y-35986041D01*
X67851478Y-35918159D01*
X68064543Y-35806771D01*
X68251915Y-35656120D01*
X68406457Y-35471944D01*
X68522283Y-35261258D01*
X68594980Y-35032087D01*
X68621780Y-34793161D01*
X68621900Y-34775961D01*
X68621900Y-34764039D01*
X68698100Y-34764039D01*
X68698100Y-34775961D01*
X68721561Y-35015238D01*
X68791052Y-35245402D01*
X68903924Y-35457684D01*
X69055880Y-35644000D01*
X69241130Y-35797252D01*
X69452620Y-35911604D01*
X69682292Y-35982700D01*
X69921400Y-36007831D01*
X70160835Y-35986041D01*
X70391478Y-35918159D01*
X70604543Y-35806771D01*
X70791915Y-35656120D01*
X70946457Y-35471944D01*
X71062283Y-35261258D01*
X71134980Y-35032087D01*
X71161780Y-34793161D01*
X71161900Y-34775961D01*
X71161900Y-34764039D01*
X71238100Y-34764039D01*
X71238100Y-34775961D01*
X71261561Y-35015238D01*
X71331052Y-35245402D01*
X71443924Y-35457684D01*
X71595880Y-35644000D01*
X71781130Y-35797252D01*
X71992620Y-35911604D01*
X72222292Y-35982700D01*
X72461400Y-36007831D01*
X72700835Y-35986041D01*
X72931478Y-35918159D01*
X73144543Y-35806771D01*
X73331915Y-35656120D01*
X73486457Y-35471944D01*
X73602283Y-35261258D01*
X73674980Y-35032087D01*
X73701780Y-34793161D01*
X73701900Y-34775961D01*
X73701900Y-34764039D01*
X73778100Y-34764039D01*
X73778100Y-34775961D01*
X73801561Y-35015238D01*
X73871052Y-35245402D01*
X73983924Y-35457684D01*
X74135880Y-35644000D01*
X74321130Y-35797252D01*
X74532620Y-35911604D01*
X74762292Y-35982700D01*
X75001400Y-36007831D01*
X75240835Y-35986041D01*
X75471478Y-35918159D01*
X75684543Y-35806771D01*
X75871915Y-35656120D01*
X76026457Y-35471944D01*
X76142283Y-35261258D01*
X76214980Y-35032087D01*
X76241780Y-34793161D01*
X76241900Y-34775961D01*
X76241900Y-34764039D01*
X76318100Y-34764039D01*
X76318100Y-34775961D01*
X76341561Y-35015238D01*
X76411052Y-35245402D01*
X76523924Y-35457684D01*
X76675880Y-35644000D01*
X76861130Y-35797252D01*
X77072620Y-35911604D01*
X77302292Y-35982700D01*
X77541400Y-36007831D01*
X77780835Y-35986041D01*
X78011478Y-35918159D01*
X78224543Y-35806771D01*
X78411915Y-35656120D01*
X78566457Y-35471944D01*
X78682283Y-35261258D01*
X78754980Y-35032087D01*
X78781780Y-34793161D01*
X78781900Y-34775961D01*
X78781900Y-34764039D01*
X78858100Y-34764039D01*
X78858100Y-34775961D01*
X78881561Y-35015238D01*
X78951052Y-35245402D01*
X79063924Y-35457684D01*
X79215880Y-35644000D01*
X79401130Y-35797252D01*
X79612620Y-35911604D01*
X79842292Y-35982700D01*
X80081400Y-36007831D01*
X80320835Y-35986041D01*
X80551478Y-35918159D01*
X80764543Y-35806771D01*
X80951915Y-35656120D01*
X81106457Y-35471944D01*
X81222283Y-35261258D01*
X81294980Y-35032087D01*
X81321780Y-34793161D01*
X81321900Y-34775961D01*
X81321900Y-34764039D01*
X81298439Y-34524762D01*
X81228948Y-34294598D01*
X81116076Y-34082316D01*
X80964120Y-33896000D01*
X80778870Y-33742748D01*
X80567380Y-33628396D01*
X80337708Y-33557300D01*
X80098600Y-33532169D01*
X79859165Y-33553959D01*
X79628522Y-33621841D01*
X79415457Y-33733229D01*
X79228085Y-33883880D01*
X79073543Y-34068056D01*
X78957717Y-34278742D01*
X78885020Y-34507913D01*
X78858220Y-34746839D01*
X78858100Y-34764039D01*
X78781900Y-34764039D01*
X78758439Y-34524762D01*
X78688948Y-34294598D01*
X78576076Y-34082316D01*
X78424120Y-33896000D01*
X78238870Y-33742748D01*
X78027380Y-33628396D01*
X77797708Y-33557300D01*
X77558600Y-33532169D01*
X77319165Y-33553959D01*
X77088522Y-33621841D01*
X76875457Y-33733229D01*
X76688085Y-33883880D01*
X76533543Y-34068056D01*
X76417717Y-34278742D01*
X76345020Y-34507913D01*
X76318220Y-34746839D01*
X76318100Y-34764039D01*
X76241900Y-34764039D01*
X76218439Y-34524762D01*
X76148948Y-34294598D01*
X76036076Y-34082316D01*
X75884120Y-33896000D01*
X75698870Y-33742748D01*
X75487380Y-33628396D01*
X75257708Y-33557300D01*
X75018600Y-33532169D01*
X74779165Y-33553959D01*
X74548522Y-33621841D01*
X74335457Y-33733229D01*
X74148085Y-33883880D01*
X73993543Y-34068056D01*
X73877717Y-34278742D01*
X73805020Y-34507913D01*
X73778220Y-34746839D01*
X73778100Y-34764039D01*
X73701900Y-34764039D01*
X73678439Y-34524762D01*
X73608948Y-34294598D01*
X73496076Y-34082316D01*
X73344120Y-33896000D01*
X73158870Y-33742748D01*
X72947380Y-33628396D01*
X72717708Y-33557300D01*
X72478600Y-33532169D01*
X72239165Y-33553959D01*
X72008522Y-33621841D01*
X71795457Y-33733229D01*
X71608085Y-33883880D01*
X71453543Y-34068056D01*
X71337717Y-34278742D01*
X71265020Y-34507913D01*
X71238220Y-34746839D01*
X71238100Y-34764039D01*
X71161900Y-34764039D01*
X71138439Y-34524762D01*
X71068948Y-34294598D01*
X70956076Y-34082316D01*
X70804120Y-33896000D01*
X70618870Y-33742748D01*
X70407380Y-33628396D01*
X70177708Y-33557300D01*
X69938600Y-33532169D01*
X69699165Y-33553959D01*
X69468522Y-33621841D01*
X69255457Y-33733229D01*
X69068085Y-33883880D01*
X68913543Y-34068056D01*
X68797717Y-34278742D01*
X68725020Y-34507913D01*
X68698220Y-34746839D01*
X68698100Y-34764039D01*
X68621900Y-34764039D01*
X68598439Y-34524762D01*
X68528948Y-34294598D01*
X68416076Y-34082316D01*
X68264120Y-33896000D01*
X68078870Y-33742748D01*
X67867380Y-33628396D01*
X67637708Y-33557300D01*
X67398600Y-33532169D01*
X67159165Y-33553959D01*
X66928522Y-33621841D01*
X66715457Y-33733229D01*
X66528085Y-33883880D01*
X66373543Y-34068056D01*
X66257717Y-34278742D01*
X66185020Y-34507913D01*
X66158220Y-34746839D01*
X66158100Y-34764039D01*
X66081900Y-34764039D01*
X66058439Y-34524762D01*
X65988948Y-34294598D01*
X65876076Y-34082316D01*
X65724120Y-33896000D01*
X65538870Y-33742748D01*
X65327380Y-33628396D01*
X65097708Y-33557300D01*
X64858600Y-33532169D01*
X64619165Y-33553959D01*
X64388522Y-33621841D01*
X64175457Y-33733229D01*
X63988085Y-33883880D01*
X63839994Y-34060368D01*
X63818667Y-34033652D01*
X63815457Y-34030397D01*
X63815404Y-34030332D01*
X63815343Y-34030282D01*
X63814309Y-34029233D01*
X63148566Y-33363490D01*
X63116806Y-33337402D01*
X63085385Y-33311036D01*
X63083339Y-33309911D01*
X63081531Y-33308426D01*
X63045334Y-33289018D01*
X63009364Y-33269243D01*
X63007135Y-33268536D01*
X63005076Y-33267432D01*
X62989604Y-33262702D01*
X63171915Y-33116120D01*
X63326457Y-32931944D01*
X63442283Y-32721258D01*
X63514980Y-32492087D01*
X63541780Y-32253161D01*
X63541900Y-32235961D01*
X63541900Y-32224039D01*
X63618100Y-32224039D01*
X63618100Y-32235961D01*
X63641561Y-32475238D01*
X63711052Y-32705402D01*
X63823924Y-32917684D01*
X63975880Y-33104000D01*
X64161130Y-33257252D01*
X64372620Y-33371604D01*
X64602292Y-33442700D01*
X64841400Y-33467831D01*
X65080835Y-33446041D01*
X65311478Y-33378159D01*
X65524543Y-33266771D01*
X65711915Y-33116120D01*
X65866457Y-32931944D01*
X65982283Y-32721258D01*
X66054980Y-32492087D01*
X66081780Y-32253161D01*
X66081900Y-32235961D01*
X66081900Y-32224039D01*
X66158100Y-32224039D01*
X66158100Y-32235961D01*
X66181561Y-32475238D01*
X66251052Y-32705402D01*
X66363924Y-32917684D01*
X66515880Y-33104000D01*
X66701130Y-33257252D01*
X66912620Y-33371604D01*
X67142292Y-33442700D01*
X67381400Y-33467831D01*
X67620835Y-33446041D01*
X67851478Y-33378159D01*
X68064543Y-33266771D01*
X68251915Y-33116120D01*
X68406457Y-32931944D01*
X68522283Y-32721258D01*
X68594980Y-32492087D01*
X68621780Y-32253161D01*
X68621900Y-32235961D01*
X68621900Y-32224039D01*
X68698100Y-32224039D01*
X68698100Y-32235961D01*
X68721561Y-32475238D01*
X68791052Y-32705402D01*
X68903924Y-32917684D01*
X69055880Y-33104000D01*
X69241130Y-33257252D01*
X69452620Y-33371604D01*
X69682292Y-33442700D01*
X69921400Y-33467831D01*
X70160835Y-33446041D01*
X70391478Y-33378159D01*
X70604543Y-33266771D01*
X70791915Y-33116120D01*
X70946457Y-32931944D01*
X71062283Y-32721258D01*
X71134980Y-32492087D01*
X71161780Y-32253161D01*
X71161900Y-32235961D01*
X71161900Y-32224039D01*
X71238100Y-32224039D01*
X71238100Y-32235961D01*
X71261561Y-32475238D01*
X71331052Y-32705402D01*
X71443924Y-32917684D01*
X71595880Y-33104000D01*
X71781130Y-33257252D01*
X71992620Y-33371604D01*
X72222292Y-33442700D01*
X72461400Y-33467831D01*
X72700835Y-33446041D01*
X72931478Y-33378159D01*
X73144543Y-33266771D01*
X73331915Y-33116120D01*
X73486457Y-32931944D01*
X73602283Y-32721258D01*
X73674980Y-32492087D01*
X73701780Y-32253161D01*
X73701900Y-32235961D01*
X73701900Y-32224039D01*
X73778100Y-32224039D01*
X73778100Y-32235961D01*
X73801561Y-32475238D01*
X73871052Y-32705402D01*
X73983924Y-32917684D01*
X74135880Y-33104000D01*
X74321130Y-33257252D01*
X74532620Y-33371604D01*
X74762292Y-33442700D01*
X75001400Y-33467831D01*
X75240835Y-33446041D01*
X75471478Y-33378159D01*
X75684543Y-33266771D01*
X75871915Y-33116120D01*
X76026457Y-32931944D01*
X76142283Y-32721258D01*
X76214980Y-32492087D01*
X76241780Y-32253161D01*
X76241900Y-32235961D01*
X76241900Y-32224039D01*
X76318100Y-32224039D01*
X76318100Y-32235961D01*
X76341561Y-32475238D01*
X76411052Y-32705402D01*
X76523924Y-32917684D01*
X76675880Y-33104000D01*
X76861130Y-33257252D01*
X77072620Y-33371604D01*
X77302292Y-33442700D01*
X77541400Y-33467831D01*
X77780835Y-33446041D01*
X78011478Y-33378159D01*
X78224543Y-33266771D01*
X78411915Y-33116120D01*
X78566457Y-32931944D01*
X78682283Y-32721258D01*
X78754980Y-32492087D01*
X78781780Y-32253161D01*
X78781900Y-32235961D01*
X78781900Y-32224039D01*
X78858100Y-32224039D01*
X78858100Y-32235961D01*
X78881561Y-32475238D01*
X78951052Y-32705402D01*
X79063924Y-32917684D01*
X79215880Y-33104000D01*
X79401130Y-33257252D01*
X79612620Y-33371604D01*
X79842292Y-33442700D01*
X80081400Y-33467831D01*
X80320835Y-33446041D01*
X80551478Y-33378159D01*
X80764543Y-33266771D01*
X80951915Y-33116120D01*
X81106457Y-32931944D01*
X81222283Y-32721258D01*
X81294980Y-32492087D01*
X81321780Y-32253161D01*
X81321900Y-32235961D01*
X81321900Y-32224039D01*
X81298439Y-31984762D01*
X81228948Y-31754598D01*
X81116076Y-31542316D01*
X80964120Y-31356000D01*
X80778870Y-31202748D01*
X80567380Y-31088396D01*
X80337708Y-31017300D01*
X80098600Y-30992169D01*
X79859165Y-31013959D01*
X79628522Y-31081841D01*
X79415457Y-31193229D01*
X79228085Y-31343880D01*
X79073543Y-31528056D01*
X78957717Y-31738742D01*
X78885020Y-31967913D01*
X78858220Y-32206839D01*
X78858100Y-32224039D01*
X78781900Y-32224039D01*
X78758439Y-31984762D01*
X78688948Y-31754598D01*
X78576076Y-31542316D01*
X78424120Y-31356000D01*
X78238870Y-31202748D01*
X78027380Y-31088396D01*
X77797708Y-31017300D01*
X77558600Y-30992169D01*
X77319165Y-31013959D01*
X77088522Y-31081841D01*
X76875457Y-31193229D01*
X76688085Y-31343880D01*
X76533543Y-31528056D01*
X76417717Y-31738742D01*
X76345020Y-31967913D01*
X76318220Y-32206839D01*
X76318100Y-32224039D01*
X76241900Y-32224039D01*
X76218439Y-31984762D01*
X76148948Y-31754598D01*
X76036076Y-31542316D01*
X75884120Y-31356000D01*
X75698870Y-31202748D01*
X75487380Y-31088396D01*
X75257708Y-31017300D01*
X75018600Y-30992169D01*
X74779165Y-31013959D01*
X74548522Y-31081841D01*
X74335457Y-31193229D01*
X74148085Y-31343880D01*
X73993543Y-31528056D01*
X73877717Y-31738742D01*
X73805020Y-31967913D01*
X73778220Y-32206839D01*
X73778100Y-32224039D01*
X73701900Y-32224039D01*
X73678439Y-31984762D01*
X73608948Y-31754598D01*
X73496076Y-31542316D01*
X73344120Y-31356000D01*
X73158870Y-31202748D01*
X72947380Y-31088396D01*
X72717708Y-31017300D01*
X72478600Y-30992169D01*
X72239165Y-31013959D01*
X72008522Y-31081841D01*
X71795457Y-31193229D01*
X71608085Y-31343880D01*
X71453543Y-31528056D01*
X71337717Y-31738742D01*
X71265020Y-31967913D01*
X71238220Y-32206839D01*
X71238100Y-32224039D01*
X71161900Y-32224039D01*
X71138439Y-31984762D01*
X71068948Y-31754598D01*
X70956076Y-31542316D01*
X70804120Y-31356000D01*
X70618870Y-31202748D01*
X70407380Y-31088396D01*
X70177708Y-31017300D01*
X69938600Y-30992169D01*
X69699165Y-31013959D01*
X69468522Y-31081841D01*
X69255457Y-31193229D01*
X69068085Y-31343880D01*
X68913543Y-31528056D01*
X68797717Y-31738742D01*
X68725020Y-31967913D01*
X68698220Y-32206839D01*
X68698100Y-32224039D01*
X68621900Y-32224039D01*
X68598439Y-31984762D01*
X68528948Y-31754598D01*
X68416076Y-31542316D01*
X68264120Y-31356000D01*
X68078870Y-31202748D01*
X67867380Y-31088396D01*
X67637708Y-31017300D01*
X67398600Y-30992169D01*
X67159165Y-31013959D01*
X66928522Y-31081841D01*
X66715457Y-31193229D01*
X66528085Y-31343880D01*
X66373543Y-31528056D01*
X66257717Y-31738742D01*
X66185020Y-31967913D01*
X66158220Y-32206839D01*
X66158100Y-32224039D01*
X66081900Y-32224039D01*
X66058439Y-31984762D01*
X65988948Y-31754598D01*
X65876076Y-31542316D01*
X65724120Y-31356000D01*
X65538870Y-31202748D01*
X65327380Y-31088396D01*
X65097708Y-31017300D01*
X64858600Y-30992169D01*
X64619165Y-31013959D01*
X64388522Y-31081841D01*
X64175457Y-31193229D01*
X63988085Y-31343880D01*
X63833543Y-31528056D01*
X63717717Y-31738742D01*
X63645020Y-31967913D01*
X63618220Y-32206839D01*
X63618100Y-32224039D01*
X63541900Y-32224039D01*
X63518439Y-31984762D01*
X63448948Y-31754598D01*
X63336076Y-31542316D01*
X63184120Y-31356000D01*
X62998870Y-31202748D01*
X62787380Y-31088396D01*
X62557708Y-31017300D01*
X62318600Y-30992169D01*
X62079165Y-31013959D01*
X61848522Y-31081841D01*
X61635457Y-31193229D01*
X61448085Y-31343880D01*
X61293543Y-31528056D01*
X61177717Y-31738742D01*
X61105020Y-31967913D01*
X61078220Y-32206839D01*
X61078100Y-32224039D01*
X61078100Y-32235961D01*
X61101561Y-32475238D01*
X61171052Y-32705402D01*
X61283924Y-32917684D01*
X61435880Y-33104000D01*
X61592176Y-33233299D01*
X60486174Y-33233299D01*
X60631915Y-33116120D01*
X60786457Y-32931944D01*
X60902283Y-32721258D01*
X60974980Y-32492087D01*
X61001780Y-32253161D01*
X61001900Y-32235961D01*
X61001900Y-32224039D01*
X60978439Y-31984762D01*
X60908948Y-31754598D01*
X60796076Y-31542316D01*
X60644120Y-31356000D01*
X60458870Y-31202748D01*
X60247380Y-31088396D01*
X60017708Y-31017300D01*
X59778600Y-30992169D01*
X59539165Y-31013959D01*
X59308522Y-31081841D01*
X59095457Y-31193229D01*
X58908085Y-31343880D01*
X58753543Y-31528056D01*
X58637717Y-31738742D01*
X58565020Y-31967913D01*
X58538220Y-32206839D01*
X58538100Y-32224039D01*
X58538100Y-32235961D01*
X58561561Y-32475238D01*
X58631052Y-32705402D01*
X58743924Y-32917684D01*
X58895880Y-33104000D01*
X59052176Y-33233299D01*
X57946174Y-33233299D01*
X58091915Y-33116120D01*
X58246457Y-32931944D01*
X58362283Y-32721258D01*
X58434980Y-32492087D01*
X58461780Y-32253161D01*
X58461900Y-32235961D01*
X58461900Y-32224039D01*
X58438439Y-31984762D01*
X58368948Y-31754598D01*
X58256076Y-31542316D01*
X58104120Y-31356000D01*
X57918870Y-31202748D01*
X57707380Y-31088396D01*
X57477708Y-31017300D01*
X57238600Y-30992169D01*
X56999165Y-31013959D01*
X56768522Y-31081841D01*
X56555457Y-31193229D01*
X56368085Y-31343880D01*
X56213543Y-31528056D01*
X56097717Y-31738742D01*
X56025020Y-31967913D01*
X55998220Y-32206839D01*
X55998100Y-32224039D01*
X55998100Y-32235961D01*
X56021561Y-32475238D01*
X56091052Y-32705402D01*
X56203924Y-32917684D01*
X56355880Y-33104000D01*
X56512176Y-33233299D01*
X55406174Y-33233299D01*
X55551915Y-33116120D01*
X55706457Y-32931944D01*
X55822283Y-32721258D01*
X55894980Y-32492087D01*
X55921780Y-32253161D01*
X55921900Y-32235961D01*
X55921900Y-32224039D01*
X55898439Y-31984762D01*
X55828948Y-31754598D01*
X55716076Y-31542316D01*
X55564120Y-31356000D01*
X55378870Y-31202748D01*
X55167380Y-31088396D01*
X54937708Y-31017300D01*
X54698600Y-30992169D01*
X54459165Y-31013959D01*
X54228522Y-31081841D01*
X54015457Y-31193229D01*
X53828085Y-31343880D01*
X53673543Y-31528056D01*
X53557717Y-31738742D01*
X53485020Y-31967913D01*
X53458220Y-32206839D01*
X53458100Y-32224039D01*
X53458100Y-32235961D01*
X53481561Y-32475238D01*
X53551052Y-32705402D01*
X53663924Y-32917684D01*
X53815880Y-33104000D01*
X53972176Y-33233299D01*
X52866174Y-33233299D01*
X53011915Y-33116120D01*
X53166457Y-32931944D01*
X53282283Y-32721258D01*
X53354980Y-32492087D01*
X53381780Y-32253161D01*
X53381900Y-32235961D01*
X53381900Y-32224039D01*
X53358439Y-31984762D01*
X53288948Y-31754598D01*
X53176076Y-31542316D01*
X53024120Y-31356000D01*
X52838870Y-31202748D01*
X52627380Y-31088396D01*
X52397708Y-31017300D01*
X52158600Y-30992169D01*
X51919165Y-31013959D01*
X51688522Y-31081841D01*
X51475457Y-31193229D01*
X51288085Y-31343880D01*
X51133543Y-31528056D01*
X51017717Y-31738742D01*
X50945020Y-31967913D01*
X50918220Y-32206839D01*
X50918100Y-32224039D01*
X50918100Y-32235961D01*
X50941561Y-32475238D01*
X51011052Y-32705402D01*
X51123924Y-32917684D01*
X51275880Y-33104000D01*
X51432176Y-33233299D01*
X50326174Y-33233299D01*
X50471915Y-33116120D01*
X50626457Y-32931944D01*
X50742283Y-32721258D01*
X50814980Y-32492087D01*
X50841780Y-32253161D01*
X50841900Y-32235961D01*
X50841900Y-32224039D01*
X50818439Y-31984762D01*
X50748948Y-31754598D01*
X50636076Y-31542316D01*
X50484120Y-31356000D01*
X50298870Y-31202748D01*
X50087380Y-31088396D01*
X49857708Y-31017300D01*
X49618600Y-30992169D01*
X49379165Y-31013959D01*
X49148522Y-31081841D01*
X48935457Y-31193229D01*
X48748085Y-31343880D01*
X48593543Y-31528056D01*
X48477717Y-31738742D01*
X48405020Y-31967913D01*
X48378220Y-32206839D01*
X48378100Y-32224039D01*
X48378100Y-32235961D01*
X48401561Y-32475238D01*
X48471052Y-32705402D01*
X48583924Y-32917684D01*
X48735880Y-33104000D01*
X48892176Y-33233299D01*
X47786174Y-33233299D01*
X47931915Y-33116120D01*
X48086457Y-32931944D01*
X48202283Y-32721258D01*
X48274980Y-32492087D01*
X48301780Y-32253161D01*
X48301900Y-32235961D01*
X48301900Y-32224039D01*
X48278439Y-31984762D01*
X48208948Y-31754598D01*
X48096076Y-31542316D01*
X47944120Y-31356000D01*
X47758870Y-31202748D01*
X47547380Y-31088396D01*
X47317708Y-31017300D01*
X47078600Y-30992169D01*
X46839165Y-31013959D01*
X46608522Y-31081841D01*
X46395457Y-31193229D01*
X46208085Y-31343880D01*
X46053543Y-31528056D01*
X45937717Y-31738742D01*
X45865020Y-31967913D01*
X45838220Y-32206839D01*
X45838100Y-32224039D01*
X45838100Y-32235961D01*
X45861561Y-32475238D01*
X45931052Y-32705402D01*
X46043924Y-32917684D01*
X46195880Y-33104000D01*
X46352176Y-33233299D01*
X45246174Y-33233299D01*
X45391915Y-33116120D01*
X45546457Y-32931944D01*
X45662283Y-32721258D01*
X45734980Y-32492087D01*
X45761780Y-32253161D01*
X45761900Y-32235961D01*
X45761900Y-32224039D01*
X45738439Y-31984762D01*
X45668948Y-31754598D01*
X45556076Y-31542316D01*
X45404120Y-31356000D01*
X45218870Y-31202748D01*
X45007380Y-31088396D01*
X44777708Y-31017300D01*
X44538600Y-30992169D01*
X44299165Y-31013959D01*
X44068522Y-31081841D01*
X43855457Y-31193229D01*
X43668085Y-31343880D01*
X43513543Y-31528056D01*
X43397717Y-31738742D01*
X43325020Y-31967913D01*
X43298220Y-32206839D01*
X43298100Y-32224039D01*
X43298100Y-32235961D01*
X43321561Y-32475238D01*
X43391052Y-32705402D01*
X43503924Y-32917684D01*
X43655880Y-33104000D01*
X43812176Y-33233299D01*
X42706174Y-33233299D01*
X42851915Y-33116120D01*
X43006457Y-32931944D01*
X43122283Y-32721258D01*
X43194980Y-32492087D01*
X43221780Y-32253161D01*
X43221900Y-32235961D01*
X43221900Y-32224039D01*
X43198439Y-31984762D01*
X43128948Y-31754598D01*
X43016076Y-31542316D01*
X42864120Y-31356000D01*
X42678870Y-31202748D01*
X42467380Y-31088396D01*
X42237708Y-31017300D01*
X41998600Y-30992169D01*
X41759165Y-31013959D01*
X41528522Y-31081841D01*
X41315457Y-31193229D01*
X41128085Y-31343880D01*
X40973543Y-31528056D01*
X40857717Y-31738742D01*
X40785020Y-31967913D01*
X40758220Y-32206839D01*
X40758100Y-32224039D01*
X40758100Y-32235961D01*
X40781561Y-32475238D01*
X40851052Y-32705402D01*
X40963924Y-32917684D01*
X41115880Y-33104000D01*
X41272176Y-33233299D01*
X40166174Y-33233299D01*
X40311915Y-33116120D01*
X40466457Y-32931944D01*
X40582283Y-32721258D01*
X40654980Y-32492087D01*
X40681780Y-32253161D01*
X40681900Y-32235961D01*
X40681900Y-32224039D01*
X40658439Y-31984762D01*
X40588948Y-31754598D01*
X40476076Y-31542316D01*
X40324120Y-31356000D01*
X40138870Y-31202748D01*
X39927380Y-31088396D01*
X39697708Y-31017300D01*
X39458600Y-30992169D01*
X39219165Y-31013959D01*
X38988522Y-31081841D01*
X38775457Y-31193229D01*
X38588085Y-31343880D01*
X38433543Y-31528056D01*
X38317717Y-31738742D01*
X38245020Y-31967913D01*
X38218220Y-32206839D01*
X38218100Y-32224039D01*
X38218100Y-32235961D01*
X38241561Y-32475238D01*
X38311052Y-32705402D01*
X38423924Y-32917684D01*
X38575880Y-33104000D01*
X38732176Y-33233299D01*
X38002201Y-33233299D01*
X37961300Y-33237309D01*
X37920435Y-33240884D01*
X37918192Y-33241536D01*
X37915864Y-33241764D01*
X37876532Y-33253639D01*
X37837128Y-33265087D01*
X37835054Y-33266162D01*
X37832815Y-33266838D01*
X37796553Y-33286119D01*
X37760109Y-33305010D01*
X37758282Y-33306469D01*
X37756218Y-33307566D01*
X37724414Y-33333505D01*
X37692311Y-33359132D01*
X37689056Y-33362342D01*
X37688991Y-33362395D01*
X37688941Y-33362456D01*
X37687892Y-33363490D01*
X37410490Y-33640892D01*
X37387380Y-33628396D01*
X37157708Y-33557300D01*
X36918600Y-33532169D01*
X36679165Y-33553959D01*
X36448522Y-33621841D01*
X36235457Y-33733229D01*
X36048085Y-33883880D01*
X35893543Y-34068056D01*
X35777717Y-34278742D01*
X35705020Y-34507913D01*
X35678220Y-34746839D01*
X35678100Y-34764039D01*
X32455853Y-34764039D01*
X32564730Y-34519500D01*
X32704385Y-33904808D01*
X32704869Y-33870126D01*
X33138100Y-33870126D01*
X33138100Y-34665225D01*
X33230175Y-34757300D01*
X34357300Y-34757300D01*
X34357300Y-33630175D01*
X34382700Y-33630175D01*
X34382700Y-34757300D01*
X35509825Y-34757300D01*
X35601900Y-34665225D01*
X35601900Y-33870126D01*
X35587747Y-33798971D01*
X35559983Y-33731945D01*
X35519678Y-33671623D01*
X35468378Y-33620323D01*
X35408056Y-33580017D01*
X35341030Y-33552254D01*
X35269875Y-33538100D01*
X34474775Y-33538100D01*
X34382700Y-33630175D01*
X34357300Y-33630175D01*
X34265225Y-33538100D01*
X33470125Y-33538100D01*
X33398970Y-33552254D01*
X33331944Y-33580017D01*
X33271622Y-33620323D01*
X33220322Y-33671623D01*
X33180017Y-33731945D01*
X33152253Y-33798971D01*
X33138100Y-33870126D01*
X32704869Y-33870126D01*
X32714438Y-33184822D01*
X32592001Y-32566470D01*
X32450862Y-32224039D01*
X33138100Y-32224039D01*
X33138100Y-32235961D01*
X33161561Y-32475238D01*
X33231052Y-32705402D01*
X33343924Y-32917684D01*
X33495880Y-33104000D01*
X33681130Y-33257252D01*
X33892620Y-33371604D01*
X34122292Y-33442700D01*
X34361400Y-33467831D01*
X34600835Y-33446041D01*
X34831478Y-33378159D01*
X35044543Y-33266771D01*
X35231915Y-33116120D01*
X35386457Y-32931944D01*
X35502283Y-32721258D01*
X35574980Y-32492087D01*
X35601780Y-32253161D01*
X35601900Y-32235961D01*
X35601900Y-32224039D01*
X35678100Y-32224039D01*
X35678100Y-32235961D01*
X35701561Y-32475238D01*
X35771052Y-32705402D01*
X35883924Y-32917684D01*
X36035880Y-33104000D01*
X36221130Y-33257252D01*
X36432620Y-33371604D01*
X36662292Y-33442700D01*
X36901400Y-33467831D01*
X37140835Y-33446041D01*
X37371478Y-33378159D01*
X37584543Y-33266771D01*
X37771915Y-33116120D01*
X37926457Y-32931944D01*
X38042283Y-32721258D01*
X38114980Y-32492087D01*
X38141780Y-32253161D01*
X38141900Y-32235961D01*
X38141900Y-32224039D01*
X38118439Y-31984762D01*
X38048948Y-31754598D01*
X37936076Y-31542316D01*
X37784120Y-31356000D01*
X37598870Y-31202748D01*
X37387380Y-31088396D01*
X37157708Y-31017300D01*
X36918600Y-30992169D01*
X36679165Y-31013959D01*
X36448522Y-31081841D01*
X36235457Y-31193229D01*
X36048085Y-31343880D01*
X35893543Y-31528056D01*
X35777717Y-31738742D01*
X35705020Y-31967913D01*
X35678220Y-32206839D01*
X35678100Y-32224039D01*
X35601900Y-32224039D01*
X35578439Y-31984762D01*
X35508948Y-31754598D01*
X35396076Y-31542316D01*
X35244120Y-31356000D01*
X35058870Y-31202748D01*
X34847380Y-31088396D01*
X34617708Y-31017300D01*
X34378600Y-30992169D01*
X34139165Y-31013959D01*
X33908522Y-31081841D01*
X33695457Y-31193229D01*
X33508085Y-31343880D01*
X33353543Y-31528056D01*
X33237717Y-31738742D01*
X33165020Y-31967913D01*
X33138220Y-32206839D01*
X33138100Y-32224039D01*
X32450862Y-32224039D01*
X32351791Y-31983676D01*
X32002957Y-31458638D01*
X31558786Y-31011355D01*
X31036196Y-30658864D01*
X30463917Y-30418300D01*
X42768933Y-30418300D01*
X42759036Y-30432754D01*
D36*
G36*
X85344000Y-80094500D02*
X85016014Y-80415688D01*
X84658476Y-80937859D01*
X84409171Y-81519531D01*
X84379101Y-81661000D01*
X81280000Y-81661000D01*
X81280000Y-64516000D01*
X81277560Y-64491224D01*
X81270333Y-64467399D01*
X81258597Y-64445443D01*
X81242803Y-64426197D01*
X81223557Y-64410403D01*
X81201601Y-64398667D01*
X81177776Y-64391440D01*
X81153000Y-64389000D01*
X78486000Y-64389000D01*
X78486000Y-59182000D01*
X85344000Y-59182000D01*
X85344000Y-80094500D01*
X85344000Y-80094500D01*
G37*
X85344000Y-80094500D02*
X85016014Y-80415688D01*
X84658476Y-80937859D01*
X84409171Y-81519531D01*
X84379101Y-81661000D01*
X81280000Y-81661000D01*
X81280000Y-64516000D01*
X81277560Y-64491224D01*
X81270333Y-64467399D01*
X81258597Y-64445443D01*
X81242803Y-64426197D01*
X81223557Y-64410403D01*
X81201601Y-64398667D01*
X81177776Y-64391440D01*
X81153000Y-64389000D01*
X78486000Y-64389000D01*
X78486000Y-59182000D01*
X85344000Y-59182000D01*
X85344000Y-80094500D01*
D44*
G36*
X42303700Y-45212000D02*
X42305896Y-45234299D01*
X42312401Y-45255741D01*
X42322963Y-45275502D01*
X42337178Y-45292822D01*
X42354498Y-45307037D01*
X42374259Y-45317599D01*
X42395701Y-45324104D01*
X42418000Y-45326300D01*
X50177700Y-45326300D01*
X50177700Y-49288690D01*
X43230810Y-49288690D01*
X43189913Y-49292700D01*
X43149043Y-49296275D01*
X43146799Y-49296927D01*
X43144473Y-49297155D01*
X43105167Y-49309022D01*
X43065736Y-49320478D01*
X43063661Y-49321554D01*
X43061424Y-49322229D01*
X43025180Y-49341500D01*
X42988718Y-49360401D01*
X42986891Y-49361860D01*
X42984827Y-49362957D01*
X42953023Y-49388896D01*
X42920920Y-49414523D01*
X42919727Y-49415700D01*
X35928300Y-49415700D01*
X35928300Y-42024300D01*
X42303700Y-42024300D01*
X42303700Y-45212000D01*
X42303700Y-45212000D01*
G37*
X42303700Y-45212000D02*
X42305896Y-45234299D01*
X42312401Y-45255741D01*
X42322963Y-45275502D01*
X42337178Y-45292822D01*
X42354498Y-45307037D01*
X42374259Y-45317599D01*
X42395701Y-45324104D01*
X42418000Y-45326300D01*
X50177700Y-45326300D01*
X50177700Y-49288690D01*
X43230810Y-49288690D01*
X43189913Y-49292700D01*
X43149043Y-49296275D01*
X43146799Y-49296927D01*
X43144473Y-49297155D01*
X43105167Y-49309022D01*
X43065736Y-49320478D01*
X43063661Y-49321554D01*
X43061424Y-49322229D01*
X43025180Y-49341500D01*
X42988718Y-49360401D01*
X42986891Y-49361860D01*
X42984827Y-49362957D01*
X42953023Y-49388896D01*
X42920920Y-49414523D01*
X42919727Y-49415700D01*
X35928300Y-49415700D01*
X35928300Y-42024300D01*
X42303700Y-42024300D01*
X42303700Y-45212000D01*
G36*
X42181948Y-37472411D02*
X42266723Y-37560198D01*
X42366936Y-37629848D01*
X42478768Y-37678706D01*
X42597961Y-37704912D01*
X42719973Y-37707468D01*
X42840159Y-37686276D01*
X42953939Y-37642144D01*
X43056980Y-37576752D01*
X43107649Y-37528500D01*
X50177700Y-37528500D01*
X50177700Y-44589700D01*
X43802300Y-44589700D01*
X43802300Y-41402000D01*
X43800104Y-41379701D01*
X43793599Y-41358259D01*
X43783037Y-41338498D01*
X43768822Y-41321178D01*
X43751502Y-41306963D01*
X43731741Y-41296401D01*
X43710299Y-41289896D01*
X43688000Y-41287700D01*
X35928300Y-41287700D01*
X35928300Y-37452300D01*
X42168987Y-37452300D01*
X42181948Y-37472411D01*
X42181948Y-37472411D01*
G37*
X42181948Y-37472411D02*
X42266723Y-37560198D01*
X42366936Y-37629848D01*
X42478768Y-37678706D01*
X42597961Y-37704912D01*
X42719973Y-37707468D01*
X42840159Y-37686276D01*
X42953939Y-37642144D01*
X43056980Y-37576752D01*
X43107649Y-37528500D01*
X50177700Y-37528500D01*
X50177700Y-44589700D01*
X43802300Y-44589700D01*
X43802300Y-41402000D01*
X43800104Y-41379701D01*
X43793599Y-41358259D01*
X43783037Y-41338498D01*
X43768822Y-41321178D01*
X43751502Y-41306963D01*
X43731741Y-41296401D01*
X43710299Y-41289896D01*
X43688000Y-41287700D01*
X35928300Y-41287700D01*
X35928300Y-37452300D01*
X42168987Y-37452300D01*
X42181948Y-37472411D01*
M02*
