M48
;DRILL file {KiCad (2018-01-11 revision 6f2beeb)-master} date Friday, January 26, 2018 'AMt' 06:46:14 AM
;FORMAT={-:-/ absolute / inch / decimal}
FMAT,2
INCH,TZ
T1C0.0100
T2C0.0118
T3C0.0130
T4C0.0150
T5C0.0250
T6C0.0400
T7C0.0680
T8C0.1083
%
G90
G05
M72
T1
X1.68Y-1.46
X1.705Y-1.21
X2.05Y-1.46
X2.32Y-1.5
X2.5Y-1.42
X2.85Y-1.53
X2.98Y-1.45
X3.02Y-1.475
X3.05Y-1.6696
X3.215Y-1.45
X3.26Y-1.475
X3.375Y-1.7169
X3.53Y-1.63
T2
X1.8041Y-2.2264
X1.8041Y-2.2736
X1.8474Y-2.2264
X1.8474Y-2.2736
X1.8986Y-2.2264
X1.8986Y-2.2736
X1.9459Y-2.2264
X1.9459Y-2.2736
X2.9541Y-2.2264
X2.9541Y-2.2736
X2.9974Y-2.2264
X2.9974Y-2.2736
X3.0486Y-2.2264
X3.0486Y-2.2736
X3.0959Y-2.2264
X3.0959Y-2.2736
X1.2291Y-2.2264
X1.2291Y-2.2736
X1.2724Y-2.2264
X1.2724Y-2.2736
X1.3236Y-2.2264
X1.3236Y-2.2736
X1.3709Y-2.2264
X1.3709Y-2.2736
X2.3791Y-2.2264
X2.3791Y-2.2736
X2.4224Y-2.2264
X2.4224Y-2.2736
X2.4736Y-2.2264
X2.4736Y-2.2736
X2.5209Y-2.2264
X2.5209Y-2.2736
T3
X3.4116Y-1.87
X3.49Y-1.9
T4
X1.44Y-1.68
X1.44Y-1.72
X1.44Y-1.76
X1.48Y-1.68
X1.48Y-1.72
X1.48Y-1.76
X1.48Y-2.43
X1.48Y-2.47
X1.52Y-1.68
X1.52Y-1.72
X1.52Y-1.76
X1.52Y-2.43
X1.52Y-2.47
X1.56Y-1.68
X1.56Y-1.72
X1.56Y-1.76
X1.56Y-2.43
X1.56Y-2.47
X1.6Y-2.43
X1.6Y-2.47
X1.75Y-1.65
X1.75Y-1.69
X1.75Y-1.73
X1.79Y-1.65
X1.79Y-1.69
X1.79Y-1.73
X1.83Y-1.65
X1.83Y-1.69
X1.83Y-1.73
X1.87Y-1.65
X1.87Y-1.69
X1.87Y-1.73
X2.055Y-2.43
X2.055Y-2.47
X2.095Y-2.43
X2.095Y-2.47
X2.135Y-2.43
X2.135Y-2.47
X2.175Y-2.43
X2.175Y-2.47
X2.63Y-2.43
X2.63Y-2.47
X2.67Y-2.43
X2.67Y-2.47
X2.71Y-2.43
X2.71Y-2.47
X2.75Y-2.43
X2.75Y-2.47
X2.87Y-1.7595
X3.21Y-2.43
X3.21Y-2.47
X3.25Y-2.43
X3.25Y-2.47
X3.29Y-2.43
X3.29Y-2.47
X3.3Y-1.735
X3.33Y-2.43
X3.33Y-2.47
T5
X2.325Y-1.58
X2.325Y-1.705
T6
X2.25Y-1.65
X2.25Y-1.75
X2.25Y-1.85
X1.3531Y-1.2689
X1.3531Y-1.3689
X1.4531Y-1.2689
X1.4531Y-1.3689
X1.5531Y-1.2689
X1.5531Y-1.3689
X1.6531Y-1.2689
X1.6531Y-1.3689
X1.7531Y-1.2689
X1.7531Y-1.3689
X1.8531Y-1.2689
X1.8531Y-1.3689
X1.9531Y-1.2689
X1.9531Y-1.3689
X2.0531Y-1.2689
X2.0531Y-1.3689
X2.1531Y-1.2689
X2.1531Y-1.3689
X2.2531Y-1.2689
X2.2531Y-1.3689
X2.3531Y-1.2689
X2.3531Y-1.3689
X2.4531Y-1.2689
X2.4531Y-1.3689
X2.5531Y-1.2689
X2.5531Y-1.3689
X2.6531Y-1.2689
X2.6531Y-1.3689
X2.7531Y-1.2689
X2.7531Y-1.3689
X2.8531Y-1.2689
X2.8531Y-1.3689
X2.9531Y-1.2689
X2.9531Y-1.3689
X3.0531Y-1.2689
X3.0531Y-1.3689
X3.1531Y-1.2689
X3.1531Y-1.3689
X3.2531Y-1.2689
X3.2531Y-1.3689
T7
X1.925Y-3.125
X2.125Y-3.125
X1.35Y-3.125
X1.55Y-3.125
X1.15Y-1.675
X1.15Y-1.875
X3.06Y-3.125
X3.26Y-3.125
X2.5Y-3.125
X2.7Y-3.125
T8
X1.1614Y-1.3189
X1.1614Y-3.248
X3.4449Y-3.248
X3.4449Y-1.3189
T0
M30
